M48
;Layer_Color=9474304
;FILE_FORMAT=2:5
INCH,LZ
;TYPE=PLATED
T1F00S00C0.01200
T2F00S00C0.03543
T3F00S00C0.06890
%
T01
X00145Y00202
X0024908Y0020339
Y0032139
X00145Y0032
Y00438
X0024908Y0043939
Y0055739
X00145Y00556
Y00674
X0024908Y0067538
Y0079339
X00145Y00792
Y0091
X0024908Y0091138
X003678
Y0079339
Y0067538
Y0055739
Y0043939
Y0032139
Y0020339
X0048651
Y0032139
Y0043939
Y0055739
Y0067538
Y0079339
Y0091138
X0060522
Y0079339
Y0067538
Y0055739
Y0043939
Y0032139
Y0020339
X0072394Y0032139
Y0043939
Y0055739
Y0067538
Y0079339
Y0091138
X0084265
Y0079339
Y0067538
Y0055739
Y0043939
Y0032139
X0096137
Y0043939
Y0055739
Y0067538
Y0079339
Y0091138
X0108008
X0108432Y0085252
X0108008Y0079339
X0108432Y0073452
X0108008Y0067538
X0108432Y0061652
X0108008Y0055739
X0108432Y0049852
X0108008Y0043939
X0108432Y0038052
X0108008Y0032139
X0108432Y0026252
X0108008Y0020339
X0108432Y0097052
T02
X0040589Y0109631
X0050589
X0060589
X0070589
X0080589
T03
X0016358Y0109932
X010582
M30
