G04*
G04 #@! TF.GenerationSoftware,Altium Limited,Altium Designer,22.5.1 (42)*
G04*
G04 Layer_Color=65535*
%FSLAX25Y25*%
%MOIN*%
G70*
G04*
G04 #@! TF.SameCoordinates,AC3B2383-AE7F-4156-BF80-1B445AE1BA2C*
G04*
G04*
G04 #@! TF.FilePolarity,Positive*
G04*
G01*
G75*
%ADD10C,0.01000*%
%ADD11C,0.00800*%
G36*
X61951Y105387D02*
X60599Y102569D01*
X60586D01*
X59227Y105387D01*
Y105400D01*
X61951D01*
Y105387D01*
D02*
G37*
G36*
X97678Y107090D02*
X86681D01*
Y112173D01*
X97678D01*
Y107090D01*
D02*
G37*
G36*
X35000D02*
X24063D01*
Y112173D01*
X35000D01*
Y107090D01*
D02*
G37*
%LPC*%
G36*
X96026Y111573D02*
X95966D01*
D01*
X94281D01*
X95966D01*
X95833Y111566D01*
X95706Y111553D01*
X95593Y111533D01*
X95486Y111506D01*
X95406Y111479D01*
X95340Y111460D01*
X95300Y111446D01*
X95293Y111440D01*
X95287D01*
X95173Y111386D01*
X95073Y111326D01*
X94987Y111260D01*
X94907Y111200D01*
X94840Y111140D01*
X94794Y111093D01*
X94767Y111067D01*
X94754Y111053D01*
X94674Y110953D01*
X94607Y110854D01*
X94547Y110747D01*
X94501Y110654D01*
X94461Y110567D01*
X94434Y110501D01*
X94421Y110474D01*
X94414Y110454D01*
X94407Y110447D01*
Y110441D01*
X94367Y110301D01*
X94334Y110161D01*
X94314Y110028D01*
X94294Y109901D01*
X94288Y109788D01*
Y109741D01*
X94281Y109708D01*
Y109628D01*
X94288Y109462D01*
X94301Y109308D01*
X94321Y109169D01*
X94347Y109049D01*
X94367Y108949D01*
X94381Y108909D01*
X94387Y108876D01*
X94394Y108849D01*
X94401Y108829D01*
X94407Y108816D01*
Y108809D01*
X94461Y108676D01*
X94514Y108556D01*
X94574Y108456D01*
X94627Y108363D01*
X94680Y108296D01*
X94720Y108243D01*
X94747Y108210D01*
X94754Y108196D01*
X94840Y108110D01*
X94927Y108036D01*
X95013Y107970D01*
X95093Y107916D01*
X95167Y107870D01*
X95220Y107843D01*
X95260Y107823D01*
X95273Y107817D01*
X95386Y107777D01*
X95500Y107743D01*
X95606Y107723D01*
X95706Y107703D01*
X95793Y107697D01*
X95859Y107690D01*
X94281D01*
X95919D01*
X96059Y107697D01*
X96186Y107710D01*
X96292Y107737D01*
X96392Y107763D01*
X96472Y107783D01*
X96532Y107810D01*
X96565Y107823D01*
X96579Y107830D01*
X96678Y107890D01*
X96772Y107950D01*
X96858Y108016D01*
X96931Y108083D01*
X96991Y108143D01*
X97038Y108189D01*
X97071Y108216D01*
X97078Y108229D01*
X96812Y108522D01*
X96745Y108449D01*
X96678Y108389D01*
X96612Y108336D01*
X96552Y108289D01*
X96499Y108256D01*
X96459Y108229D01*
X96432Y108216D01*
X96425Y108210D01*
X96345Y108176D01*
X96272Y108150D01*
X96192Y108130D01*
X96119Y108116D01*
X96059Y108110D01*
X96012Y108103D01*
X95966D01*
X95866Y108110D01*
X95779Y108123D01*
X95693Y108136D01*
X95619Y108156D01*
X95560Y108176D01*
X95513Y108196D01*
X95486Y108203D01*
X95473Y108210D01*
X95393Y108256D01*
X95320Y108309D01*
X95260Y108356D01*
X95207Y108409D01*
X95160Y108456D01*
X95127Y108489D01*
X95107Y108516D01*
X95100Y108522D01*
X95047Y108602D01*
X95000Y108682D01*
X94960Y108762D01*
X94920Y108835D01*
X94894Y108902D01*
X94874Y108955D01*
X94867Y108989D01*
X94860Y109002D01*
X94834Y109115D01*
X94814Y109222D01*
X94794Y109328D01*
X94787Y109428D01*
X94780Y109515D01*
X94774Y109581D01*
Y109608D01*
Y109628D01*
Y109635D01*
Y109641D01*
X94780Y109768D01*
X94787Y109888D01*
X94800Y109994D01*
X94820Y110088D01*
X94834Y110161D01*
X94847Y110221D01*
X94854Y110254D01*
X94860Y110267D01*
X94894Y110367D01*
X94933Y110461D01*
X94973Y110547D01*
X95013Y110614D01*
X95047Y110674D01*
X95073Y110714D01*
X95093Y110740D01*
X95100Y110747D01*
X95160Y110820D01*
X95220Y110880D01*
X95287Y110933D01*
X95346Y110973D01*
X95393Y111007D01*
X95440Y111033D01*
X95466Y111047D01*
X95473Y111053D01*
X95560Y111087D01*
X95646Y111113D01*
X95726Y111133D01*
X95806Y111147D01*
X95873Y111153D01*
X95919Y111160D01*
X95966D01*
X96052Y111153D01*
X96132Y111147D01*
X96206Y111127D01*
X96266Y111113D01*
X96319Y111093D01*
X96352Y111073D01*
X96379Y111067D01*
X96385Y111060D01*
X96519Y110980D01*
X96572Y110940D01*
X96625Y110900D01*
X96665Y110867D01*
X96692Y110840D01*
X96712Y110820D01*
X96718Y110814D01*
X96991Y111120D01*
X96925Y111187D01*
X96852Y111247D01*
X96785Y111300D01*
X96718Y111346D01*
X96658Y111380D01*
X96612Y111406D01*
X96579Y111426D01*
X96565Y111433D01*
X96465Y111479D01*
X96365Y111513D01*
X96259Y111539D01*
X96166Y111553D01*
X96086Y111566D01*
X96026Y111573D01*
D02*
G37*
G36*
X92589D02*
X92529D01*
X92396Y111566D01*
X92269Y111553D01*
X92156Y111533D01*
X92050Y111506D01*
X91970Y111479D01*
X91903Y111460D01*
X91863Y111446D01*
X91857Y111440D01*
X91850D01*
X91737Y111386D01*
X91637Y111326D01*
X91550Y111260D01*
X91470Y111200D01*
X91404Y111140D01*
X91357Y111093D01*
X91330Y111067D01*
X91317Y111053D01*
X91237Y110953D01*
X91171Y110854D01*
X91111Y110747D01*
X91064Y110654D01*
X91024Y110567D01*
X90997Y110501D01*
X90984Y110474D01*
X90978Y110454D01*
X90971Y110447D01*
Y110441D01*
X90931Y110301D01*
X90898Y110161D01*
X90878Y110028D01*
X90858Y109901D01*
X90851Y109788D01*
Y109741D01*
X90844Y109708D01*
Y111573D01*
Y107690D01*
X93642D01*
X92483D01*
X92623Y107697D01*
X92749Y107710D01*
X92856Y107737D01*
X92955Y107763D01*
X93035Y107783D01*
X93095Y107810D01*
X93129Y107823D01*
X93142Y107830D01*
X93242Y107890D01*
X93335Y107950D01*
X93422Y108016D01*
X93495Y108083D01*
X93555Y108143D01*
X93602Y108189D01*
X93635Y108216D01*
X93642Y108229D01*
X93375Y108522D01*
X93309Y108449D01*
X93242Y108389D01*
X93175Y108336D01*
X93115Y108289D01*
X93062Y108256D01*
X93022Y108229D01*
X92996Y108216D01*
X92989Y108210D01*
X92909Y108176D01*
X92836Y108150D01*
X92756Y108130D01*
X92682Y108116D01*
X92623Y108110D01*
X92576Y108103D01*
X92529D01*
X92429Y108110D01*
X92343Y108123D01*
X92256Y108136D01*
X92183Y108156D01*
X92123Y108176D01*
X92076Y108196D01*
X92050Y108203D01*
X92036Y108210D01*
X91957Y108256D01*
X91883Y108309D01*
X91823Y108356D01*
X91770Y108409D01*
X91723Y108456D01*
X91690Y108489D01*
X91670Y108516D01*
X91663Y108522D01*
X91610Y108602D01*
X91564Y108682D01*
X91524Y108762D01*
X91484Y108835D01*
X91457Y108902D01*
X91437Y108955D01*
X91430Y108989D01*
X91424Y109002D01*
X91397Y109115D01*
X91377Y109222D01*
X91357Y109328D01*
X91350Y109428D01*
X91344Y109515D01*
X91337Y109581D01*
Y109608D01*
Y109628D01*
Y109635D01*
Y109641D01*
X91344Y109768D01*
X91350Y109888D01*
X91364Y109994D01*
X91384Y110088D01*
X91397Y110161D01*
X91410Y110221D01*
X91417Y110254D01*
X91424Y110267D01*
X91457Y110367D01*
X91497Y110461D01*
X91537Y110547D01*
X91577Y110614D01*
X91610Y110674D01*
X91637Y110714D01*
X91657Y110740D01*
X91663Y110747D01*
X91723Y110820D01*
X91783Y110880D01*
X91850Y110933D01*
X91910Y110973D01*
X91957Y111007D01*
X92003Y111033D01*
X92030Y111047D01*
X92036Y111053D01*
X92123Y111087D01*
X92210Y111113D01*
X92290Y111133D01*
X92369Y111147D01*
X92436Y111153D01*
X92483Y111160D01*
X92529D01*
X92616Y111153D01*
X92696Y111147D01*
X92769Y111127D01*
X92829Y111113D01*
X92882Y111093D01*
X92915Y111073D01*
X92942Y111067D01*
X92949Y111060D01*
X93082Y110980D01*
X93135Y110940D01*
X93189Y110900D01*
X93229Y110867D01*
X93255Y110840D01*
X93275Y110820D01*
X93282Y110814D01*
X93555Y111120D01*
X93488Y111187D01*
X93415Y111247D01*
X93348Y111300D01*
X93282Y111346D01*
X93222Y111380D01*
X93175Y111406D01*
X93142Y111426D01*
X93129Y111433D01*
X93029Y111479D01*
X92929Y111513D01*
X92822Y111539D01*
X92729Y111553D01*
X92649Y111566D01*
X92589Y111573D01*
D02*
G37*
G36*
X90225Y111506D02*
X87281D01*
X88480Y107757D01*
X90225D01*
X89033D01*
X90225Y111506D01*
D02*
G37*
%LPD*%
G36*
X90851Y109462D02*
X90864Y109308D01*
X90884Y109169D01*
X90911Y109049D01*
X90931Y108949D01*
X90944Y108909D01*
X90951Y108876D01*
X90957Y108849D01*
X90964Y108829D01*
X90971Y108816D01*
Y108809D01*
X91024Y108676D01*
X91077Y108556D01*
X91137Y108456D01*
X91191Y108363D01*
X91244Y108296D01*
X91284Y108243D01*
X91311Y108210D01*
X91317Y108196D01*
X91404Y108110D01*
X91490Y108036D01*
X91577Y107970D01*
X91657Y107916D01*
X91730Y107870D01*
X91783Y107843D01*
X91823Y107823D01*
X91837Y107817D01*
X91950Y107777D01*
X92063Y107743D01*
X92170Y107723D01*
X92269Y107703D01*
X92356Y107697D01*
X92423Y107690D01*
X90844D01*
Y109628D01*
X90851Y109462D01*
D02*
G37*
G36*
X89139Y109482D02*
X89106Y109362D01*
X89093Y109308D01*
X89073Y109262D01*
X89066Y109222D01*
X89053Y109188D01*
X89046Y109169D01*
Y109162D01*
X89013Y109049D01*
X88999Y108995D01*
X88986Y108949D01*
X88980Y108915D01*
X88966Y108882D01*
X88959Y108862D01*
Y108855D01*
X88926Y108749D01*
X88913Y108696D01*
X88900Y108649D01*
X88893Y108609D01*
X88880Y108582D01*
X88873Y108563D01*
Y108556D01*
X88840Y108443D01*
X88826Y108389D01*
X88806Y108343D01*
X88800Y108303D01*
X88786Y108269D01*
X88780Y108249D01*
Y108243D01*
X88753D01*
X88720Y108363D01*
X88680Y108476D01*
X88653Y108582D01*
X88626Y108669D01*
X88607Y108749D01*
X88586Y108809D01*
X88580Y108842D01*
X88573Y108855D01*
X88513Y109075D01*
X88480Y109182D01*
X88453Y109275D01*
X88427Y109362D01*
X88413Y109422D01*
X88400Y109448D01*
Y109468D01*
X88393Y109475D01*
Y109482D01*
X87787Y111506D01*
X89739D01*
X89139Y109482D01*
D02*
G37*
%LPC*%
G36*
X27407Y111573D02*
X24663D01*
Y107690D01*
Y109628D01*
X24670Y109462D01*
X24683Y109308D01*
X24703Y109169D01*
X24723Y109049D01*
X24743Y108949D01*
X24756Y108909D01*
X24763Y108876D01*
X24770Y108849D01*
X24776Y108829D01*
X24783Y108816D01*
Y108809D01*
X24830Y108676D01*
X24883Y108556D01*
X24943Y108456D01*
X24996Y108363D01*
X25043Y108296D01*
X25083Y108243D01*
X25109Y108210D01*
X25116Y108196D01*
X25203Y108110D01*
X25289Y108036D01*
X25376Y107970D01*
X25456Y107916D01*
X25529Y107870D01*
X25582Y107843D01*
X25622Y107823D01*
X25635Y107817D01*
X25749Y107777D01*
X25862Y107743D01*
X25975Y107723D01*
X26075Y107703D01*
X26162Y107697D01*
X26228Y107690D01*
X26288D01*
X26421Y107697D01*
X26548Y107710D01*
X26654Y107730D01*
X26754Y107750D01*
X26834Y107770D01*
X26888Y107790D01*
X26928Y107803D01*
X26941Y107810D01*
X27047Y107857D01*
X27141Y107910D01*
X27220Y107963D01*
X27287Y108010D01*
X27334Y108050D01*
X27374Y108090D01*
X27400Y108110D01*
X27407Y108116D01*
Y109715D01*
Y109701D01*
X26221D01*
Y109302D01*
X26967D01*
Y108323D01*
X26881Y108256D01*
X26788Y108203D01*
X26748Y108189D01*
X26714Y108176D01*
X26694Y108163D01*
X26688D01*
X26555Y108130D01*
X26495Y108116D01*
X26435Y108110D01*
X26388D01*
X26348Y108103D01*
X26315D01*
X26215Y108110D01*
X26122Y108123D01*
X26042Y108136D01*
X25968Y108156D01*
X25908Y108176D01*
X25862Y108196D01*
X25835Y108203D01*
X25822Y108210D01*
X25749Y108256D01*
X25675Y108309D01*
X25616Y108356D01*
X25562Y108409D01*
X25522Y108456D01*
X25489Y108489D01*
X25469Y108516D01*
X25462Y108522D01*
X25409Y108602D01*
X25362Y108682D01*
X25329Y108762D01*
X25296Y108835D01*
X25269Y108902D01*
X25249Y108955D01*
X25242Y108989D01*
X25236Y109002D01*
X25209Y109115D01*
X25196Y109222D01*
X25183Y109328D01*
X25169Y109428D01*
Y109515D01*
X25163Y109581D01*
Y109608D01*
Y109628D01*
Y109635D01*
Y109641D01*
X25169Y109768D01*
X25176Y109888D01*
X25189Y109994D01*
X25203Y110088D01*
X25216Y110161D01*
X25229Y110221D01*
X25242Y110254D01*
Y110267D01*
X25276Y110367D01*
X25316Y110461D01*
X25356Y110547D01*
X25396Y110614D01*
X25429Y110674D01*
X25456Y110714D01*
X25476Y110740D01*
X25482Y110747D01*
X25542Y110820D01*
X25602Y110880D01*
X25669Y110933D01*
X25722Y110973D01*
X25775Y111007D01*
X25815Y111033D01*
X25842Y111047D01*
X25849Y111053D01*
X25929Y111087D01*
X26015Y111113D01*
X26095Y111133D01*
X26168Y111147D01*
X26235Y111153D01*
X26281Y111160D01*
X26328D01*
X26428Y111153D01*
X26515Y111147D01*
X26588Y111127D01*
X26654Y111113D01*
X26708Y111093D01*
X26741Y111073D01*
X26768Y111067D01*
X26774Y111060D01*
X26901Y110980D01*
X26954Y110940D01*
X27001Y110900D01*
X27041Y110867D01*
X27067Y110840D01*
X27087Y110820D01*
X27094Y110814D01*
X27360Y111120D01*
X27300Y111180D01*
X27240Y111233D01*
X27200Y111266D01*
X27187Y111273D01*
X27181Y111280D01*
X27101Y111340D01*
X27027Y111386D01*
X27001Y111400D01*
X26974Y111413D01*
X26961Y111426D01*
X26954D01*
X26854Y111473D01*
X26761Y111506D01*
X26728Y111520D01*
X26694Y111526D01*
X26674Y111533D01*
X26668D01*
X26548Y111559D01*
X26495Y111566D01*
X26441D01*
X26395Y111573D01*
X27407D01*
D02*
G37*
G36*
X30757Y111506D02*
X30304D01*
Y109562D01*
Y109448D01*
X30311Y109342D01*
Y109235D01*
X30317Y109149D01*
Y109069D01*
X30324Y109009D01*
Y108969D01*
Y108962D01*
Y108955D01*
X30331Y108842D01*
X30344Y108736D01*
X30351Y108636D01*
X30357Y108549D01*
Y108476D01*
X30364Y108416D01*
Y108383D01*
Y108369D01*
X30351D01*
X29991Y109149D01*
X28792Y111506D01*
X29516D01*
X28266D01*
Y107757D01*
X30757D01*
Y111506D01*
D02*
G37*
G36*
X34400D02*
X31729D01*
Y107757D01*
X32682D01*
X32835Y107763D01*
X32975Y107777D01*
X33108Y107803D01*
X33228Y107836D01*
X33341Y107870D01*
X33448Y107910D01*
X33541Y107956D01*
X33627Y108003D01*
X33701Y108050D01*
X33767Y108096D01*
X33827Y108136D01*
X33874Y108169D01*
X33907Y108203D01*
X33934Y108229D01*
X33947Y108243D01*
X33954Y108249D01*
X34034Y108349D01*
X34100Y108456D01*
X34160Y108563D01*
X34214Y108676D01*
X34253Y108796D01*
X34293Y108909D01*
X34347Y109135D01*
X34360Y109242D01*
X34373Y109335D01*
X34387Y109422D01*
X34393Y109502D01*
X34400Y109562D01*
Y107910D01*
Y109648D01*
X34393Y109815D01*
X34380Y109968D01*
X34360Y110108D01*
X34333Y110241D01*
X34293Y110367D01*
X34260Y110480D01*
X34220Y110580D01*
X34180Y110674D01*
X34134Y110754D01*
X34094Y110827D01*
X34060Y110887D01*
X34027Y110940D01*
X33994Y110973D01*
X33974Y111007D01*
X33960Y111020D01*
X33954Y111027D01*
X33867Y111113D01*
X33767Y111187D01*
X33667Y111247D01*
X33561Y111306D01*
X33454Y111353D01*
X33348Y111386D01*
X33241Y111420D01*
X33135Y111446D01*
X33041Y111466D01*
X32948Y111479D01*
X32868Y111493D01*
X32795Y111500D01*
X32735Y111506D01*
X34400D01*
D01*
D02*
G37*
%LPD*%
G36*
X26195Y111566D02*
X26068Y111553D01*
X25955Y111533D01*
X25855Y111506D01*
X25769Y111479D01*
X25709Y111460D01*
X25669Y111446D01*
X25662Y111440D01*
X25655D01*
X25542Y111386D01*
X25442Y111326D01*
X25356Y111260D01*
X25276Y111200D01*
X25216Y111140D01*
X25169Y111093D01*
X25143Y111067D01*
X25129Y111053D01*
X25049Y110953D01*
X24983Y110854D01*
X24923Y110754D01*
X24876Y110654D01*
X24836Y110567D01*
X24810Y110501D01*
X24796Y110474D01*
X24790Y110454D01*
X24783Y110447D01*
Y110441D01*
X24743Y110301D01*
X24716Y110161D01*
X24690Y110028D01*
X24676Y109901D01*
X24670Y109788D01*
Y109741D01*
X24663Y109708D01*
Y111573D01*
X26328D01*
X26195Y111566D01*
D02*
G37*
G36*
X29032Y110108D02*
X30231Y107757D01*
X28726D01*
Y109715D01*
Y109821D01*
X28719Y109928D01*
Y110028D01*
X28712Y110121D01*
X28706Y110194D01*
Y110248D01*
X28699Y110287D01*
Y110301D01*
X28692Y110407D01*
X28679Y110514D01*
X28672Y110614D01*
Y110707D01*
X28666Y110780D01*
X28659Y110834D01*
Y110873D01*
Y110887D01*
X28672D01*
X29032Y110108D01*
D02*
G37*
G36*
X32742Y111113D02*
X32848Y111107D01*
X32948Y111087D01*
X33048Y111060D01*
X33135Y111033D01*
X33215Y111000D01*
X33281Y110967D01*
X33348Y110933D01*
X33401Y110893D01*
X33454Y110860D01*
X33494Y110827D01*
X33527Y110800D01*
X33554Y110774D01*
X33574Y110754D01*
X33581Y110747D01*
X33588Y110740D01*
X33641Y110667D01*
X33694Y110587D01*
X33774Y110407D01*
X33827Y110228D01*
X33867Y110054D01*
X33880Y109968D01*
X33894Y109895D01*
X33900Y109828D01*
Y109768D01*
X33907Y109715D01*
Y109681D01*
Y109655D01*
Y109648D01*
X33900Y109515D01*
X33894Y109395D01*
X33880Y109282D01*
X33860Y109169D01*
X33834Y109069D01*
X33807Y108982D01*
X33781Y108896D01*
X33747Y108822D01*
X33721Y108756D01*
X33687Y108696D01*
X33661Y108649D01*
X33641Y108609D01*
X33614Y108576D01*
X33601Y108556D01*
X33594Y108543D01*
X33588Y108536D01*
X33521Y108469D01*
X33454Y108409D01*
X33381Y108356D01*
X33301Y108309D01*
X33221Y108269D01*
X33141Y108236D01*
X32988Y108189D01*
X32842Y108163D01*
X32782Y108156D01*
X32728Y108150D01*
X32682Y108143D01*
X32209D01*
Y111120D01*
X32622D01*
X32742Y111113D01*
D02*
G37*
D10*
X92229Y104131D02*
Y107161D01*
X83089Y104131D02*
X92229D01*
X29737D02*
Y107114D01*
Y104131D02*
X38089D01*
X53089D01*
X68089D02*
X83089D01*
D11*
X30371Y97999D02*
X31371Y96999D01*
X30371Y95999D02*
X31371Y96999D01*
X65986Y86200D02*
X66986Y85200D01*
X65986Y84200D02*
X66986Y85200D01*
X54114Y86200D02*
X55114Y85200D01*
X54114Y84200D02*
X55114Y85200D01*
X77857Y86200D02*
X78857Y85200D01*
X77857Y84200D02*
X78857Y85200D01*
X89728Y86200D02*
X90728Y85200D01*
X89728Y84200D02*
X90728Y85200D01*
X101600Y97999D02*
X102600Y96999D01*
X101600Y95999D02*
X102600Y96999D01*
X101600Y86200D02*
X102600Y85200D01*
X101600Y84200D02*
X102600Y85200D01*
X77857Y97999D02*
X78857Y96999D01*
X77857Y95999D02*
X78857Y96999D01*
X89728Y97999D02*
X90728Y96999D01*
X89728Y95999D02*
X90728Y96999D01*
X65986Y97999D02*
X66986Y96999D01*
X65986Y95999D02*
X66986Y96999D01*
X54114Y97999D02*
X55114Y96999D01*
X54114Y95999D02*
X55114Y96999D01*
X18500Y74400D02*
X19500Y73400D01*
X18500Y72400D02*
X19500Y73400D01*
X18500Y39000D02*
X19500Y38000D01*
X18500Y37000D02*
X19500Y38000D01*
X18500Y50800D02*
X19500Y49800D01*
X18500Y48800D02*
X19500Y49800D01*
X18500Y62600D02*
X19500Y61600D01*
X18500Y60600D02*
X19500Y61600D01*
X18500Y86200D02*
X19500Y85200D01*
X18500Y84200D02*
X19500Y85200D01*
X18500Y97999D02*
X19500Y96999D01*
X18500Y95999D02*
X19500Y96999D01*
X18500Y15400D02*
X19500Y14400D01*
X18500Y13400D02*
X19500Y14400D01*
X18500Y27200D02*
X19500Y26200D01*
X18500Y25200D02*
X19500Y26200D01*
X42243Y97999D02*
X43243Y96999D01*
X42243Y95999D02*
X43243Y96999D01*
X42243Y74400D02*
X43243Y73400D01*
X42243Y72400D02*
X43243Y73400D01*
X42243Y86200D02*
X43243Y85200D01*
X42243Y84200D02*
X43243Y85200D01*
X30371Y86200D02*
X31371Y85200D01*
X30371Y84200D02*
X31371Y85200D01*
X30371Y74400D02*
X31371Y73400D01*
X30371Y72400D02*
X31371Y73400D01*
X30371Y62600D02*
X31371Y61600D01*
X30371Y60600D02*
X31371Y61600D01*
X42243Y62600D02*
X43243Y61600D01*
X42243Y60600D02*
X43243Y61600D01*
X42243Y39000D02*
X43243Y38000D01*
X42243Y37000D02*
X43243Y38000D01*
X42243Y50800D02*
X43243Y49800D01*
X42243Y48800D02*
X43243Y49800D01*
X42243Y15400D02*
X43243Y14400D01*
X42243Y13400D02*
X43243Y14400D01*
X30371Y15400D02*
X31371Y14400D01*
X30371Y13400D02*
X31371Y14400D01*
X30371Y50800D02*
X31371Y49800D01*
X30371Y48800D02*
X31371Y49800D01*
X30371Y39000D02*
X31371Y38000D01*
X30371Y37000D02*
X31371Y38000D01*
X30371Y27200D02*
X31371Y26200D01*
X30371Y25200D02*
X31371Y26200D01*
X42243Y27200D02*
X43243Y26200D01*
X42243Y25200D02*
X43243Y26200D01*
X101600Y39000D02*
X102600Y38000D01*
X101600Y37000D02*
X102600Y38000D01*
X89728Y27200D02*
X90728Y26200D01*
X89728Y25200D02*
X90728Y26200D01*
X89728Y39000D02*
X90728Y38000D01*
X89728Y37000D02*
X90728Y38000D01*
X54114Y39000D02*
X55114Y38000D01*
X54114Y37000D02*
X55114Y38000D01*
X65986Y39000D02*
X66986Y38000D01*
X65986Y37000D02*
X66986Y38000D01*
X77857Y39000D02*
X78857Y38000D01*
X77857Y37000D02*
X78857Y38000D01*
X77857Y50800D02*
X78857Y49800D01*
X77857Y48800D02*
X78857Y49800D01*
X65986Y50800D02*
X66986Y49800D01*
X65986Y48800D02*
X66986Y49800D01*
X101600Y50800D02*
X102600Y49800D01*
X101600Y48800D02*
X102600Y49800D01*
X89728Y50800D02*
X90728Y49800D01*
X89728Y48800D02*
X90728Y49800D01*
X65986Y62600D02*
X66986Y61600D01*
X65986Y60600D02*
X66986Y61600D01*
X54114Y50800D02*
X55114Y49800D01*
X54114Y48800D02*
X55114Y49800D01*
X54114Y62600D02*
X55114Y61600D01*
X54114Y60600D02*
X55114Y61600D01*
X101600Y74400D02*
X102600Y73400D01*
X101600Y72400D02*
X102600Y73400D01*
X101600Y62600D02*
X102600Y61600D01*
X101600Y60600D02*
X102600Y61600D01*
X65986Y15400D02*
X66986Y14400D01*
X65986Y13400D02*
X66986Y14400D01*
X77857Y62600D02*
X78857Y61600D01*
X77857Y60600D02*
X78857Y61600D01*
X89728Y62600D02*
X90728Y61600D01*
X89728Y60600D02*
X90728Y61600D01*
X89728Y74400D02*
X90728Y73400D01*
X89728Y72400D02*
X90728Y73400D01*
X77857Y74400D02*
X78857Y73400D01*
X77857Y72400D02*
X78857Y73400D01*
X65986Y74400D02*
X66986Y73400D01*
X65986Y72400D02*
X66986Y73400D01*
X54114Y74400D02*
X55114Y73400D01*
X54114Y72400D02*
X55114Y73400D01*
X77857Y27200D02*
X78857Y26200D01*
X77857Y25200D02*
X78857Y26200D01*
X65986Y27200D02*
X66986Y26200D01*
X65986Y25200D02*
X66986Y26200D01*
X54114Y27200D02*
X55114Y26200D01*
X54114Y25200D02*
X55114Y26200D01*
X54114Y15400D02*
X55114Y14400D01*
X54114Y13400D02*
X55114Y14400D01*
X101600Y27200D02*
X102600Y26200D01*
X101600Y25200D02*
X102600Y26200D01*
X101600Y15400D02*
X102600Y14400D01*
X101600Y13400D02*
X102600Y14400D01*
X77857Y15400D02*
X78857Y14400D01*
X77857Y13400D02*
X78857Y14400D01*
X89728Y15400D02*
X90728Y14400D01*
X89728Y13400D02*
X90728Y14400D01*
M02*
