G04*
G04 #@! TF.GenerationSoftware,Altium Limited,Altium Designer,22.5.1 (42)*
G04*
G04 Layer_Color=16711935*
%FSLAX25Y25*%
%MOIN*%
G70*
G04*
G04 #@! TF.SameCoordinates,AC3B2383-AE7F-4156-BF80-1B445AE1BA2C*
G04*
G04*
G04 #@! TF.FilePolarity,Positive*
G04*
G01*
G75*
%ADD20C,0.00500*%
G36*
X84479Y122688D02*
X80558D01*
Y123744D01*
X84479D01*
Y122688D01*
D02*
G37*
G36*
X5265Y123410D02*
X7032D01*
Y121099D01*
X3365D01*
Y121077D01*
Y121022D01*
Y120944D01*
X3354Y120855D01*
Y120833D01*
Y120788D01*
Y120711D01*
Y120622D01*
X7165D01*
Y117211D01*
Y117200D01*
Y117167D01*
Y117122D01*
Y117055D01*
X7143Y116911D01*
X7121Y116767D01*
Y116755D01*
X7109Y116733D01*
X7098Y116667D01*
X7065Y116578D01*
X7010Y116500D01*
X6998Y116489D01*
X6954Y116444D01*
X6898Y116400D01*
X6821Y116356D01*
X6798Y116344D01*
X6743Y116333D01*
X6665Y116311D01*
X6554Y116300D01*
X6210Y116255D01*
X5987Y117022D01*
Y116800D01*
X5210D01*
Y118089D01*
X4921D01*
Y116800D01*
X4154D01*
Y118089D01*
X3854D01*
Y116278D01*
X3043D01*
Y118100D01*
X3021Y118033D01*
X2999Y117944D01*
X2966Y117822D01*
X2921Y117678D01*
X2866Y117522D01*
X2754Y117189D01*
X2743Y117167D01*
X2732Y117122D01*
X2699Y117033D01*
X2654Y116933D01*
X2599Y116822D01*
X2543Y116689D01*
X2399Y116433D01*
X1610Y116955D01*
Y116967D01*
X1621Y116978D01*
X1654Y117033D01*
X1699Y117111D01*
X1754Y117189D01*
Y117200D01*
X1766Y117211D01*
X1799Y117266D01*
X1832Y117344D01*
X1877Y117433D01*
X1866D01*
X1843Y117422D01*
X1799Y117411D01*
X1743Y117400D01*
X1666Y117389D01*
X1577Y117367D01*
X1488Y117344D01*
X1377Y117322D01*
X1366D01*
X1321Y117311D01*
X1266Y117300D01*
X1188Y117289D01*
X1099Y117266D01*
X999Y117244D01*
X788Y117200D01*
X777D01*
X744Y117189D01*
X688Y117178D01*
X621Y117167D01*
X455Y117133D01*
X277Y117089D01*
X266D01*
X243Y117078D01*
X199Y117067D01*
X155Y117055D01*
X66Y117033D01*
X21D01*
X-12Y117022D01*
X-156Y118044D01*
X-145D01*
X-112Y118055D01*
X-45Y118067D01*
X-1D01*
X55Y118078D01*
X66D01*
X88Y118089D01*
X121D01*
X166Y118100D01*
X288Y118122D01*
X444Y118155D01*
X455D01*
X488Y118166D01*
X532Y118178D01*
X588Y118189D01*
X655Y118200D01*
X732Y118222D01*
X910Y118255D01*
X921D01*
X955Y118266D01*
X999Y118278D01*
X1066Y118289D01*
X1221Y118322D01*
X1388Y118355D01*
X1399D01*
X1432Y118366D01*
X1466Y118377D01*
X1521Y118389D01*
X1654Y118422D01*
X1788Y118444D01*
X1799D01*
X1821Y118455D01*
X1888Y118466D01*
X1966Y118489D01*
X1999Y118500D01*
X2021D01*
X2066Y117911D01*
Y117922D01*
X2077Y117944D01*
X2088Y117978D01*
X2110Y118033D01*
X2121Y118089D01*
X2143Y118166D01*
X2177Y118255D01*
X2199Y118355D01*
X2254Y118578D01*
X2310Y118844D01*
X2354Y119133D01*
X2399Y119444D01*
Y119455D01*
Y119489D01*
X2410Y119533D01*
Y119600D01*
X2421Y119677D01*
X2432Y119777D01*
Y119900D01*
X2443Y120033D01*
X2454Y120177D01*
X2465Y120333D01*
Y120500D01*
X2477Y120677D01*
X2488Y121077D01*
Y121511D01*
Y121911D01*
X2465Y121877D01*
X2443Y121822D01*
X2410Y121744D01*
X2365Y121655D01*
X2321Y121555D01*
X2210Y121333D01*
X2199Y121322D01*
X2188Y121277D01*
X2154Y121222D01*
X2121Y121144D01*
X2066Y121055D01*
X2021Y120955D01*
X1899Y120733D01*
X1888Y120722D01*
X1877Y120677D01*
X1843Y120622D01*
X1799Y120555D01*
X1754Y120466D01*
X1699Y120377D01*
X1588Y120177D01*
X1577Y120166D01*
X1566Y120133D01*
X1532Y120089D01*
X1499Y120033D01*
X1399Y119888D01*
X1299Y119744D01*
X1310D01*
X1332Y119755D01*
X1377Y119766D01*
X1432Y119777D01*
X1499Y119789D01*
X1577Y119811D01*
X1743Y119844D01*
X1754D01*
X1788Y119855D01*
X1832Y119866D01*
X1899Y119888D01*
X2043Y119922D01*
X2188Y119955D01*
X2199Y118955D01*
X699Y118700D01*
X677D01*
X632Y118689D01*
X555Y118666D01*
X477Y118644D01*
X455D01*
X410Y118633D01*
X344Y118622D01*
X266Y118600D01*
X32Y119655D01*
X43D01*
X55Y119666D01*
X121Y119688D01*
X199Y119733D01*
X266Y119777D01*
X277Y119789D01*
X310Y119822D01*
X355Y119866D01*
X388Y119922D01*
X399Y119933D01*
X421Y119989D01*
X444Y120022D01*
X477Y120077D01*
X510Y120144D01*
X555Y120222D01*
X566Y120233D01*
X577Y120266D01*
X610Y120322D01*
X655Y120388D01*
X699Y120466D01*
X755Y120566D01*
X810Y120677D01*
X877Y120800D01*
X855D01*
X799Y120788D01*
X710D01*
X621Y120777D01*
X599D01*
X544Y120766D01*
X477D01*
X399Y120755D01*
X377D01*
X321Y120744D01*
X255Y120733D01*
X177Y120722D01*
X166D01*
X121Y120711D01*
X55Y120700D01*
X-12Y120688D01*
X-223Y121688D01*
X-212Y121699D01*
X-179Y121722D01*
X-134Y121766D01*
X-90Y121810D01*
X-79Y121822D01*
X-45Y121866D01*
X-1Y121911D01*
X43Y121977D01*
X55Y121999D01*
X88Y122055D01*
X143Y122155D01*
X177Y122222D01*
X221Y122299D01*
X232Y122310D01*
X243Y122344D01*
X266Y122388D01*
X299Y122444D01*
X332Y122522D01*
X377Y122610D01*
X477Y122810D01*
X488Y122821D01*
X499Y122866D01*
X521Y122922D01*
X566Y122999D01*
X599Y123088D01*
X643Y123188D01*
X744Y123410D01*
X755Y123422D01*
X766Y123466D01*
X788Y123521D01*
X821Y123599D01*
X855Y123699D01*
X899Y123799D01*
X977Y124010D01*
X1877Y123677D01*
Y123666D01*
X1854Y123633D01*
X1832Y123566D01*
X1799Y123488D01*
X1766Y123399D01*
X1721Y123288D01*
X1610Y123055D01*
X1599Y123044D01*
X1588Y122999D01*
X1555Y122933D01*
X1510Y122855D01*
X1466Y122766D01*
X1410Y122666D01*
X1299Y122444D01*
X1288Y122433D01*
X1277Y122399D01*
X1243Y122344D01*
X1210Y122277D01*
X1121Y122122D01*
X1021Y121955D01*
Y121944D01*
X999Y121922D01*
X943Y121844D01*
X888Y121766D01*
X855Y121722D01*
X832Y121699D01*
X855D01*
X910Y121711D01*
X1110D01*
X1177Y121722D01*
X1266Y121733D01*
X1377Y121744D01*
X1388Y121755D01*
X1399Y121788D01*
X1421Y121833D01*
X1455Y121899D01*
X1543Y122044D01*
X1632Y122222D01*
X1643Y122233D01*
X1654Y122266D01*
X1677Y122310D01*
X1710Y122377D01*
X1788Y122522D01*
X1866Y122688D01*
X2488Y122333D01*
Y123410D01*
X4288D01*
X4154Y124088D01*
X5143Y124144D01*
X5265Y123410D01*
D02*
G37*
G36*
X104366Y123955D02*
X104389Y123944D01*
X104444Y123877D01*
X104522Y123766D01*
X104622Y123633D01*
X104633Y123621D01*
X104644Y123599D01*
X104677Y123566D01*
X104711Y123510D01*
X104800Y123388D01*
X104911Y123233D01*
X104922Y123222D01*
X104933Y123199D01*
X104966Y123155D01*
X105000Y123099D01*
X105089Y122966D01*
X105189Y122799D01*
X105200Y122788D01*
X105211Y122766D01*
X105233Y122722D01*
X105266Y122677D01*
X105344Y122555D01*
X105422Y122422D01*
X104544Y121822D01*
Y121833D01*
X104533Y121855D01*
X104511Y121877D01*
X104489Y121922D01*
X104411Y122044D01*
X104322Y122188D01*
Y122199D01*
X104300Y122222D01*
X104278Y122266D01*
X104244Y122322D01*
X104155Y122455D01*
X104055Y122610D01*
X104044Y122622D01*
X104033Y122644D01*
X104000Y122688D01*
X103966Y122744D01*
X103878Y122888D01*
X103767Y123033D01*
X103755Y123044D01*
X103744Y123066D01*
X103722Y123099D01*
X103689Y123155D01*
X103611Y123266D01*
X103533Y123377D01*
X104366Y123966D01*
Y123955D01*
D02*
G37*
G36*
X9654D02*
X9676Y123944D01*
X9731Y123877D01*
X9809Y123766D01*
X9909Y123633D01*
X9920Y123621D01*
X9931Y123599D01*
X9965Y123566D01*
X9998Y123510D01*
X10087Y123388D01*
X10198Y123233D01*
X10209Y123222D01*
X10220Y123199D01*
X10254Y123155D01*
X10287Y123099D01*
X10376Y122966D01*
X10476Y122799D01*
X10487Y122788D01*
X10498Y122766D01*
X10520Y122722D01*
X10554Y122677D01*
X10631Y122555D01*
X10709Y122422D01*
X9831Y121822D01*
Y121833D01*
X9820Y121855D01*
X9798Y121877D01*
X9776Y121922D01*
X9698Y122044D01*
X9609Y122188D01*
Y122199D01*
X9587Y122222D01*
X9565Y122266D01*
X9532Y122322D01*
X9443Y122455D01*
X9343Y122610D01*
X9331Y122622D01*
X9320Y122644D01*
X9287Y122688D01*
X9254Y122744D01*
X9165Y122888D01*
X9054Y123033D01*
X9043Y123044D01*
X9031Y123066D01*
X9009Y123099D01*
X8976Y123155D01*
X8898Y123266D01*
X8820Y123377D01*
X9654Y123966D01*
Y123955D01*
D02*
G37*
G36*
X69759Y123977D02*
X69781Y123966D01*
X69826Y123899D01*
X69903Y123799D01*
X70003Y123666D01*
X70014Y123655D01*
X70025Y123633D01*
X70059Y123599D01*
X70092Y123544D01*
X70192Y123410D01*
X70303Y123255D01*
X70314Y123244D01*
X70325Y123222D01*
X70359Y123177D01*
X70403Y123122D01*
X70492Y122977D01*
X70603Y122810D01*
X70614Y122799D01*
X70625Y122777D01*
X70659Y122733D01*
X70692Y122677D01*
X70770Y122544D01*
X70859Y122399D01*
X70003Y121699D01*
Y121711D01*
X69981Y121733D01*
X69959Y121766D01*
X69937Y121810D01*
X69859Y121944D01*
X69759Y122099D01*
X69748Y122110D01*
X69737Y122144D01*
X69703Y122188D01*
X69670Y122255D01*
X69570Y122399D01*
X69459Y122577D01*
X69448Y122588D01*
X69437Y122622D01*
X69403Y122666D01*
X69359Y122722D01*
X69270Y122866D01*
X69159Y123021D01*
X69148Y123033D01*
X69137Y123055D01*
X69103Y123099D01*
X69070Y123155D01*
X68992Y123266D01*
X68914Y123388D01*
X69759Y123988D01*
Y123977D01*
D02*
G37*
G36*
X80091Y123433D02*
X80080Y123422D01*
X80058Y123388D01*
X80013Y123333D01*
X79958Y123255D01*
X79891Y123166D01*
X79802Y123077D01*
X79613Y122855D01*
X79602Y122844D01*
X79569Y122810D01*
X79513Y122744D01*
X79447Y122677D01*
X79358Y122588D01*
X79258Y122488D01*
X79047Y122266D01*
X79036Y122255D01*
X78991Y122211D01*
X78936Y122155D01*
X78858Y122077D01*
X78769Y121988D01*
X78658Y121899D01*
X78436Y121688D01*
X78425Y121677D01*
X78380Y121644D01*
X78325Y121588D01*
X78247Y121522D01*
X78158Y121444D01*
X78069Y121366D01*
X77858Y121200D01*
X77191Y122144D01*
X77202Y122155D01*
X77236Y122177D01*
X77280Y122211D01*
X77347Y122255D01*
X77425Y122322D01*
X77514Y122388D01*
X77714Y122555D01*
X77725Y122566D01*
X77758Y122599D01*
X77825Y122644D01*
X77891Y122710D01*
X77980Y122788D01*
X78080Y122877D01*
X78280Y123066D01*
X78291Y123077D01*
X78325Y123110D01*
X78380Y123166D01*
X78458Y123244D01*
X78536Y123321D01*
X78636Y123422D01*
X78825Y123621D01*
X78836Y123633D01*
X78869Y123666D01*
X78925Y123722D01*
X78980Y123799D01*
X79058Y123877D01*
X79124Y123966D01*
X79280Y124155D01*
X80091Y123433D01*
D02*
G37*
G36*
X98956Y123244D02*
X101911D01*
Y121177D01*
X100800D01*
Y122188D01*
X95867D01*
Y121188D01*
X94767D01*
Y123244D01*
X97756D01*
X97556Y124055D01*
X98756Y124110D01*
X98956Y123244D01*
D02*
G37*
G36*
X116510Y120877D02*
X116821D01*
Y119900D01*
X116510D01*
Y117289D01*
Y117278D01*
Y117244D01*
Y117200D01*
Y117133D01*
X116499Y116989D01*
X116476Y116856D01*
Y116844D01*
X116465Y116833D01*
X116454Y116767D01*
X116410Y116678D01*
X116354Y116600D01*
X116343Y116589D01*
X116299Y116544D01*
X116232Y116500D01*
X116143Y116467D01*
X116132D01*
X116121Y116455D01*
X116087D01*
X116054Y116444D01*
X115943Y116411D01*
X115799Y116389D01*
X115476Y116344D01*
X115199Y117266D01*
X115488Y117311D01*
X115510D01*
X115554Y117333D01*
X115599Y117355D01*
X115643Y117400D01*
X115654Y117411D01*
X115665Y117433D01*
X115676Y117466D01*
Y117511D01*
X115688Y117567D01*
X115699Y117633D01*
Y117722D01*
Y119900D01*
X115354D01*
Y119888D01*
Y119866D01*
Y119833D01*
Y119777D01*
Y119722D01*
Y119655D01*
X115343Y119489D01*
Y119300D01*
X115332Y119089D01*
X115321Y118889D01*
X115310Y118689D01*
Y118666D01*
Y118600D01*
X115299Y118511D01*
X115288Y118377D01*
X115277Y118244D01*
X115265Y118089D01*
X115221Y117766D01*
Y117744D01*
X115210Y117700D01*
X115199Y117622D01*
X115176Y117522D01*
X115143Y117400D01*
X115121Y117278D01*
X115043Y117011D01*
Y117000D01*
X115021Y116955D01*
X114999Y116878D01*
X114965Y116789D01*
X114932Y116678D01*
X114876Y116556D01*
X114765Y116278D01*
X114021Y116622D01*
X114010Y116611D01*
X113965Y116578D01*
X113899Y116544D01*
X113821Y116522D01*
X113799D01*
X113743Y116500D01*
X113665Y116489D01*
X113566Y116467D01*
X113121Y116422D01*
X112866Y117355D01*
X113199Y117389D01*
X113221D01*
X113254Y117400D01*
X113299Y117422D01*
X113343Y117466D01*
X113354Y117478D01*
X113365Y117533D01*
X113377Y117567D01*
Y117622D01*
X113388Y117689D01*
Y117766D01*
Y119900D01*
X113077D01*
Y119888D01*
Y119866D01*
Y119833D01*
Y119777D01*
Y119722D01*
Y119644D01*
X113066Y119477D01*
X113055Y119289D01*
Y119078D01*
X113032Y118877D01*
X113021Y118677D01*
Y118655D01*
X113010Y118589D01*
X112999Y118500D01*
X112988Y118377D01*
X112966Y118244D01*
X112943Y118089D01*
X112888Y117789D01*
Y117766D01*
X112877Y117722D01*
X112855Y117644D01*
X112821Y117555D01*
X112788Y117444D01*
X112754Y117322D01*
X112654Y117078D01*
X112643Y117067D01*
X112632Y117022D01*
X112599Y116955D01*
X112566Y116867D01*
X112521Y116755D01*
X112466Y116633D01*
X112399Y116500D01*
X112332Y116356D01*
X111443Y116689D01*
X111455Y116700D01*
X111477Y116744D01*
X111510Y116811D01*
X111555Y116900D01*
X111599Y117000D01*
X111655Y117111D01*
X111755Y117333D01*
X111766Y117344D01*
X111777Y117389D01*
X111810Y117444D01*
X111832Y117522D01*
X111877Y117622D01*
X111910Y117733D01*
X111977Y117978D01*
Y117989D01*
X111988Y118044D01*
X112010Y118111D01*
X112032Y118211D01*
X112055Y118322D01*
X112077Y118455D01*
X112099Y118611D01*
X112121Y118778D01*
Y118800D01*
X112132Y118855D01*
X112143Y118955D01*
X112154Y119089D01*
X112166Y119255D01*
X112177Y119444D01*
X112188Y119655D01*
X112199Y119900D01*
X111766D01*
Y120877D01*
X112199D01*
Y123777D01*
X114221D01*
Y120877D01*
X114499D01*
Y123777D01*
X116510D01*
Y120877D01*
D02*
G37*
G36*
X37695Y122244D02*
Y122233D01*
Y122211D01*
X37684Y122177D01*
X37673Y122122D01*
X37662Y122066D01*
X37651Y121988D01*
X37606Y121822D01*
X37562Y121622D01*
X37518Y121399D01*
X37451Y121166D01*
X37384Y120922D01*
Y120911D01*
X37373Y120899D01*
X37362Y120866D01*
X37351Y120811D01*
X37318Y120688D01*
X37262Y120533D01*
X37195Y120344D01*
X37118Y120144D01*
X37029Y119922D01*
X36929Y119688D01*
X36940Y119666D01*
X36984Y119611D01*
X37062Y119511D01*
X37151Y119389D01*
X37251Y119255D01*
X37362Y119089D01*
X37595Y118755D01*
X37606Y118733D01*
X37651Y118677D01*
X37706Y118589D01*
X37784Y118477D01*
X37873Y118344D01*
X37962Y118200D01*
X38151Y117900D01*
X37295Y117133D01*
X37284Y117144D01*
X37262Y117189D01*
X37218Y117255D01*
X37162Y117344D01*
X37106Y117455D01*
X37029Y117567D01*
X36862Y117833D01*
X36851Y117855D01*
X36818Y117900D01*
X36773Y117978D01*
X36718Y118067D01*
X36640Y118189D01*
X36562Y118311D01*
X36373Y118600D01*
X36362Y118589D01*
X36351Y118555D01*
X36307Y118500D01*
X36262Y118422D01*
X36207Y118322D01*
X36129Y118211D01*
X36051Y118089D01*
X35951Y117944D01*
X35851Y117789D01*
X35729Y117633D01*
X35462Y117266D01*
X35151Y116878D01*
X34807Y116478D01*
X33985Y117211D01*
X33996Y117222D01*
X34007Y117244D01*
X34040Y117278D01*
X34073Y117322D01*
X34185Y117444D01*
X34318Y117600D01*
X34462Y117778D01*
X34629Y117989D01*
X34796Y118200D01*
X34962Y118422D01*
Y118433D01*
X34984Y118444D01*
X35007Y118477D01*
X35040Y118522D01*
X35118Y118644D01*
X35218Y118789D01*
X35340Y118966D01*
X35462Y119166D01*
X35584Y119377D01*
X35707Y119600D01*
Y119611D01*
X35695Y119622D01*
X35651Y119688D01*
X35573Y119777D01*
X35484Y119911D01*
X35384Y120055D01*
X35262Y120211D01*
X35007Y120555D01*
X34996Y120577D01*
X34951Y120633D01*
X34885Y120722D01*
X34807Y120833D01*
X34707Y120955D01*
X34607Y121099D01*
X34385Y121377D01*
X35196Y121955D01*
X35207Y121944D01*
X35240Y121911D01*
X35285Y121855D01*
X35340Y121788D01*
X35407Y121699D01*
X35495Y121599D01*
X35673Y121377D01*
X35684Y121366D01*
X35718Y121322D01*
X35773Y121255D01*
X35840Y121166D01*
X35918Y121066D01*
X36007Y120955D01*
X36195Y120688D01*
Y120700D01*
X36207Y120722D01*
X36229Y120766D01*
X36240Y120822D01*
X36262Y120888D01*
X36296Y120977D01*
X36329Y121066D01*
X36362Y121177D01*
X36429Y121411D01*
X36495Y121677D01*
X36562Y121955D01*
X36618Y122255D01*
X34484D01*
Y123344D01*
X37695D01*
Y122244D01*
D02*
G37*
G36*
X108488Y123966D02*
Y123410D01*
X110444D01*
Y122633D01*
X108488D01*
Y122366D01*
X110232D01*
Y121622D01*
X108488D01*
Y121344D01*
X110777D01*
Y120577D01*
X105322D01*
Y121344D01*
X107477D01*
Y121622D01*
X105844D01*
Y122366D01*
X107477D01*
Y122633D01*
X105600D01*
Y123410D01*
X107477D01*
Y124010D01*
X108488Y123966D01*
D02*
G37*
G36*
X13776D02*
Y123410D01*
X15731D01*
Y122633D01*
X13776D01*
Y122366D01*
X15520D01*
Y121622D01*
X13776D01*
Y121344D01*
X16064D01*
Y120577D01*
X10609D01*
Y121344D01*
X12765D01*
Y121622D01*
X11131D01*
Y122366D01*
X12765D01*
Y122633D01*
X10887D01*
Y123410D01*
X12765D01*
Y124010D01*
X13776Y123966D01*
D02*
G37*
G36*
X73992Y122988D02*
X76069D01*
Y121955D01*
X75303D01*
Y121944D01*
X75292Y121922D01*
X75280Y121888D01*
X75269Y121844D01*
X75236Y121733D01*
X75181Y121577D01*
X75125Y121399D01*
X75047Y121200D01*
X74880Y120800D01*
Y120788D01*
X74869Y120777D01*
X74836Y120711D01*
X74792Y120611D01*
X74725Y120477D01*
X74647Y120333D01*
X74558Y120166D01*
X74336Y119822D01*
X74358Y119811D01*
X74414Y119755D01*
X74492Y119688D01*
X74603Y119588D01*
X74725Y119477D01*
X74869Y119355D01*
X75158Y119089D01*
X75181Y119078D01*
X75225Y119033D01*
X75292Y118966D01*
X75392Y118877D01*
X75491Y118789D01*
X75614Y118677D01*
X75836Y118466D01*
X75147Y117555D01*
X75136Y117567D01*
X75092Y117611D01*
X75036Y117678D01*
X74947Y117766D01*
X74847Y117867D01*
X74725Y117978D01*
X74603Y118111D01*
X74458Y118244D01*
X74436Y118266D01*
X74392Y118311D01*
X74314Y118389D01*
X74214Y118489D01*
X74103Y118600D01*
X73958Y118733D01*
X73814Y118877D01*
X73658Y119022D01*
X73636Y119000D01*
X73592Y118955D01*
X73514Y118877D01*
X73403Y118778D01*
X73270Y118666D01*
X73125Y118533D01*
X72958Y118400D01*
X72781Y118266D01*
X72759Y118255D01*
X72692Y118211D01*
X72603Y118144D01*
X72470Y118055D01*
X72303Y117955D01*
X72125Y117844D01*
X71914Y117722D01*
X71692Y117600D01*
X71703D01*
X71747Y117578D01*
X71825Y117567D01*
X71914Y117544D01*
X72025Y117511D01*
X72147Y117489D01*
X72292Y117466D01*
X72436Y117455D01*
X72514D01*
X72592Y117444D01*
X72714D01*
X72859Y117433D01*
X73014D01*
X73203Y117422D01*
X73681D01*
X73781Y117411D01*
X74658D01*
X74947Y117422D01*
X75025D01*
X75081Y117433D01*
X75236D01*
X75436Y117444D01*
X75658Y117455D01*
X75914Y117466D01*
X76436Y117500D01*
X76203Y116455D01*
X76091D01*
X76014Y116444D01*
X75814D01*
X75680Y116433D01*
X75314D01*
X75203Y116422D01*
X74581D01*
X74469Y116411D01*
X73347D01*
X73192Y116422D01*
X73025D01*
X72836Y116433D01*
X72647D01*
X72470Y116444D01*
X72392D01*
X72303Y116455D01*
X72192Y116467D01*
X72059Y116478D01*
X71903Y116500D01*
X71603Y116556D01*
X71581D01*
X71536Y116578D01*
X71459Y116600D01*
X71370Y116622D01*
X71248Y116667D01*
X71125Y116711D01*
X70859Y116844D01*
X70848Y116856D01*
X70792Y116878D01*
X70725Y116922D01*
X70636Y116978D01*
X70525Y117055D01*
X70392Y117144D01*
X70259Y117255D01*
X70114Y117378D01*
X70103Y117367D01*
X70081Y117333D01*
X70048Y117289D01*
X69992Y117233D01*
X69870Y117078D01*
X69714Y116911D01*
X69703Y116900D01*
X69681Y116867D01*
X69637Y116822D01*
X69581Y116755D01*
X69503Y116667D01*
X69414Y116578D01*
X69314Y116478D01*
X69203Y116367D01*
X68492Y117200D01*
X68503Y117211D01*
X68548Y117255D01*
X68615Y117311D01*
X68692Y117389D01*
X68781Y117489D01*
X68892Y117589D01*
X69114Y117800D01*
X69125Y117811D01*
X69170Y117844D01*
X69226Y117900D01*
X69292Y117978D01*
X69381Y118055D01*
X69470Y118144D01*
X69637Y118333D01*
Y120311D01*
X68859D01*
Y121377D01*
X70670D01*
Y118122D01*
X70692Y118111D01*
X70736Y118078D01*
X70814Y118022D01*
X70914Y117955D01*
X71025Y117878D01*
X71159Y117811D01*
X71292Y117733D01*
X71436Y117678D01*
X70948Y118477D01*
X70959D01*
X70970Y118489D01*
X71003Y118511D01*
X71048Y118533D01*
X71170Y118589D01*
X71314Y118666D01*
X71481Y118766D01*
X71659Y118866D01*
X71847Y118977D01*
X72025Y119089D01*
X72036D01*
X72048Y119100D01*
X72103Y119144D01*
X72192Y119211D01*
X72314Y119289D01*
X72436Y119389D01*
X72581Y119500D01*
X72870Y119744D01*
X72847Y119766D01*
X72803Y119811D01*
X72714Y119877D01*
X72614Y119977D01*
X72492Y120077D01*
X72359Y120200D01*
X72070Y120444D01*
X72059Y120455D01*
X72003Y120500D01*
X71936Y120566D01*
X71847Y120644D01*
X71747Y120733D01*
X71636Y120822D01*
X71414Y121011D01*
X72048Y121744D01*
X72059Y121733D01*
X72092Y121699D01*
X72159Y121655D01*
X72236Y121588D01*
X72336Y121511D01*
X72447Y121411D01*
X72570Y121311D01*
X72714Y121188D01*
X72736Y121177D01*
X72781Y121133D01*
X72859Y121066D01*
X72970Y120977D01*
X73092Y120877D01*
X73225Y120766D01*
X73536Y120500D01*
X73547Y120511D01*
X73581Y120555D01*
X73625Y120622D01*
X73681Y120711D01*
X73747Y120811D01*
X73814Y120933D01*
X73947Y121188D01*
X73958Y121200D01*
X73981Y121255D01*
X74014Y121322D01*
X74047Y121422D01*
X74103Y121533D01*
X74147Y121666D01*
X74203Y121799D01*
X74247Y121955D01*
X71092D01*
Y122988D01*
X72958D01*
X72736Y123999D01*
X73781Y124055D01*
X73992Y122988D01*
D02*
G37*
G36*
X139952Y119311D02*
X138885D01*
X138719Y123177D01*
X140118D01*
X139952Y119311D01*
D02*
G37*
G36*
X131342D02*
X130275D01*
X130108Y123177D01*
X131508D01*
X131342Y119311D01*
D02*
G37*
G36*
X62459D02*
X61393D01*
X61226Y123177D01*
X62626D01*
X62459Y119311D01*
D02*
G37*
G36*
X53849D02*
X52783D01*
X52616Y123177D01*
X54016D01*
X53849Y119311D01*
D02*
G37*
G36*
X47294Y123355D02*
X50250D01*
Y122399D01*
X49227D01*
X49216Y122388D01*
X49194Y122366D01*
X49161Y122322D01*
X49116Y122255D01*
X49061Y122177D01*
X48983Y122099D01*
X48894Y121999D01*
X48805Y121888D01*
X48583Y121655D01*
X48328Y121411D01*
X48028Y121144D01*
X47705Y120899D01*
X47717D01*
X47739Y120888D01*
X47772Y120877D01*
X47817Y120855D01*
X47872Y120844D01*
X47939Y120811D01*
X48105Y120755D01*
X48294Y120700D01*
X48528Y120622D01*
X48772Y120555D01*
X49039Y120477D01*
X49050D01*
X49072Y120466D01*
X49116Y120455D01*
X49161Y120444D01*
X49227Y120433D01*
X49316Y120411D01*
X49405Y120400D01*
X49505Y120377D01*
X49750Y120322D01*
X50016Y120266D01*
X50305Y120222D01*
X50627Y120166D01*
X50305Y119100D01*
X50294D01*
X50250Y119111D01*
X50194Y119122D01*
X50105Y119144D01*
X50005Y119155D01*
X49894Y119189D01*
X49761Y119211D01*
X49605Y119244D01*
X49283Y119322D01*
X48939Y119400D01*
X48583Y119500D01*
X48239Y119600D01*
X48228D01*
X48194Y119611D01*
X48150Y119633D01*
X48083Y119655D01*
X48005Y119677D01*
X47916Y119711D01*
X47817Y119744D01*
X47694Y119789D01*
X47450Y119888D01*
X47172Y120000D01*
X46883Y120122D01*
X46606Y120255D01*
X46594D01*
X46572Y120233D01*
X46517Y120211D01*
X46461Y120188D01*
X46383Y120144D01*
X46283Y120100D01*
X46172Y120055D01*
X46050Y120000D01*
X45917Y119944D01*
X45772Y119877D01*
X45450Y119755D01*
X45083Y119622D01*
X44695Y119489D01*
X45683Y119433D01*
Y119422D01*
Y119400D01*
Y119355D01*
Y119289D01*
Y119277D01*
Y119233D01*
Y119177D01*
X45672Y119111D01*
Y119100D01*
Y119089D01*
Y119022D01*
X45661Y118922D01*
Y118789D01*
X45639Y118633D01*
X45628Y118477D01*
X45606Y118311D01*
X45572Y118144D01*
Y118122D01*
X45561Y118078D01*
X45539Y117989D01*
X45506Y117889D01*
X45472Y117766D01*
X45417Y117633D01*
X45361Y117500D01*
X45283Y117367D01*
X45272Y117355D01*
X45250Y117311D01*
X45206Y117233D01*
X45139Y117144D01*
X45061Y117044D01*
X44961Y116922D01*
X44850Y116800D01*
X44728Y116678D01*
X44717Y116667D01*
X44661Y116622D01*
X44595Y116556D01*
X44495Y116467D01*
X44361Y116367D01*
X44217Y116255D01*
X44039Y116133D01*
X43850Y116000D01*
X43084Y116900D01*
X43095D01*
X43106Y116911D01*
X43161Y116944D01*
X43261Y116989D01*
X43372Y117055D01*
X43495Y117133D01*
X43628Y117222D01*
X43761Y117311D01*
X43872Y117400D01*
X43884Y117411D01*
X43917Y117444D01*
X43973Y117489D01*
X44039Y117555D01*
X44117Y117622D01*
X44184Y117711D01*
X44261Y117800D01*
X44317Y117889D01*
X44328Y117900D01*
X44339Y117933D01*
X44361Y117989D01*
X44395Y118055D01*
X44428Y118133D01*
X44450Y118222D01*
X44495Y118422D01*
Y118433D01*
X44506Y118477D01*
Y118533D01*
X44517Y118611D01*
X44528Y118711D01*
X44539Y118822D01*
X44550Y118944D01*
Y119078D01*
Y119089D01*
X44561Y119111D01*
Y119166D01*
Y119244D01*
Y119255D01*
Y119266D01*
Y119322D01*
Y119389D01*
Y119455D01*
X44550D01*
X44495Y119433D01*
X44417Y119411D01*
X44328Y119377D01*
X44206Y119344D01*
X44072Y119311D01*
X43784Y119233D01*
X43761D01*
X43717Y119211D01*
X43639Y119200D01*
X43539Y119166D01*
X43406Y119144D01*
X43273Y119111D01*
X43117Y119066D01*
X42950Y119033D01*
X42650Y120100D01*
X42673D01*
X42728Y120111D01*
X42817Y120133D01*
X42939Y120155D01*
X43084Y120188D01*
X43261Y120222D01*
X43450Y120266D01*
X43661Y120322D01*
X43884Y120366D01*
X44117Y120433D01*
X44606Y120566D01*
X45106Y120722D01*
X45339Y120811D01*
X45572Y120899D01*
X45550Y120911D01*
X45506Y120955D01*
X45417Y121022D01*
X45317Y121099D01*
X45195Y121200D01*
X45061Y121322D01*
X44928Y121444D01*
X44783Y121577D01*
X44772Y121599D01*
X44717Y121644D01*
X44650Y121722D01*
X44561Y121822D01*
X44450Y121944D01*
X44328Y122088D01*
X44206Y122233D01*
X44072Y122399D01*
X43028D01*
Y123355D01*
X46139D01*
X45950Y124121D01*
X47128Y124166D01*
X47294Y123355D01*
D02*
G37*
G36*
X-4456Y123555D02*
X-1434D01*
Y121810D01*
X-2401D01*
Y121177D01*
X-2412Y121166D01*
X-2434Y121144D01*
X-2478Y121099D01*
X-2545Y121044D01*
X-2634Y120977D01*
X-2723Y120911D01*
X-2845Y120822D01*
X-2978Y120733D01*
X-2990Y120722D01*
X-3045Y120688D01*
X-3123Y120644D01*
X-3223Y120577D01*
X-3345Y120500D01*
X-3489Y120411D01*
X-3656Y120311D01*
X-3834Y120211D01*
X-3823D01*
X-3812Y120200D01*
X-3778Y120188D01*
X-3734Y120177D01*
X-3612Y120144D01*
X-3445Y120100D01*
X-3256Y120055D01*
X-3045Y120000D01*
X-2801Y119944D01*
X-2556Y119900D01*
X-2523D01*
X-2489Y119888D01*
X-2434Y119877D01*
X-2367D01*
X-2301Y119866D01*
X-2112Y119833D01*
X-1890Y119811D01*
X-1645Y119777D01*
X-1367Y119744D01*
X-1079Y119722D01*
X-1323Y118711D01*
X-1334D01*
X-1367Y118722D01*
X-1412D01*
X-1479Y118733D01*
X-1556Y118744D01*
X-1645Y118755D01*
X-1823Y118789D01*
X-1834D01*
X-1867Y118800D01*
X-1912D01*
X-1979Y118811D01*
X-2045Y118822D01*
X-2134Y118844D01*
X-2312Y118866D01*
Y116433D01*
X-7622D01*
Y118822D01*
X-7633D01*
X-7667Y118811D01*
X-7722Y118800D01*
X-7789Y118789D01*
X-7867Y118766D01*
X-7956Y118744D01*
X-8156Y118711D01*
X-8167D01*
X-8200Y118700D01*
X-8256D01*
X-8322Y118689D01*
X-8400Y118666D01*
X-8500Y118655D01*
X-8700Y118622D01*
X-9000Y119611D01*
X-8967D01*
X-8922Y119622D01*
X-8856Y119633D01*
X-8789D01*
X-8700Y119644D01*
X-8600Y119655D01*
X-8500Y119677D01*
X-8267Y119711D01*
X-8000Y119755D01*
X-7734Y119800D01*
X-7456Y119855D01*
X-7445D01*
X-7422Y119866D01*
X-7389Y119877D01*
X-7333Y119888D01*
X-7267Y119900D01*
X-7189Y119922D01*
X-7011Y119966D01*
X-6811Y120022D01*
X-6578Y120077D01*
X-6100Y120222D01*
X-6123Y120233D01*
X-6167Y120266D01*
X-6256Y120322D01*
X-6356Y120388D01*
X-6478Y120466D01*
X-6611Y120555D01*
X-6889Y120755D01*
X-6911Y120733D01*
X-6978Y120688D01*
X-7078Y120611D01*
X-7200Y120522D01*
X-7345Y120411D01*
X-7511Y120300D01*
X-7878Y120055D01*
X-8478Y120844D01*
X-8467Y120855D01*
X-8433Y120866D01*
X-8378Y120899D01*
X-8311Y120944D01*
X-8233Y121000D01*
X-8145Y121055D01*
X-7933Y121188D01*
X-7922Y121200D01*
X-7889Y121222D01*
X-7822Y121266D01*
X-7756Y121322D01*
X-7667Y121377D01*
X-7567Y121455D01*
X-7367Y121622D01*
X-7356Y121633D01*
X-7322Y121666D01*
X-7267Y121711D01*
X-7189Y121766D01*
X-7111Y121844D01*
X-7011Y121922D01*
X-6822Y122110D01*
X-6811Y122122D01*
X-6778Y122155D01*
X-6723Y122211D01*
X-6667Y122277D01*
X-6589Y122355D01*
X-6511Y122444D01*
X-6356Y122644D01*
X-7389D01*
Y121810D01*
X-8489D01*
Y123555D01*
X-5634D01*
X-5745Y124155D01*
X-4578Y124210D01*
X-4456Y123555D01*
D02*
G37*
G36*
X38462Y121122D02*
X38473Y121099D01*
X38506Y121066D01*
X38540Y121022D01*
X38584Y120955D01*
X38640Y120888D01*
X38773Y120722D01*
X38784Y120711D01*
X38806Y120677D01*
X38840Y120633D01*
X38895Y120577D01*
X38951Y120500D01*
X39017Y120411D01*
X39151Y120222D01*
X39162Y120211D01*
X39184Y120177D01*
X39217Y120122D01*
X39262Y120055D01*
X39317Y119977D01*
X39384Y119888D01*
X39506Y119700D01*
X39517Y119688D01*
X39540Y119655D01*
X39562Y119611D01*
X39606Y119555D01*
X39684Y119411D01*
X39762Y119266D01*
X38928Y118622D01*
Y118633D01*
X38906Y118655D01*
X38884Y118700D01*
X38851Y118744D01*
X38817Y118811D01*
X38773Y118889D01*
X38662Y119066D01*
X38651Y119078D01*
X38640Y119111D01*
X38606Y119166D01*
X38573Y119233D01*
X38517Y119322D01*
X38462Y119411D01*
X38340Y119611D01*
X38329Y119622D01*
X38306Y119655D01*
X38273Y119711D01*
X38240Y119789D01*
X38184Y119866D01*
X38129Y119966D01*
X37995Y120155D01*
X37984Y120166D01*
X37962Y120200D01*
X37929Y120255D01*
X37884Y120311D01*
X37784Y120455D01*
X37662Y120611D01*
X38451Y121133D01*
X38462Y121122D01*
D02*
G37*
G36*
X117821Y123110D02*
Y118266D01*
X116999D01*
Y123155D01*
X117821Y123110D01*
D02*
G37*
G36*
X139663Y118500D02*
X139785Y118477D01*
X139807D01*
X139863Y118455D01*
X139941Y118422D01*
X140007Y118377D01*
X140018Y118366D01*
X140052Y118322D01*
X140085Y118255D01*
X140118Y118155D01*
Y118144D01*
X140129Y118133D01*
Y118100D01*
X140141Y118055D01*
X140152Y117944D01*
Y117789D01*
Y117778D01*
Y117755D01*
Y117711D01*
Y117655D01*
X140141Y117533D01*
X140118Y117411D01*
Y117400D01*
X140107Y117389D01*
X140096Y117333D01*
X140063Y117255D01*
X140007Y117189D01*
X139996Y117178D01*
X139952Y117144D01*
X139885Y117111D01*
X139785Y117089D01*
X139763D01*
X139730Y117078D01*
X139685D01*
X139574Y117067D01*
X139274D01*
X139152Y117078D01*
X139030Y117089D01*
X139007D01*
X138952Y117111D01*
X138874Y117144D01*
X138796Y117189D01*
X138785Y117200D01*
X138752Y117244D01*
X138719Y117311D01*
X138696Y117411D01*
Y117422D01*
Y117433D01*
X138685Y117466D01*
Y117511D01*
X138674Y117633D01*
Y117789D01*
Y117800D01*
Y117822D01*
Y117867D01*
Y117922D01*
X138685Y118033D01*
X138696Y118155D01*
Y118166D01*
Y118178D01*
X138719Y118233D01*
X138752Y118311D01*
X138796Y118377D01*
X138807Y118389D01*
X138863Y118422D01*
X138930Y118455D01*
X139030Y118477D01*
X139041D01*
X139052Y118489D01*
X139085D01*
X139130Y118500D01*
X139185D01*
X139252Y118511D01*
X139552D01*
X139663Y118500D01*
D02*
G37*
G36*
X131053D02*
X131175Y118477D01*
X131197D01*
X131253Y118455D01*
X131330Y118422D01*
X131397Y118377D01*
X131408Y118366D01*
X131441Y118322D01*
X131475Y118255D01*
X131508Y118155D01*
Y118144D01*
X131519Y118133D01*
Y118100D01*
X131530Y118055D01*
X131542Y117944D01*
Y117789D01*
Y117778D01*
Y117755D01*
Y117711D01*
Y117655D01*
X131530Y117533D01*
X131508Y117411D01*
Y117400D01*
X131497Y117389D01*
X131486Y117333D01*
X131453Y117255D01*
X131397Y117189D01*
X131386Y117178D01*
X131342Y117144D01*
X131275Y117111D01*
X131175Y117089D01*
X131153D01*
X131119Y117078D01*
X131075D01*
X130964Y117067D01*
X130664D01*
X130542Y117078D01*
X130419Y117089D01*
X130397D01*
X130342Y117111D01*
X130264Y117144D01*
X130186Y117189D01*
X130175Y117200D01*
X130142Y117244D01*
X130108Y117311D01*
X130086Y117411D01*
Y117422D01*
Y117433D01*
X130075Y117466D01*
Y117511D01*
X130064Y117633D01*
Y117789D01*
Y117800D01*
Y117822D01*
Y117867D01*
Y117922D01*
X130075Y118033D01*
X130086Y118155D01*
Y118166D01*
Y118178D01*
X130108Y118233D01*
X130142Y118311D01*
X130186Y118377D01*
X130197Y118389D01*
X130253Y118422D01*
X130319Y118455D01*
X130419Y118477D01*
X130430D01*
X130442Y118489D01*
X130475D01*
X130519Y118500D01*
X130575D01*
X130642Y118511D01*
X130942D01*
X131053Y118500D01*
D02*
G37*
G36*
X62171D02*
X62293Y118477D01*
X62315D01*
X62371Y118455D01*
X62448Y118422D01*
X62515Y118377D01*
X62526Y118366D01*
X62559Y118322D01*
X62593Y118255D01*
X62626Y118155D01*
Y118144D01*
X62637Y118133D01*
Y118100D01*
X62648Y118055D01*
X62660Y117944D01*
Y117789D01*
Y117778D01*
Y117755D01*
Y117711D01*
Y117655D01*
X62648Y117533D01*
X62626Y117411D01*
Y117400D01*
X62615Y117389D01*
X62604Y117333D01*
X62571Y117255D01*
X62515Y117189D01*
X62504Y117178D01*
X62459Y117144D01*
X62393Y117111D01*
X62293Y117089D01*
X62271D01*
X62237Y117078D01*
X62193D01*
X62082Y117067D01*
X61782D01*
X61660Y117078D01*
X61537Y117089D01*
X61515D01*
X61460Y117111D01*
X61382Y117144D01*
X61304Y117189D01*
X61293Y117200D01*
X61260Y117244D01*
X61226Y117311D01*
X61204Y117411D01*
Y117422D01*
Y117433D01*
X61193Y117466D01*
Y117511D01*
X61182Y117633D01*
Y117789D01*
Y117800D01*
Y117822D01*
Y117867D01*
Y117922D01*
X61193Y118033D01*
X61204Y118155D01*
Y118166D01*
Y118178D01*
X61226Y118233D01*
X61260Y118311D01*
X61304Y118377D01*
X61315Y118389D01*
X61371Y118422D01*
X61437Y118455D01*
X61537Y118477D01*
X61549D01*
X61560Y118489D01*
X61593D01*
X61637Y118500D01*
X61693D01*
X61760Y118511D01*
X62060D01*
X62171Y118500D01*
D02*
G37*
G36*
X53560D02*
X53683Y118477D01*
X53705D01*
X53760Y118455D01*
X53838Y118422D01*
X53905Y118377D01*
X53916Y118366D01*
X53949Y118322D01*
X53983Y118255D01*
X54016Y118155D01*
Y118144D01*
X54027Y118133D01*
Y118100D01*
X54038Y118055D01*
X54049Y117944D01*
Y117789D01*
Y117778D01*
Y117755D01*
Y117711D01*
Y117655D01*
X54038Y117533D01*
X54016Y117411D01*
Y117400D01*
X54005Y117389D01*
X53994Y117333D01*
X53960Y117255D01*
X53905Y117189D01*
X53894Y117178D01*
X53849Y117144D01*
X53783Y117111D01*
X53683Y117089D01*
X53660D01*
X53627Y117078D01*
X53583D01*
X53471Y117067D01*
X53172D01*
X53049Y117078D01*
X52927Y117089D01*
X52905D01*
X52849Y117111D01*
X52772Y117144D01*
X52694Y117189D01*
X52683Y117200D01*
X52649Y117244D01*
X52616Y117311D01*
X52594Y117411D01*
Y117422D01*
Y117433D01*
X52583Y117466D01*
Y117511D01*
X52572Y117633D01*
Y117789D01*
Y117800D01*
Y117822D01*
Y117867D01*
Y117922D01*
X52583Y118033D01*
X52594Y118155D01*
Y118166D01*
Y118178D01*
X52616Y118233D01*
X52649Y118311D01*
X52694Y118377D01*
X52705Y118389D01*
X52760Y118422D01*
X52827Y118455D01*
X52927Y118477D01*
X52938D01*
X52949Y118489D01*
X52983D01*
X53027Y118500D01*
X53083D01*
X53149Y118511D01*
X53449D01*
X53560Y118500D01*
D02*
G37*
G36*
X24208Y121266D02*
X22075D01*
Y120744D01*
X24663D01*
Y119777D01*
X22075D01*
Y119200D01*
X24008D01*
Y116389D01*
X19086D01*
Y119200D01*
X20953D01*
Y119777D01*
X18753D01*
Y119766D01*
Y119755D01*
Y119722D01*
X18742Y119677D01*
Y119566D01*
X18731Y119422D01*
X18720Y119255D01*
X18697Y119066D01*
X18675Y118889D01*
X18653Y118700D01*
Y118677D01*
X18642Y118622D01*
X18631Y118533D01*
X18608Y118411D01*
X18575Y118278D01*
X18542Y118133D01*
X18464Y117822D01*
Y117800D01*
X18442Y117755D01*
X18419Y117678D01*
X18386Y117567D01*
X18342Y117444D01*
X18286Y117311D01*
X18175Y117033D01*
X18164Y117011D01*
X18153Y116967D01*
X18108Y116889D01*
X18064Y116789D01*
X18008Y116667D01*
X17942Y116522D01*
X17864Y116378D01*
X17775Y116222D01*
X16697Y116722D01*
X16709Y116744D01*
X16742Y116800D01*
X16797Y116889D01*
X16853Y117000D01*
X16931Y117133D01*
X17008Y117278D01*
X17164Y117589D01*
X17175Y117611D01*
X17197Y117666D01*
X17231Y117744D01*
X17286Y117855D01*
X17331Y117989D01*
X17386Y118133D01*
X17442Y118300D01*
X17497Y118466D01*
X17508Y118489D01*
X17520Y118544D01*
X17542Y118644D01*
X17575Y118766D01*
X17597Y118911D01*
X17631Y119089D01*
X17664Y119277D01*
X17686Y119477D01*
Y119489D01*
Y119500D01*
X17697Y119533D01*
Y119577D01*
X17708Y119688D01*
X17720Y119855D01*
X17731Y120044D01*
X17742Y120266D01*
X17753Y120511D01*
Y120788D01*
Y123766D01*
X24208D01*
Y121266D01*
D02*
G37*
G36*
X48772Y119400D02*
Y116378D01*
X47650D01*
Y119477D01*
X48772Y119400D01*
D02*
G37*
G36*
X125831Y124010D02*
Y123466D01*
X127786D01*
Y122533D01*
X125831D01*
Y122122D01*
X127531D01*
Y118833D01*
X125853D01*
Y118433D01*
X127942D01*
Y117489D01*
X125853D01*
Y116356D01*
X124864D01*
Y117489D01*
X122776D01*
Y118433D01*
X124864D01*
Y118833D01*
X123220D01*
Y122122D01*
X124831D01*
Y124055D01*
X125831Y124010D01*
D02*
G37*
G36*
X80091Y121344D02*
X80080Y121333D01*
X80069Y121311D01*
X80036Y121255D01*
X79991Y121200D01*
X79947Y121133D01*
X79891Y121044D01*
X79758Y120866D01*
X79747Y120855D01*
X79725Y120822D01*
X79691Y120777D01*
X79647Y120711D01*
X79591Y120633D01*
X79524Y120555D01*
X79380Y120366D01*
Y116300D01*
X78291D01*
Y119144D01*
X78280Y119133D01*
X78236Y119089D01*
X78169Y119022D01*
X78080Y118933D01*
X77980Y118833D01*
X77869Y118722D01*
X77625Y118511D01*
X77058Y119489D01*
X77069Y119500D01*
X77114Y119533D01*
X77169Y119577D01*
X77236Y119655D01*
X77325Y119733D01*
X77425Y119822D01*
X77647Y120044D01*
X77658Y120055D01*
X77702Y120100D01*
X77758Y120155D01*
X77836Y120244D01*
X77936Y120333D01*
X78036Y120444D01*
X78258Y120677D01*
X78269Y120688D01*
X78313Y120733D01*
X78369Y120800D01*
X78436Y120888D01*
X78525Y120988D01*
X78625Y121099D01*
X78813Y121333D01*
X78825Y121344D01*
X78858Y121388D01*
X78913Y121455D01*
X78969Y121544D01*
X79047Y121633D01*
X79113Y121744D01*
X79269Y121977D01*
X80091Y121344D01*
D02*
G37*
G36*
X104978Y118233D02*
X104989Y118244D01*
X105044Y118289D01*
X105111Y118355D01*
X105200Y118433D01*
X105211D01*
X105222Y118455D01*
X105278Y118500D01*
X105355Y118566D01*
X105433Y118633D01*
X105789Y117711D01*
Y120311D01*
X110155D01*
Y117200D01*
Y117189D01*
Y117155D01*
Y117111D01*
Y117055D01*
X110133Y116922D01*
X110110Y116789D01*
Y116778D01*
X110099Y116767D01*
X110077Y116689D01*
X110021Y116611D01*
X109955Y116522D01*
X109932Y116511D01*
X109877Y116467D01*
X109788Y116422D01*
X109677Y116378D01*
X109666D01*
X109644Y116367D01*
X109610D01*
X109566Y116356D01*
X109444Y116333D01*
X109277Y116311D01*
X108755Y116267D01*
X108488Y117078D01*
X108888Y117111D01*
X108922D01*
X108999Y117133D01*
X109088Y117144D01*
X109122Y117167D01*
X109144Y117178D01*
X109155Y117189D01*
X109177Y117233D01*
X109188Y117300D01*
X109199Y117355D01*
Y117411D01*
Y117433D01*
X106744D01*
Y116300D01*
X105789D01*
Y117622D01*
X105777Y117611D01*
X105733Y117578D01*
X105666Y117522D01*
X105588Y117455D01*
X105566Y117433D01*
X105511Y117389D01*
X105433Y117322D01*
X105333Y117233D01*
X105322D01*
X105311Y117211D01*
X105244Y117167D01*
X105155Y117089D01*
X105055Y117000D01*
X105044D01*
X105033Y116978D01*
X104978Y116922D01*
X104900Y116856D01*
X104811Y116767D01*
X104466Y116411D01*
X103833Y117189D01*
Y117200D01*
X103844Y117211D01*
X103878Y117266D01*
X103922Y117344D01*
X103944Y117444D01*
Y117455D01*
X103955Y117466D01*
X103966Y117533D01*
X103978Y117633D01*
Y117755D01*
Y120466D01*
X103178D01*
Y121488D01*
X104978D01*
Y118233D01*
D02*
G37*
G36*
X10265D02*
X10276Y118244D01*
X10331Y118289D01*
X10398Y118355D01*
X10487Y118433D01*
X10498D01*
X10509Y118455D01*
X10565Y118500D01*
X10643Y118566D01*
X10720Y118633D01*
X11076Y117711D01*
Y120311D01*
X15442D01*
Y117200D01*
Y117189D01*
Y117155D01*
Y117111D01*
Y117055D01*
X15420Y116922D01*
X15398Y116789D01*
Y116778D01*
X15386Y116767D01*
X15364Y116689D01*
X15309Y116611D01*
X15242Y116522D01*
X15220Y116511D01*
X15164Y116467D01*
X15075Y116422D01*
X14964Y116378D01*
X14953D01*
X14931Y116367D01*
X14898D01*
X14853Y116356D01*
X14731Y116333D01*
X14564Y116311D01*
X14042Y116267D01*
X13776Y117078D01*
X14175Y117111D01*
X14209D01*
X14287Y117133D01*
X14375Y117144D01*
X14409Y117167D01*
X14431Y117178D01*
X14442Y117189D01*
X14464Y117233D01*
X14475Y117300D01*
X14487Y117355D01*
Y117411D01*
Y117433D01*
X12031D01*
Y116300D01*
X11076D01*
Y117622D01*
X11065Y117611D01*
X11020Y117578D01*
X10954Y117522D01*
X10876Y117455D01*
X10854Y117433D01*
X10798Y117389D01*
X10720Y117322D01*
X10620Y117233D01*
X10609D01*
X10598Y117211D01*
X10531Y117167D01*
X10442Y117089D01*
X10343Y117000D01*
X10331D01*
X10320Y116978D01*
X10265Y116922D01*
X10187Y116856D01*
X10098Y116767D01*
X9754Y116411D01*
X9120Y117189D01*
Y117200D01*
X9132Y117211D01*
X9165Y117266D01*
X9209Y117344D01*
X9232Y117444D01*
Y117455D01*
X9243Y117466D01*
X9254Y117533D01*
X9265Y117633D01*
Y117755D01*
Y120466D01*
X8465D01*
Y121488D01*
X10265D01*
Y118233D01*
D02*
G37*
G36*
X122376Y123955D02*
Y122677D01*
X123042D01*
Y121633D01*
X122376D01*
Y120711D01*
X122387D01*
X122398Y120722D01*
X122453Y120744D01*
X122542Y120766D01*
X122631Y120800D01*
X122642D01*
X122653Y120811D01*
X122709Y120833D01*
X122776Y120855D01*
X122854Y120888D01*
X122965Y120433D01*
X123098Y119877D01*
X123087D01*
X123076Y119866D01*
X123009Y119844D01*
X122909Y119800D01*
X122776Y119755D01*
X122765D01*
X122742Y119744D01*
X122709Y119733D01*
X122653Y119711D01*
X122531Y119666D01*
X122376Y119611D01*
Y117289D01*
Y117278D01*
Y117244D01*
Y117189D01*
X122365Y117122D01*
X122353Y116978D01*
X122342Y116900D01*
X122320Y116833D01*
Y116822D01*
X122309Y116800D01*
X122276Y116733D01*
X122220Y116644D01*
X122131Y116556D01*
X122120D01*
X122109Y116533D01*
X122076Y116522D01*
X122043Y116500D01*
X121931Y116444D01*
X121787Y116400D01*
X121776D01*
X121754Y116389D01*
X121709Y116378D01*
X121642Y116367D01*
X121565Y116356D01*
X121476Y116344D01*
X121376Y116322D01*
X121265Y116311D01*
X120820Y116255D01*
X120531Y117255D01*
X121109Y117322D01*
X121142D01*
X121198Y117344D01*
X121276Y117367D01*
X121298Y117378D01*
X121320Y117400D01*
X121331Y117411D01*
X121343Y117455D01*
Y117489D01*
X121354Y117544D01*
Y117600D01*
Y117678D01*
Y119277D01*
X121343D01*
X121309Y119266D01*
X121254Y119244D01*
X121187Y119222D01*
X121109Y119189D01*
X121020Y119155D01*
X120832Y119100D01*
X120820D01*
X120798Y119089D01*
X120754Y119078D01*
X120698Y119066D01*
X120565Y119022D01*
X120431Y118989D01*
X120187Y120022D01*
X120198D01*
X120231Y120033D01*
X120276Y120044D01*
X120343Y120066D01*
X120420Y120089D01*
X120509Y120111D01*
X120720Y120177D01*
X120731D01*
X120776Y120188D01*
X120832Y120211D01*
X120909Y120233D01*
X121009Y120255D01*
X121109Y120289D01*
X121354Y120355D01*
Y121633D01*
X120543D01*
Y122677D01*
X121354D01*
Y123999D01*
X122376Y123955D01*
D02*
G37*
G36*
X30052Y124021D02*
Y122644D01*
X32851D01*
Y118633D01*
X30052D01*
Y116211D01*
X28907D01*
Y118633D01*
X26052D01*
Y122644D01*
X28907D01*
Y124066D01*
X30052Y124021D01*
D02*
G37*
G36*
X119076Y123877D02*
Y117311D01*
Y117300D01*
Y117266D01*
Y117211D01*
X119065Y117155D01*
X119054Y117000D01*
X119020Y116856D01*
Y116844D01*
X119009Y116822D01*
X118998Y116789D01*
X118987Y116744D01*
X118943Y116644D01*
X118876Y116556D01*
X118865Y116533D01*
X118809Y116489D01*
X118732Y116433D01*
X118621Y116389D01*
X118609D01*
X118598Y116378D01*
X118565Y116367D01*
X118521Y116356D01*
X118398Y116333D01*
X118243Y116300D01*
X117576Y116200D01*
X117287Y117111D01*
X117854Y117189D01*
X117887D01*
X117921Y117200D01*
X117965Y117211D01*
X118054Y117244D01*
X118098Y117266D01*
X118121Y117289D01*
X118132Y117311D01*
X118143Y117333D01*
X118154Y117367D01*
X118165Y117411D01*
X118176Y117478D01*
X118187Y117555D01*
Y117655D01*
Y123921D01*
X119076Y123877D01*
D02*
G37*
G36*
X100645Y120633D02*
X99067Y119577D01*
X102089D01*
Y118544D01*
X98945D01*
Y117455D01*
Y117444D01*
Y117400D01*
Y117333D01*
X98934Y117255D01*
X98922Y117067D01*
X98911Y116978D01*
X98889Y116889D01*
Y116878D01*
X98878Y116856D01*
X98867Y116811D01*
X98856Y116767D01*
X98800Y116656D01*
X98723Y116544D01*
X98700Y116522D01*
X98634Y116467D01*
X98534Y116411D01*
X98389Y116356D01*
X98378D01*
X98356Y116344D01*
X98300Y116333D01*
X98245Y116322D01*
X98167Y116311D01*
X98067Y116300D01*
X97967Y116278D01*
X97845Y116267D01*
X96956Y116200D01*
X96656Y117233D01*
X97434Y117300D01*
X97467D01*
X97512Y117311D01*
X97556Y117322D01*
X97656Y117344D01*
X97700Y117367D01*
X97734Y117400D01*
X97745Y117422D01*
X97756Y117444D01*
X97767Y117489D01*
X97778Y117544D01*
X97789Y117611D01*
X97800Y117700D01*
Y117800D01*
Y118544D01*
X94534D01*
Y119577D01*
X97800D01*
Y119933D01*
X98889Y120622D01*
X96078D01*
Y121666D01*
X100645D01*
Y120633D01*
D02*
G37*
G36*
X41028Y123999D02*
Y122566D01*
X41851D01*
Y121477D01*
X41028D01*
Y117511D01*
Y117500D01*
Y117455D01*
Y117389D01*
X41017Y117311D01*
X41006Y117122D01*
X40984Y117033D01*
X40962Y116944D01*
Y116933D01*
X40951Y116911D01*
X40928Y116867D01*
X40906Y116822D01*
X40839Y116700D01*
X40728Y116589D01*
X40717Y116578D01*
X40695Y116567D01*
X40662Y116544D01*
X40617Y116511D01*
X40562Y116478D01*
X40484Y116444D01*
X40406Y116411D01*
X40306Y116378D01*
X40295D01*
X40262Y116367D01*
X40206Y116356D01*
X40128Y116333D01*
X40040Y116311D01*
X39928Y116289D01*
X39806Y116278D01*
X39673Y116255D01*
X39040Y116200D01*
X38673Y117300D01*
X39417Y117355D01*
X39451D01*
X39517Y117367D01*
X39595D01*
X39684Y117378D01*
X39706D01*
X39740Y117400D01*
X39784Y117411D01*
X39828Y117444D01*
X39840Y117455D01*
X39862Y117489D01*
X39884Y117533D01*
X39895Y117589D01*
Y117611D01*
X39906Y117655D01*
X39917Y117733D01*
Y117833D01*
Y121477D01*
X37906D01*
Y122566D01*
X39917D01*
Y124044D01*
X41028Y123999D01*
D02*
G37*
G36*
X84824Y120188D02*
X83702D01*
Y117466D01*
Y117455D01*
Y117411D01*
Y117344D01*
X83691Y117266D01*
X83680Y117078D01*
X83669Y116978D01*
X83646Y116889D01*
Y116878D01*
X83635Y116856D01*
X83624Y116811D01*
X83602Y116767D01*
X83546Y116656D01*
X83446Y116544D01*
X83435D01*
X83424Y116522D01*
X83391Y116500D01*
X83346Y116467D01*
X83291Y116444D01*
X83213Y116411D01*
X83135Y116378D01*
X83046Y116356D01*
X83035D01*
X83002Y116344D01*
X82946Y116333D01*
X82869Y116322D01*
X82769Y116300D01*
X82657Y116289D01*
X82524Y116267D01*
X82380Y116255D01*
X81669Y116189D01*
X81346Y117278D01*
X82113Y117344D01*
X82135D01*
X82202Y117355D01*
X82269D01*
X82346Y117367D01*
X82358D01*
X82402Y117389D01*
X82435Y117400D01*
X82480Y117433D01*
X82491Y117444D01*
X82502Y117466D01*
X82524Y117500D01*
X82535Y117555D01*
Y117567D01*
X82546Y117622D01*
X82557Y117689D01*
Y117778D01*
Y120188D01*
X80147D01*
Y121244D01*
X84824D01*
Y120188D01*
D02*
G37*
G36*
X90301Y122977D02*
X93301D01*
Y121911D01*
X92123D01*
Y121899D01*
X92112Y121866D01*
X92101Y121810D01*
X92079Y121744D01*
X92057Y121655D01*
X92023Y121555D01*
X91990Y121444D01*
X91945Y121322D01*
X91857Y121044D01*
X91734Y120744D01*
X91612Y120444D01*
X91468Y120144D01*
Y120133D01*
X91445Y120111D01*
X91423Y120066D01*
X91401Y120011D01*
X91357Y119944D01*
X91312Y119866D01*
X91201Y119677D01*
X91068Y119455D01*
X90901Y119222D01*
X90723Y118977D01*
X90523Y118733D01*
X90535D01*
X90546Y118711D01*
X90579Y118689D01*
X90635Y118655D01*
X90690Y118622D01*
X90757Y118578D01*
X90923Y118466D01*
X91123Y118344D01*
X91357Y118211D01*
X91623Y118067D01*
X91901Y117933D01*
X91912D01*
X91934Y117922D01*
X91979Y117900D01*
X92045Y117878D01*
X92112Y117844D01*
X92201Y117800D01*
X92301Y117766D01*
X92423Y117722D01*
X92545Y117666D01*
X92679Y117611D01*
X92979Y117500D01*
X93323Y117389D01*
X93679Y117266D01*
X93223Y116111D01*
X93212D01*
X93179Y116133D01*
X93112Y116156D01*
X93034Y116189D01*
X92934Y116222D01*
X92823Y116267D01*
X92701Y116322D01*
X92557Y116378D01*
X92256Y116511D01*
X91923Y116656D01*
X91590Y116811D01*
X91257Y116978D01*
X91246D01*
X91223Y117000D01*
X91179Y117022D01*
X91112Y117055D01*
X91034Y117100D01*
X90946Y117144D01*
X90746Y117266D01*
X90512Y117411D01*
X90246Y117578D01*
X89979Y117766D01*
X89723Y117966D01*
X89712Y117955D01*
X89690Y117944D01*
X89657Y117911D01*
X89612Y117878D01*
X89546Y117833D01*
X89468Y117778D01*
X89390Y117711D01*
X89290Y117644D01*
X89068Y117489D01*
X88812Y117333D01*
X88535Y117155D01*
X88224Y116989D01*
X88213D01*
X88190Y116967D01*
X88135Y116944D01*
X88079Y116911D01*
X88001Y116867D01*
X87901Y116822D01*
X87790Y116767D01*
X87668Y116711D01*
X87535Y116644D01*
X87390Y116567D01*
X87068Y116422D01*
X86702Y116267D01*
X86313Y116100D01*
X85690Y117200D01*
X85702D01*
X85735Y117211D01*
X85790Y117233D01*
X85868Y117266D01*
X85957Y117289D01*
X86057Y117333D01*
X86179Y117378D01*
X86313Y117422D01*
X86590Y117533D01*
X86901Y117655D01*
X87213Y117789D01*
X87513Y117933D01*
X87524D01*
X87546Y117955D01*
X87590Y117978D01*
X87646Y118000D01*
X87713Y118033D01*
X87790Y118078D01*
X87979Y118189D01*
X88201Y118311D01*
X88435Y118444D01*
X88679Y118600D01*
X88912Y118766D01*
X88901Y118778D01*
X88890Y118800D01*
X88857Y118833D01*
X88824Y118877D01*
X88768Y118933D01*
X88713Y119011D01*
X88579Y119177D01*
X88424Y119389D01*
X88268Y119622D01*
X88101Y119888D01*
X87946Y120166D01*
Y120177D01*
X87924Y120200D01*
X87912Y120244D01*
X87879Y120300D01*
X87846Y120377D01*
X87801Y120466D01*
X87757Y120555D01*
X87713Y120677D01*
X87657Y120800D01*
X87601Y120933D01*
X87490Y121222D01*
X87379Y121555D01*
X87268Y121911D01*
X86113D01*
Y122977D01*
X89157D01*
X88957Y123988D01*
X90101Y124044D01*
X90301Y122977D01*
D02*
G37*
%LPC*%
G36*
X6098Y122511D02*
X3365D01*
Y122011D01*
X6098D01*
Y122511D01*
D02*
G37*
G36*
X6310Y119733D02*
X5987D01*
Y118955D01*
X6310D01*
Y119733D01*
D02*
G37*
G36*
X5210D02*
X4921D01*
Y118955D01*
X5210D01*
Y119733D01*
D02*
G37*
G36*
X4154D02*
X3854D01*
Y118955D01*
X4154D01*
Y119733D01*
D02*
G37*
G36*
X6310Y118089D02*
X5987D01*
Y117167D01*
X6121Y117189D01*
X6143D01*
X6187Y117200D01*
X6243Y117222D01*
X6276Y117266D01*
X6287Y117278D01*
X6299Y117322D01*
X6310Y117389D01*
Y117478D01*
Y118089D01*
D02*
G37*
G36*
X115699Y122799D02*
X115354D01*
Y120877D01*
X115699D01*
Y122799D01*
D02*
G37*
G36*
X113388D02*
X113077D01*
Y120877D01*
X113388D01*
Y122799D01*
D02*
G37*
G36*
X114499Y119900D02*
X114221D01*
Y117389D01*
Y117266D01*
X114232Y117300D01*
X114254Y117344D01*
X114277Y117411D01*
X114288Y117489D01*
X114310Y117567D01*
X114354Y117755D01*
Y117766D01*
X114365Y117800D01*
X114376Y117855D01*
X114388Y117922D01*
X114399Y118000D01*
X114421Y118100D01*
X114443Y118311D01*
Y118322D01*
X114454Y118366D01*
Y118433D01*
X114465Y118511D01*
Y118611D01*
X114477Y118733D01*
X114488Y118866D01*
Y119000D01*
Y119022D01*
Y119066D01*
Y119155D01*
X114499Y119255D01*
Y119389D01*
Y119544D01*
Y119711D01*
Y119900D01*
D02*
G37*
G36*
X47905Y122399D02*
X45406D01*
X45417Y122388D01*
X45428Y122377D01*
X45461Y122344D01*
X45506Y122299D01*
X45617Y122199D01*
X45761Y122066D01*
X45939Y121911D01*
X46161Y121744D01*
X46395Y121577D01*
X46650Y121422D01*
X46661D01*
X46683Y121444D01*
X46717Y121466D01*
X46772Y121500D01*
X46839Y121533D01*
X46905Y121577D01*
X47083Y121699D01*
X47272Y121844D01*
X47483Y122011D01*
X47694Y122199D01*
X47905Y122399D01*
D02*
G37*
G36*
X-2534Y122644D02*
X-6045D01*
X-5378Y122277D01*
X-5389Y122266D01*
X-5400Y122244D01*
X-5467Y122166D01*
X-5478Y122155D01*
X-5489Y122133D01*
X-5556Y122055D01*
X-2534D01*
Y122644D01*
D02*
G37*
G36*
X-4000Y121177D02*
X-5889D01*
X-5867Y121166D01*
X-5811Y121133D01*
X-5723Y121066D01*
X-5600Y121000D01*
X-5467Y120922D01*
X-5311Y120833D01*
X-4989Y120655D01*
X-4978D01*
X-4967Y120666D01*
X-4934Y120677D01*
X-4889Y120700D01*
X-4778Y120755D01*
X-4645Y120822D01*
X-4489Y120899D01*
X-4323Y120988D01*
X-4156Y121077D01*
X-4000Y121177D01*
D02*
G37*
G36*
X-4978Y119666D02*
X-5000Y119655D01*
X-5045Y119633D01*
X-5134Y119600D01*
X-5245Y119555D01*
X-5367Y119511D01*
X-5511Y119455D01*
X-5678Y119389D01*
X-5845Y119333D01*
X-5867Y119322D01*
X-5923Y119311D01*
X-6011Y119277D01*
X-6134Y119233D01*
X-6278Y119189D01*
X-6445Y119144D01*
X-6611Y119089D01*
X-6800Y119033D01*
X-3023D01*
X-3034Y119044D01*
X-3101Y119055D01*
X-3212Y119078D01*
X-3345Y119111D01*
X-3500Y119155D01*
X-3667Y119211D01*
X-4045Y119322D01*
X-4067Y119333D01*
X-4123Y119355D01*
X-4223Y119389D01*
X-4345Y119433D01*
X-4489Y119477D01*
X-4645Y119533D01*
X-4978Y119666D01*
D02*
G37*
G36*
X-3378Y118089D02*
X-6545D01*
Y117367D01*
X-3378D01*
Y118089D01*
D02*
G37*
G36*
X23175Y122799D02*
X18797D01*
Y122233D01*
X23175D01*
Y122799D01*
D02*
G37*
G36*
X20953Y121266D02*
X18797D01*
Y121200D01*
Y120744D01*
X20953D01*
Y121266D01*
D02*
G37*
G36*
X22908Y118244D02*
X20175D01*
Y117311D01*
X22908D01*
Y118244D01*
D02*
G37*
G36*
X126531Y121233D02*
X124209D01*
Y120888D01*
X126531D01*
Y121233D01*
D02*
G37*
G36*
Y120077D02*
X124209D01*
Y119733D01*
X126531D01*
Y120077D01*
D02*
G37*
G36*
X109199Y119533D02*
X106744D01*
Y119266D01*
X109199D01*
Y119533D01*
D02*
G37*
G36*
Y118511D02*
X106744D01*
Y118233D01*
X109199D01*
Y118511D01*
D02*
G37*
G36*
X14487Y119533D02*
X12031D01*
Y119266D01*
X14487D01*
Y119533D01*
D02*
G37*
G36*
Y118511D02*
X12031D01*
Y118233D01*
X14487D01*
Y118511D01*
D02*
G37*
G36*
X31696Y121533D02*
X30052D01*
Y119733D01*
X31696D01*
Y121533D01*
D02*
G37*
G36*
X28907D02*
X27207D01*
Y119733D01*
X28907D01*
Y121533D01*
D02*
G37*
G36*
X90946Y121911D02*
X88412D01*
Y121899D01*
X88424Y121877D01*
X88435Y121833D01*
X88446Y121788D01*
X88468Y121722D01*
X88490Y121644D01*
X88557Y121466D01*
X88624Y121255D01*
X88713Y121033D01*
X88812Y120800D01*
X88924Y120566D01*
Y120555D01*
X88935Y120544D01*
X88957Y120511D01*
X88979Y120466D01*
X89046Y120355D01*
X89135Y120211D01*
X89246Y120044D01*
X89379Y119866D01*
X89524Y119677D01*
X89690Y119489D01*
Y119500D01*
X89712Y119511D01*
X89768Y119577D01*
X89846Y119677D01*
X89946Y119811D01*
X90068Y119966D01*
X90190Y120155D01*
X90312Y120355D01*
X90434Y120566D01*
Y120577D01*
X90446Y120588D01*
X90468Y120622D01*
X90490Y120677D01*
X90512Y120733D01*
X90546Y120800D01*
X90612Y120955D01*
X90701Y121155D01*
X90779Y121388D01*
X90868Y121644D01*
X90946Y121911D01*
D02*
G37*
%LPD*%
D20*
X8500Y13500D02*
G03*
X17000Y5000I8500J0D01*
G01*
X105000D02*
G03*
X113500Y13500I0J8500D01*
G01*
Y109000D02*
G03*
X105000Y117500I-8500J0D01*
G01*
X17000D02*
G03*
X8500Y109000I0J-8500D01*
G01*
X17000Y117500D02*
X105000D01*
X113500Y13500D02*
Y109000D01*
X17000Y5000D02*
X105000D01*
X8500Y13500D02*
Y109000D01*
M02*
