G04*
G04 #@! TF.GenerationSoftware,Altium Limited,Altium Designer,22.5.1 (42)*
G04*
G04 Layer_Physical_Order=1*
G04 Layer_Color=255*
%FSLAX25Y25*%
%MOIN*%
G70*
G04*
G04 #@! TF.SameCoordinates,B96F059C-DAF6-4555-8D6D-E7C6B2DDDAAE*
G04*
G04*
G04 #@! TF.FilePolarity,Positive*
G04*
G01*
G75*
%ADD10C,0.01000*%
G04:AMPARAMS|DCode=12|XSize=27.56mil|YSize=27.56mil|CornerRadius=6.89mil|HoleSize=0mil|Usage=FLASHONLY|Rotation=0.000|XOffset=0mil|YOffset=0mil|HoleType=Round|Shape=RoundedRectangle|*
%AMROUNDEDRECTD12*
21,1,0.02756,0.01378,0,0,0.0*
21,1,0.01378,0.02756,0,0,0.0*
1,1,0.01378,0.00689,-0.00689*
1,1,0.01378,-0.00689,-0.00689*
1,1,0.01378,-0.00689,0.00689*
1,1,0.01378,0.00689,0.00689*
%
%ADD12ROUNDEDRECTD12*%
%ADD17C,0.01500*%
%ADD18C,0.05906*%
%ADD19R,0.05906X0.05906*%
%ADD20C,0.02400*%
%ADD21C,0.09843*%
G36*
X106490Y116490D02*
X107922Y116056D01*
X109243Y115350D01*
X110400Y114400D01*
X111350Y113243D01*
X112056Y111923D01*
X112490Y110490D01*
X112636Y109011D01*
X112633Y109000D01*
Y13500D01*
X112636Y13488D01*
X112490Y12010D01*
X112056Y10577D01*
X111350Y9257D01*
X110400Y8100D01*
X109243Y7150D01*
X107922Y6444D01*
X106490Y6010D01*
X105011Y5864D01*
X105000Y5867D01*
X17000D01*
X16988Y5864D01*
X15510Y6010D01*
X14077Y6444D01*
X12757Y7150D01*
X11600Y8100D01*
X10650Y9257D01*
X9945Y10577D01*
X9510Y12010D01*
X9364Y13488D01*
X9367Y13500D01*
Y109000D01*
X9364Y109011D01*
X9510Y110490D01*
X9945Y111923D01*
X10650Y113243D01*
X11600Y114400D01*
X12757Y115350D01*
X14077Y116056D01*
X15510Y116490D01*
X16988Y116636D01*
X17000Y116633D01*
X105000D01*
X105011Y116636D01*
X106490Y116490D01*
D02*
G37*
%LPC*%
G36*
X81057Y113184D02*
X80121D01*
X79218Y112942D01*
X78408Y112474D01*
X77746Y111813D01*
X77278Y111003D01*
X77036Y110099D01*
Y109164D01*
X77278Y108260D01*
X77707Y107517D01*
X77384Y107193D01*
X77085Y106746D01*
X76981Y106219D01*
Y104012D01*
X76518Y103821D01*
X73161Y107179D01*
X73432Y107450D01*
X73900Y108260D01*
X74142Y109164D01*
Y110099D01*
X73900Y111003D01*
X73432Y111813D01*
X72771Y112474D01*
X71960Y112942D01*
X71057Y113184D01*
X70121D01*
X69218Y112942D01*
X68408Y112474D01*
X67746Y111813D01*
X67278Y111003D01*
X67036Y110099D01*
Y109164D01*
X67277Y108266D01*
X64788Y105777D01*
X64490Y105330D01*
X64385Y104804D01*
Y103419D01*
X57030D01*
X56823Y103919D01*
X59223Y106319D01*
X60121Y106079D01*
X61057D01*
X61960Y106321D01*
X62770Y106789D01*
X63432Y107450D01*
X63900Y108260D01*
X64142Y109164D01*
Y110099D01*
X63900Y111003D01*
X63432Y111813D01*
X62770Y112474D01*
X61960Y112942D01*
X61057Y113184D01*
X60121D01*
X59218Y112942D01*
X58408Y112474D01*
X57746Y111813D01*
X57278Y111003D01*
X57036Y110099D01*
Y109164D01*
X57277Y108266D01*
X54902Y105891D01*
X20721D01*
X20721Y105891D01*
X20194Y105786D01*
X19748Y105488D01*
X15428Y101168D01*
X14709D01*
X14206Y101068D01*
X13779Y100783D01*
X13494Y100357D01*
X13394Y99854D01*
Y98476D01*
X13494Y97973D01*
X13779Y97546D01*
X14206Y97262D01*
X14242Y97254D01*
Y96745D01*
X14206Y96737D01*
X13779Y96452D01*
X13494Y96026D01*
X13394Y95523D01*
Y94145D01*
X13494Y93642D01*
X13779Y93216D01*
X13802Y93200D01*
X13747Y92636D01*
X13480Y92526D01*
X12974Y92020D01*
X12700Y91358D01*
Y90642D01*
X12974Y89980D01*
X13393Y89561D01*
Y87993D01*
X13394Y87987D01*
Y86676D01*
X13494Y86173D01*
X13779Y85747D01*
X14206Y85462D01*
X14243Y85454D01*
Y84945D01*
X14206Y84937D01*
X13779Y84653D01*
X13494Y84226D01*
X13394Y83723D01*
Y82345D01*
X13494Y81842D01*
X13779Y81416D01*
X13802Y81401D01*
X13747Y80836D01*
X13480Y80726D01*
X12974Y80220D01*
X12700Y79558D01*
Y78842D01*
X12974Y78180D01*
X13393Y77761D01*
Y76193D01*
X13394Y76187D01*
Y74876D01*
X13494Y74373D01*
X13779Y73947D01*
X14206Y73662D01*
X14242Y73655D01*
Y73145D01*
X14206Y73137D01*
X13779Y72853D01*
X13494Y72426D01*
X13394Y71923D01*
Y70545D01*
X13494Y70042D01*
X13779Y69616D01*
X13802Y69601D01*
X13747Y69036D01*
X13480Y68926D01*
X12974Y68420D01*
X12700Y67758D01*
Y67042D01*
X12974Y66381D01*
X13393Y65961D01*
Y64393D01*
X13394Y64387D01*
Y63076D01*
X13494Y62573D01*
X13779Y62147D01*
X14206Y61862D01*
X14242Y61855D01*
Y61345D01*
X14206Y61338D01*
X13779Y61053D01*
X13494Y60626D01*
X13394Y60123D01*
Y58745D01*
X13494Y58242D01*
X13779Y57816D01*
X13802Y57801D01*
X13747Y57236D01*
X13480Y57126D01*
X12974Y56620D01*
X12700Y55958D01*
Y55242D01*
X12974Y54581D01*
X13393Y54161D01*
Y52593D01*
X13394Y52587D01*
Y51276D01*
X13494Y50773D01*
X13779Y50347D01*
X14206Y50062D01*
X14243Y50055D01*
Y49545D01*
X14206Y49538D01*
X13779Y49253D01*
X13494Y48826D01*
X13394Y48323D01*
Y46945D01*
X13494Y46442D01*
X13779Y46016D01*
X13802Y46001D01*
X13747Y45436D01*
X13480Y45326D01*
X12974Y44820D01*
X12700Y44158D01*
Y43442D01*
X12974Y42781D01*
X13393Y42362D01*
Y40793D01*
X13394Y40787D01*
Y39476D01*
X13494Y38973D01*
X13779Y38547D01*
X14206Y38262D01*
X14242Y38255D01*
Y37745D01*
X14206Y37738D01*
X13779Y37453D01*
X13494Y37026D01*
X13394Y36524D01*
Y35146D01*
X13494Y34643D01*
X13779Y34216D01*
X13802Y34201D01*
X13747Y33637D01*
X13480Y33526D01*
X12974Y33020D01*
X12700Y32358D01*
Y31642D01*
X12974Y30981D01*
X13393Y30562D01*
Y28993D01*
X13394Y28987D01*
Y27676D01*
X13494Y27173D01*
X13779Y26747D01*
X14206Y26462D01*
X14242Y26455D01*
Y25945D01*
X14206Y25938D01*
X13779Y25653D01*
X13494Y25226D01*
X13394Y24724D01*
Y23346D01*
X13494Y22843D01*
X13779Y22416D01*
X13802Y22401D01*
X13747Y21837D01*
X13480Y21726D01*
X12974Y21220D01*
X12700Y20558D01*
Y19842D01*
X12974Y19181D01*
X13393Y18762D01*
Y17193D01*
X13394Y17187D01*
Y15876D01*
X13494Y15373D01*
X13779Y14947D01*
X14206Y14662D01*
X14243Y14655D01*
Y14145D01*
X14206Y14138D01*
X13779Y13853D01*
X13494Y13427D01*
X13394Y12924D01*
Y11546D01*
X13494Y11043D01*
X13779Y10616D01*
X14206Y10331D01*
X14709Y10231D01*
X15454D01*
X17659Y8027D01*
X17659Y8027D01*
X18105Y7728D01*
X18632Y7623D01*
X18632Y7624D01*
X24034D01*
X24561Y7728D01*
X25008Y8027D01*
X27212Y10231D01*
X27466D01*
X29652Y8046D01*
X29652Y8046D01*
X30098Y7747D01*
X30625Y7643D01*
X30625Y7643D01*
X36027D01*
X36554Y7747D01*
X37000Y8046D01*
X38840Y9886D01*
X39543D01*
X41402Y8027D01*
X41402Y8027D01*
X41848Y7728D01*
X42375Y7623D01*
X42375Y7624D01*
X47777D01*
X48304Y7728D01*
X48751Y8027D01*
X50955Y10231D01*
X51069D01*
X53273Y8027D01*
X53273Y8027D01*
X53720Y7728D01*
X54246Y7623D01*
X54246Y7624D01*
X59649D01*
X60175Y7728D01*
X60622Y8027D01*
X62827Y10231D01*
X62940D01*
X65145Y8027D01*
X65145Y8027D01*
X65591Y7728D01*
X66118Y7623D01*
X66118Y7624D01*
X71520D01*
X72047Y7728D01*
X72493Y8027D01*
X74698Y10231D01*
X74811D01*
X77016Y8027D01*
X77016Y8027D01*
X77463Y7728D01*
X77989Y7623D01*
X77989Y7624D01*
X83391D01*
X83918Y7728D01*
X84365Y8027D01*
X86569Y10231D01*
X86683D01*
X88887Y8027D01*
X88887Y8027D01*
X89334Y7728D01*
X89861Y7623D01*
X89861Y7624D01*
X95263D01*
X95790Y7728D01*
X96236Y8027D01*
X98441Y10231D01*
X99186D01*
X99689Y10331D01*
X100116Y10616D01*
X100401Y11043D01*
X100501Y11546D01*
Y12168D01*
X102349Y14015D01*
X102647Y14462D01*
X102752Y14989D01*
Y20272D01*
X103214Y20463D01*
X104131Y19546D01*
X104495Y19303D01*
X104924Y19217D01*
X104924Y19217D01*
X106061D01*
X106268Y18717D01*
X104909Y17358D01*
X104666Y16995D01*
X104581Y16565D01*
X104666Y16136D01*
X104909Y15772D01*
X105273Y15529D01*
X105702Y15444D01*
X106131Y15529D01*
X106495Y15772D01*
X108533Y17810D01*
X108533Y17810D01*
X108777Y18174D01*
X108862Y18604D01*
X108862Y18604D01*
Y19636D01*
X109044Y19910D01*
X109130Y20339D01*
X109044Y20768D01*
X108801Y21132D01*
X108438Y21375D01*
X108008Y21460D01*
X108008Y21460D01*
X105830D01*
X105782Y21531D01*
X106050Y22031D01*
X106391D01*
X106894Y22131D01*
X107321Y22416D01*
X107606Y22843D01*
X107705Y23346D01*
Y24091D01*
X108069Y24454D01*
X108074Y24452D01*
X108791D01*
X109452Y24726D01*
X109958Y25232D01*
X110232Y25894D01*
Y26610D01*
X109958Y27272D01*
X109452Y27778D01*
X108791Y28052D01*
X108074D01*
X107413Y27778D01*
X106906Y27272D01*
X106832Y27092D01*
X106774Y27053D01*
X106077Y26356D01*
X106002Y26371D01*
X105837Y26914D01*
X106495Y27572D01*
X106496Y27573D01*
X108533Y29610D01*
X108533Y29610D01*
X108777Y29974D01*
X108862Y30403D01*
X108862Y30403D01*
Y31436D01*
X109044Y31710D01*
X109130Y32139D01*
X109044Y32568D01*
X108801Y32932D01*
X108438Y33175D01*
X108008Y33260D01*
X108008Y33260D01*
X105830D01*
X105782Y33331D01*
X106050Y33831D01*
X106391D01*
X106894Y33931D01*
X107321Y34216D01*
X107606Y34643D01*
X107705Y35146D01*
Y35891D01*
X108069Y36254D01*
X108074Y36252D01*
X108791D01*
X109452Y36526D01*
X109958Y37032D01*
X110232Y37694D01*
Y38410D01*
X109958Y39071D01*
X109452Y39578D01*
X108791Y39852D01*
X108074D01*
X107413Y39578D01*
X106906Y39071D01*
X106832Y38892D01*
X106774Y38853D01*
X106077Y38156D01*
X106002Y38171D01*
X105837Y38714D01*
X106495Y39372D01*
X106496Y39373D01*
X108533Y41410D01*
X108533Y41410D01*
X108777Y41774D01*
X108862Y42204D01*
X108862Y42204D01*
Y43237D01*
X109044Y43510D01*
X109130Y43939D01*
X109044Y44368D01*
X108801Y44732D01*
X108438Y44975D01*
X108008Y45060D01*
X108008Y45060D01*
X105830D01*
X105783Y45131D01*
X106050Y45631D01*
X106391D01*
X106894Y45731D01*
X107321Y46016D01*
X107606Y46442D01*
X107705Y46945D01*
Y47691D01*
X108069Y48054D01*
X108074Y48052D01*
X108791D01*
X109452Y48326D01*
X109958Y48832D01*
X110232Y49494D01*
Y50210D01*
X109958Y50871D01*
X109452Y51378D01*
X108791Y51652D01*
X108074D01*
X107413Y51378D01*
X106906Y50871D01*
X106832Y50691D01*
X106774Y50653D01*
X106077Y49956D01*
X106001Y49971D01*
X105837Y50514D01*
X106495Y51172D01*
X106496Y51173D01*
X108533Y53210D01*
X108533Y53210D01*
X108777Y53574D01*
X108862Y54004D01*
X108862Y54004D01*
Y55036D01*
X109044Y55310D01*
X109130Y55739D01*
X109044Y56168D01*
X108801Y56532D01*
X108438Y56775D01*
X108008Y56860D01*
X108008Y56860D01*
X105830D01*
X105783Y56931D01*
X106050Y57431D01*
X106391D01*
X106894Y57531D01*
X107321Y57816D01*
X107606Y58242D01*
X107705Y58745D01*
Y59491D01*
X108069Y59854D01*
X108074Y59852D01*
X108791D01*
X109452Y60126D01*
X109958Y60632D01*
X110232Y61294D01*
Y62010D01*
X109958Y62671D01*
X109452Y63178D01*
X108791Y63452D01*
X108074D01*
X107413Y63178D01*
X106906Y62671D01*
X106832Y62491D01*
X106774Y62453D01*
X106077Y61756D01*
X106001Y61771D01*
X105837Y62313D01*
X108533Y65010D01*
X108533Y65010D01*
X108777Y65374D01*
X108862Y65803D01*
X108862Y65803D01*
Y66836D01*
X109044Y67109D01*
X109130Y67538D01*
X109044Y67968D01*
X108801Y68332D01*
X108438Y68575D01*
X108008Y68660D01*
X108008Y68660D01*
X105830D01*
X105782Y68731D01*
X106050Y69231D01*
X106391D01*
X106894Y69331D01*
X107321Y69616D01*
X107606Y70042D01*
X107705Y70545D01*
Y71291D01*
X108069Y71654D01*
X108074Y71652D01*
X108791D01*
X109452Y71926D01*
X109958Y72432D01*
X110232Y73094D01*
Y73810D01*
X109958Y74471D01*
X109452Y74978D01*
X108791Y75252D01*
X108074D01*
X107413Y74978D01*
X106906Y74471D01*
X106832Y74291D01*
X106774Y74253D01*
X106077Y73556D01*
X106002Y73571D01*
X105837Y74114D01*
X106495Y74772D01*
X106496Y74773D01*
X108533Y76810D01*
X108533Y76810D01*
X108777Y77174D01*
X108862Y77603D01*
X108862Y77603D01*
Y78636D01*
X109044Y78909D01*
X109130Y79339D01*
X109044Y79768D01*
X108801Y80132D01*
X108438Y80375D01*
X108008Y80460D01*
X108008Y80460D01*
X105830D01*
X105783Y80531D01*
X106050Y81031D01*
X106391D01*
X106894Y81131D01*
X107321Y81416D01*
X107606Y81842D01*
X107705Y82345D01*
Y83091D01*
X108069Y83454D01*
X108074Y83452D01*
X108791D01*
X109452Y83726D01*
X109958Y84232D01*
X110232Y84894D01*
Y85610D01*
X109958Y86271D01*
X109452Y86778D01*
X108791Y87052D01*
X108074D01*
X107413Y86778D01*
X106906Y86271D01*
X106832Y86091D01*
X106774Y86053D01*
X106077Y85356D01*
X106001Y85371D01*
X105837Y85913D01*
X108533Y88610D01*
X108533Y88610D01*
X108777Y88974D01*
X108862Y89403D01*
X108862Y89403D01*
Y90436D01*
X109044Y90709D01*
X109130Y91138D01*
X109044Y91568D01*
X108801Y91931D01*
X108438Y92175D01*
X108008Y92260D01*
X108008Y92260D01*
X105830D01*
X105782Y92331D01*
X106050Y92831D01*
X106391D01*
X106894Y92931D01*
X107321Y93216D01*
X107606Y93642D01*
X107705Y94145D01*
Y94891D01*
X108069Y95254D01*
X108074Y95252D01*
X108791D01*
X109452Y95525D01*
X109958Y96032D01*
X110232Y96693D01*
Y97409D01*
X109958Y98071D01*
X109452Y98577D01*
X108791Y98852D01*
X108074D01*
X107413Y98577D01*
X106906Y98071D01*
X106832Y97891D01*
X106774Y97853D01*
X106774Y97853D01*
X106077Y97156D01*
X106002Y97171D01*
X105837Y97714D01*
X106495Y98372D01*
X106738Y98736D01*
X106824Y99165D01*
X106738Y99594D01*
X106495Y99958D01*
X106131Y100201D01*
X105702Y100286D01*
X105273Y100201D01*
X104909Y99958D01*
X103938Y98987D01*
X103476Y99178D01*
Y100036D01*
X103371Y100563D01*
X103073Y101009D01*
X102639Y101300D01*
X102349Y101734D01*
X101066Y103016D01*
X100620Y103314D01*
X100093Y103419D01*
X92235D01*
X92235Y103419D01*
X91708Y103314D01*
X91262Y103016D01*
X91262Y103016D01*
X90228Y101983D01*
X83911Y108300D01*
X84142Y109164D01*
Y110099D01*
X83900Y111003D01*
X83432Y111813D01*
X82771Y112474D01*
X81960Y112942D01*
X81057Y113184D01*
D02*
G37*
G36*
X106391Y14238D02*
X105013D01*
X104510Y14138D01*
X104084Y13853D01*
X103799Y13427D01*
X103699Y12924D01*
Y11546D01*
X103799Y11043D01*
X104084Y10616D01*
X104510Y10331D01*
X105013Y10231D01*
X106391D01*
X106894Y10331D01*
X107321Y10616D01*
X107606Y11043D01*
X107705Y11546D01*
Y12924D01*
X107606Y13427D01*
X107321Y13853D01*
X106894Y14138D01*
X106391Y14238D01*
D02*
G37*
%LPD*%
G36*
X86688Y101630D02*
X86497Y101168D01*
X85937D01*
X85434Y101068D01*
X85008Y100783D01*
X84723Y100357D01*
X84623Y99854D01*
Y99044D01*
X82416Y96837D01*
X81925D01*
X81718Y97337D01*
X82752Y98372D01*
X82995Y98736D01*
X83081Y99165D01*
X82995Y99594D01*
X82752Y99958D01*
X82389Y100201D01*
X81959Y100286D01*
X81530Y100201D01*
X81166Y99958D01*
X80195Y98987D01*
X79733Y99178D01*
Y105649D01*
X80163Y106079D01*
X81057D01*
X81960Y106321D01*
X81984Y106334D01*
X86688Y101630D01*
D02*
G37*
G36*
X70121Y106079D02*
X70398D01*
X70459Y105988D01*
X74816Y101630D01*
X74625Y101168D01*
X74066D01*
X73563Y101068D01*
X73136Y100783D01*
X72852Y100357D01*
X72751Y99854D01*
Y99044D01*
X70545Y96837D01*
X70054D01*
X69847Y97337D01*
X70881Y98372D01*
X71124Y98736D01*
X71209Y99165D01*
X71124Y99594D01*
X70881Y99958D01*
X70517Y100201D01*
X70088Y100286D01*
X69659Y100201D01*
X69295Y99958D01*
X67600Y98263D01*
X67138Y98454D01*
Y100760D01*
X67138Y100760D01*
X67138Y100760D01*
Y104234D01*
X69223Y106319D01*
X70121Y106079D01*
D02*
G37*
G36*
X32903Y19546D02*
X33267Y19303D01*
X33696Y19217D01*
X33696Y19217D01*
X34832D01*
X35039Y18717D01*
X33681Y17358D01*
X33438Y16995D01*
X33352Y16565D01*
X33438Y16136D01*
X33681Y15772D01*
X34045Y15529D01*
X34474Y15444D01*
X34903Y15529D01*
X35267Y15772D01*
X36637Y17143D01*
X37137Y16936D01*
Y16251D01*
X36874Y15987D01*
X36752Y15906D01*
X36752Y15906D01*
X35084Y14238D01*
X33785D01*
X33282Y14138D01*
X32855Y13853D01*
X32571Y13427D01*
X32471Y12924D01*
Y11546D01*
X32571Y11043D01*
X32669Y10895D01*
X32402Y10395D01*
X31195D01*
X29348Y12243D01*
X31120Y14015D01*
X31419Y14462D01*
X31523Y14989D01*
Y20272D01*
X31985Y20463D01*
X32903Y19546D01*
D02*
G37*
G36*
X92260D02*
X92624Y19303D01*
X93053Y19217D01*
X93053Y19217D01*
X94189D01*
X94396Y18717D01*
X93038Y17358D01*
X92795Y16995D01*
X92709Y16565D01*
X92795Y16136D01*
X93038Y15772D01*
X93401Y15529D01*
X93831Y15444D01*
X94260Y15529D01*
X94624Y15772D01*
X95994Y17143D01*
X96494Y16936D01*
Y16251D01*
X96231Y15987D01*
X96109Y15906D01*
X96109Y15906D01*
X94441Y14238D01*
X93142D01*
X92639Y14138D01*
X92212Y13853D01*
X91928Y13427D01*
X91827Y12924D01*
Y11546D01*
X91928Y11043D01*
X92039Y10876D01*
X91771Y10376D01*
X90431D01*
X88635Y12173D01*
X90477Y14015D01*
X90776Y14462D01*
X90880Y14989D01*
Y20272D01*
X91342Y20463D01*
X92260Y19546D01*
D02*
G37*
G36*
X80388D02*
X80752Y19303D01*
X81181Y19217D01*
X81182Y19217D01*
X82318D01*
X82525Y18717D01*
X81166Y17358D01*
X80923Y16995D01*
X80838Y16565D01*
X80923Y16136D01*
X81166Y15772D01*
X81530Y15529D01*
X81959Y15444D01*
X82389Y15529D01*
X82752Y15772D01*
X84123Y17143D01*
X84623Y16936D01*
Y16251D01*
X84359Y15987D01*
X84237Y15906D01*
X84237Y15906D01*
X82569Y14238D01*
X81270D01*
X80767Y14138D01*
X80341Y13853D01*
X80056Y13427D01*
X79956Y12924D01*
Y11546D01*
X80056Y11043D01*
X80167Y10876D01*
X79900Y10376D01*
X78559D01*
X76763Y12173D01*
X78606Y14015D01*
X78904Y14462D01*
X79009Y14989D01*
Y20272D01*
X79471Y20463D01*
X80388Y19546D01*
D02*
G37*
G36*
X68517D02*
X68881Y19303D01*
X69310Y19217D01*
X69310Y19217D01*
X70446D01*
X70654Y18717D01*
X69295Y17358D01*
X69052Y16995D01*
X68966Y16565D01*
X69052Y16136D01*
X69295Y15772D01*
X69659Y15529D01*
X70088Y15444D01*
X70517Y15529D01*
X70881Y15772D01*
X72251Y17143D01*
X72751Y16936D01*
Y16251D01*
X72488Y15987D01*
X72366Y15906D01*
X72366Y15906D01*
X70698Y14238D01*
X69399D01*
X68896Y14138D01*
X68470Y13853D01*
X68185Y13427D01*
X68085Y12924D01*
Y11546D01*
X68185Y11043D01*
X68296Y10876D01*
X68028Y10376D01*
X66688D01*
X64892Y12173D01*
X66734Y14015D01*
X67033Y14462D01*
X67137Y14989D01*
Y20272D01*
X67599Y20463D01*
X68517Y19546D01*
D02*
G37*
G36*
X56646D02*
X57009Y19303D01*
X57439Y19217D01*
X57439Y19217D01*
X58575D01*
X58782Y18717D01*
X57423Y17358D01*
X57180Y16995D01*
X57095Y16565D01*
X57180Y16136D01*
X57423Y15772D01*
X57787Y15529D01*
X58217Y15444D01*
X58646Y15529D01*
X59009Y15772D01*
X60380Y17143D01*
X60880Y16936D01*
Y16251D01*
X60617Y15987D01*
X60494Y15906D01*
X60494Y15906D01*
X58827Y14238D01*
X57528D01*
X57025Y14138D01*
X56598Y13853D01*
X56313Y13427D01*
X56213Y12924D01*
Y11546D01*
X56313Y11043D01*
X56424Y10876D01*
X56157Y10376D01*
X54817D01*
X53020Y12173D01*
X54863Y14015D01*
X55161Y14462D01*
X55266Y14989D01*
Y20272D01*
X55728Y20463D01*
X56646Y19546D01*
D02*
G37*
G36*
X44774D02*
X45138Y19303D01*
X45567Y19217D01*
X45567Y19217D01*
X46704D01*
X46911Y18717D01*
X45552Y17358D01*
X45309Y16995D01*
X45224Y16565D01*
X45309Y16136D01*
X45552Y15772D01*
X45916Y15529D01*
X46345Y15444D01*
X46774Y15529D01*
X47138Y15772D01*
X48509Y17143D01*
X49009Y16936D01*
Y16251D01*
X48745Y15987D01*
X48623Y15906D01*
X48623Y15906D01*
X46955Y14238D01*
X45656D01*
X45153Y14138D01*
X44727Y13853D01*
X44442Y13427D01*
X44342Y12924D01*
Y11546D01*
X44442Y11043D01*
X44553Y10876D01*
X44286Y10376D01*
X42945D01*
X41149Y12173D01*
X42992Y14015D01*
X43290Y14462D01*
X43395Y14989D01*
Y20272D01*
X43857Y20463D01*
X44774Y19546D01*
D02*
G37*
G36*
X21032D02*
X21395Y19303D01*
X21824Y19217D01*
X21825Y19217D01*
X22961D01*
X23168Y18717D01*
X21809Y17358D01*
X21566Y16995D01*
X21481Y16565D01*
X21566Y16136D01*
X21809Y15772D01*
X22173Y15529D01*
X22602Y15444D01*
X23032Y15529D01*
X23395Y15772D01*
X24766Y17143D01*
X25266Y16936D01*
Y16251D01*
X25003Y15987D01*
X24880Y15906D01*
X24880Y15906D01*
X23212Y14238D01*
X21913D01*
X21410Y14138D01*
X20984Y13853D01*
X20699Y13427D01*
X20599Y12924D01*
Y11546D01*
X20699Y11043D01*
X20810Y10876D01*
X20543Y10376D01*
X19202D01*
X17401Y12178D01*
Y12291D01*
X19554Y14445D01*
X19852Y14891D01*
X19957Y15418D01*
Y19967D01*
X20419Y20158D01*
X21032Y19546D01*
D02*
G37*
D10*
X45567Y20339D02*
X48651D01*
X48383Y20071D02*
X48651Y20339D01*
X43467Y22439D02*
X45567Y20339D01*
X48383Y18604D02*
Y20071D01*
X46345Y16565D02*
X48383Y18604D01*
X67210Y96287D02*
X70088Y99165D01*
X67210Y93239D02*
Y96287D01*
X45567Y91138D02*
X48651D01*
X81181D02*
X84265D01*
X19724Y84487D02*
X22602Y87365D01*
X19724Y81439D02*
Y84487D01*
X22602Y87365D02*
X24641Y89403D01*
X19724Y81439D02*
X21824Y79339D01*
X104924Y91138D02*
X108008D01*
X102824Y93239D02*
X104924Y91138D01*
X107740Y90870D02*
X108008Y91138D01*
X102824Y96287D02*
X105702Y99165D01*
X102824Y93239D02*
Y96287D01*
X105702Y87365D02*
X107740Y89403D01*
Y90870D01*
Y77603D02*
Y79071D01*
X105702Y75565D02*
X107740Y77603D01*
X102824Y81439D02*
Y84487D01*
X105702Y87365D01*
X107740Y79071D02*
X108008Y79339D01*
X102824Y81439D02*
X104924Y79339D01*
X108008D01*
X107740Y65803D02*
Y67271D01*
X105702Y63765D02*
X107740Y65803D01*
X102824Y69639D02*
Y72687D01*
X105702Y75565D01*
X107740Y67271D02*
X108008Y67538D01*
X102824Y69639D02*
X104924Y67538D01*
X108008D01*
X107740Y42204D02*
Y43671D01*
X105702Y40165D02*
X107740Y42204D01*
X102824Y46039D02*
Y49087D01*
X105702Y51965D01*
X107740Y43671D02*
X108008Y43939D01*
X102824Y46039D02*
X104924Y43939D01*
X108008D01*
X107740Y54004D02*
Y55471D01*
X105702Y51965D02*
X107740Y54004D01*
X102824Y57839D02*
Y60887D01*
X105702Y63765D01*
X107740Y55471D02*
X108008Y55739D01*
X102824Y57839D02*
X104924Y55739D01*
X108008D01*
X107740Y30403D02*
Y31871D01*
X105702Y28365D02*
X107740Y30403D01*
X102824Y34239D02*
Y37287D01*
X105702Y40165D01*
X107740Y31871D02*
X108008Y32139D01*
X102824Y34239D02*
X104924Y32139D01*
X108008D01*
X107740Y18604D02*
Y20071D01*
X105702Y16565D02*
X107740Y18604D01*
X102824Y22439D02*
Y25487D01*
X105702Y28365D01*
X107740Y20071D02*
X108008Y20339D01*
X102824Y22439D02*
X104924Y20339D01*
X108008D01*
X93053Y91138D02*
X96137D01*
X90953Y93239D02*
X93053Y91138D01*
X95869Y90870D02*
X96137Y91138D01*
X94592Y83795D02*
X94785D01*
X96902Y85912D01*
X96942D02*
X98395Y87365D01*
X98497D01*
X93831Y83034D02*
X94592Y83795D01*
X96902Y85912D02*
X96942D01*
X93831Y94835D02*
X93871D01*
X97736Y98404D02*
X98497Y99165D01*
X93871Y94835D02*
X97440Y98404D01*
X97736D01*
X90953Y96287D02*
X93831Y99165D01*
X90953Y93239D02*
Y96287D01*
X93831Y87365D02*
X95869Y89403D01*
Y90870D01*
Y77603D02*
Y79071D01*
X93831Y75565D02*
X95869Y77603D01*
X90953Y81439D02*
Y84487D01*
X93831Y87365D01*
X97440Y86604D02*
X97736D01*
X93871Y83035D02*
X97440Y86604D01*
X97736D02*
X98497Y87365D01*
X93831Y83035D02*
X93871D01*
X96902Y74112D02*
X96942D01*
X93831Y71235D02*
X94592Y71996D01*
X98395Y75565D02*
X98497D01*
X96942Y74112D02*
X98395Y75565D01*
X94785Y71996D02*
X96902Y74112D01*
X94592Y71996D02*
X94785D01*
X95869Y79071D02*
X96137Y79339D01*
X90953Y81439D02*
X93053Y79339D01*
X96137D01*
X95869Y65803D02*
Y67271D01*
X93831Y63765D02*
X95869Y65803D01*
X90953Y69639D02*
Y72687D01*
X93831Y75565D01*
X97440Y74804D02*
X97736D01*
X93871Y71235D02*
X97440Y74804D01*
X97736D02*
X98497Y75565D01*
X93831Y71235D02*
X93871D01*
X96902Y62312D02*
X96942D01*
X93831Y59434D02*
X94592Y60196D01*
X98395Y63765D02*
X98497D01*
X96942Y62312D02*
X98395Y63765D01*
X94785Y60196D02*
X96902Y62312D01*
X94592Y60196D02*
X94785D01*
X95869Y67271D02*
X96137Y67538D01*
X90953Y69639D02*
X93053Y67538D01*
X96137D01*
X95869Y42204D02*
Y43671D01*
X93831Y40165D02*
X95869Y42204D01*
X90953Y46039D02*
Y49087D01*
X93831Y51965D01*
X97440Y51204D02*
X97736D01*
X93871Y47636D02*
X97440Y51204D01*
X97736D02*
X98497Y51965D01*
X93831Y47636D02*
X93871D01*
X96902Y38713D02*
X96942D01*
X93831Y35835D02*
X94592Y36596D01*
X98395Y40165D02*
X98497D01*
X96942Y38713D02*
X98395Y40165D01*
X94785Y36596D02*
X96902Y38713D01*
X94592Y36596D02*
X94785D01*
X95869Y43671D02*
X96137Y43939D01*
X90953Y46039D02*
X93053Y43939D01*
X96137D01*
X95869Y54004D02*
Y55471D01*
X93831Y51965D02*
X95869Y54004D01*
X90953Y57839D02*
Y60887D01*
X93831Y63765D01*
X97440Y63004D02*
X97736D01*
X93871Y59435D02*
X97440Y63004D01*
X97736D02*
X98497Y63765D01*
X93831Y59435D02*
X93871D01*
X96902Y50513D02*
X96942D01*
X93831Y47635D02*
X94592Y48396D01*
X98395Y51965D02*
X98497D01*
X96942Y50513D02*
X98395Y51965D01*
X94785Y48396D02*
X96902Y50513D01*
X94592Y48396D02*
X94785D01*
X95869Y55471D02*
X96137Y55739D01*
X90953Y57839D02*
X93053Y55739D01*
X96137D01*
X95869Y30403D02*
Y31871D01*
X93831Y28365D02*
X95869Y30403D01*
X90953Y34239D02*
Y37287D01*
X93831Y40165D01*
X97440Y39404D02*
X97736D01*
X93871Y35835D02*
X97440Y39404D01*
X97736D02*
X98497Y40165D01*
X93831Y35835D02*
X93871D01*
X96902Y26913D02*
X96942D01*
X93831Y24035D02*
X94592Y24796D01*
X98395Y28365D02*
X98497D01*
X96942Y26913D02*
X98395Y28365D01*
X94785Y24796D02*
X96902Y26913D01*
X94592Y24796D02*
X94785D01*
X95869Y31871D02*
X96137Y32139D01*
X90953Y34239D02*
X93053Y32139D01*
X96137D01*
X95869Y18604D02*
Y20071D01*
X93831Y16565D02*
X95869Y18604D01*
X90953Y22439D02*
Y25487D01*
X93831Y28365D01*
X97440Y27604D02*
X97736D01*
X93871Y24035D02*
X97440Y27604D01*
X97736D02*
X98497Y28365D01*
X93831Y24035D02*
X93871D01*
X96902Y15113D02*
X96942D01*
X93831Y12235D02*
X94592Y12996D01*
X98395Y16565D02*
X98497D01*
X96942Y15113D02*
X98395Y16565D01*
X94785Y12996D02*
X96902Y15113D01*
X94592Y12996D02*
X94785D01*
X95869Y20071D02*
X96137Y20339D01*
X90953Y22439D02*
X93053Y20339D01*
X96137D01*
X79081Y93239D02*
X81181Y91138D01*
X83997Y90870D02*
X84265Y91138D01*
X82721Y83795D02*
X82914D01*
X85030Y85912D01*
X85071D02*
X86524Y87365D01*
X86626D01*
X81959Y83034D02*
X82721Y83795D01*
X85030Y85912D02*
X85071D01*
X81959Y94835D02*
X82000D01*
X85865Y98404D02*
X86626Y99165D01*
X82000Y94835D02*
X85568Y98404D01*
X85865D01*
X79081Y96287D02*
X81959Y99165D01*
X79081Y93239D02*
Y96287D01*
X81959Y87365D02*
X83997Y89403D01*
Y90870D01*
Y77603D02*
Y79071D01*
X81959Y75565D02*
X83997Y77603D01*
X79081Y81439D02*
Y84487D01*
X81959Y87365D01*
X85568Y86604D02*
X85865D01*
X82000Y83035D02*
X85568Y86604D01*
X85865D02*
X86626Y87365D01*
X81959Y83035D02*
X82000D01*
X85030Y74112D02*
X85071D01*
X81959Y71235D02*
X82721Y71996D01*
X86524Y75565D02*
X86626D01*
X85071Y74112D02*
X86524Y75565D01*
X82914Y71996D02*
X85030Y74112D01*
X82721Y71996D02*
X82914D01*
X83997Y79071D02*
X84265Y79339D01*
X79081Y81439D02*
X81181Y79339D01*
X84265D01*
X83997Y65803D02*
Y67271D01*
X81959Y63765D02*
X83997Y65803D01*
X79081Y69639D02*
Y72687D01*
X81959Y75565D01*
X85568Y74804D02*
X85865D01*
X82000Y71235D02*
X85568Y74804D01*
X85865D02*
X86626Y75565D01*
X81959Y71235D02*
X82000D01*
X85030Y62312D02*
X85071D01*
X81959Y59434D02*
X82721Y60196D01*
X86524Y63765D02*
X86626D01*
X85071Y62312D02*
X86524Y63765D01*
X82914Y60196D02*
X85030Y62312D01*
X82721Y60196D02*
X82914D01*
X83997Y67271D02*
X84265Y67538D01*
X79081Y69639D02*
X81181Y67538D01*
X84265D01*
X83997Y42204D02*
Y43671D01*
X81959Y40165D02*
X83997Y42204D01*
X79081Y46039D02*
Y49087D01*
X81959Y51965D01*
X85568Y51204D02*
X85865D01*
X82000Y47636D02*
X85568Y51204D01*
X85865D02*
X86626Y51965D01*
X81959Y47636D02*
X82000D01*
X85030Y38713D02*
X85071D01*
X81959Y35835D02*
X82721Y36596D01*
X86524Y40165D02*
X86626D01*
X85071Y38713D02*
X86524Y40165D01*
X82914Y36596D02*
X85030Y38713D01*
X82721Y36596D02*
X82914D01*
X83997Y43671D02*
X84265Y43939D01*
X79081Y46039D02*
X81181Y43939D01*
X84265D01*
X83997Y54004D02*
Y55471D01*
X81959Y51965D02*
X83997Y54004D01*
X79081Y57839D02*
Y60887D01*
X81959Y63765D01*
X85568Y63004D02*
X85865D01*
X82000Y59435D02*
X85568Y63004D01*
X85865D02*
X86626Y63765D01*
X81959Y59435D02*
X82000D01*
X85030Y50513D02*
X85071D01*
X81959Y47635D02*
X82721Y48396D01*
X86524Y51965D02*
X86626D01*
X85071Y50513D02*
X86524Y51965D01*
X82914Y48396D02*
X85030Y50513D01*
X82721Y48396D02*
X82914D01*
X83997Y55471D02*
X84265Y55739D01*
X79081Y57839D02*
X81181Y55739D01*
X84265D01*
X83997Y30403D02*
Y31871D01*
X81959Y28365D02*
X83997Y30403D01*
X79081Y34239D02*
Y37287D01*
X81959Y40165D01*
X85568Y39404D02*
X85865D01*
X82000Y35835D02*
X85568Y39404D01*
X85865D02*
X86626Y40165D01*
X81959Y35835D02*
X82000D01*
X85030Y26913D02*
X85071D01*
X81959Y24035D02*
X82721Y24796D01*
X86524Y28365D02*
X86626D01*
X85071Y26913D02*
X86524Y28365D01*
X82914Y24796D02*
X85030Y26913D01*
X82721Y24796D02*
X82914D01*
X83997Y31871D02*
X84265Y32139D01*
X79081Y34239D02*
X81181Y32139D01*
X84265D01*
X83997Y18604D02*
Y20071D01*
X81959Y16565D02*
X83997Y18604D01*
X79081Y22439D02*
Y25487D01*
X81959Y28365D01*
X85568Y27604D02*
X85865D01*
X82000Y24035D02*
X85568Y27604D01*
X85865D02*
X86626Y28365D01*
X81959Y24035D02*
X82000D01*
X85030Y15113D02*
X85071D01*
X81959Y12235D02*
X82721Y12996D01*
X86524Y16565D02*
X86626D01*
X85071Y15113D02*
X86524Y16565D01*
X82914Y12996D02*
X85030Y15113D01*
X82721Y12996D02*
X82914D01*
X83997Y20071D02*
X84265Y20339D01*
X79081Y22439D02*
X81181Y20339D01*
X84265D01*
X69310Y91138D02*
X72394D01*
X67210Y93239D02*
X69310Y91138D01*
X72126Y90870D02*
X72394Y91138D01*
X70849Y83795D02*
X71042D01*
X73159Y85912D01*
X73199D02*
X74652Y87365D01*
X74755D01*
X70088Y83034D02*
X70849Y83795D01*
X73159Y85912D02*
X73199D01*
X70088Y94835D02*
X70129D01*
X73993Y98404D02*
X74755Y99165D01*
X70129Y94835D02*
X73697Y98404D01*
X73993D01*
X70088Y87365D02*
X72126Y89403D01*
Y90870D01*
Y77603D02*
Y79071D01*
X70088Y75565D02*
X72126Y77603D01*
X67210Y81439D02*
Y84487D01*
X70088Y87365D01*
X73697Y86604D02*
X73993D01*
X70129Y83035D02*
X73697Y86604D01*
X73993D02*
X74755Y87365D01*
X70088Y83035D02*
X70129D01*
X73159Y74112D02*
X73199D01*
X70088Y71235D02*
X70849Y71996D01*
X74652Y75565D02*
X74755D01*
X73199Y74112D02*
X74652Y75565D01*
X71042Y71996D02*
X73159Y74112D01*
X70849Y71996D02*
X71042D01*
X72126Y79071D02*
X72394Y79339D01*
X67210Y81439D02*
X69310Y79339D01*
X72394D01*
X72126Y65803D02*
Y67271D01*
X70088Y63765D02*
X72126Y65803D01*
X67210Y69639D02*
Y72687D01*
X70088Y75565D01*
X73697Y74804D02*
X73993D01*
X70129Y71235D02*
X73697Y74804D01*
X73993D02*
X74755Y75565D01*
X70088Y71235D02*
X70129D01*
X73159Y62312D02*
X73199D01*
X70088Y59434D02*
X70849Y60196D01*
X74652Y63765D02*
X74755D01*
X73199Y62312D02*
X74652Y63765D01*
X71042Y60196D02*
X73159Y62312D01*
X70849Y60196D02*
X71042D01*
X72126Y67271D02*
X72394Y67538D01*
X67210Y69639D02*
X69310Y67538D01*
X72394D01*
X72126Y42204D02*
Y43671D01*
X70088Y40165D02*
X72126Y42204D01*
X67210Y46039D02*
Y49087D01*
X70088Y51965D01*
X73697Y51204D02*
X73993D01*
X70129Y47636D02*
X73697Y51204D01*
X73993D02*
X74755Y51965D01*
X70088Y47636D02*
X70129D01*
X73159Y38713D02*
X73199D01*
X70088Y35835D02*
X70849Y36596D01*
X74652Y40165D02*
X74755D01*
X73199Y38713D02*
X74652Y40165D01*
X71042Y36596D02*
X73159Y38713D01*
X70849Y36596D02*
X71042D01*
X72126Y43671D02*
X72394Y43939D01*
X67210Y46039D02*
X69310Y43939D01*
X72394D01*
X72126Y54004D02*
Y55471D01*
X70088Y51965D02*
X72126Y54004D01*
X67210Y57839D02*
Y60887D01*
X70088Y63765D01*
X73697Y63004D02*
X73993D01*
X70129Y59435D02*
X73697Y63004D01*
X73993D02*
X74755Y63765D01*
X70088Y59435D02*
X70129D01*
X73159Y50513D02*
X73199D01*
X70088Y47635D02*
X70849Y48396D01*
X74652Y51965D02*
X74755D01*
X73199Y50513D02*
X74652Y51965D01*
X71042Y48396D02*
X73159Y50513D01*
X70849Y48396D02*
X71042D01*
X72126Y55471D02*
X72394Y55739D01*
X67210Y57839D02*
X69310Y55739D01*
X72394D01*
X72126Y30403D02*
Y31871D01*
X70088Y28365D02*
X72126Y30403D01*
X67210Y34239D02*
Y37287D01*
X70088Y40165D01*
X73697Y39404D02*
X73993D01*
X70129Y35835D02*
X73697Y39404D01*
X73993D02*
X74755Y40165D01*
X70088Y35835D02*
X70129D01*
X73159Y26913D02*
X73199D01*
X70088Y24035D02*
X70849Y24796D01*
X74652Y28365D02*
X74755D01*
X73199Y26913D02*
X74652Y28365D01*
X71042Y24796D02*
X73159Y26913D01*
X70849Y24796D02*
X71042D01*
X72126Y31871D02*
X72394Y32139D01*
X67210Y34239D02*
X69310Y32139D01*
X72394D01*
X72126Y18604D02*
Y20071D01*
X70088Y16565D02*
X72126Y18604D01*
X67210Y22439D02*
Y25487D01*
X70088Y28365D01*
X73697Y27604D02*
X73993D01*
X70129Y24035D02*
X73697Y27604D01*
X73993D02*
X74755Y28365D01*
X70088Y24035D02*
X70129D01*
X73159Y15113D02*
X73199D01*
X70088Y12235D02*
X70849Y12996D01*
X74652Y16565D02*
X74755D01*
X73199Y15113D02*
X74652Y16565D01*
X71042Y12996D02*
X73159Y15113D01*
X70849Y12996D02*
X71042D01*
X72126Y20071D02*
X72394Y20339D01*
X67210Y22439D02*
X69310Y20339D01*
X72394D01*
X57439Y91138D02*
X60522D01*
X55339Y93239D02*
X57439Y91138D01*
X60255Y90870D02*
X60522Y91138D01*
X58978Y83795D02*
X59171D01*
X61287Y85912D01*
X61328D02*
X62781Y87365D01*
X62883D01*
X58217Y83034D02*
X58978Y83795D01*
X61287Y85912D02*
X61328D01*
X58217Y94835D02*
X58257D01*
X62122Y98404D02*
X62883Y99165D01*
X58257Y94835D02*
X61826Y98404D01*
X62122D01*
X55339Y96287D02*
X58217Y99165D01*
X55339Y93239D02*
Y96287D01*
X58217Y87365D02*
X60255Y89403D01*
Y90870D01*
Y77603D02*
Y79071D01*
X58217Y75565D02*
X60255Y77603D01*
X55339Y81439D02*
Y84487D01*
X58217Y87365D01*
X61826Y86604D02*
X62122D01*
X58257Y83035D02*
X61826Y86604D01*
X62122D02*
X62883Y87365D01*
X58217Y83035D02*
X58257D01*
X61287Y74112D02*
X61328D01*
X58217Y71235D02*
X58978Y71996D01*
X62781Y75565D02*
X62883D01*
X61328Y74112D02*
X62781Y75565D01*
X59171Y71996D02*
X61287Y74112D01*
X58978Y71996D02*
X59171D01*
X60255Y79071D02*
X60522Y79339D01*
X55339Y81439D02*
X57439Y79339D01*
X60522D01*
X60255Y65803D02*
Y67271D01*
X58217Y63765D02*
X60255Y65803D01*
X55339Y69639D02*
Y72687D01*
X58217Y75565D01*
X61826Y74804D02*
X62122D01*
X58257Y71235D02*
X61826Y74804D01*
X62122D02*
X62883Y75565D01*
X58217Y71235D02*
X58257D01*
X61287Y62312D02*
X61328D01*
X58217Y59434D02*
X58978Y60196D01*
X62781Y63765D02*
X62883D01*
X61328Y62312D02*
X62781Y63765D01*
X59171Y60196D02*
X61287Y62312D01*
X58978Y60196D02*
X59171D01*
X60255Y67271D02*
X60522Y67538D01*
X55339Y69639D02*
X57439Y67538D01*
X60522D01*
X60255Y42204D02*
Y43671D01*
X58217Y40165D02*
X60255Y42204D01*
X55339Y46039D02*
Y49087D01*
X58217Y51965D01*
X61826Y51204D02*
X62122D01*
X58257Y47636D02*
X61826Y51204D01*
X62122D02*
X62883Y51965D01*
X58217Y47636D02*
X58257D01*
X61287Y38713D02*
X61328D01*
X58217Y35835D02*
X58978Y36596D01*
X62781Y40165D02*
X62883D01*
X61328Y38713D02*
X62781Y40165D01*
X59171Y36596D02*
X61287Y38713D01*
X58978Y36596D02*
X59171D01*
X60255Y43671D02*
X60522Y43939D01*
X55339Y46039D02*
X57439Y43939D01*
X60522D01*
X60255Y54004D02*
Y55471D01*
X58217Y51965D02*
X60255Y54004D01*
X55339Y57839D02*
Y60887D01*
X58217Y63765D01*
X61826Y63004D02*
X62122D01*
X58257Y59435D02*
X61826Y63004D01*
X62122D02*
X62883Y63765D01*
X58217Y59435D02*
X58257D01*
X61287Y50513D02*
X61328D01*
X58217Y47635D02*
X58978Y48396D01*
X62781Y51965D02*
X62883D01*
X61328Y50513D02*
X62781Y51965D01*
X59171Y48396D02*
X61287Y50513D01*
X58978Y48396D02*
X59171D01*
X60255Y55471D02*
X60522Y55739D01*
X55339Y57839D02*
X57439Y55739D01*
X60522D01*
X60255Y30403D02*
Y31871D01*
X58217Y28365D02*
X60255Y30403D01*
X55339Y34239D02*
Y37287D01*
X58217Y40165D01*
X61826Y39404D02*
X62122D01*
X58257Y35835D02*
X61826Y39404D01*
X62122D02*
X62883Y40165D01*
X58217Y35835D02*
X58257D01*
X61287Y26913D02*
X61328D01*
X58217Y24035D02*
X58978Y24796D01*
X62781Y28365D02*
X62883D01*
X61328Y26913D02*
X62781Y28365D01*
X59171Y24796D02*
X61287Y26913D01*
X58978Y24796D02*
X59171D01*
X60255Y31871D02*
X60522Y32139D01*
X55339Y34239D02*
X57439Y32139D01*
X60522D01*
X60255Y18604D02*
Y20071D01*
X58217Y16565D02*
X60255Y18604D01*
X55339Y22439D02*
Y25487D01*
X58217Y28365D01*
X61826Y27604D02*
X62122D01*
X58257Y24035D02*
X61826Y27604D01*
X62122D02*
X62883Y28365D01*
X58217Y24035D02*
X58257D01*
X61287Y15113D02*
X61328D01*
X58217Y12235D02*
X58978Y12996D01*
X62781Y16565D02*
X62883D01*
X61328Y15113D02*
X62781Y16565D01*
X59171Y12996D02*
X61287Y15113D01*
X58978Y12996D02*
X59171D01*
X60255Y20071D02*
X60522Y20339D01*
X55339Y22439D02*
X57439Y20339D01*
X60522D01*
X43467Y93239D02*
X45567Y91138D01*
X48383Y90870D02*
X48651Y91138D01*
X47107Y83795D02*
X47300D01*
X49416Y85912D01*
X49457D02*
X50910Y87365D01*
X51012D01*
X46345Y83034D02*
X47107Y83795D01*
X49416Y85912D02*
X49457D01*
X46345Y94835D02*
X46386D01*
X50251Y98404D02*
X51012Y99165D01*
X46386Y94835D02*
X49954Y98404D01*
X50251D01*
X43467Y96287D02*
X46345Y99165D01*
X43467Y93239D02*
Y96287D01*
X46345Y87365D02*
X48383Y89403D01*
Y90870D01*
Y77603D02*
Y79071D01*
X46345Y75565D02*
X48383Y77603D01*
X43467Y81439D02*
Y84487D01*
X46345Y87365D01*
X49954Y86604D02*
X50251D01*
X46386Y83035D02*
X49954Y86604D01*
X50251D02*
X51012Y87365D01*
X46345Y83035D02*
X46386D01*
X49416Y74112D02*
X49457D01*
X46345Y71235D02*
X47107Y71996D01*
X50910Y75565D02*
X51012D01*
X49457Y74112D02*
X50910Y75565D01*
X47300Y71996D02*
X49416Y74112D01*
X47107Y71996D02*
X47300D01*
X48383Y79071D02*
X48651Y79339D01*
X43467Y81439D02*
X45567Y79339D01*
X48651D01*
X48383Y65803D02*
Y67271D01*
X46345Y63765D02*
X48383Y65803D01*
X43467Y69639D02*
Y72687D01*
X46345Y75565D01*
X49954Y74804D02*
X50251D01*
X46386Y71235D02*
X49954Y74804D01*
X50251D02*
X51012Y75565D01*
X46345Y71235D02*
X46386D01*
X49416Y62312D02*
X49457D01*
X46345Y59434D02*
X47107Y60196D01*
X50910Y63765D02*
X51012D01*
X49457Y62312D02*
X50910Y63765D01*
X47300Y60196D02*
X49416Y62312D01*
X47107Y60196D02*
X47300D01*
X48383Y67271D02*
X48651Y67538D01*
X43467Y69639D02*
X45567Y67538D01*
X48651D01*
X48383Y42204D02*
Y43671D01*
X46345Y40165D02*
X48383Y42204D01*
X43467Y46039D02*
Y49087D01*
X46345Y51965D01*
X49954Y51204D02*
X50251D01*
X46386Y47636D02*
X49954Y51204D01*
X50251D02*
X51012Y51965D01*
X46345Y47636D02*
X46386D01*
X49416Y38713D02*
X49457D01*
X46345Y35835D02*
X47107Y36596D01*
X50910Y40165D02*
X51012D01*
X49457Y38713D02*
X50910Y40165D01*
X47300Y36596D02*
X49416Y38713D01*
X47107Y36596D02*
X47300D01*
X48383Y43671D02*
X48651Y43939D01*
X43467Y46039D02*
X45567Y43939D01*
X48651D01*
X48383Y54004D02*
Y55471D01*
X46345Y51965D02*
X48383Y54004D01*
X43467Y57839D02*
Y60887D01*
X46345Y63765D01*
X49954Y63004D02*
X50251D01*
X46386Y59435D02*
X49954Y63004D01*
X50251D02*
X51012Y63765D01*
X46345Y59435D02*
X46386D01*
X49416Y50513D02*
X49457D01*
X46345Y47635D02*
X47107Y48396D01*
X50910Y51965D02*
X51012D01*
X49457Y50513D02*
X50910Y51965D01*
X47300Y48396D02*
X49416Y50513D01*
X47107Y48396D02*
X47300D01*
X48383Y55471D02*
X48651Y55739D01*
X43467Y57839D02*
X45567Y55739D01*
X48651D01*
X48383Y30403D02*
Y31871D01*
X46345Y28365D02*
X48383Y30403D01*
X43467Y34239D02*
Y37287D01*
X46345Y40165D01*
X49954Y39404D02*
X50251D01*
X46386Y35835D02*
X49954Y39404D01*
X50251D02*
X51012Y40165D01*
X46345Y35835D02*
X46386D01*
X49416Y26913D02*
X49457D01*
X46345Y24035D02*
X47107Y24796D01*
X50910Y28365D02*
X51012D01*
X49457Y26913D02*
X50910Y28365D01*
X47300Y24796D02*
X49416Y26913D01*
X47107Y24796D02*
X47300D01*
X48383Y31871D02*
X48651Y32139D01*
X43467Y34239D02*
X45567Y32139D01*
X48651D01*
X43467Y22439D02*
Y25487D01*
X46345Y28365D01*
X49954Y27604D02*
X50251D01*
X46386Y24035D02*
X49954Y27604D01*
X50251D02*
X51012Y28365D01*
X46345Y24035D02*
X46386D01*
X49416Y15113D02*
X49457D01*
X46345Y12235D02*
X47107Y12996D01*
X50910Y16565D02*
X51012D01*
X49457Y15113D02*
X50910Y16565D01*
X47300Y12996D02*
X49416Y15113D01*
X47107Y12996D02*
X47300D01*
X33696Y91138D02*
X36780D01*
X31596Y93239D02*
X33696Y91138D01*
X36512Y90870D02*
X36780Y91138D01*
X35235Y83795D02*
X35428D01*
X37545Y85912D01*
X37585D02*
X39038Y87365D01*
X39140D01*
X34474Y83034D02*
X35235Y83795D01*
X37545Y85912D02*
X37585D01*
X34474Y94835D02*
X34515D01*
X38379Y98404D02*
X39140Y99165D01*
X34515Y94835D02*
X38083Y98404D01*
X38379D01*
X31596Y96287D02*
X34474Y99165D01*
X31596Y93239D02*
Y96287D01*
X34474Y87365D02*
X36512Y89403D01*
Y90870D01*
Y77603D02*
Y79071D01*
X34474Y75565D02*
X36512Y77603D01*
X31596Y81439D02*
Y84487D01*
X34474Y87365D01*
X38083Y86604D02*
X38379D01*
X34515Y83035D02*
X38083Y86604D01*
X38379D02*
X39140Y87365D01*
X34474Y83035D02*
X34515D01*
X37545Y74112D02*
X37585D01*
X34474Y71235D02*
X35235Y71996D01*
X39038Y75565D02*
X39140D01*
X37585Y74112D02*
X39038Y75565D01*
X35428Y71996D02*
X37545Y74112D01*
X35235Y71996D02*
X35428D01*
X36512Y79071D02*
X36780Y79339D01*
X31596Y81439D02*
X33696Y79339D01*
X36780D01*
X36512Y65803D02*
Y67271D01*
X34474Y63765D02*
X36512Y65803D01*
X31596Y69639D02*
Y72687D01*
X34474Y75565D01*
X38083Y74804D02*
X38379D01*
X34515Y71235D02*
X38083Y74804D01*
X38379D02*
X39140Y75565D01*
X34474Y71235D02*
X34515D01*
X37545Y62312D02*
X37585D01*
X34474Y59434D02*
X35235Y60196D01*
X39038Y63765D02*
X39140D01*
X37585Y62312D02*
X39038Y63765D01*
X35428Y60196D02*
X37545Y62312D01*
X35235Y60196D02*
X35428D01*
X36512Y67271D02*
X36780Y67538D01*
X31596Y69639D02*
X33696Y67538D01*
X36780D01*
X36512Y42204D02*
Y43671D01*
X34474Y40165D02*
X36512Y42204D01*
X31596Y46039D02*
Y49087D01*
X34474Y51965D01*
X38083Y51204D02*
X38379D01*
X34515Y47636D02*
X38083Y51204D01*
X38379D02*
X39140Y51965D01*
X34474Y47636D02*
X34515D01*
X37545Y38713D02*
X37585D01*
X34474Y35835D02*
X35235Y36596D01*
X39038Y40165D02*
X39140D01*
X37585Y38713D02*
X39038Y40165D01*
X35428Y36596D02*
X37545Y38713D01*
X35235Y36596D02*
X35428D01*
X36512Y43671D02*
X36780Y43939D01*
X31596Y46039D02*
X33696Y43939D01*
X36780D01*
X36512Y54004D02*
Y55471D01*
X34474Y51965D02*
X36512Y54004D01*
X31596Y57839D02*
Y60887D01*
X34474Y63765D01*
X38083Y63004D02*
X38379D01*
X34515Y59435D02*
X38083Y63004D01*
X38379D02*
X39140Y63765D01*
X34474Y59435D02*
X34515D01*
X37545Y50513D02*
X37585D01*
X34474Y47635D02*
X35235Y48396D01*
X39038Y51965D02*
X39140D01*
X37585Y50513D02*
X39038Y51965D01*
X35428Y48396D02*
X37545Y50513D01*
X35235Y48396D02*
X35428D01*
X36512Y55471D02*
X36780Y55739D01*
X31596Y57839D02*
X33696Y55739D01*
X36780D01*
X36512Y30403D02*
Y31871D01*
X34474Y28365D02*
X36512Y30403D01*
X31596Y34239D02*
Y37287D01*
X34474Y40165D01*
X38083Y39404D02*
X38379D01*
X34515Y35835D02*
X38083Y39404D01*
X38379D02*
X39140Y40165D01*
X34474Y35835D02*
X34515D01*
X37545Y26913D02*
X37585D01*
X34474Y24035D02*
X35235Y24796D01*
X39038Y28365D02*
X39140D01*
X37585Y26913D02*
X39038Y28365D01*
X35428Y24796D02*
X37545Y26913D01*
X35235Y24796D02*
X35428D01*
X36512Y31871D02*
X36780Y32139D01*
X31596Y34239D02*
X33696Y32139D01*
X36780D01*
X36512Y18604D02*
Y20071D01*
X34474Y16565D02*
X36512Y18604D01*
X31596Y22439D02*
Y25487D01*
X34474Y28365D01*
X38083Y27604D02*
X38379D01*
X34515Y24035D02*
X38083Y27604D01*
X38379D02*
X39140Y28365D01*
X34474Y24035D02*
X34515D01*
X37545Y15113D02*
X37585D01*
X34474Y12235D02*
X35235Y12996D01*
X39038Y16565D02*
X39140D01*
X37585Y15113D02*
X39038Y16565D01*
X35428Y12996D02*
X37545Y15113D01*
X35235Y12996D02*
X35428D01*
X36512Y20071D02*
X36780Y20339D01*
X31596Y22439D02*
X33696Y20339D01*
X36780D01*
X21824D02*
X24908D01*
X19724Y22439D02*
X21824Y20339D01*
X24641Y20071D02*
X24908Y20339D01*
X23364Y12996D02*
X23557D01*
X25673Y15113D01*
X25714D02*
X27167Y16565D01*
X27269D01*
X22602Y12235D02*
X23364Y12996D01*
X25673Y15113D02*
X25714D01*
X22602Y24035D02*
X22643D01*
X26508Y27604D02*
X27269Y28365D01*
X22643Y24035D02*
X26212Y27604D01*
X26508D01*
X19724Y25487D02*
X22602Y28365D01*
X19724Y22439D02*
Y25487D01*
X22602Y16565D02*
X24641Y18604D01*
Y20071D01*
X21824Y32139D02*
X24908D01*
X19724Y34239D02*
X21824Y32139D01*
X24641Y31871D02*
X24908Y32139D01*
X23364Y24796D02*
X23557D01*
X25673Y26913D01*
X25714D02*
X27167Y28365D01*
X27269D01*
X22602Y24035D02*
X23364Y24796D01*
X25673Y26913D02*
X25714D01*
X22602Y35835D02*
X22643D01*
X26508Y39404D02*
X27269Y40165D01*
X22643Y35835D02*
X26212Y39404D01*
X26508D01*
X19724Y37287D02*
X22602Y40165D01*
X19724Y34239D02*
Y37287D01*
X22602Y28365D02*
X24641Y30403D01*
Y31871D01*
X21824Y55739D02*
X24908D01*
X19724Y57839D02*
X21824Y55739D01*
X24641Y55471D02*
X24908Y55739D01*
X23364Y48396D02*
X23557D01*
X25673Y50513D01*
X25714D02*
X27167Y51965D01*
X27269D01*
X22602Y47635D02*
X23364Y48396D01*
X25673Y50513D02*
X25714D01*
X22602Y59435D02*
X22643D01*
X26508Y63004D02*
X27269Y63765D01*
X22643Y59435D02*
X26212Y63004D01*
X26508D01*
X19724Y60887D02*
X22602Y63765D01*
X19724Y57839D02*
Y60887D01*
X22602Y51965D02*
X24641Y54004D01*
Y55471D01*
X21824Y43939D02*
X24908D01*
X19724Y46039D02*
X21824Y43939D01*
X24641Y43671D02*
X24908Y43939D01*
X23364Y36596D02*
X23557D01*
X25673Y38713D01*
X25714D02*
X27167Y40165D01*
X27269D01*
X22602Y35835D02*
X23364Y36596D01*
X25673Y38713D02*
X25714D01*
X22602Y47636D02*
X22643D01*
X26508Y51204D02*
X27269Y51965D01*
X22643Y47636D02*
X26212Y51204D01*
X26508D01*
X19724Y49087D02*
X22602Y51965D01*
X19724Y46039D02*
Y49087D01*
X22602Y40165D02*
X24641Y42204D01*
Y43671D01*
X21824Y67538D02*
X24908D01*
X19724Y69639D02*
X21824Y67538D01*
X24641Y67271D02*
X24908Y67538D01*
X23364Y60196D02*
X23557D01*
X25673Y62312D01*
X25714D02*
X27167Y63765D01*
X27269D01*
X22602Y59434D02*
X23364Y60196D01*
X25673Y62312D02*
X25714D01*
X22602Y71235D02*
X22643D01*
X26508Y74804D02*
X27269Y75565D01*
X22643Y71235D02*
X26212Y74804D01*
X26508D01*
X19724Y72687D02*
X22602Y75565D01*
X19724Y69639D02*
Y72687D01*
X22602Y63765D02*
X24641Y65803D01*
Y67271D01*
X21824Y79339D02*
X24908D01*
X24641Y79071D02*
X24908Y79339D01*
X23364Y71996D02*
X23557D01*
X25673Y74112D01*
X25714D02*
X27167Y75565D01*
X27269D01*
X22602Y71235D02*
X23364Y71996D01*
X25673Y74112D02*
X25714D01*
X22602Y83035D02*
X22643D01*
X26508Y86604D02*
X27269Y87365D01*
X22643Y83035D02*
X26212Y86604D01*
X26508D01*
X22602Y75565D02*
X24641Y77603D01*
Y79071D01*
Y89403D02*
Y90870D01*
X19724Y93239D02*
Y96287D01*
X22602Y99165D01*
X26212Y98404D02*
X26508D01*
X22643Y94835D02*
X26212Y98404D01*
X26508D02*
X27269Y99165D01*
X22602Y94835D02*
X22643D01*
X25673Y85912D02*
X25714D01*
X22602Y83034D02*
X23364Y83795D01*
X27167Y87365D02*
X27269D01*
X25714Y85912D02*
X27167Y87365D01*
X23557Y83795D02*
X25673Y85912D01*
X23364Y83795D02*
X23557D01*
X24641Y90870D02*
X24908Y91138D01*
X19724Y93239D02*
X21824Y91138D01*
X24908D01*
D12*
X27269Y99165D02*
D03*
Y94834D02*
D03*
X34474D02*
D03*
Y99165D02*
D03*
X62883Y87365D02*
D03*
Y83034D02*
D03*
X70088D02*
D03*
Y87365D02*
D03*
X51012D02*
D03*
Y83034D02*
D03*
X58217D02*
D03*
Y87365D02*
D03*
X74755D02*
D03*
Y83034D02*
D03*
X81959D02*
D03*
Y87365D02*
D03*
X86626D02*
D03*
Y83034D02*
D03*
X93831D02*
D03*
Y87365D02*
D03*
X98497Y99165D02*
D03*
Y94834D02*
D03*
X105702D02*
D03*
Y99165D02*
D03*
X98497Y87365D02*
D03*
Y83034D02*
D03*
X105702D02*
D03*
Y87365D02*
D03*
X74755Y99165D02*
D03*
Y94834D02*
D03*
X81959D02*
D03*
Y99165D02*
D03*
X86626D02*
D03*
Y94834D02*
D03*
X93831D02*
D03*
Y99165D02*
D03*
X62883D02*
D03*
Y94834D02*
D03*
X70088D02*
D03*
Y99165D02*
D03*
X51012D02*
D03*
Y94834D02*
D03*
X58217D02*
D03*
Y99165D02*
D03*
X15398Y75565D02*
D03*
Y71234D02*
D03*
X22602D02*
D03*
Y75565D02*
D03*
X15398Y40165D02*
D03*
Y35835D02*
D03*
X22602D02*
D03*
Y40165D02*
D03*
X15398Y51965D02*
D03*
Y47634D02*
D03*
X22602D02*
D03*
Y51965D02*
D03*
X15398Y63765D02*
D03*
Y59434D02*
D03*
X22602D02*
D03*
Y63765D02*
D03*
X15398Y87365D02*
D03*
Y83034D02*
D03*
X22602D02*
D03*
Y87365D02*
D03*
X15398Y99165D02*
D03*
Y94834D02*
D03*
X22602D02*
D03*
Y99165D02*
D03*
X15398Y16565D02*
D03*
Y12235D02*
D03*
X22602D02*
D03*
Y16565D02*
D03*
X15398Y28365D02*
D03*
Y24035D02*
D03*
X22602D02*
D03*
Y28365D02*
D03*
X39140Y99165D02*
D03*
Y94834D02*
D03*
X46345D02*
D03*
Y99165D02*
D03*
X39140Y75565D02*
D03*
Y71234D02*
D03*
X46345D02*
D03*
Y75565D02*
D03*
X39140Y87365D02*
D03*
Y83034D02*
D03*
X46345D02*
D03*
Y87365D02*
D03*
X27269D02*
D03*
Y83034D02*
D03*
X34474D02*
D03*
Y87365D02*
D03*
X27269Y75565D02*
D03*
Y71234D02*
D03*
X34474D02*
D03*
Y75565D02*
D03*
X27269Y63765D02*
D03*
Y59434D02*
D03*
X34474D02*
D03*
Y63765D02*
D03*
X39140D02*
D03*
Y59434D02*
D03*
X46345D02*
D03*
Y63765D02*
D03*
X39140Y40165D02*
D03*
Y35835D02*
D03*
X46345D02*
D03*
Y40165D02*
D03*
X39140Y51965D02*
D03*
Y47634D02*
D03*
X46345D02*
D03*
Y51965D02*
D03*
X39140Y16565D02*
D03*
Y12235D02*
D03*
X46345D02*
D03*
Y16565D02*
D03*
X27269D02*
D03*
Y12235D02*
D03*
X34474D02*
D03*
Y16565D02*
D03*
X27269Y51965D02*
D03*
Y47634D02*
D03*
X34474D02*
D03*
Y51965D02*
D03*
X27269Y40165D02*
D03*
Y35835D02*
D03*
X34474D02*
D03*
Y40165D02*
D03*
X27269Y28365D02*
D03*
Y24035D02*
D03*
X34474D02*
D03*
Y28365D02*
D03*
X39140D02*
D03*
Y24035D02*
D03*
X46345D02*
D03*
Y28365D02*
D03*
X98497Y40165D02*
D03*
Y35835D02*
D03*
X105702D02*
D03*
Y40165D02*
D03*
X86626Y28365D02*
D03*
Y24035D02*
D03*
X93831D02*
D03*
Y28365D02*
D03*
X86626Y40165D02*
D03*
Y35835D02*
D03*
X93831D02*
D03*
Y40165D02*
D03*
X51012D02*
D03*
Y35835D02*
D03*
X58217D02*
D03*
Y40165D02*
D03*
X62883D02*
D03*
Y35835D02*
D03*
X70088D02*
D03*
Y40165D02*
D03*
X74755D02*
D03*
Y35835D02*
D03*
X81959D02*
D03*
Y40165D02*
D03*
X74755Y51965D02*
D03*
Y47634D02*
D03*
X81959D02*
D03*
Y51965D02*
D03*
X62883D02*
D03*
Y47634D02*
D03*
X70088D02*
D03*
Y51965D02*
D03*
X98497D02*
D03*
Y47634D02*
D03*
X105702D02*
D03*
Y51965D02*
D03*
X86626D02*
D03*
Y47634D02*
D03*
X93831D02*
D03*
Y51965D02*
D03*
X62883Y63765D02*
D03*
Y59434D02*
D03*
X70088D02*
D03*
Y63765D02*
D03*
X51012Y51965D02*
D03*
Y47634D02*
D03*
X58217D02*
D03*
Y51965D02*
D03*
X51012Y63765D02*
D03*
Y59434D02*
D03*
X58217D02*
D03*
Y63765D02*
D03*
X98497Y75565D02*
D03*
Y71234D02*
D03*
X105702D02*
D03*
Y75565D02*
D03*
X98497Y63765D02*
D03*
Y59434D02*
D03*
X105702D02*
D03*
Y63765D02*
D03*
X62883Y16565D02*
D03*
Y12235D02*
D03*
X70088D02*
D03*
Y16565D02*
D03*
X74755Y63765D02*
D03*
Y59434D02*
D03*
X81959D02*
D03*
Y63765D02*
D03*
X86626D02*
D03*
Y59434D02*
D03*
X93831D02*
D03*
Y63765D02*
D03*
X86626Y75565D02*
D03*
Y71234D02*
D03*
X93831D02*
D03*
Y75565D02*
D03*
X74755D02*
D03*
Y71234D02*
D03*
X81959D02*
D03*
Y75565D02*
D03*
X62883D02*
D03*
Y71234D02*
D03*
X70088D02*
D03*
Y75565D02*
D03*
X51012D02*
D03*
Y71234D02*
D03*
X58217D02*
D03*
Y75565D02*
D03*
X74755Y28365D02*
D03*
Y24035D02*
D03*
X81959D02*
D03*
Y28365D02*
D03*
X62883D02*
D03*
Y24035D02*
D03*
X70088D02*
D03*
Y28365D02*
D03*
X51012D02*
D03*
Y24035D02*
D03*
X58217D02*
D03*
Y28365D02*
D03*
X51012Y16565D02*
D03*
Y12235D02*
D03*
X58217D02*
D03*
Y16565D02*
D03*
X98497Y28365D02*
D03*
Y24035D02*
D03*
X105702D02*
D03*
Y28365D02*
D03*
X98497Y16565D02*
D03*
Y12235D02*
D03*
X105702D02*
D03*
Y16565D02*
D03*
X74755D02*
D03*
Y12235D02*
D03*
X81959D02*
D03*
Y16565D02*
D03*
X86626D02*
D03*
Y12235D02*
D03*
X93831D02*
D03*
Y16565D02*
D03*
D17*
X15398Y99165D02*
X16026Y99793D01*
Y99819D01*
X20721Y104515D01*
X55472D01*
X60589Y109631D01*
X86747Y71254D02*
X87606Y72113D01*
X18547Y97984D02*
Y99371D01*
X65761Y73989D02*
Y80156D01*
X32878Y102043D02*
X40736D01*
X29015Y101893D02*
X30871Y100036D01*
X74755Y71254D02*
X74876D01*
X87606Y72113D02*
X87628D01*
X39140Y94834D02*
X42743Y98437D01*
X99478Y13113D02*
X99499D01*
X62883Y12254D02*
X63004D01*
X15398Y94834D02*
X18547Y97984D01*
X53890Y97569D02*
Y100760D01*
X74755Y12254D02*
X74876D01*
X99478Y72113D02*
X99499D01*
X98497Y12254D02*
X98619D01*
X44750Y102043D02*
X52608D01*
X86626Y12254D02*
X86747D01*
X63004Y71254D02*
X63863Y72113D01*
X74876Y71254D02*
X75735Y72113D01*
X42743Y98437D02*
Y100036D01*
X87628Y72113D02*
X89504Y73989D01*
X101375Y97569D02*
Y100760D01*
X63004Y12254D02*
X63863Y13113D01*
X86747Y12254D02*
X87606Y13113D01*
X52608Y102043D02*
X53890Y100760D01*
X75756Y72113D02*
X77632Y73989D01*
X74755Y83034D02*
X77632Y80156D01*
X42018Y97569D02*
Y100760D01*
X62883Y94834D02*
X65761Y91956D01*
X63863Y72113D02*
X63885D01*
X89504Y73989D02*
Y80156D01*
X98497Y83034D02*
X101375Y80156D01*
X42743Y100036D02*
X44750Y102043D01*
X30871Y100036D02*
X32878Y102043D01*
X21069Y101893D02*
X29015D01*
X62883Y71254D02*
X63004D01*
X75735Y13113D02*
X75756D01*
X77632Y73989D02*
Y80156D01*
X74876Y12254D02*
X75735Y13113D01*
X99499Y72113D02*
X101375Y73989D01*
X98619Y12254D02*
X99478Y13113D01*
X40736Y102043D02*
X42018Y100760D01*
X63885Y72113D02*
X65761Y73989D01*
X86626Y71254D02*
X86747D01*
X87606Y13113D02*
X87628D01*
X75735Y72113D02*
X75756D01*
X39140Y12254D02*
X39262D01*
X63863Y13113D02*
X63885D01*
X98497Y71254D02*
X98619D01*
X18547Y99371D02*
X21069Y101893D01*
X102100Y98437D02*
Y100036D01*
X65761Y85788D02*
Y91956D01*
X101375Y73989D02*
Y80156D01*
X62883Y83034D02*
X65761Y80156D01*
X86626Y83034D02*
X89504Y80156D01*
X98497Y94834D02*
X102100Y98437D01*
X98619Y71254D02*
X99478Y72113D01*
X86626Y12235D02*
X89861Y9000D01*
X95263D01*
X98497Y12235D01*
X74755D02*
X77989Y9000D01*
X83391D01*
X86626Y12235D01*
X62883D02*
X66118Y9000D01*
X71520D01*
X74755Y12235D01*
X51012D02*
X54246Y9000D01*
X59649D01*
X62883Y12235D01*
X39140D02*
X42375Y9000D01*
X47777D01*
X51012Y12235D01*
X27390Y12254D02*
X30625Y9019D01*
X36027D01*
X39262Y12254D01*
X24034Y9000D02*
X27269Y12235D01*
X18632Y9000D02*
X24034D01*
X15398Y12235D02*
X18632Y9000D01*
X74755Y94834D02*
X78357Y98437D01*
Y106219D02*
X80589Y108452D01*
X78357Y100036D02*
Y106219D01*
Y98437D02*
Y100036D01*
X80589Y108452D02*
Y109631D01*
X86626Y94834D02*
X90228Y98437D01*
X80589Y109631D02*
X80633D01*
X90228Y100036D01*
X70589Y109631D02*
X71432Y108788D01*
Y106961D02*
X78357Y100036D01*
X71432Y106961D02*
Y108788D01*
X65761Y104804D02*
X70589Y109631D01*
X65761Y100760D02*
Y104804D01*
Y97569D02*
Y100760D01*
X63788Y95596D02*
X65761Y97569D01*
X105702Y24035D02*
X107747Y26080D01*
X14770Y17193D02*
Y19687D01*
X105702Y35835D02*
X107747Y37880D01*
X14770Y28993D02*
Y31487D01*
X105702Y47634D02*
X107747Y49679D01*
X14770Y40793D02*
Y43287D01*
X105702Y59434D02*
X107747Y61480D01*
X14770Y52593D02*
Y55087D01*
X105702Y71234D02*
X107747Y73279D01*
X14770Y64393D02*
Y66887D01*
X105702Y83034D02*
X107747Y85079D01*
X14770Y76193D02*
Y78687D01*
Y87993D02*
X15398Y87365D01*
X14770Y87993D02*
Y90487D01*
X14500Y90756D02*
X14770Y90487D01*
X14500Y90756D02*
Y91000D01*
X107747Y96879D02*
X108260D01*
X108432Y97052D01*
X105702Y94834D02*
X107747Y96879D01*
X15398Y24035D02*
X18581Y20851D01*
Y15418D02*
Y20851D01*
X15398Y12235D02*
X18581Y15418D01*
X15398Y35835D02*
X18581Y32651D01*
Y27218D02*
Y32651D01*
X15398Y24035D02*
X18581Y27218D01*
X15398Y47634D02*
X18581Y44451D01*
Y39018D02*
Y44451D01*
X15398Y35835D02*
X18581Y39018D01*
X15398Y59434D02*
X18581Y56251D01*
Y50818D02*
Y56251D01*
X15398Y47634D02*
X18581Y50818D01*
X15398Y71234D02*
X18581Y68051D01*
Y62618D02*
Y68051D01*
X15398Y59434D02*
X18581Y62618D01*
X15398Y83034D02*
X18581Y79851D01*
Y74418D02*
Y79851D01*
X15398Y71234D02*
X18581Y74418D01*
X15398Y83034D02*
X18581Y86217D01*
Y91651D01*
X15398Y94834D02*
X18581Y91651D01*
X63004Y59453D02*
X63863Y60312D01*
X62883Y59453D02*
X63004D01*
X65761Y62189D02*
Y68356D01*
X63885Y60312D02*
X65761Y62189D01*
X63863Y60312D02*
X63885D01*
X63863Y83912D02*
X63885D01*
X65761Y85788D01*
X62883Y83053D02*
X63004D01*
X63863Y83912D01*
X51133Y24054D02*
X51992Y24913D01*
X51012Y24054D02*
X51133D01*
X53890Y26789D02*
Y32956D01*
X52014Y24913D02*
X53890Y26789D01*
X51992Y24913D02*
X52014D01*
X51012Y59435D02*
X53890Y56557D01*
X27390Y47654D02*
X28249Y48513D01*
X28271D01*
X30147Y50389D01*
Y56557D01*
X27269Y47635D02*
X30147Y44757D01*
X27390Y24054D02*
X28249Y24913D01*
X74876Y47654D02*
X75735Y48513D01*
X74755Y47654D02*
X74876D01*
X77632Y50389D02*
Y56557D01*
X75756Y48513D02*
X77632Y50389D01*
X75735Y48513D02*
X75756D01*
X74755Y47635D02*
X77632Y44757D01*
X90228Y98437D02*
Y100036D01*
X86626Y24035D02*
X89504Y21157D01*
Y14989D02*
Y21157D01*
X87628Y13113D02*
X89504Y14989D01*
X86626Y35835D02*
X89504Y32956D01*
X86747Y24054D02*
X87606Y24913D01*
X86626Y24054D02*
X86747D01*
X89504Y26789D02*
Y32956D01*
X87628Y24913D02*
X89504Y26789D01*
X74876Y24054D02*
X75735Y24913D01*
X74755Y24054D02*
X74876D01*
X77632Y26789D02*
Y32956D01*
X75756Y24913D02*
X77632Y26789D01*
X75735Y24913D02*
X75756D01*
X74755Y59435D02*
X77632Y56557D01*
X87606Y24913D02*
X87628D01*
X86626Y59435D02*
X89504Y56557D01*
X86747Y47654D02*
X87606Y48513D01*
X86626Y47654D02*
X86747D01*
X89504Y50389D02*
Y56557D01*
X87628Y48513D02*
X89504Y50389D01*
X87606Y48513D02*
X87628D01*
X86626Y47635D02*
X89504Y44757D01*
X51133Y35854D02*
X51992Y36713D01*
X51012Y35854D02*
X51133D01*
X53890Y38589D02*
Y44757D01*
X52014Y36713D02*
X53890Y38589D01*
X51992Y36713D02*
X52014D01*
X51012Y71234D02*
X53890Y68356D01*
X62883Y24035D02*
X65761Y21157D01*
Y14989D02*
Y21157D01*
X63885Y13113D02*
X65761Y14989D01*
X62883Y35835D02*
X65761Y32956D01*
X63004Y24054D02*
X63863Y24913D01*
X62883Y24054D02*
X63004D01*
X65761Y26789D02*
Y32956D01*
X63885Y24913D02*
X65761Y26789D01*
X27269Y24035D02*
X30147Y21157D01*
X63863Y24913D02*
X63885D01*
X62883Y59435D02*
X65761Y56557D01*
X63004Y47654D02*
X63863Y48513D01*
X62883Y47654D02*
X63004D01*
X98497Y24035D02*
X101375Y21157D01*
Y14989D02*
Y21157D01*
X99499Y13113D02*
X101375Y14989D01*
X98497Y35835D02*
X101375Y32956D01*
X98619Y24054D02*
X99478Y24913D01*
X98497Y24054D02*
X98619D01*
X101375Y26789D02*
Y32956D01*
X99499Y24913D02*
X101375Y26789D01*
X99478Y24913D02*
X99499D01*
X98497Y59435D02*
X101375Y56557D01*
X98619Y47654D02*
X99478Y48513D01*
X98497Y47654D02*
X98619D01*
X101375Y50389D02*
Y56557D01*
X99499Y48513D02*
X101375Y50389D01*
X99478Y48513D02*
X99499D01*
X98497Y47635D02*
X101375Y44757D01*
X98619Y35854D02*
X99478Y36713D01*
X98497Y35854D02*
X98619D01*
X101375Y38589D02*
Y44757D01*
X99499Y36713D02*
X101375Y38589D01*
X99478Y36713D02*
X99499D01*
X98497Y71234D02*
X101375Y68356D01*
X98619Y59453D02*
X99478Y60312D01*
X98497Y59453D02*
X98619D01*
X101375Y62189D02*
Y68356D01*
X99499Y60312D02*
X101375Y62189D01*
X99478Y60312D02*
X99499D01*
X99478Y83912D02*
X99499D01*
X101375Y85788D01*
Y91956D01*
X98497Y83053D02*
X98619D01*
X99478Y83912D01*
X98497Y94834D02*
X101375Y91956D01*
X51133Y71254D02*
X51992Y72113D01*
X51012Y71254D02*
X51133D01*
X53890Y73989D02*
Y80156D01*
X52014Y72113D02*
X53890Y73989D01*
X51992Y72113D02*
X52014D01*
X51992Y83912D02*
X52014D01*
X53890Y85788D01*
Y91956D01*
X51012Y83053D02*
X51133D01*
X86747Y35854D02*
X87606Y36713D01*
X86626Y35854D02*
X86747D01*
X89504Y38589D02*
Y44757D01*
X87628Y36713D02*
X89504Y38589D01*
X87606Y36713D02*
X87628D01*
X86626Y71234D02*
X89504Y68356D01*
X86747Y59453D02*
X87606Y60312D01*
X86626Y59453D02*
X86747D01*
X89504Y62189D02*
Y68356D01*
X87628Y60312D02*
X89504Y62189D01*
X87606Y60312D02*
X87628D01*
X87606Y83912D02*
X87628D01*
X89504Y85788D01*
Y91956D01*
X86626Y83053D02*
X86747D01*
X87606Y83912D01*
X39262Y59453D02*
X40121Y60312D01*
X39140Y59453D02*
X39262D01*
X42018Y62189D02*
Y68356D01*
X40142Y60312D02*
X42018Y62189D01*
X40121Y60312D02*
X40142D01*
X39140Y83034D02*
X42018Y80156D01*
X100093Y102043D02*
X101375Y100760D01*
X92235Y102043D02*
X100093D01*
X90228Y100036D02*
X92235Y102043D01*
X86626Y94834D02*
X89504Y91956D01*
X39140Y94834D02*
X42018Y91956D01*
X65761Y50389D02*
Y56557D01*
X63885Y48513D02*
X65761Y50389D01*
X63863Y48513D02*
X63885D01*
X62883Y47635D02*
X65761Y44757D01*
X63004Y35854D02*
X63863Y36713D01*
X62883Y35854D02*
X63004D01*
X65761Y38589D02*
Y44757D01*
X63885Y36713D02*
X65761Y38589D01*
X63863Y36713D02*
X63885D01*
X62883Y71234D02*
X65761Y68356D01*
X28249Y72113D02*
X28271D01*
X27269Y83034D02*
X30147Y80156D01*
X28249Y60312D02*
X28271D01*
X30147Y62189D01*
Y73989D02*
Y80156D01*
X27390Y59453D02*
X28249Y60312D01*
X30147Y62189D02*
Y68356D01*
X27390Y71254D02*
X28249Y72113D01*
X28271D02*
X30147Y73989D01*
X28249Y36713D02*
X28271D01*
X27390Y35854D02*
X28249Y36713D01*
X27269Y71234D02*
X30147Y68356D01*
X28271Y36713D02*
X30147Y38589D01*
Y44757D01*
Y85788D02*
Y91956D01*
X27269Y59435D02*
X30147Y56557D01*
X28271Y83912D02*
X30147Y85788D01*
X27269Y94834D02*
X30147Y91956D01*
X27390Y83053D02*
X28249Y83912D01*
X28271D01*
X51133Y47654D02*
X51992Y48513D01*
X51012Y47654D02*
X51133D01*
X53890Y50389D02*
Y56557D01*
X52014Y48513D02*
X53890Y50389D01*
X51992Y48513D02*
X52014D01*
X51012Y47635D02*
X53890Y44757D01*
X51133Y83053D02*
X51992Y83912D01*
X63645Y95596D02*
X63788D01*
X64479Y102043D02*
X65761Y100760D01*
X56621Y102043D02*
X64479D01*
X54614Y100036D02*
X56621Y102043D01*
X62883Y94834D02*
X63645Y95596D01*
X51012Y94834D02*
X53890Y91956D01*
X27390Y12254D02*
X28249Y13113D01*
X53890Y14989D02*
Y21157D01*
X52014Y13113D02*
X53890Y14989D01*
X51992Y13113D02*
X52014D01*
X51012Y35835D02*
X53890Y32956D01*
X54614Y98437D02*
Y100036D01*
X51012Y94834D02*
X54614Y98437D01*
X51012Y24035D02*
X53890Y21157D01*
X51133Y12254D02*
X51992Y13113D01*
X51012Y12254D02*
X51133D01*
Y59453D02*
X51992Y60312D01*
X51012Y59453D02*
X51133D01*
X53890Y62189D02*
Y68356D01*
X52014Y60312D02*
X53890Y62189D01*
X51992Y60312D02*
X52014D01*
X51012Y83034D02*
X53890Y80156D01*
X74755Y94834D02*
X77632Y91956D01*
X75735Y83912D02*
X75756D01*
X77632Y85788D01*
Y91956D01*
X74755Y83053D02*
X74876D01*
X75735Y83912D01*
X39140Y35854D02*
X39262D01*
X42018Y38589D02*
Y44757D01*
X40142Y36713D02*
X42018Y38589D01*
X40121Y36713D02*
X40142D01*
X39140Y71234D02*
X42018Y68356D01*
X74755Y71234D02*
X77632Y68356D01*
X74876Y59453D02*
X75735Y60312D01*
X74755Y59453D02*
X74876D01*
X77632Y62189D02*
Y68356D01*
X75756Y60312D02*
X77632Y62189D01*
X75735Y60312D02*
X75756D01*
X74876Y35854D02*
X75735Y36713D01*
X74755Y35854D02*
X74876D01*
X77632Y38589D02*
Y44757D01*
X75756Y36713D02*
X77632Y38589D01*
X75735Y36713D02*
X75756D01*
X39140Y24035D02*
X42018Y21157D01*
X39262Y12254D02*
X40121Y13113D01*
X42018Y14989D02*
Y21157D01*
X40142Y13113D02*
X42018Y14989D01*
X40121Y13113D02*
X40142D01*
X39140Y35835D02*
X42018Y32956D01*
X39262Y24054D02*
X40121Y24913D01*
X39140Y24054D02*
X39262D01*
X42018Y26789D02*
Y32956D01*
X40142Y24913D02*
X42018Y26789D01*
X40121Y24913D02*
X40142D01*
X39140Y59435D02*
X42018Y56557D01*
X39262Y47654D02*
X40121Y48513D01*
X39140Y47654D02*
X39262D01*
X42018Y50389D02*
Y56557D01*
X40142Y48513D02*
X42018Y50389D01*
X40121Y48513D02*
X40142D01*
X39140Y47635D02*
X42018Y44757D01*
X39262Y35854D02*
X40121Y36713D01*
X77632Y14989D02*
Y21157D01*
X75756Y13113D02*
X77632Y14989D01*
X74755Y35835D02*
X77632Y32956D01*
X74755Y24035D02*
X77632Y21157D01*
X39262Y71254D02*
X40121Y72113D01*
X39140Y71254D02*
X39262D01*
X42018Y73989D02*
Y80156D01*
X40142Y72113D02*
X42018Y73989D01*
X40121Y72113D02*
X40142D01*
X40121Y83912D02*
X40142D01*
X42018Y85788D01*
Y91956D01*
X39140Y83053D02*
X39262D01*
X40121Y83912D01*
X27269Y35835D02*
X30147Y32956D01*
X28249Y13113D02*
X28271D01*
X30147Y14989D01*
Y21157D01*
Y26789D02*
Y32956D01*
X28271Y24913D02*
X30147Y26789D01*
X28249Y24913D02*
X28271D01*
D18*
X80589Y109631D02*
D03*
X70589D02*
D03*
X60589D02*
D03*
X50589D02*
D03*
D19*
X40589D02*
D03*
D20*
X48651Y20339D02*
D03*
X108432Y26252D02*
D03*
X14500Y20200D02*
D03*
X108432Y38052D02*
D03*
X14500Y32000D02*
D03*
X108432Y49852D02*
D03*
X14500Y43800D02*
D03*
X108432Y61652D02*
D03*
X14500Y55600D02*
D03*
X108432Y73452D02*
D03*
X14500Y67400D02*
D03*
X108432Y85252D02*
D03*
X14500Y79200D02*
D03*
Y91000D02*
D03*
X48651Y91138D02*
D03*
X84265D02*
D03*
X108432Y97052D02*
D03*
X108008Y91138D02*
D03*
Y79339D02*
D03*
Y67538D02*
D03*
Y43939D02*
D03*
Y55739D02*
D03*
Y32139D02*
D03*
Y20339D02*
D03*
X96137Y91138D02*
D03*
Y79339D02*
D03*
Y67538D02*
D03*
Y43939D02*
D03*
Y55739D02*
D03*
Y32139D02*
D03*
X84265Y79339D02*
D03*
Y67538D02*
D03*
Y43939D02*
D03*
Y55739D02*
D03*
Y32139D02*
D03*
X72394Y91138D02*
D03*
Y79339D02*
D03*
Y67538D02*
D03*
Y43939D02*
D03*
Y55739D02*
D03*
Y32139D02*
D03*
X60522Y91138D02*
D03*
Y79339D02*
D03*
Y67538D02*
D03*
Y43939D02*
D03*
Y55739D02*
D03*
Y32139D02*
D03*
Y20339D02*
D03*
X48651Y79339D02*
D03*
Y67538D02*
D03*
Y43939D02*
D03*
Y55739D02*
D03*
Y32139D02*
D03*
X36780Y91138D02*
D03*
Y79339D02*
D03*
Y67538D02*
D03*
Y43939D02*
D03*
Y55739D02*
D03*
Y32139D02*
D03*
Y20339D02*
D03*
X24908D02*
D03*
Y32139D02*
D03*
Y55739D02*
D03*
Y43939D02*
D03*
Y67538D02*
D03*
Y79339D02*
D03*
Y91138D02*
D03*
D21*
X105820Y109932D02*
D03*
X16358D02*
D03*
M02*
