G04*
G04 #@! TF.GenerationSoftware,Altium Limited,Altium Designer,22.5.1 (42)*
G04*
G04 Layer_Color=16711935*
%FSLAX25Y25*%
%MOIN*%
G70*
G04*
G04 #@! TF.SameCoordinates,B96F059C-DAF6-4555-8D6D-E7C6B2DDDAAE*
G04*
G04*
G04 #@! TF.FilePolarity,Negative*
G04*
G01*
G75*
%ADD14C,0.06306*%
%ADD15R,0.06306X0.06306*%
%ADD16C,0.10243*%
G36*
X73635Y21569D02*
X73813D01*
Y21543D01*
X73890D01*
Y21518D01*
X73941D01*
Y21492D01*
X73966D01*
Y21467D01*
X74017D01*
Y21441D01*
X74043D01*
Y21416D01*
X74068D01*
Y21365D01*
X74094D01*
Y21314D01*
X74119D01*
Y21263D01*
X74145D01*
Y21161D01*
X74170D01*
Y20600D01*
X74145D01*
Y20498D01*
X74119D01*
Y20447D01*
X74094D01*
Y20395D01*
X74068D01*
Y20370D01*
X74043D01*
Y20345D01*
X74017D01*
Y20319D01*
X73992D01*
Y20293D01*
X73966D01*
Y20268D01*
X73915D01*
Y20243D01*
X73839D01*
Y20217D01*
X73737D01*
Y20191D01*
X73226D01*
Y20217D01*
X73099D01*
Y20243D01*
X73048D01*
Y20268D01*
X72997D01*
Y20293D01*
X72946D01*
Y20319D01*
X72921D01*
Y20345D01*
X72895D01*
Y20395D01*
X72869D01*
Y20421D01*
X72844D01*
Y20472D01*
X72818D01*
Y20549D01*
X72793D01*
Y20727D01*
X72768D01*
Y21033D01*
X72793D01*
Y21212D01*
X72818D01*
Y21288D01*
X72844D01*
Y21339D01*
X72869D01*
Y21390D01*
X72895D01*
Y21416D01*
X72921D01*
Y21441D01*
X72946D01*
Y21467D01*
X72971D01*
Y21492D01*
X73023D01*
Y21518D01*
X73074D01*
Y21543D01*
X73150D01*
Y21569D01*
X73303D01*
Y21594D01*
X73635D01*
Y21569D01*
D02*
G37*
G36*
X71671Y19375D02*
X71645D01*
Y19350D01*
X71620D01*
Y19299D01*
X71594D01*
Y19273D01*
X71569D01*
Y19248D01*
X71543D01*
Y19197D01*
X71518D01*
Y19171D01*
X71492D01*
Y19120D01*
X71467D01*
Y19095D01*
X71441D01*
Y19044D01*
X71416D01*
Y19018D01*
X71390D01*
Y18993D01*
X71365D01*
Y18942D01*
X71339D01*
Y18916D01*
X71314D01*
Y18865D01*
X71288D01*
Y18840D01*
X71263D01*
Y18789D01*
X71237D01*
Y18763D01*
X71212D01*
Y18712D01*
X71186D01*
Y18687D01*
X71161D01*
Y18661D01*
X71135D01*
Y18610D01*
X71110D01*
Y18585D01*
X71084D01*
Y18534D01*
X71059D01*
Y18508D01*
X71033D01*
Y18457D01*
X71008D01*
Y18432D01*
X70982D01*
Y18406D01*
X70957D01*
Y18355D01*
X70931D01*
Y18330D01*
X70906D01*
Y18279D01*
X70880D01*
Y18253D01*
X70855D01*
Y18202D01*
X70829D01*
Y18177D01*
X70804D01*
Y18126D01*
X70778D01*
Y18100D01*
X70753D01*
Y18075D01*
X70727D01*
Y18024D01*
X70702D01*
Y17998D01*
X70676D01*
Y17947D01*
X70651D01*
Y17922D01*
X70625D01*
Y17871D01*
X70600D01*
Y17845D01*
X70574D01*
Y17794D01*
X70549D01*
Y17769D01*
X70523D01*
Y17743D01*
X70498D01*
Y17692D01*
X70472D01*
Y17667D01*
X70447D01*
Y17616D01*
X70421D01*
Y17590D01*
X70396D01*
Y17539D01*
X70370D01*
Y17514D01*
X70345D01*
Y17488D01*
X70319D01*
Y17437D01*
X70294D01*
Y17412D01*
X70268D01*
Y17361D01*
X70243D01*
Y17335D01*
X70217D01*
Y17284D01*
X70192D01*
Y17259D01*
X70166D01*
Y17233D01*
X70141D01*
Y17182D01*
X70115D01*
Y17157D01*
X70090D01*
Y17106D01*
X70064D01*
Y17080D01*
X70039D01*
Y17029D01*
X70013D01*
Y17004D01*
X69988D01*
Y16978D01*
X69962D01*
Y16927D01*
X69937D01*
Y16902D01*
X69911D01*
Y16851D01*
X69886D01*
Y16800D01*
X69911D01*
Y16749D01*
X69937D01*
Y16723D01*
X69962D01*
Y16672D01*
X69988D01*
Y16646D01*
X70013D01*
Y16596D01*
X70039D01*
Y16570D01*
X70064D01*
Y16544D01*
X70090D01*
Y16493D01*
X70115D01*
Y16468D01*
X70141D01*
Y16417D01*
X70166D01*
Y16391D01*
X70192D01*
Y16341D01*
X70217D01*
Y16315D01*
X70243D01*
Y16289D01*
X70268D01*
Y16239D01*
X70294D01*
Y16213D01*
X70319D01*
Y16162D01*
X70345D01*
Y16137D01*
X70370D01*
Y16111D01*
X70396D01*
Y16060D01*
X70421D01*
Y16035D01*
X70447D01*
Y15983D01*
X70472D01*
Y15958D01*
X70498D01*
Y15907D01*
X70523D01*
Y15881D01*
X70549D01*
Y15856D01*
X70574D01*
Y15805D01*
X70600D01*
Y15779D01*
X70625D01*
Y15728D01*
X70651D01*
Y15703D01*
X70676D01*
Y15652D01*
X70702D01*
Y15626D01*
X70727D01*
Y15601D01*
X70753D01*
Y15550D01*
X70778D01*
Y15524D01*
X70804D01*
Y15473D01*
X70829D01*
Y15448D01*
X70855D01*
Y15397D01*
X70880D01*
Y15371D01*
X70906D01*
Y15346D01*
X70931D01*
Y15295D01*
X70957D01*
Y15269D01*
X70982D01*
Y15218D01*
X71008D01*
Y15193D01*
X71033D01*
Y15142D01*
X71059D01*
Y15116D01*
X71084D01*
Y15091D01*
X71110D01*
Y15040D01*
X71135D01*
Y15014D01*
X71161D01*
Y14963D01*
X71186D01*
Y14938D01*
X71212D01*
Y14887D01*
X71237D01*
Y14861D01*
X71263D01*
Y14836D01*
X71288D01*
Y14785D01*
X71314D01*
Y14759D01*
X71339D01*
Y14708D01*
X71365D01*
Y14683D01*
X71390D01*
Y14632D01*
X71416D01*
Y14606D01*
X71441D01*
Y14581D01*
X71467D01*
Y14530D01*
X71492D01*
Y14504D01*
X71518D01*
Y14453D01*
X71543D01*
Y14428D01*
X71569D01*
Y14377D01*
X71594D01*
Y14351D01*
X71620D01*
Y14326D01*
X71645D01*
Y14275D01*
X71671D01*
Y14249D01*
X71696D01*
Y14198D01*
X71722D01*
Y14173D01*
X71747D01*
Y14147D01*
X71773D01*
Y14096D01*
X71798D01*
Y14071D01*
X71824D01*
Y14020D01*
X70574D01*
Y14045D01*
X70549D01*
Y14071D01*
X70523D01*
Y14122D01*
X70498D01*
Y14147D01*
X70472D01*
Y14198D01*
X70447D01*
Y14224D01*
X70421D01*
Y14275D01*
X70396D01*
Y14300D01*
X70370D01*
Y14351D01*
X70345D01*
Y14377D01*
X70319D01*
Y14428D01*
X70294D01*
Y14453D01*
X70268D01*
Y14504D01*
X70243D01*
Y14530D01*
X70217D01*
Y14581D01*
X70192D01*
Y14606D01*
X70166D01*
Y14657D01*
X70141D01*
Y14683D01*
X70115D01*
Y14734D01*
X70090D01*
Y14759D01*
X70064D01*
Y14810D01*
X70039D01*
Y14836D01*
X70013D01*
Y14887D01*
X69988D01*
Y14912D01*
X69962D01*
Y14963D01*
X69937D01*
Y14989D01*
X69911D01*
Y15040D01*
X69886D01*
Y15065D01*
X69860D01*
Y15116D01*
X69835D01*
Y15142D01*
X69809D01*
Y15193D01*
X69784D01*
Y15218D01*
X69758D01*
Y15269D01*
X69733D01*
Y15295D01*
X69707D01*
Y15346D01*
X69682D01*
Y15371D01*
X69656D01*
Y15422D01*
X69631D01*
Y15448D01*
X69605D01*
Y15499D01*
X69580D01*
Y15524D01*
X69554D01*
Y15575D01*
X69529D01*
Y15601D01*
X69503D01*
Y15652D01*
X69477D01*
Y15677D01*
X69452D01*
Y15728D01*
X69427D01*
Y15754D01*
X69401D01*
Y15805D01*
X69375D01*
Y15856D01*
X69350D01*
Y15881D01*
X69324D01*
Y15933D01*
X69299D01*
Y15958D01*
X69248D01*
Y15907D01*
X69222D01*
Y15881D01*
X69197D01*
Y15830D01*
X69172D01*
Y15805D01*
X69146D01*
Y15754D01*
X69121D01*
Y15728D01*
X69095D01*
Y15677D01*
X69069D01*
Y15652D01*
X69044D01*
Y15601D01*
X69019D01*
Y15575D01*
X68993D01*
Y15524D01*
X68967D01*
Y15499D01*
X68942D01*
Y15448D01*
X68916D01*
Y15422D01*
X68891D01*
Y15371D01*
X68866D01*
Y15346D01*
X68840D01*
Y15295D01*
X68814D01*
Y15269D01*
X68789D01*
Y15218D01*
X68764D01*
Y15193D01*
X68738D01*
Y15142D01*
X68713D01*
Y15116D01*
X68687D01*
Y15091D01*
X68661D01*
Y15040D01*
X68636D01*
Y15014D01*
X68610D01*
Y14963D01*
X68585D01*
Y14938D01*
X68559D01*
Y14887D01*
X68534D01*
Y14861D01*
X68508D01*
Y14810D01*
X68483D01*
Y14785D01*
X68457D01*
Y14734D01*
X68432D01*
Y14708D01*
X68406D01*
Y14657D01*
X68381D01*
Y14632D01*
X68355D01*
Y14581D01*
X68330D01*
Y14555D01*
X68304D01*
Y14504D01*
X68279D01*
Y14479D01*
X68253D01*
Y14428D01*
X68228D01*
Y14402D01*
X68202D01*
Y14351D01*
X68177D01*
Y14326D01*
X68151D01*
Y14275D01*
X68126D01*
Y14249D01*
X68100D01*
Y14198D01*
X68075D01*
Y14173D01*
X68049D01*
Y14122D01*
X68024D01*
Y14096D01*
X67998D01*
Y14045D01*
X67973D01*
Y14020D01*
X66621D01*
Y14071D01*
X66647D01*
Y14096D01*
X66672D01*
Y14122D01*
X66698D01*
Y14173D01*
X66723D01*
Y14198D01*
X66749D01*
Y14249D01*
X66774D01*
Y14275D01*
X66800D01*
Y14326D01*
X66825D01*
Y14351D01*
X66851D01*
Y14377D01*
X66876D01*
Y14428D01*
X66902D01*
Y14453D01*
X66927D01*
Y14504D01*
X66953D01*
Y14530D01*
X66978D01*
Y14581D01*
X67004D01*
Y14606D01*
X67029D01*
Y14632D01*
X67055D01*
Y14683D01*
X67080D01*
Y14708D01*
X67106D01*
Y14759D01*
X67131D01*
Y14785D01*
X67157D01*
Y14836D01*
X67182D01*
Y14861D01*
X67208D01*
Y14912D01*
X67233D01*
Y14938D01*
X67259D01*
Y14963D01*
X67284D01*
Y15014D01*
X67310D01*
Y15040D01*
X67335D01*
Y15091D01*
X67361D01*
Y15116D01*
X67386D01*
Y15167D01*
X67412D01*
Y15193D01*
X67437D01*
Y15218D01*
X67463D01*
Y15269D01*
X67488D01*
Y15295D01*
X67514D01*
Y15346D01*
X67539D01*
Y15371D01*
X67565D01*
Y15397D01*
X67590D01*
Y15448D01*
X67616D01*
Y15473D01*
X67641D01*
Y15524D01*
X67667D01*
Y15550D01*
X67692D01*
Y15601D01*
X67718D01*
Y15626D01*
X67743D01*
Y15652D01*
X67769D01*
Y15703D01*
X67794D01*
Y15728D01*
X67820D01*
Y15779D01*
X67845D01*
Y15805D01*
X67871D01*
Y15856D01*
X67896D01*
Y15881D01*
X67922D01*
Y15907D01*
X67947D01*
Y15958D01*
X67973D01*
Y15983D01*
X67998D01*
Y16035D01*
X68024D01*
Y16060D01*
X68049D01*
Y16111D01*
X68075D01*
Y16137D01*
X68100D01*
Y16162D01*
X68126D01*
Y16213D01*
X68151D01*
Y16239D01*
X68177D01*
Y16289D01*
X68202D01*
Y16315D01*
X68228D01*
Y16366D01*
X68253D01*
Y16391D01*
X68279D01*
Y16417D01*
X68304D01*
Y16468D01*
X68330D01*
Y16493D01*
X68355D01*
Y16544D01*
X68381D01*
Y16570D01*
X68406D01*
Y16621D01*
X68432D01*
Y16646D01*
X68457D01*
Y16672D01*
X68483D01*
Y16723D01*
X68508D01*
Y16749D01*
X68534D01*
Y16800D01*
X68559D01*
Y16825D01*
X68585D01*
Y16851D01*
X68559D01*
Y16902D01*
X68534D01*
Y16927D01*
X68508D01*
Y16978D01*
X68483D01*
Y17004D01*
X68457D01*
Y17055D01*
X68432D01*
Y17080D01*
X68406D01*
Y17106D01*
X68381D01*
Y17157D01*
X68355D01*
Y17182D01*
X68330D01*
Y17233D01*
X68304D01*
Y17259D01*
X68279D01*
Y17310D01*
X68253D01*
Y17335D01*
X68228D01*
Y17386D01*
X68202D01*
Y17412D01*
X68177D01*
Y17437D01*
X68151D01*
Y17488D01*
X68126D01*
Y17514D01*
X68100D01*
Y17565D01*
X68075D01*
Y17590D01*
X68049D01*
Y17641D01*
X68024D01*
Y17667D01*
X67998D01*
Y17692D01*
X67973D01*
Y17743D01*
X67947D01*
Y17769D01*
X67922D01*
Y17820D01*
X67896D01*
Y17845D01*
X67871D01*
Y17871D01*
X67845D01*
Y17922D01*
X67820D01*
Y17947D01*
X67794D01*
Y17998D01*
X67769D01*
Y18024D01*
X67743D01*
Y18075D01*
X67718D01*
Y18100D01*
X67692D01*
Y18126D01*
X67667D01*
Y18177D01*
X67641D01*
Y18202D01*
X67616D01*
Y18253D01*
X67590D01*
Y18279D01*
X67565D01*
Y18330D01*
X67539D01*
Y18355D01*
X67514D01*
Y18381D01*
X67488D01*
Y18432D01*
X67463D01*
Y18457D01*
X67437D01*
Y18508D01*
X67412D01*
Y18534D01*
X67386D01*
Y18559D01*
X67361D01*
Y18610D01*
X67335D01*
Y18636D01*
X67310D01*
Y18687D01*
X67284D01*
Y18712D01*
X67259D01*
Y18763D01*
X67233D01*
Y18789D01*
X67208D01*
Y18814D01*
X67182D01*
Y18865D01*
X67157D01*
Y18891D01*
X67131D01*
Y18942D01*
X67106D01*
Y18967D01*
X67080D01*
Y19018D01*
X67055D01*
Y19044D01*
X67029D01*
Y19069D01*
X67004D01*
Y19120D01*
X66978D01*
Y19146D01*
X66953D01*
Y19197D01*
X66927D01*
Y19222D01*
X66902D01*
Y19273D01*
X66876D01*
Y19299D01*
X66851D01*
Y19324D01*
X66825D01*
Y19375D01*
X66800D01*
Y19401D01*
X66774D01*
Y19426D01*
X68024D01*
Y19401D01*
X68049D01*
Y19350D01*
X68075D01*
Y19324D01*
X68100D01*
Y19273D01*
X68126D01*
Y19248D01*
X68151D01*
Y19197D01*
X68177D01*
Y19171D01*
X68202D01*
Y19120D01*
X68228D01*
Y19095D01*
X68253D01*
Y19044D01*
X68279D01*
Y19018D01*
X68304D01*
Y18967D01*
X68330D01*
Y18916D01*
X68355D01*
Y18891D01*
X68381D01*
Y18840D01*
X68406D01*
Y18814D01*
X68432D01*
Y18763D01*
X68457D01*
Y18738D01*
X68483D01*
Y18687D01*
X68508D01*
Y18661D01*
X68534D01*
Y18610D01*
X68559D01*
Y18585D01*
X68585D01*
Y18534D01*
X68610D01*
Y18508D01*
X68636D01*
Y18457D01*
X68661D01*
Y18432D01*
X68687D01*
Y18381D01*
X68713D01*
Y18355D01*
X68738D01*
Y18304D01*
X68764D01*
Y18279D01*
X68789D01*
Y18228D01*
X68814D01*
Y18202D01*
X68840D01*
Y18151D01*
X68866D01*
Y18126D01*
X68891D01*
Y18100D01*
X68916D01*
Y18049D01*
X68942D01*
Y18024D01*
X68967D01*
Y17973D01*
X68993D01*
Y17947D01*
X69019D01*
Y17896D01*
X69044D01*
Y17871D01*
X69069D01*
Y17820D01*
X69095D01*
Y17794D01*
X69121D01*
Y17743D01*
X69146D01*
Y17718D01*
X69172D01*
Y17692D01*
X69197D01*
Y17718D01*
X69222D01*
Y17743D01*
X69248D01*
Y17794D01*
X69274D01*
Y17820D01*
X69299D01*
Y17871D01*
X69324D01*
Y17896D01*
X69350D01*
Y17947D01*
X69375D01*
Y17973D01*
X69401D01*
Y18024D01*
X69427D01*
Y18049D01*
X69452D01*
Y18100D01*
X69477D01*
Y18126D01*
X69503D01*
Y18177D01*
X69529D01*
Y18202D01*
X69554D01*
Y18253D01*
X69580D01*
Y18279D01*
X69605D01*
Y18330D01*
X69631D01*
Y18355D01*
X69656D01*
Y18406D01*
X69682D01*
Y18432D01*
X69707D01*
Y18483D01*
X69733D01*
Y18508D01*
X69758D01*
Y18559D01*
X69784D01*
Y18585D01*
X69809D01*
Y18636D01*
X69835D01*
Y18661D01*
X69860D01*
Y18712D01*
X69886D01*
Y18738D01*
X69911D01*
Y18789D01*
X69937D01*
Y18814D01*
X69962D01*
Y18865D01*
X69988D01*
Y18891D01*
X70013D01*
Y18942D01*
X70039D01*
Y18967D01*
X70064D01*
Y19018D01*
X70090D01*
Y19044D01*
X70115D01*
Y19069D01*
X70141D01*
Y19120D01*
X70166D01*
Y19146D01*
X70192D01*
Y19197D01*
X70217D01*
Y19222D01*
X70243D01*
Y19273D01*
X70268D01*
Y19299D01*
X70294D01*
Y19350D01*
X70319D01*
Y19375D01*
X70345D01*
Y19426D01*
X71671D01*
Y19375D01*
D02*
G37*
G36*
X75930Y19452D02*
X76185D01*
Y19426D01*
X76363D01*
Y19401D01*
X76516D01*
Y19375D01*
X76644D01*
Y19350D01*
X76746D01*
Y19324D01*
X76848D01*
Y19299D01*
X76950D01*
Y19273D01*
X77026D01*
Y19248D01*
X77103D01*
Y19222D01*
X77180D01*
Y19197D01*
X77256D01*
Y19171D01*
X77307D01*
Y19146D01*
X77358D01*
Y19120D01*
X77435D01*
Y19095D01*
X77486D01*
Y19069D01*
X77537D01*
Y19044D01*
X77588D01*
Y19018D01*
X77613D01*
Y18916D01*
X77639D01*
Y18559D01*
X77664D01*
Y14020D01*
X76516D01*
Y17871D01*
X76491D01*
Y18330D01*
X76465D01*
Y18406D01*
X76389D01*
Y18432D01*
X76338D01*
Y18457D01*
X76236D01*
Y18483D01*
X76159D01*
Y18508D01*
X76032D01*
Y18534D01*
X75853D01*
Y18559D01*
X75063D01*
Y18738D01*
X75037D01*
Y18993D01*
X75012D01*
Y19248D01*
X74986D01*
Y19452D01*
X75012D01*
Y19477D01*
X75930D01*
Y19452D01*
D02*
G37*
G36*
X74068Y14020D02*
X72921D01*
Y14045D01*
X72895D01*
Y18865D01*
Y18891D01*
Y19426D01*
X74068D01*
Y14020D01*
D02*
G37*
G36*
X83912Y16672D02*
Y18228D01*
X83887D01*
Y18381D01*
X83861D01*
Y18406D01*
X83810D01*
Y18432D01*
X83734D01*
Y18457D01*
X83657D01*
Y18483D01*
X83555D01*
Y18508D01*
X83428D01*
Y18534D01*
X83249D01*
Y18559D01*
X82484D01*
Y18636D01*
X82459D01*
Y18891D01*
X82433D01*
Y19146D01*
X82408D01*
Y19401D01*
X82382D01*
Y19452D01*
X82408D01*
Y19477D01*
X83326D01*
Y19452D01*
X83581D01*
Y19426D01*
X83759D01*
Y19401D01*
X83912D01*
Y19375D01*
X84040D01*
Y19350D01*
X84167D01*
Y19324D01*
X84269D01*
Y19299D01*
X84346D01*
Y19273D01*
X84448D01*
Y19248D01*
X84525D01*
Y19222D01*
X84575D01*
Y19197D01*
X84652D01*
Y19171D01*
X84728D01*
Y19146D01*
X84780D01*
Y19120D01*
X84831D01*
Y19095D01*
X84882D01*
Y19069D01*
X84933D01*
Y19044D01*
X84984D01*
Y19018D01*
X85035D01*
Y18789D01*
X85060D01*
Y18228D01*
X85086D01*
Y14045D01*
X85060D01*
Y14020D01*
X83938D01*
Y14045D01*
X83912D01*
Y16646D01*
Y16672D01*
D02*
G37*
G36*
X80954Y14759D02*
Y14708D01*
X80928D01*
Y14632D01*
X80903D01*
Y14581D01*
X80878D01*
Y14555D01*
X80852D01*
Y14504D01*
X80826D01*
Y14479D01*
X80801D01*
Y14428D01*
X80775D01*
Y14402D01*
X80750D01*
Y14377D01*
X80725D01*
Y14351D01*
X80699D01*
Y14326D01*
X80673D01*
Y14300D01*
X80648D01*
Y14275D01*
X80597D01*
Y14249D01*
X80572D01*
Y14224D01*
X80546D01*
Y14198D01*
X80495D01*
Y14173D01*
X80444D01*
Y14147D01*
X80393D01*
Y14122D01*
X80342D01*
Y14096D01*
X80265D01*
Y14071D01*
X80189D01*
Y14045D01*
X80087D01*
Y14020D01*
X79959D01*
Y13994D01*
X79704D01*
Y13969D01*
X79322D01*
Y13994D01*
X79016D01*
Y14020D01*
X78837D01*
Y14045D01*
X78684D01*
Y14173D01*
X78710D01*
Y14428D01*
X78735D01*
Y14657D01*
X78761D01*
Y14861D01*
X78786D01*
Y14887D01*
X78939D01*
Y14861D01*
X79347D01*
Y14887D01*
X79500D01*
Y14912D01*
X79577D01*
Y14938D01*
X79653D01*
Y14963D01*
X79679D01*
Y14989D01*
X79730D01*
Y15014D01*
X79755D01*
Y15040D01*
X79781D01*
Y15091D01*
X79806D01*
Y15116D01*
X79832D01*
Y15167D01*
X79857D01*
Y15244D01*
X79883D01*
Y15346D01*
X79908D01*
Y18559D01*
X79883D01*
Y18585D01*
X78786D01*
Y19426D01*
X79908D01*
Y20931D01*
X80010D01*
Y20906D01*
X80189D01*
Y20880D01*
X80342D01*
Y20855D01*
X80495D01*
Y20829D01*
X80673D01*
Y20804D01*
X80826D01*
Y20778D01*
X80980D01*
Y20753D01*
X81082D01*
Y19426D01*
X81974D01*
Y18585D01*
X81082D01*
Y15320D01*
X81056D01*
Y15065D01*
X81031D01*
Y14938D01*
X81005D01*
Y14836D01*
X80980D01*
Y14759D01*
X80954D01*
D02*
G37*
G36*
X86029Y14071D02*
Y14122D01*
X86055D01*
Y14198D01*
X86080D01*
Y14275D01*
X86106D01*
Y14351D01*
X86131D01*
Y14428D01*
X86157D01*
Y14504D01*
X86182D01*
Y14581D01*
X86208D01*
Y14657D01*
X86233D01*
Y14734D01*
X86259D01*
Y14810D01*
X86284D01*
Y14887D01*
X86310D01*
Y14963D01*
X86335D01*
Y15040D01*
X86361D01*
Y15116D01*
X86386D01*
Y15167D01*
X86412D01*
Y15244D01*
X86437D01*
Y15320D01*
X86463D01*
Y15397D01*
X86488D01*
Y15473D01*
X86514D01*
Y15550D01*
X86539D01*
Y15626D01*
X86565D01*
Y15703D01*
X86590D01*
Y15779D01*
X86616D01*
Y15856D01*
X86641D01*
Y15933D01*
X86667D01*
Y16009D01*
X86692D01*
Y16085D01*
X86718D01*
Y16162D01*
X86743D01*
Y16239D01*
X86769D01*
Y16315D01*
X86794D01*
Y16391D01*
X86820D01*
Y16468D01*
X86845D01*
Y16544D01*
X86871D01*
Y16621D01*
X86896D01*
Y16698D01*
X86922D01*
Y16774D01*
X86947D01*
Y16851D01*
X86973D01*
Y16927D01*
X86998D01*
Y17004D01*
X87024D01*
Y17080D01*
X87049D01*
Y17157D01*
X87075D01*
Y17233D01*
X87100D01*
Y17310D01*
X87126D01*
Y17386D01*
X87151D01*
Y17463D01*
X87177D01*
Y17539D01*
X87202D01*
Y17616D01*
X87228D01*
Y17692D01*
X87253D01*
Y17743D01*
X87279D01*
Y17820D01*
X87304D01*
Y17896D01*
X87330D01*
Y17973D01*
X87355D01*
Y18049D01*
X87381D01*
Y18126D01*
X87406D01*
Y18202D01*
X87432D01*
Y18279D01*
X87457D01*
Y18355D01*
X87483D01*
Y18432D01*
X87508D01*
Y18508D01*
X87534D01*
Y18585D01*
X87559D01*
Y18661D01*
X87585D01*
Y18738D01*
X87610D01*
Y18814D01*
X87636D01*
Y18891D01*
X87661D01*
Y18967D01*
X87687D01*
Y19044D01*
X87713D01*
Y19120D01*
X87738D01*
Y19197D01*
X87764D01*
Y19248D01*
X87789D01*
Y19324D01*
X87814D01*
Y19401D01*
X87840D01*
Y19477D01*
X87866D01*
Y19554D01*
X87891D01*
Y19630D01*
X87916D01*
Y19707D01*
X87942D01*
Y19783D01*
X87967D01*
Y19860D01*
X87993D01*
Y19937D01*
X88019D01*
Y20013D01*
X88044D01*
Y20089D01*
X88069D01*
Y20166D01*
X88095D01*
Y20243D01*
X88121D01*
Y20319D01*
X88146D01*
Y20395D01*
X88171D01*
Y20447D01*
X88197D01*
Y20498D01*
X88222D01*
Y20549D01*
X88248D01*
Y20600D01*
X88274D01*
Y20651D01*
X88299D01*
Y20676D01*
X88324D01*
Y20727D01*
X88350D01*
Y20753D01*
X88376D01*
Y20778D01*
X88401D01*
Y20829D01*
X88427D01*
Y20855D01*
X88452D01*
Y20880D01*
X88477D01*
Y20906D01*
X88529D01*
Y20931D01*
X88554D01*
Y20957D01*
X88580D01*
Y20982D01*
X88631D01*
Y21008D01*
X88682D01*
Y21033D01*
X88733D01*
Y21059D01*
X88784D01*
Y21084D01*
X88860D01*
Y21110D01*
X88962D01*
Y21135D01*
X89421D01*
Y21110D01*
X89523D01*
Y21084D01*
X89600D01*
Y21059D01*
X89651D01*
Y21033D01*
X89702D01*
Y21008D01*
X89753D01*
Y20982D01*
X89804D01*
Y20957D01*
X89829D01*
Y20931D01*
X89855D01*
Y20906D01*
X89880D01*
Y20880D01*
X89931D01*
Y20855D01*
X89957D01*
Y20804D01*
X89982D01*
Y20778D01*
X90008D01*
Y20753D01*
X90033D01*
Y20727D01*
X90059D01*
Y20676D01*
X90084D01*
Y20651D01*
X90110D01*
Y20600D01*
X90135D01*
Y20549D01*
X90161D01*
Y20498D01*
X90186D01*
Y20447D01*
X90212D01*
Y20395D01*
X90237D01*
Y20319D01*
X90263D01*
Y20243D01*
X90288D01*
Y20166D01*
X90314D01*
Y20089D01*
X90339D01*
Y20039D01*
X90365D01*
Y19962D01*
X90390D01*
Y19885D01*
X90416D01*
Y19809D01*
X90441D01*
Y19733D01*
X90467D01*
Y19656D01*
X90492D01*
Y19579D01*
X90518D01*
Y19503D01*
X90543D01*
Y19426D01*
X90569D01*
Y19350D01*
X90594D01*
Y19299D01*
X90620D01*
Y19222D01*
X90645D01*
Y19146D01*
X90671D01*
Y19069D01*
X90696D01*
Y18993D01*
X90722D01*
Y18916D01*
X90747D01*
Y18840D01*
X90773D01*
Y18763D01*
X90798D01*
Y18687D01*
X90824D01*
Y18610D01*
X90849D01*
Y18534D01*
X90875D01*
Y18457D01*
X90900D01*
Y18381D01*
X90926D01*
Y18304D01*
X90951D01*
Y18228D01*
X90977D01*
Y18177D01*
X91002D01*
Y18100D01*
X91028D01*
Y18024D01*
X91053D01*
Y17947D01*
X91079D01*
Y17871D01*
X91104D01*
Y17794D01*
X91130D01*
Y17718D01*
X91155D01*
Y17641D01*
X91181D01*
Y17565D01*
X91206D01*
Y17488D01*
X91232D01*
Y17412D01*
X91257D01*
Y17335D01*
X91283D01*
Y17259D01*
X91308D01*
Y17182D01*
X91334D01*
Y17131D01*
X91359D01*
Y17055D01*
X91385D01*
Y16978D01*
X91410D01*
Y16902D01*
X91436D01*
Y16825D01*
X91461D01*
Y16749D01*
X91487D01*
Y16672D01*
X91513D01*
Y16596D01*
X91538D01*
Y16519D01*
X91563D01*
Y16443D01*
X91589D01*
Y16391D01*
X91615D01*
Y16315D01*
X91640D01*
Y16239D01*
X91666D01*
Y16162D01*
X91691D01*
Y16085D01*
X91716D01*
Y16009D01*
X91742D01*
Y15933D01*
X91768D01*
Y15856D01*
X91793D01*
Y15779D01*
X91818D01*
Y15703D01*
X91844D01*
Y15652D01*
X91869D01*
Y15575D01*
X91895D01*
Y15499D01*
X91921D01*
Y15422D01*
X91946D01*
Y15346D01*
X91971D01*
Y15269D01*
X91997D01*
Y15193D01*
X92023D01*
Y15116D01*
X92048D01*
Y15040D01*
X92074D01*
Y14963D01*
X92099D01*
Y14887D01*
X92124D01*
Y14810D01*
X92150D01*
Y14734D01*
X92176D01*
Y14683D01*
X92201D01*
Y14606D01*
X92226D01*
Y14530D01*
X92252D01*
Y14453D01*
X92277D01*
Y14377D01*
X92303D01*
Y14300D01*
X92329D01*
Y14224D01*
X92354D01*
Y14147D01*
X92380D01*
Y14071D01*
X92405D01*
Y14020D01*
X91130D01*
Y14071D01*
X91104D01*
Y14147D01*
X91079D01*
Y14224D01*
X91053D01*
Y14326D01*
X91028D01*
Y14402D01*
X91002D01*
Y14479D01*
X90977D01*
Y14555D01*
X90951D01*
Y14632D01*
X90926D01*
Y14734D01*
X90900D01*
Y14810D01*
X90875D01*
Y14887D01*
X90849D01*
Y14963D01*
X90824D01*
Y15040D01*
X90798D01*
Y15116D01*
X90773D01*
Y15218D01*
X90747D01*
Y15295D01*
X90722D01*
Y15371D01*
X90696D01*
Y15448D01*
X90671D01*
Y15524D01*
X90645D01*
Y15626D01*
X90620D01*
Y15703D01*
X90594D01*
Y15779D01*
X90569D01*
Y15856D01*
X90543D01*
Y15907D01*
X90033D01*
X90008D01*
X87942D01*
Y15881D01*
X87916D01*
Y15805D01*
X87891D01*
Y15728D01*
X87866D01*
Y15652D01*
X87840D01*
Y15575D01*
X87814D01*
Y15499D01*
X87789D01*
Y15422D01*
X87764D01*
Y15346D01*
X87738D01*
Y15269D01*
X87713D01*
Y15193D01*
X87687D01*
Y15116D01*
X87661D01*
Y15014D01*
X87636D01*
Y14938D01*
X87610D01*
Y14861D01*
X87585D01*
Y14785D01*
X87559D01*
Y14708D01*
X87534D01*
Y14632D01*
X87508D01*
Y14555D01*
X87483D01*
Y14479D01*
X87457D01*
Y14402D01*
X87432D01*
Y14326D01*
X87406D01*
Y14249D01*
X87381D01*
Y14147D01*
X87355D01*
Y14071D01*
X87330D01*
Y14020D01*
X86029D01*
Y14045D01*
X86004D01*
Y14071D01*
X86029D01*
D02*
G37*
G36*
X103627Y22716D02*
X103677D01*
Y22691D01*
X103780D01*
Y22665D01*
X103856D01*
Y22640D01*
X103907D01*
Y22614D01*
X103958D01*
Y22589D01*
X104009D01*
Y22563D01*
X104060D01*
Y22538D01*
X104111D01*
Y22512D01*
X104137D01*
Y22487D01*
X104162D01*
Y22461D01*
X104213D01*
Y22436D01*
X104239D01*
Y22410D01*
X104264D01*
Y22385D01*
X104290D01*
Y22359D01*
X104315D01*
Y22334D01*
X104341D01*
Y22308D01*
X104366D01*
Y22257D01*
X104392D01*
Y22232D01*
X104417D01*
Y22206D01*
X104443D01*
Y22155D01*
X104468D01*
Y22104D01*
X104494D01*
Y22053D01*
X104519D01*
Y22002D01*
X104545D01*
Y21926D01*
X104570D01*
Y21875D01*
X104596D01*
Y21773D01*
X104621D01*
Y17539D01*
Y17514D01*
Y13765D01*
X104596D01*
Y13663D01*
X104570D01*
Y13612D01*
X104545D01*
Y13535D01*
X104519D01*
Y13484D01*
X104494D01*
Y13433D01*
X104468D01*
Y13382D01*
X104443D01*
Y13331D01*
X104417D01*
Y13306D01*
X104392D01*
Y13280D01*
X104366D01*
Y13229D01*
X104341D01*
Y13204D01*
X104315D01*
Y13178D01*
X104290D01*
Y13153D01*
X104264D01*
Y13127D01*
X104239D01*
Y13102D01*
X104213D01*
Y13076D01*
X104162D01*
Y13051D01*
X104137D01*
Y13025D01*
X104111D01*
Y13000D01*
X104060D01*
Y12974D01*
X104009D01*
Y12949D01*
X103958D01*
Y12923D01*
X103907D01*
Y12898D01*
X103856D01*
Y12872D01*
X103780D01*
Y12846D01*
X103677D01*
Y12821D01*
X100005D01*
Y12846D01*
X100031D01*
Y12898D01*
X100056D01*
Y12923D01*
X100082D01*
Y12949D01*
X100107D01*
Y13025D01*
X100133D01*
Y13051D01*
X100158D01*
Y13076D01*
X100184D01*
Y13127D01*
X100209D01*
Y13153D01*
X100235D01*
Y13178D01*
X100260D01*
Y13255D01*
X100286D01*
Y13280D01*
X100311D01*
Y13306D01*
X100337D01*
Y13357D01*
X100362D01*
Y13382D01*
X100388D01*
Y13408D01*
X100413D01*
Y13484D01*
X100439D01*
Y13535D01*
X100464D01*
Y13561D01*
X100490D01*
Y13586D01*
X100515D01*
Y13637D01*
X100541D01*
Y13688D01*
X100566D01*
Y13714D01*
X100592D01*
Y13765D01*
X100617D01*
Y13790D01*
X100643D01*
Y13816D01*
X100668D01*
Y13892D01*
X100719D01*
Y13918D01*
X100745D01*
Y13994D01*
X100770D01*
Y14045D01*
X100796D01*
Y14071D01*
X100821D01*
Y14096D01*
X100847D01*
Y14147D01*
X100872D01*
Y14198D01*
X100898D01*
Y14224D01*
X100923D01*
Y14275D01*
X100949D01*
Y14300D01*
X100974D01*
Y14326D01*
X101000D01*
Y14402D01*
X101025D01*
Y14428D01*
X101051D01*
Y14453D01*
X101076D01*
Y14504D01*
X101102D01*
Y14530D01*
X101127D01*
Y14606D01*
X101153D01*
Y14632D01*
X101178D01*
Y14657D01*
X101204D01*
Y14708D01*
X101229D01*
Y14734D01*
X101255D01*
Y14759D01*
X101280D01*
Y14836D01*
X101306D01*
Y14861D01*
X101331D01*
Y14912D01*
X101357D01*
Y14938D01*
X101382D01*
Y14963D01*
X101408D01*
Y15014D01*
X101433D01*
Y15040D01*
X101459D01*
Y15091D01*
X101484D01*
Y15142D01*
X101510D01*
Y15167D01*
X101535D01*
Y15218D01*
X101561D01*
Y15244D01*
X101586D01*
Y15269D01*
X101612D01*
Y15346D01*
X101637D01*
Y15371D01*
X101663D01*
Y15397D01*
X101688D01*
Y15448D01*
X101714D01*
Y15473D01*
X101739D01*
Y15524D01*
X101765D01*
Y15575D01*
X101790D01*
Y15601D01*
X101816D01*
Y15652D01*
X101841D01*
Y15677D01*
X101867D01*
Y15754D01*
X101892D01*
Y15779D01*
X101918D01*
Y15805D01*
X101943D01*
Y15856D01*
X101969D01*
Y15881D01*
X101994D01*
Y15907D01*
X102020D01*
Y15983D01*
X102045D01*
Y16009D01*
X102071D01*
Y16035D01*
X102096D01*
Y16085D01*
X102122D01*
Y16111D01*
X102147D01*
Y16137D01*
X102173D01*
Y16213D01*
X102198D01*
Y16264D01*
X102224D01*
Y16289D01*
X102249D01*
Y16315D01*
X102275D01*
Y16391D01*
X102326D01*
Y16417D01*
X102351D01*
Y16493D01*
X102377D01*
Y16519D01*
X102402D01*
Y16544D01*
X102428D01*
Y16596D01*
X102453D01*
Y16621D01*
X102479D01*
Y16646D01*
X102504D01*
Y16723D01*
X102530D01*
Y16749D01*
X102555D01*
Y16774D01*
X102581D01*
Y16825D01*
X102606D01*
Y16902D01*
X102632D01*
Y16927D01*
X102657D01*
Y16953D01*
X102683D01*
Y17029D01*
X102606D01*
Y17055D01*
X102581D01*
Y17080D01*
X102555D01*
Y17106D01*
X102504D01*
Y17131D01*
X102479D01*
Y17157D01*
X102453D01*
Y17182D01*
X102377D01*
Y17208D01*
X102351D01*
Y17233D01*
X102326D01*
Y17259D01*
X102275D01*
Y17284D01*
X102198D01*
Y17310D01*
X102173D01*
Y17335D01*
X102147D01*
Y17361D01*
X102096D01*
Y17386D01*
X102071D01*
Y17412D01*
X102045D01*
Y17437D01*
X101994D01*
Y17463D01*
X101969D01*
Y17488D01*
X101943D01*
Y17514D01*
X101867D01*
Y17539D01*
X101841D01*
Y17565D01*
X101816D01*
Y17590D01*
X101765D01*
Y17616D01*
X101739D01*
Y17641D01*
X101688D01*
Y17667D01*
X101637D01*
Y17692D01*
X101612D01*
Y17718D01*
X101586D01*
Y17743D01*
X101535D01*
Y17769D01*
X101510D01*
Y17794D01*
X101459D01*
Y17820D01*
X101408D01*
Y17845D01*
X101357D01*
Y17871D01*
X101331D01*
Y17896D01*
X101306D01*
Y17922D01*
X101229D01*
Y17947D01*
X101204D01*
Y17973D01*
X101178D01*
Y17998D01*
X101127D01*
Y18024D01*
X101102D01*
Y18049D01*
X101076D01*
Y18075D01*
X101000D01*
Y18100D01*
X100974D01*
Y18126D01*
X100949D01*
Y18151D01*
X100898D01*
Y18177D01*
X100872D01*
Y18202D01*
X100847D01*
Y18228D01*
X100770D01*
Y18253D01*
X100745D01*
Y18279D01*
X100719D01*
Y18304D01*
X100668D01*
Y18330D01*
X100643D01*
Y18355D01*
X100592D01*
Y18381D01*
X100566D01*
Y18406D01*
X100541D01*
Y18432D01*
X100464D01*
Y18457D01*
X100439D01*
Y18483D01*
X100388D01*
Y18508D01*
X100362D01*
Y18534D01*
X100311D01*
Y18559D01*
X100260D01*
Y18585D01*
X100235D01*
Y18610D01*
X100209D01*
Y18636D01*
X100158D01*
Y18661D01*
X100133D01*
Y18687D01*
X100082D01*
Y18712D01*
X100031D01*
Y18738D01*
X100005D01*
Y18763D01*
X99980D01*
Y18789D01*
X99928D01*
Y18814D01*
X99903D01*
Y18840D01*
X99852D01*
Y18865D01*
X99801D01*
Y18891D01*
X99775D01*
Y18916D01*
X99725D01*
Y18942D01*
X99699D01*
Y18967D01*
X99673D01*
Y18993D01*
X99622D01*
Y19018D01*
X99572D01*
Y19044D01*
X99520D01*
Y19069D01*
X99495D01*
Y19095D01*
X99470D01*
Y19120D01*
X99393D01*
Y19146D01*
X99367D01*
Y19171D01*
X99342D01*
Y19197D01*
X99291D01*
Y19222D01*
X99265D01*
Y19248D01*
X99240D01*
Y19273D01*
X99164D01*
Y19299D01*
X99138D01*
Y19324D01*
X99087D01*
Y19350D01*
X99061D01*
Y19375D01*
X99036D01*
Y19401D01*
X98985D01*
Y19426D01*
X98959D01*
Y19452D01*
X98908D01*
Y19477D01*
X98857D01*
Y19503D01*
X98832D01*
Y19528D01*
X98806D01*
Y19554D01*
X98755D01*
Y19579D01*
X98704D01*
Y19630D01*
X98628D01*
Y19656D01*
X98602D01*
Y19681D01*
X98551D01*
Y19707D01*
X98526D01*
Y19733D01*
X98475D01*
Y19758D01*
X98424D01*
Y19783D01*
X98398D01*
Y19809D01*
X98347D01*
Y19835D01*
X98322D01*
Y19860D01*
X98296D01*
Y19885D01*
X98245D01*
Y19911D01*
X98194D01*
Y19937D01*
X98169D01*
Y19962D01*
X98118D01*
Y19987D01*
X98092D01*
Y20013D01*
X98067D01*
Y20039D01*
X97990D01*
Y20064D01*
X97965D01*
Y20089D01*
X97939D01*
Y20115D01*
X97888D01*
Y20141D01*
X97863D01*
Y20166D01*
X97837D01*
Y20191D01*
X97761D01*
Y20217D01*
X97735D01*
Y20243D01*
X97684D01*
Y20268D01*
X97659D01*
Y20293D01*
X97608D01*
Y20319D01*
X97557D01*
Y20345D01*
X97531D01*
Y20370D01*
X97480D01*
Y20395D01*
X97455D01*
Y20421D01*
X97429D01*
Y20447D01*
X97378D01*
Y20472D01*
X97327D01*
Y20498D01*
X97302D01*
Y20523D01*
X97251D01*
Y20549D01*
X97225D01*
Y20574D01*
X97200D01*
Y20600D01*
X97149D01*
Y20625D01*
X97123D01*
Y20651D01*
X97098D01*
Y20676D01*
X97021D01*
Y20702D01*
X96996D01*
Y20727D01*
X96970D01*
Y20753D01*
X96919D01*
Y20778D01*
X96894D01*
Y20804D01*
X96868D01*
Y20829D01*
X96792D01*
Y20855D01*
X96741D01*
Y20880D01*
X96715D01*
Y20906D01*
X96690D01*
Y20931D01*
X96613D01*
Y20957D01*
X96588D01*
Y20982D01*
X96562D01*
Y21008D01*
X96511D01*
Y21033D01*
X96486D01*
Y21059D01*
X96460D01*
Y21084D01*
X96384D01*
Y21110D01*
X96358D01*
Y21135D01*
X96333D01*
Y21161D01*
X96282D01*
Y21186D01*
X96256D01*
Y21212D01*
X96231D01*
Y21237D01*
X96154D01*
Y21263D01*
X96128D01*
Y21288D01*
X96103D01*
Y21314D01*
X96052D01*
Y21339D01*
X96026D01*
Y21365D01*
X96001D01*
Y21390D01*
X95925D01*
Y21416D01*
X95899D01*
Y21441D01*
X95873D01*
Y21467D01*
X95823D01*
Y21492D01*
X95771D01*
Y21518D01*
X95720D01*
Y21543D01*
X95695D01*
Y21569D01*
X95644D01*
Y21594D01*
X95618D01*
Y21620D01*
X95593D01*
Y21645D01*
X95542D01*
Y21671D01*
X95517D01*
Y21696D01*
X95491D01*
Y21722D01*
X95415D01*
Y21747D01*
X95389D01*
Y21773D01*
X95363D01*
Y21798D01*
X95312D01*
Y21824D01*
X95287D01*
Y21849D01*
X95261D01*
Y21875D01*
X95185D01*
Y21900D01*
X95159D01*
Y21926D01*
X95134D01*
Y21951D01*
X95083D01*
Y21977D01*
X95057D01*
Y22002D01*
X95032D01*
Y22028D01*
X94955D01*
Y22053D01*
X94904D01*
Y22079D01*
X94879D01*
Y22104D01*
X94853D01*
Y22155D01*
X94879D01*
Y22181D01*
X94904D01*
Y22232D01*
X94930D01*
Y22257D01*
X94955D01*
Y22283D01*
X94981D01*
Y22334D01*
X95006D01*
Y22359D01*
X95032D01*
Y22385D01*
X95057D01*
Y22410D01*
X95083D01*
Y22436D01*
X95108D01*
Y22461D01*
X95159D01*
Y22487D01*
X95185D01*
Y22512D01*
X95210D01*
Y22538D01*
X95261D01*
Y22563D01*
X95312D01*
Y22589D01*
X95363D01*
Y22614D01*
X95415D01*
Y22640D01*
X95465D01*
Y22665D01*
X95542D01*
Y22691D01*
X95644D01*
Y22716D01*
X95695D01*
Y22742D01*
X103627D01*
Y22716D01*
D02*
G37*
G36*
X94726Y20600D02*
X94802D01*
Y20574D01*
X94853D01*
Y20549D01*
X94879D01*
Y20523D01*
X94904D01*
Y20498D01*
X94981D01*
Y20472D01*
X95006D01*
Y20447D01*
X95032D01*
Y20421D01*
X95083D01*
Y20395D01*
X95108D01*
Y20370D01*
X95134D01*
Y20345D01*
X95210D01*
Y20319D01*
X95236D01*
Y20293D01*
X95261D01*
Y20268D01*
X95312D01*
Y20243D01*
X95363D01*
Y20217D01*
X95415D01*
Y20191D01*
X95440D01*
Y20166D01*
X95491D01*
Y20141D01*
X95517D01*
Y20115D01*
X95542D01*
Y20089D01*
X95593D01*
Y20064D01*
X95644D01*
Y20039D01*
X95670D01*
Y20013D01*
X95720D01*
Y19987D01*
X95746D01*
Y19962D01*
X95771D01*
Y19937D01*
X95848D01*
Y19911D01*
X95873D01*
Y19885D01*
X95925D01*
Y19860D01*
X95950D01*
Y19835D01*
X95976D01*
Y19809D01*
X96052D01*
Y19783D01*
X96078D01*
Y19758D01*
X96103D01*
Y19733D01*
X96154D01*
Y19707D01*
X96180D01*
Y19681D01*
X96231D01*
Y19656D01*
X96256D01*
Y19630D01*
X96282D01*
Y19605D01*
X96358D01*
Y19579D01*
X96384D01*
Y19554D01*
X96435D01*
Y19528D01*
X96460D01*
Y19503D01*
X96486D01*
Y19477D01*
X96562D01*
Y19452D01*
X96588D01*
Y19426D01*
X96613D01*
Y19401D01*
X96664D01*
Y19375D01*
X96690D01*
Y19350D01*
X96741D01*
Y19324D01*
X96792D01*
Y19299D01*
X96817D01*
Y19273D01*
X96868D01*
Y19248D01*
X96894D01*
Y19222D01*
X96970D01*
Y19197D01*
X96996D01*
Y19171D01*
X97021D01*
Y19146D01*
X97072D01*
Y19120D01*
X97098D01*
Y19095D01*
X97123D01*
Y19069D01*
X97200D01*
Y19044D01*
X97225D01*
Y19018D01*
X97251D01*
Y18993D01*
X97302D01*
Y18967D01*
X97327D01*
Y18942D01*
X97353D01*
Y18916D01*
X97429D01*
Y18891D01*
X97480D01*
Y18865D01*
X97506D01*
Y18840D01*
X97531D01*
Y18814D01*
X97608D01*
Y18789D01*
X97633D01*
Y18763D01*
X97659D01*
Y18738D01*
X97710D01*
Y18712D01*
X97735D01*
Y18687D01*
X97761D01*
Y18661D01*
X97837D01*
Y18636D01*
X97863D01*
Y18585D01*
X97939D01*
Y18559D01*
X97990D01*
Y18534D01*
X98016D01*
Y18508D01*
X98041D01*
Y18483D01*
X98118D01*
Y18457D01*
X98143D01*
Y18432D01*
X98169D01*
Y18406D01*
X98220D01*
Y18381D01*
X98245D01*
Y18355D01*
X98271D01*
Y18330D01*
X98347D01*
Y18304D01*
X98373D01*
Y18279D01*
X98398D01*
Y18253D01*
X98449D01*
Y18228D01*
X98500D01*
Y18202D01*
X98551D01*
Y18177D01*
X98577D01*
Y18151D01*
X98628D01*
Y18126D01*
X98653D01*
Y18100D01*
X98679D01*
Y18075D01*
X98755D01*
Y18049D01*
X98781D01*
Y18024D01*
X98806D01*
Y17998D01*
X98857D01*
Y17973D01*
X98883D01*
Y17947D01*
X98908D01*
Y17922D01*
X98985D01*
Y17896D01*
X99010D01*
Y17871D01*
X99061D01*
Y17845D01*
X99087D01*
Y17820D01*
X99112D01*
Y17794D01*
X99189D01*
Y17769D01*
X99215D01*
Y17743D01*
X99265D01*
Y17718D01*
X99291D01*
Y17692D01*
X99317D01*
Y17667D01*
X99367D01*
Y17641D01*
X99418D01*
Y17616D01*
X99444D01*
Y17590D01*
X99495D01*
Y17565D01*
X99520D01*
Y17539D01*
X99572D01*
Y17514D01*
X99597D01*
Y17488D01*
X99648D01*
Y17463D01*
X99699D01*
Y17437D01*
X99725D01*
Y17412D01*
X99750D01*
Y17386D01*
X99801D01*
Y17361D01*
X99827D01*
Y17335D01*
X99878D01*
Y17310D01*
X99928D01*
Y17284D01*
X99954D01*
Y17259D01*
X100005D01*
Y17233D01*
X100031D01*
Y17208D01*
X100107D01*
Y17182D01*
X100133D01*
Y17157D01*
X100158D01*
Y17131D01*
X100209D01*
Y17106D01*
X100235D01*
Y17080D01*
X100260D01*
Y17055D01*
X100337D01*
Y17029D01*
X100362D01*
Y17004D01*
X100388D01*
Y16978D01*
X100439D01*
Y16953D01*
X100464D01*
Y16927D01*
X100490D01*
Y16902D01*
X100566D01*
Y16876D01*
X100617D01*
Y16851D01*
X100643D01*
Y16825D01*
X100668D01*
Y16800D01*
X100719D01*
Y16774D01*
X100745D01*
Y16749D01*
X100770D01*
Y16723D01*
X100796D01*
Y16698D01*
X100821D01*
Y16544D01*
X100796D01*
Y16519D01*
X100770D01*
Y16493D01*
X100745D01*
Y16443D01*
X100719D01*
Y16417D01*
X100694D01*
Y16391D01*
X100668D01*
Y16315D01*
X100643D01*
Y16289D01*
X100617D01*
Y16264D01*
X100592D01*
Y16213D01*
X100566D01*
Y16187D01*
X100541D01*
Y16162D01*
X100515D01*
Y16085D01*
X100490D01*
Y16035D01*
X100464D01*
Y16009D01*
X100439D01*
Y15983D01*
X100413D01*
Y15933D01*
X100388D01*
Y15907D01*
X100362D01*
Y15856D01*
X100337D01*
Y15805D01*
X100311D01*
Y15779D01*
X100286D01*
Y15754D01*
X100260D01*
Y15703D01*
X100235D01*
Y15677D01*
X100209D01*
Y15652D01*
X100184D01*
Y15575D01*
X100158D01*
Y15550D01*
X100133D01*
Y15524D01*
X100107D01*
Y15473D01*
X100082D01*
Y15448D01*
X100056D01*
Y15422D01*
X100031D01*
Y15346D01*
X100005D01*
Y15320D01*
X99980D01*
Y15295D01*
X99954D01*
Y15244D01*
X99928D01*
Y15218D01*
X99903D01*
Y15193D01*
X99878D01*
Y15116D01*
X99852D01*
Y15091D01*
X99827D01*
Y15065D01*
X99801D01*
Y15014D01*
X99775D01*
Y14938D01*
X99750D01*
Y14912D01*
X99725D01*
Y14887D01*
X99699D01*
Y14836D01*
X99673D01*
Y14810D01*
X99648D01*
Y14785D01*
X99622D01*
Y14708D01*
X99597D01*
Y14683D01*
X99572D01*
Y14657D01*
X99546D01*
Y14606D01*
X99520D01*
Y14581D01*
X99495D01*
Y14555D01*
X99470D01*
Y14479D01*
X99418D01*
Y14453D01*
X99393D01*
Y14377D01*
X99367D01*
Y14351D01*
X99342D01*
Y14326D01*
X99317D01*
Y14275D01*
X99291D01*
Y14249D01*
X99265D01*
Y14224D01*
X99240D01*
Y14147D01*
X99215D01*
Y14122D01*
X99189D01*
Y14096D01*
X99164D01*
Y14045D01*
X99138D01*
Y14020D01*
X99112D01*
Y13969D01*
X99087D01*
Y13918D01*
X99061D01*
Y13867D01*
X99036D01*
Y13841D01*
X99010D01*
Y13816D01*
X98985D01*
Y13739D01*
X98959D01*
Y13714D01*
X98934D01*
Y13688D01*
X98908D01*
Y13637D01*
X98883D01*
Y13612D01*
X98857D01*
Y13586D01*
X98832D01*
Y13510D01*
X98806D01*
Y13484D01*
X98781D01*
Y13459D01*
X98755D01*
Y13408D01*
X98730D01*
Y13382D01*
X98704D01*
Y13357D01*
X98679D01*
Y13280D01*
X98653D01*
Y13255D01*
X98628D01*
Y13229D01*
X98602D01*
Y13178D01*
X98577D01*
Y13153D01*
X98551D01*
Y13102D01*
X98526D01*
Y13076D01*
X98500D01*
Y13025D01*
X98475D01*
Y12974D01*
X98449D01*
Y12949D01*
X98424D01*
Y12923D01*
X98398D01*
Y12872D01*
X98373D01*
Y12846D01*
X98347D01*
Y12821D01*
X95644D01*
Y12846D01*
X95542D01*
Y12872D01*
X95465D01*
Y12898D01*
X95415D01*
Y12923D01*
X95363D01*
Y12949D01*
X95312D01*
Y12974D01*
X95261D01*
Y13000D01*
X95210D01*
Y13025D01*
X95185D01*
Y13051D01*
X95159D01*
Y13076D01*
X95134D01*
Y13102D01*
X95083D01*
Y13127D01*
X95057D01*
Y13153D01*
X95032D01*
Y13178D01*
X95006D01*
Y13204D01*
X94981D01*
Y13255D01*
X94955D01*
Y13280D01*
X94930D01*
Y13306D01*
X94904D01*
Y13357D01*
X94879D01*
Y13382D01*
X94853D01*
Y13433D01*
X94828D01*
Y13484D01*
X94802D01*
Y13535D01*
X94777D01*
Y13612D01*
X94751D01*
Y13663D01*
X94726D01*
Y13765D01*
X94700D01*
Y20625D01*
X94726D01*
Y20600D01*
D02*
G37*
%LPC*%
G36*
X88222Y16876D02*
Y16851D01*
X88248D01*
Y16825D01*
X89115D01*
X89141D01*
X90237D01*
Y16902D01*
X90212D01*
Y16978D01*
X90186D01*
Y17055D01*
X90161D01*
Y17157D01*
X90135D01*
Y17233D01*
X90110D01*
Y17310D01*
X90084D01*
Y17386D01*
X90059D01*
Y17463D01*
X90033D01*
Y17539D01*
X90008D01*
Y17641D01*
X89982D01*
Y17718D01*
X89957D01*
Y17794D01*
X89931D01*
Y17871D01*
X89906D01*
Y17947D01*
X89880D01*
Y18024D01*
X89855D01*
Y18126D01*
X89829D01*
Y18202D01*
X89804D01*
Y18279D01*
X89778D01*
Y18355D01*
X89753D01*
Y18432D01*
X89727D01*
Y18508D01*
X89702D01*
Y18610D01*
X89676D01*
Y18687D01*
X89651D01*
Y18763D01*
X89625D01*
Y18840D01*
X89600D01*
Y18916D01*
X89574D01*
Y19018D01*
X89549D01*
Y19095D01*
X89523D01*
Y19171D01*
X89498D01*
Y19248D01*
X89472D01*
Y19324D01*
X89447D01*
Y19426D01*
X89421D01*
Y19503D01*
X89396D01*
Y19579D01*
X89370D01*
Y19656D01*
X89345D01*
Y19733D01*
X89319D01*
Y19809D01*
X89294D01*
Y19911D01*
X89268D01*
Y19987D01*
X89243D01*
Y19962D01*
X89217D01*
Y19885D01*
X89192D01*
Y19809D01*
X89166D01*
Y19733D01*
X89141D01*
Y19656D01*
X89115D01*
Y19554D01*
X89090D01*
Y19477D01*
X89064D01*
Y19401D01*
X89039D01*
Y19324D01*
X89013D01*
Y19248D01*
X88988D01*
Y19171D01*
X88962D01*
Y19095D01*
X88937D01*
Y19018D01*
X88911D01*
Y18942D01*
X88886D01*
Y18865D01*
X88860D01*
Y18789D01*
X88835D01*
Y18712D01*
X88809D01*
Y18610D01*
X88784D01*
Y18534D01*
X88758D01*
Y18457D01*
X88733D01*
Y18381D01*
X88707D01*
Y18304D01*
X88682D01*
Y18228D01*
X88656D01*
Y18151D01*
X88631D01*
Y18075D01*
X88605D01*
Y17973D01*
X88580D01*
Y17896D01*
X88554D01*
Y17820D01*
X88529D01*
Y17743D01*
X88503D01*
Y17667D01*
X88477D01*
Y17590D01*
X88452D01*
Y17514D01*
X88427D01*
Y17437D01*
X88401D01*
Y17335D01*
X88376D01*
Y17259D01*
X88350D01*
Y17182D01*
X88324D01*
Y17106D01*
X88299D01*
Y17029D01*
X88274D01*
Y16953D01*
X88248D01*
Y16876D01*
X88222D01*
D02*
G37*
%LPD*%
D14*
X80589Y109631D02*
D03*
X70589D02*
D03*
X60589D02*
D03*
X50589D02*
D03*
D15*
X40589D02*
D03*
D16*
X105820Y109932D02*
D03*
X16358D02*
D03*
M02*
