G04*
G04 #@! TF.GenerationSoftware,Altium Limited,Altium Designer,22.5.1 (42)*
G04*
G04 Layer_Color=32896*
%FSLAX25Y25*%
%MOIN*%
G70*
G04*
G04 #@! TF.SameCoordinates,AC3B2383-AE7F-4156-BF80-1B445AE1BA2C*
G04*
G04*
G04 #@! TF.FilePolarity,Positive*
G04*
G01*
G75*
%ADD19C,0.02400*%
D19*
X24908Y91138D02*
D03*
Y79339D02*
D03*
Y67538D02*
D03*
Y43939D02*
D03*
Y55739D02*
D03*
Y32139D02*
D03*
Y20339D02*
D03*
X36780D02*
D03*
Y32139D02*
D03*
Y55739D02*
D03*
Y43939D02*
D03*
Y67538D02*
D03*
Y79339D02*
D03*
Y91138D02*
D03*
X48651Y32139D02*
D03*
Y55739D02*
D03*
Y43939D02*
D03*
Y67538D02*
D03*
Y79339D02*
D03*
X60522Y20339D02*
D03*
Y32139D02*
D03*
Y55739D02*
D03*
Y43939D02*
D03*
Y67538D02*
D03*
Y79339D02*
D03*
Y91138D02*
D03*
X72394Y32139D02*
D03*
Y55739D02*
D03*
Y43939D02*
D03*
Y67538D02*
D03*
Y79339D02*
D03*
Y91138D02*
D03*
X84265Y32139D02*
D03*
Y55739D02*
D03*
Y43939D02*
D03*
Y67538D02*
D03*
Y79339D02*
D03*
X96137Y32139D02*
D03*
Y55739D02*
D03*
Y43939D02*
D03*
Y67538D02*
D03*
Y79339D02*
D03*
Y91138D02*
D03*
X108008Y20339D02*
D03*
Y32139D02*
D03*
Y55739D02*
D03*
Y43939D02*
D03*
Y67538D02*
D03*
Y79339D02*
D03*
Y91138D02*
D03*
X108432Y97052D02*
D03*
X84265Y91138D02*
D03*
X48651D02*
D03*
X14500Y91000D02*
D03*
Y79200D02*
D03*
X108432Y85252D02*
D03*
X14500Y67400D02*
D03*
X108432Y73452D02*
D03*
X14500Y55600D02*
D03*
X108432Y61652D02*
D03*
X14500Y43800D02*
D03*
X108432Y49852D02*
D03*
X14500Y32000D02*
D03*
X108432Y38052D02*
D03*
X14500Y20200D02*
D03*
X108432Y26252D02*
D03*
X48651Y20339D02*
D03*
M02*
