G04*
G04 #@! TF.GenerationSoftware,Altium Limited,Altium Designer,22.5.1 (42)*
G04*
G04 Layer_Color=32896*
%FSLAX25Y25*%
%MOIN*%
G70*
G04*
G04 #@! TF.SameCoordinates,B96F059C-DAF6-4555-8D6D-E7C6B2DDDAAE*
G04*
G04*
G04 #@! TF.FilePolarity,Positive*
G04*
G01*
G75*
G36*
X48521Y21500D02*
X16208D01*
Y25936D01*
X48521D01*
Y21500D01*
D02*
G37*
G36*
X61250Y14297D02*
X16208D01*
Y19659D01*
X61250D01*
Y14297D01*
D02*
G37*
%LPC*%
G36*
X32208Y25252D02*
X31160D01*
D01*
X32208D01*
D02*
G37*
G36*
X27591D02*
X26592D01*
D01*
X27591D01*
D02*
G37*
G36*
X20753D02*
X19705D01*
D01*
X20753D01*
D02*
G37*
G36*
X31160Y24770D02*
D01*
D01*
D01*
D02*
G37*
G36*
X41910Y25252D02*
X40911D01*
D01*
X40872D01*
X40828Y25247D01*
X40773D01*
X40711Y25236D01*
X40639Y25225D01*
X40573Y25208D01*
X40501Y25186D01*
X40489D01*
X40467Y25175D01*
X40434Y25158D01*
X40389Y25141D01*
X40340Y25114D01*
X40290Y25086D01*
X40234Y25047D01*
X40184Y25008D01*
X40179Y25003D01*
X40162Y24986D01*
X40140Y24964D01*
X40112Y24930D01*
X40079Y24886D01*
X40045Y24836D01*
X40018Y24781D01*
X39990Y24720D01*
X39984Y24714D01*
X39979Y24692D01*
X39968Y24658D01*
X39951Y24614D01*
X39940Y24559D01*
X39929Y24498D01*
X39923Y24426D01*
X39918Y24353D01*
Y24342D01*
Y24314D01*
X39923Y24276D01*
X39929Y24220D01*
X39946Y24159D01*
X39962Y24087D01*
X39990Y24009D01*
X40023Y23926D01*
X40029Y23915D01*
X40040Y23887D01*
X40062Y23843D01*
X40095Y23787D01*
X40140Y23721D01*
X40184Y23643D01*
X40245Y23565D01*
X40312Y23476D01*
X40317Y23465D01*
X40345Y23438D01*
X40384Y23388D01*
X40434Y23327D01*
X40501Y23254D01*
X40578Y23177D01*
X40661Y23088D01*
X40756Y22994D01*
X40767Y22983D01*
X40800Y22949D01*
X40850Y22899D01*
X40922Y22833D01*
X41006Y22755D01*
X41100Y22666D01*
X41211Y22566D01*
X41322Y22461D01*
X41294D01*
X41266Y22466D01*
X41233D01*
X41189Y22472D01*
X41139D01*
X41033Y22477D01*
X41011D01*
X40978Y22483D01*
X40900D01*
X40850Y22489D01*
X39751D01*
Y22155D01*
X41910D01*
X41894D01*
Y22389D01*
X41888Y22394D01*
X41877Y22405D01*
X41855Y22422D01*
X41827Y22444D01*
X41794Y22477D01*
X41755Y22511D01*
X41660Y22594D01*
X41555Y22688D01*
X41444Y22794D01*
X41322Y22899D01*
X41211Y23005D01*
X41205Y23010D01*
X41200Y23016D01*
X41183Y23032D01*
X41161Y23049D01*
X41105Y23105D01*
X41033Y23171D01*
X40956Y23249D01*
X40872Y23338D01*
X40789Y23421D01*
X40711Y23510D01*
X40700Y23521D01*
X40678Y23549D01*
X40639Y23593D01*
X40595Y23654D01*
X40545Y23721D01*
X40495Y23793D01*
X40445Y23865D01*
X40401Y23943D01*
X40395Y23954D01*
X40384Y23976D01*
X40367Y24020D01*
X40345Y24070D01*
X40328Y24131D01*
X40312Y24198D01*
X40301Y24264D01*
X40295Y24337D01*
Y24342D01*
Y24348D01*
Y24381D01*
X40301Y24426D01*
X40317Y24487D01*
X40334Y24553D01*
X40362Y24625D01*
X40401Y24697D01*
X40456Y24764D01*
X40462Y24770D01*
X40484Y24792D01*
X40523Y24820D01*
X40578Y24847D01*
X40650Y24881D01*
X40734Y24903D01*
X40839Y24925D01*
X40956Y24930D01*
X40995D01*
X41033Y24925D01*
X41089Y24919D01*
X41150Y24903D01*
X41216Y24886D01*
X41283Y24858D01*
X41355Y24825D01*
X41361Y24820D01*
X41388Y24808D01*
X41422Y24786D01*
X41466Y24753D01*
X41516Y24714D01*
X41572Y24670D01*
X41633Y24620D01*
X41688Y24564D01*
X41910Y24792D01*
X41899Y24803D01*
X41877Y24825D01*
X41833Y24864D01*
X41777Y24908D01*
X41710Y24964D01*
X41638Y25019D01*
X41555Y25075D01*
X41472Y25125D01*
X41466D01*
X41461Y25130D01*
X41427Y25147D01*
X41377Y25164D01*
X41311Y25191D01*
X41228Y25214D01*
X41133Y25230D01*
X41028Y25247D01*
X40911Y25252D01*
X41910D01*
D02*
G37*
G36*
X33319D02*
X32281D01*
X32237Y25247D01*
X32181D01*
X32120Y25236D01*
X32048Y25225D01*
X31981Y25208D01*
X31909Y25186D01*
X31898D01*
X31876Y25175D01*
X31842Y25158D01*
X31798Y25141D01*
X31748Y25114D01*
X31698Y25086D01*
X31643Y25047D01*
X31593Y25008D01*
X31587Y25003D01*
X31571Y24986D01*
X31548Y24964D01*
X31521Y24930D01*
X31487Y24886D01*
X31454Y24836D01*
X31426Y24781D01*
X31398Y24720D01*
X31393Y24714D01*
X31387Y24692D01*
X31376Y24658D01*
X31360Y24614D01*
X31349Y24559D01*
X31337Y24498D01*
X31332Y24426D01*
X31326Y24353D01*
Y24342D01*
Y24314D01*
X31332Y24276D01*
X31337Y24220D01*
X31354Y24159D01*
X31371Y24087D01*
X31398Y24009D01*
X31432Y23926D01*
X31437Y23915D01*
X31449Y23887D01*
X31471Y23843D01*
X31504Y23787D01*
X31548Y23721D01*
X31593Y23643D01*
X31654Y23565D01*
X31720Y23476D01*
X31726Y23465D01*
X31754Y23438D01*
X31793Y23388D01*
X31842Y23327D01*
X31909Y23254D01*
X31987Y23177D01*
X32070Y23088D01*
X32164Y22994D01*
X32175Y22983D01*
X32209Y22949D01*
X32259Y22899D01*
X32331Y22833D01*
X32414Y22755D01*
X32509Y22666D01*
X32620Y22566D01*
X32730Y22461D01*
X32703D01*
X32675Y22466D01*
X32642D01*
X32597Y22472D01*
X32547D01*
X32442Y22477D01*
X32420D01*
X32386Y22483D01*
X32309D01*
X32259Y22489D01*
X31160D01*
Y22155D01*
X33319D01*
X33302D01*
Y22389D01*
X33297Y22394D01*
X33285Y22405D01*
X33263Y22422D01*
X33236Y22444D01*
X33202Y22477D01*
X33163Y22511D01*
X33069Y22594D01*
X32964Y22688D01*
X32853Y22794D01*
X32730Y22899D01*
X32620Y23005D01*
X32614Y23010D01*
X32608Y23016D01*
X32592Y23032D01*
X32570Y23049D01*
X32514Y23105D01*
X32442Y23171D01*
X32364Y23249D01*
X32281Y23338D01*
X32198Y23421D01*
X32120Y23510D01*
X32109Y23521D01*
X32087Y23549D01*
X32048Y23593D01*
X32004Y23654D01*
X31953Y23721D01*
X31904Y23793D01*
X31854Y23865D01*
X31809Y23943D01*
X31804Y23954D01*
X31793Y23976D01*
X31776Y24020D01*
X31754Y24070D01*
X31737Y24131D01*
X31720Y24198D01*
X31709Y24264D01*
X31704Y24337D01*
Y24342D01*
Y24348D01*
Y24381D01*
X31709Y24426D01*
X31726Y24487D01*
X31743Y24553D01*
X31770Y24625D01*
X31809Y24697D01*
X31865Y24764D01*
X31870Y24770D01*
X31892Y24792D01*
X31931Y24820D01*
X31987Y24847D01*
X32059Y24881D01*
X32142Y24903D01*
X32248Y24925D01*
X32364Y24930D01*
X32403D01*
X32442Y24925D01*
X32497Y24919D01*
X32559Y24903D01*
X32625Y24886D01*
X32692Y24858D01*
X32764Y24825D01*
X32769Y24820D01*
X32797Y24808D01*
X32830Y24786D01*
X32875Y24753D01*
X32925Y24714D01*
X32980Y24670D01*
X33041Y24620D01*
X33097Y24564D01*
X33319Y24792D01*
X33308Y24803D01*
X33285Y24825D01*
X33241Y24864D01*
X33186Y24908D01*
X33119Y24964D01*
X33047Y25019D01*
X32964Y25075D01*
X32880Y25125D01*
X32875D01*
X32869Y25130D01*
X32836Y25147D01*
X32786Y25164D01*
X32719Y25191D01*
X32636Y25214D01*
X32542Y25230D01*
X32436Y25247D01*
X32320Y25252D01*
X33319D01*
D02*
G37*
G36*
X26592D02*
X26553D01*
X26509Y25247D01*
X26454D01*
X26392Y25236D01*
X26320Y25225D01*
X26254Y25208D01*
X26182Y25186D01*
X26170D01*
X26148Y25175D01*
X26115Y25158D01*
X26070Y25141D01*
X26021Y25114D01*
X25971Y25086D01*
X25915Y25047D01*
X25865Y25008D01*
X25860Y25003D01*
X25843Y24986D01*
X25821Y24964D01*
X25793Y24930D01*
X25760Y24886D01*
X25726Y24836D01*
X25699Y24781D01*
X25671Y24720D01*
X25665Y24714D01*
X25660Y24692D01*
X25649Y24658D01*
X25632Y24614D01*
X25621Y24559D01*
X25610Y24498D01*
X25604Y24426D01*
X25599Y24353D01*
Y24342D01*
Y24314D01*
X25604Y24276D01*
X25610Y24220D01*
X25627Y24159D01*
X25643Y24087D01*
X25671Y24009D01*
X25704Y23926D01*
X25710Y23915D01*
X25721Y23887D01*
X25743Y23843D01*
X25776Y23787D01*
X25821Y23721D01*
X25865Y23643D01*
X25926Y23565D01*
X25993Y23476D01*
X25998Y23465D01*
X26026Y23438D01*
X26065Y23388D01*
X26115Y23327D01*
X26182Y23254D01*
X26259Y23177D01*
X26342Y23088D01*
X26437Y22994D01*
X26448Y22983D01*
X26481Y22949D01*
X26531Y22899D01*
X26603Y22833D01*
X26687Y22755D01*
X26781Y22666D01*
X26892Y22566D01*
X27003Y22461D01*
X26975D01*
X26947Y22466D01*
X26914D01*
X26870Y22472D01*
X26820D01*
X26714Y22477D01*
X26692D01*
X26659Y22483D01*
X26581D01*
X26531Y22489D01*
X25432D01*
Y22155D01*
X27591D01*
X27575D01*
Y22389D01*
X27569Y22394D01*
X27558Y22405D01*
X27536Y22422D01*
X27508Y22444D01*
X27475Y22477D01*
X27436Y22511D01*
X27341Y22594D01*
X27236Y22688D01*
X27125Y22794D01*
X27003Y22899D01*
X26892Y23005D01*
X26886Y23010D01*
X26881Y23016D01*
X26864Y23032D01*
X26842Y23049D01*
X26787Y23105D01*
X26714Y23171D01*
X26637Y23249D01*
X26553Y23338D01*
X26470Y23421D01*
X26392Y23510D01*
X26381Y23521D01*
X26359Y23549D01*
X26320Y23593D01*
X26276Y23654D01*
X26226Y23721D01*
X26176Y23793D01*
X26126Y23865D01*
X26082Y23943D01*
X26076Y23954D01*
X26065Y23976D01*
X26048Y24020D01*
X26026Y24070D01*
X26010Y24131D01*
X25993Y24198D01*
X25982Y24264D01*
X25976Y24337D01*
Y24342D01*
Y24348D01*
Y24381D01*
X25982Y24426D01*
X25998Y24487D01*
X26015Y24553D01*
X26043Y24625D01*
X26082Y24697D01*
X26137Y24764D01*
X26143Y24770D01*
X26165Y24792D01*
X26204Y24820D01*
X26259Y24847D01*
X26331Y24881D01*
X26415Y24903D01*
X26520Y24925D01*
X26637Y24930D01*
X26676D01*
X26714Y24925D01*
X26770Y24919D01*
X26831Y24903D01*
X26897Y24886D01*
X26964Y24858D01*
X27036Y24825D01*
X27042Y24820D01*
X27070Y24808D01*
X27103Y24786D01*
X27147Y24753D01*
X27197Y24714D01*
X27253Y24670D01*
X27314Y24620D01*
X27369Y24564D01*
X27591Y24792D01*
X27580Y24803D01*
X27558Y24825D01*
X27514Y24864D01*
X27458Y24908D01*
X27391Y24964D01*
X27319Y25019D01*
X27236Y25075D01*
X27153Y25125D01*
X27147D01*
X27142Y25130D01*
X27108Y25147D01*
X27058Y25164D01*
X26992Y25191D01*
X26909Y25214D01*
X26814Y25230D01*
X26709Y25247D01*
X26592Y25252D01*
D02*
G37*
G36*
X21864D02*
X20826D01*
X20781Y25247D01*
X20726D01*
X20665Y25236D01*
X20593Y25225D01*
X20526Y25208D01*
X20454Y25186D01*
X20443D01*
X20421Y25175D01*
X20387Y25158D01*
X20343Y25141D01*
X20293Y25114D01*
X20243Y25086D01*
X20188Y25047D01*
X20138Y25008D01*
X20132Y25003D01*
X20115Y24986D01*
X20093Y24964D01*
X20065Y24930D01*
X20032Y24886D01*
X19999Y24836D01*
X19971Y24781D01*
X19943Y24720D01*
X19938Y24714D01*
X19932Y24692D01*
X19921Y24658D01*
X19905Y24614D01*
X19893Y24559D01*
X19882Y24498D01*
X19877Y24426D01*
X19871Y24353D01*
Y24342D01*
Y24314D01*
X19877Y24276D01*
X19882Y24220D01*
X19899Y24159D01*
X19916Y24087D01*
X19943Y24009D01*
X19977Y23926D01*
X19982Y23915D01*
X19993Y23887D01*
X20016Y23843D01*
X20049Y23787D01*
X20093Y23721D01*
X20138Y23643D01*
X20199Y23565D01*
X20265Y23476D01*
X20271Y23465D01*
X20299Y23438D01*
X20337Y23388D01*
X20387Y23327D01*
X20454Y23254D01*
X20532Y23177D01*
X20615Y23088D01*
X20709Y22994D01*
X20720Y22983D01*
X20754Y22949D01*
X20804Y22899D01*
X20876Y22833D01*
X20959Y22755D01*
X21053Y22666D01*
X21164Y22566D01*
X21275Y22461D01*
X21248D01*
X21220Y22466D01*
X21186D01*
X21142Y22472D01*
X21092D01*
X20987Y22477D01*
X20965D01*
X20931Y22483D01*
X20854D01*
X20804Y22489D01*
X19705D01*
Y22155D01*
X21864D01*
X21847D01*
Y22389D01*
X21841Y22394D01*
X21830Y22405D01*
X21808Y22422D01*
X21780Y22444D01*
X21747Y22477D01*
X21708Y22511D01*
X21614Y22594D01*
X21508Y22688D01*
X21397Y22794D01*
X21275Y22899D01*
X21164Y23005D01*
X21159Y23010D01*
X21153Y23016D01*
X21137Y23032D01*
X21114Y23049D01*
X21059Y23105D01*
X20987Y23171D01*
X20909Y23249D01*
X20826Y23338D01*
X20742Y23421D01*
X20665Y23510D01*
X20654Y23521D01*
X20631Y23549D01*
X20593Y23593D01*
X20548Y23654D01*
X20498Y23721D01*
X20448Y23793D01*
X20398Y23865D01*
X20354Y23943D01*
X20348Y23954D01*
X20337Y23976D01*
X20321Y24020D01*
X20299Y24070D01*
X20282Y24131D01*
X20265Y24198D01*
X20254Y24264D01*
X20249Y24337D01*
Y24342D01*
Y24348D01*
Y24381D01*
X20254Y24426D01*
X20271Y24487D01*
X20287Y24553D01*
X20315Y24625D01*
X20354Y24697D01*
X20410Y24764D01*
X20415Y24770D01*
X20437Y24792D01*
X20476Y24820D01*
X20532Y24847D01*
X20604Y24881D01*
X20687Y24903D01*
X20793Y24925D01*
X20909Y24930D01*
X20948D01*
X20987Y24925D01*
X21042Y24919D01*
X21103Y24903D01*
X21170Y24886D01*
X21237Y24858D01*
X21309Y24825D01*
X21314Y24820D01*
X21342Y24808D01*
X21375Y24786D01*
X21420Y24753D01*
X21470Y24714D01*
X21525Y24670D01*
X21586Y24620D01*
X21642Y24564D01*
X21864Y24792D01*
X21853Y24803D01*
X21830Y24825D01*
X21786Y24864D01*
X21730Y24908D01*
X21664Y24964D01*
X21592Y25019D01*
X21508Y25075D01*
X21425Y25125D01*
X21420D01*
X21414Y25130D01*
X21381Y25147D01*
X21331Y25164D01*
X21264Y25191D01*
X21181Y25214D01*
X21087Y25230D01*
X20981Y25247D01*
X20865Y25252D01*
X21864D01*
D02*
G37*
G36*
X39751Y24426D02*
Y24420D01*
D01*
Y24426D01*
D02*
G37*
G36*
X31160Y23981D02*
Y23976D01*
D01*
Y23981D01*
D02*
G37*
G36*
X25432Y23970D02*
D01*
D01*
D01*
D02*
G37*
G36*
X31160Y23965D02*
Y23959D01*
D01*
Y23965D01*
D02*
G37*
G36*
X25432Y23959D02*
Y23959D01*
D01*
Y23959D01*
D02*
G37*
G36*
X24722Y25252D02*
X22535D01*
D01*
X23579D01*
X23545Y25247D01*
X23501Y25241D01*
X23451Y25230D01*
X23334Y25202D01*
X23273Y25180D01*
X23207Y25153D01*
X23140Y25125D01*
X23074Y25086D01*
X23012Y25036D01*
X22946Y24986D01*
X22885Y24925D01*
X22829Y24853D01*
X22824Y24847D01*
X22818Y24836D01*
X22802Y24808D01*
X22785Y24781D01*
X22763Y24736D01*
X22735Y24686D01*
X22707Y24625D01*
X22680Y24559D01*
X22657Y24481D01*
X22629Y24392D01*
X22602Y24298D01*
X22580Y24192D01*
X22563Y24076D01*
X22546Y23954D01*
X22541Y23821D01*
X22535Y23682D01*
Y23610D01*
X22541Y23554D01*
X22546Y23493D01*
X22552Y23421D01*
X22557Y23338D01*
X22574Y23249D01*
X22607Y23060D01*
X22657Y22866D01*
X22691Y22772D01*
X22729Y22677D01*
X22779Y22594D01*
X22829Y22511D01*
X22835Y22505D01*
X22840Y22494D01*
X22857Y22472D01*
X22885Y22444D01*
X22913Y22416D01*
X22946Y22383D01*
X22990Y22344D01*
X23035Y22305D01*
X23090Y22266D01*
X23151Y22228D01*
X23218Y22194D01*
X23290Y22167D01*
X23368Y22139D01*
X23445Y22117D01*
X23534Y22106D01*
X23629Y22100D01*
X23651D01*
X23678Y22106D01*
X23712D01*
X23756Y22111D01*
X23806Y22122D01*
X23862Y22133D01*
X23923Y22150D01*
X23984Y22172D01*
X24050Y22200D01*
X24117Y22233D01*
X24183Y22272D01*
X24250Y22322D01*
X24317Y22377D01*
X24378Y22439D01*
X24433Y22511D01*
X24439Y22516D01*
X24444Y22527D01*
X24461Y22555D01*
X24478Y22588D01*
X24500Y22627D01*
X24522Y22683D01*
X24550Y22744D01*
X24578Y22810D01*
X24605Y22888D01*
X24633Y22977D01*
X24655Y23071D01*
X24678Y23177D01*
X24694Y23293D01*
X24711Y23415D01*
X24716Y23543D01*
X24722Y23682D01*
Y22144D01*
Y23754D01*
X24716Y23809D01*
X24711Y23870D01*
X24705Y23948D01*
X24700Y24031D01*
X24683Y24120D01*
X24650Y24309D01*
X24600Y24503D01*
X24566Y24598D01*
X24528Y24686D01*
X24483Y24775D01*
X24433Y24853D01*
X24428Y24858D01*
X24422Y24870D01*
X24400Y24892D01*
X24378Y24914D01*
X24350Y24947D01*
X24311Y24980D01*
X24272Y25014D01*
X24222Y25053D01*
X24167Y25091D01*
X24106Y25125D01*
X24039Y25158D01*
X23967Y25191D01*
X23895Y25214D01*
X23812Y25236D01*
X23723Y25247D01*
X23629Y25252D01*
X24722D01*
Y23765D01*
Y25252D01*
D02*
G37*
G36*
X30377Y23876D02*
X28329D01*
Y23576D01*
X30377D01*
Y23876D01*
D02*
G37*
G36*
X19705Y23560D02*
D01*
D01*
D01*
D02*
G37*
G36*
X39751Y23510D02*
D01*
D01*
D01*
D02*
G37*
G36*
Y23432D02*
Y23421D01*
D01*
Y23432D01*
D02*
G37*
G36*
X31160Y23421D02*
D01*
D01*
D01*
D02*
G37*
G36*
X25432Y23421D02*
D01*
D01*
D01*
D02*
G37*
G36*
X19705Y23260D02*
D01*
D01*
D01*
D02*
G37*
G36*
Y23143D02*
D01*
D01*
D01*
D02*
G37*
G36*
X25432Y23010D02*
D01*
D01*
D01*
D02*
G37*
G36*
X19705D02*
D01*
D01*
D01*
D02*
G37*
G36*
X39052Y25252D02*
Y22960D01*
X39046Y22988D01*
Y23027D01*
X39041Y23071D01*
X39030Y23116D01*
X38996Y23210D01*
X38991Y23215D01*
X38985Y23232D01*
X38974Y23254D01*
X38952Y23288D01*
X38908Y23360D01*
X38847Y23438D01*
X38841Y23443D01*
X38830Y23454D01*
X38813Y23471D01*
X38786Y23499D01*
X38724Y23554D01*
X38641Y23610D01*
X38636Y23615D01*
X38619Y23621D01*
X38597Y23637D01*
X38569Y23654D01*
X38530Y23676D01*
X38491Y23698D01*
X38397Y23743D01*
Y23760D01*
X38408Y23765D01*
X38430Y23782D01*
X38464Y23804D01*
X38514Y23837D01*
X38564Y23881D01*
X38619Y23932D01*
X38675Y23987D01*
X38730Y24048D01*
X38736Y24054D01*
X38752Y24081D01*
X38774Y24115D01*
X38797Y24170D01*
X38819Y24231D01*
X38841Y24303D01*
X38858Y24381D01*
X38863Y24470D01*
Y24475D01*
Y24498D01*
X38858Y24531D01*
X38852Y24575D01*
X38847Y24625D01*
X38835Y24681D01*
X38819Y24731D01*
X38797Y24786D01*
X38791Y24792D01*
X38786Y24808D01*
X38769Y24836D01*
X38747Y24870D01*
X38713Y24908D01*
X38680Y24953D01*
X38641Y24992D01*
X38597Y25030D01*
X38591Y25036D01*
X38575Y25047D01*
X38547Y25069D01*
X38514Y25091D01*
X38469Y25114D01*
X38414Y25141D01*
X38358Y25169D01*
X38297Y25191D01*
X38292Y25197D01*
X38269Y25202D01*
X38231Y25214D01*
X38186Y25225D01*
X38131Y25236D01*
X38064Y25241D01*
X37997Y25252D01*
X37881D01*
X37842Y25247D01*
X37787D01*
X37725Y25236D01*
X37659Y25225D01*
X37592Y25214D01*
X37526Y25191D01*
X37520D01*
X37498Y25180D01*
X37465Y25169D01*
X37420Y25147D01*
X37326Y25097D01*
X37276Y25064D01*
X37232Y25025D01*
X37226Y25019D01*
X37209Y25008D01*
X37187Y24986D01*
X37159Y24953D01*
X37132Y24914D01*
X37098Y24875D01*
X37071Y24825D01*
X37043Y24770D01*
X37037Y24764D01*
X37032Y24742D01*
X37021Y24714D01*
X37010Y24675D01*
X36999Y24625D01*
X36987Y24570D01*
X36976Y24509D01*
Y24442D01*
Y24431D01*
Y24403D01*
X36982Y24364D01*
X36993Y24309D01*
X37010Y24248D01*
X37037Y24181D01*
X37071Y24109D01*
X37115Y24037D01*
X37121Y24031D01*
X37137Y24004D01*
X37165Y23970D01*
X37204Y23926D01*
X37254Y23876D01*
X37309Y23821D01*
X37370Y23765D01*
X37442Y23715D01*
Y23698D01*
X37437D01*
X37420Y23687D01*
X37398Y23676D01*
X37365Y23660D01*
X37293Y23615D01*
X37209Y23565D01*
X37204Y23560D01*
X37193Y23554D01*
X37170Y23538D01*
X37143Y23515D01*
X37082Y23465D01*
X37021Y23399D01*
X37015Y23393D01*
X37004Y23382D01*
X36993Y23365D01*
X36971Y23338D01*
X36954Y23310D01*
X36932Y23271D01*
X36893Y23188D01*
Y23182D01*
X36887Y23166D01*
X36876Y23143D01*
X36865Y23105D01*
X36860Y23066D01*
X36849Y23016D01*
X36843Y22966D01*
Y22877D01*
X36849Y22844D01*
X36854Y22799D01*
X36860Y22749D01*
X36876Y22694D01*
X36893Y22638D01*
X36921Y22583D01*
X36926Y22577D01*
X36932Y22561D01*
X36948Y22533D01*
X36976Y22500D01*
X37004Y22455D01*
X37037Y22416D01*
X37082Y22372D01*
X37132Y22328D01*
X37137Y22322D01*
X37154Y22311D01*
X37187Y22289D01*
X37226Y22266D01*
X37276Y22239D01*
X37337Y22211D01*
X37404Y22183D01*
X37476Y22161D01*
X37487D01*
X37509Y22150D01*
X37554Y22144D01*
X37609Y22133D01*
X37676Y22122D01*
X37753Y22111D01*
X37842Y22106D01*
X37936Y22100D01*
X39052D01*
Y25252D01*
D02*
G37*
G36*
X19705Y22944D02*
Y22938D01*
D01*
Y22944D01*
D02*
G37*
G36*
Y22805D02*
D01*
D01*
D01*
D02*
G37*
G36*
X31160Y22511D02*
D01*
D01*
D01*
D02*
G37*
G36*
X47921Y25286D02*
X45157D01*
X45612Y22155D01*
X47444D01*
X47921Y25286D01*
D02*
G37*
G36*
X36038Y25197D02*
X34001D01*
Y22155D01*
X36038D01*
Y22477D01*
X35184D01*
Y24720D01*
X35838D01*
Y24969D01*
X35827D01*
X35800Y24975D01*
X35750Y24986D01*
X35694Y24997D01*
X35628Y25008D01*
X35555Y25025D01*
X35483Y25041D01*
X35411Y25064D01*
X35400D01*
X35378Y25075D01*
X35345Y25086D01*
X35300Y25102D01*
X35250Y25119D01*
X35195Y25141D01*
X35084Y25197D01*
X36038D01*
D02*
G37*
G36*
X18994Y25252D02*
X17851D01*
X17818Y25247D01*
X17773Y25241D01*
X17723Y25230D01*
X17607Y25202D01*
X17546Y25180D01*
X17479Y25153D01*
X17413Y25125D01*
X17346Y25086D01*
X17285Y25036D01*
X17218Y24986D01*
X17157Y24925D01*
X17102Y24853D01*
X17096Y24847D01*
X17091Y24836D01*
X17074Y24808D01*
X17057Y24781D01*
X17035Y24736D01*
X17007Y24686D01*
X16980Y24625D01*
X16952Y24559D01*
X16930Y24481D01*
X16902Y24392D01*
X16874Y24298D01*
X16852Y24192D01*
X16835Y24076D01*
X16819Y23954D01*
X16813Y23821D01*
X16808Y23682D01*
Y23610D01*
X16813Y23554D01*
X16819Y23493D01*
X16824Y23421D01*
X16830Y23338D01*
X16846Y23249D01*
X16880Y23060D01*
X16930Y22866D01*
X16963Y22772D01*
X17002Y22677D01*
X17052Y22594D01*
X17102Y22511D01*
X17107Y22505D01*
X17113Y22494D01*
X17130Y22472D01*
X17157Y22444D01*
X17185Y22416D01*
X17218Y22383D01*
X17263Y22344D01*
X17307Y22305D01*
X17363Y22266D01*
X17424Y22228D01*
X17490Y22194D01*
X17562Y22167D01*
X17640Y22139D01*
X17718Y22117D01*
X17807Y22106D01*
X17901Y22100D01*
X17923D01*
X17951Y22106D01*
X17984D01*
X18029Y22111D01*
X18079Y22122D01*
X18134Y22133D01*
X18195Y22150D01*
X18256Y22172D01*
X18323Y22200D01*
X18389Y22233D01*
X18456Y22272D01*
X18522Y22322D01*
X18589Y22377D01*
X18650Y22438D01*
X18706Y22511D01*
X18711Y22516D01*
X18717Y22527D01*
X18733Y22555D01*
X18750Y22588D01*
X18772Y22627D01*
X18794Y22683D01*
X18822Y22744D01*
X18850Y22810D01*
X18878Y22888D01*
X18905Y22977D01*
X18928Y23071D01*
X18950Y23177D01*
X18967Y23293D01*
X18983Y23415D01*
X18989Y23543D01*
X18994Y23682D01*
Y22139D01*
Y25252D01*
D02*
G37*
G36*
X44785Y25336D02*
X42543D01*
D01*
X43564D01*
X43509Y25330D01*
X43431Y25324D01*
X43348Y25308D01*
X43259Y25291D01*
X43165Y25264D01*
X43070Y25230D01*
X43065D01*
X43059Y25225D01*
X43026Y25214D01*
X42981Y25186D01*
X42926Y25158D01*
X42859Y25114D01*
X42787Y25069D01*
X42715Y25014D01*
X42648Y24953D01*
X42859Y24692D01*
X42865Y24697D01*
X42887Y24714D01*
X42915Y24742D01*
X42959Y24770D01*
X43009Y24808D01*
X43065Y24842D01*
X43131Y24875D01*
X43198Y24908D01*
X43203Y24914D01*
X43231Y24919D01*
X43270Y24936D01*
X43320Y24953D01*
X43381Y24964D01*
X43453Y24980D01*
X43536Y24986D01*
X43625Y24992D01*
X43670D01*
X43720Y24986D01*
X43781Y24975D01*
X43853Y24964D01*
X43925Y24942D01*
X43997Y24908D01*
X44064Y24870D01*
X44069Y24864D01*
X44091Y24847D01*
X44114Y24820D01*
X44147Y24781D01*
X44175Y24731D01*
X44202Y24675D01*
X44225Y24609D01*
X44230Y24531D01*
Y24525D01*
Y24514D01*
X44225Y24492D01*
Y24464D01*
X44208Y24403D01*
X44180Y24337D01*
Y24331D01*
X44169Y24326D01*
X44147Y24292D01*
X44102Y24248D01*
X44052Y24198D01*
X44047D01*
X44036Y24187D01*
X44025Y24176D01*
X44003Y24165D01*
X43947Y24131D01*
X43875Y24098D01*
X43869D01*
X43858Y24092D01*
X43836Y24081D01*
X43814Y24070D01*
X43747Y24043D01*
X43675Y24015D01*
X43237Y23821D01*
X43231D01*
X43214Y23809D01*
X43187Y23798D01*
X43148Y23782D01*
X43109Y23765D01*
X43059Y23743D01*
X42965Y23687D01*
X42959Y23682D01*
X42943Y23676D01*
X42920Y23660D01*
X42887Y23637D01*
X42820Y23582D01*
X42748Y23515D01*
X42743Y23510D01*
X42732Y23499D01*
X42715Y23476D01*
X42693Y23454D01*
X42671Y23421D01*
X42643Y23382D01*
X42598Y23288D01*
Y23282D01*
X42587Y23266D01*
X42582Y23238D01*
X42571Y23204D01*
X42560Y23160D01*
X42554Y23110D01*
X42543Y23049D01*
Y22955D01*
X42548Y22921D01*
X42554Y22871D01*
X42560Y22821D01*
X42576Y22761D01*
X42593Y22699D01*
X42621Y22638D01*
X42626Y22633D01*
X42637Y22611D01*
X42654Y22583D01*
X42676Y22544D01*
X42709Y22500D01*
X42748Y22450D01*
X42793Y22405D01*
X42843Y22355D01*
X42848Y22350D01*
X42865Y22333D01*
X42898Y22311D01*
X42937Y22289D01*
X42987Y22255D01*
X43048Y22222D01*
X43115Y22194D01*
X43187Y22167D01*
X43198D01*
X43220Y22155D01*
X43264Y22144D01*
X43320Y22133D01*
X43387Y22122D01*
X43470Y22111D01*
X43553Y22106D01*
X43647Y22100D01*
X43703D01*
X43736Y22106D01*
X43769D01*
X43853Y22117D01*
X43953Y22128D01*
X44058Y22150D01*
X44169Y22183D01*
X44280Y22222D01*
X44286D01*
X44291Y22228D01*
X44308Y22233D01*
X44330Y22244D01*
X44380Y22272D01*
X44452Y22311D01*
X44530Y22361D01*
X44613Y22416D01*
X44702Y22483D01*
X44785Y22561D01*
X44546Y22833D01*
X44541Y22827D01*
X44513Y22805D01*
X44480Y22772D01*
X44430Y22733D01*
X44369Y22688D01*
X44297Y22638D01*
X44219Y22594D01*
X44136Y22549D01*
X44125Y22544D01*
X44097Y22533D01*
X44047Y22516D01*
X43986Y22500D01*
X43908Y22477D01*
X43825Y22461D01*
X43731Y22450D01*
X43631Y22444D01*
X43575D01*
X43520Y22450D01*
X43448Y22461D01*
X43370Y22477D01*
X43287Y22505D01*
X43203Y22538D01*
X43131Y22583D01*
X43126Y22588D01*
X43104Y22611D01*
X43076Y22638D01*
X43037Y22677D01*
X43004Y22733D01*
X42976Y22794D01*
X42954Y22860D01*
X42948Y22938D01*
Y22944D01*
Y22960D01*
Y22983D01*
X42954Y23010D01*
X42965Y23082D01*
X42992Y23149D01*
Y23155D01*
X42998Y23166D01*
X43009Y23182D01*
X43026Y23199D01*
X43065Y23249D01*
X43115Y23299D01*
X43120Y23304D01*
X43126Y23310D01*
X43142Y23321D01*
X43165Y23338D01*
X43220Y23371D01*
X43292Y23404D01*
X43298D01*
X43309Y23415D01*
X43331Y23421D01*
X43359Y23438D01*
X43392Y23449D01*
X43425Y23465D01*
X43514Y23504D01*
X43958Y23704D01*
X43964D01*
X43980Y23709D01*
X44003Y23721D01*
X44036Y23737D01*
X44069Y23748D01*
X44114Y23771D01*
X44202Y23815D01*
X44208Y23821D01*
X44225Y23826D01*
X44247Y23843D01*
X44275Y23859D01*
X44341Y23909D01*
X44419Y23976D01*
X44424Y23981D01*
X44436Y23992D01*
X44452Y24015D01*
X44474Y24043D01*
X44497Y24076D01*
X44524Y24115D01*
X44574Y24204D01*
Y24209D01*
X44585Y24226D01*
X44591Y24253D01*
X44602Y24292D01*
X44613Y24337D01*
X44624Y24387D01*
X44630Y24448D01*
X44635Y24509D01*
Y24514D01*
Y24536D01*
X44630Y24575D01*
X44624Y24614D01*
X44619Y24664D01*
X44602Y24720D01*
X44585Y24781D01*
X44563Y24836D01*
X44558Y24842D01*
X44546Y24864D01*
X44530Y24892D01*
X44508Y24930D01*
X44480Y24969D01*
X44441Y25014D01*
X44397Y25058D01*
X44352Y25102D01*
X44347Y25108D01*
X44330Y25119D01*
X44297Y25141D01*
X44258Y25164D01*
X44214Y25191D01*
X44158Y25225D01*
X44091Y25252D01*
X44025Y25275D01*
X44014Y25280D01*
X43992Y25286D01*
X43953Y25297D01*
X43903Y25308D01*
X43842Y25319D01*
X43769Y25324D01*
X43697Y25336D01*
X44785D01*
D02*
G37*
%LPD*%
G36*
X23684Y24930D02*
X23723Y24925D01*
X23767Y24919D01*
X23817Y24908D01*
X23867Y24886D01*
X23917Y24864D01*
X23923Y24858D01*
X23939Y24853D01*
X23967Y24831D01*
X23995Y24808D01*
X24034Y24775D01*
X24072Y24736D01*
X24111Y24692D01*
X24150Y24636D01*
X24156Y24631D01*
X24167Y24609D01*
X24183Y24575D01*
X24206Y24531D01*
X24228Y24475D01*
X24256Y24409D01*
X24278Y24331D01*
X24300Y24248D01*
Y24237D01*
X24306Y24209D01*
X24317Y24159D01*
X24322Y24092D01*
X24333Y24009D01*
X24344Y23909D01*
X24350Y23804D01*
Y23682D01*
Y23676D01*
Y23654D01*
Y23621D01*
X24344Y23576D01*
Y23521D01*
X24339Y23460D01*
X24333Y23393D01*
X24322Y23321D01*
X24300Y23160D01*
X24267Y23005D01*
X24217Y22855D01*
X24183Y22783D01*
X24150Y22722D01*
Y22716D01*
X24139Y22711D01*
X24111Y22672D01*
X24067Y22622D01*
X24006Y22566D01*
X23934Y22511D01*
X23845Y22461D01*
X23740Y22422D01*
X23684Y22416D01*
X23629Y22411D01*
X23595D01*
X23573Y22416D01*
X23517Y22427D01*
X23440Y22450D01*
X23362Y22489D01*
X23273Y22544D01*
X23229Y22577D01*
X23185Y22622D01*
X23146Y22666D01*
X23107Y22722D01*
Y22727D01*
X23096Y22738D01*
X23090Y22755D01*
X23074Y22783D01*
X23057Y22816D01*
X23040Y22855D01*
X23024Y22905D01*
X23001Y22960D01*
X22985Y23021D01*
X22968Y23094D01*
X22951Y23171D01*
X22935Y23260D01*
X22918Y23354D01*
X22913Y23454D01*
X22901Y23565D01*
Y23682D01*
Y23687D01*
Y23698D01*
Y23715D01*
Y23737D01*
Y23798D01*
X22907Y23876D01*
X22913Y23965D01*
X22924Y24059D01*
X22940Y24159D01*
X22957Y24248D01*
Y24253D01*
Y24259D01*
X22968Y24287D01*
X22979Y24331D01*
X22996Y24387D01*
X23018Y24448D01*
X23040Y24514D01*
X23074Y24575D01*
X23107Y24636D01*
X23112Y24642D01*
X23123Y24664D01*
X23146Y24692D01*
X23168Y24725D01*
X23201Y24758D01*
X23240Y24797D01*
X23284Y24836D01*
X23334Y24864D01*
X23340Y24870D01*
X23357Y24875D01*
X23384Y24886D01*
X23423Y24903D01*
X23462Y24914D01*
X23512Y24925D01*
X23568Y24930D01*
X23629Y24936D01*
X23656D01*
X23684Y24930D01*
D02*
G37*
%LPC*%
G36*
X23629Y24031D02*
X23606D01*
X23584Y24026D01*
X23556Y24020D01*
X23523Y24009D01*
X23490Y23998D01*
X23457Y23976D01*
X23423Y23948D01*
X23418Y23943D01*
X23406Y23932D01*
X23395Y23915D01*
X23379Y23887D01*
X23362Y23854D01*
X23346Y23815D01*
X23340Y23771D01*
X23334Y23715D01*
Y23709D01*
Y23693D01*
X23340Y23665D01*
X23346Y23632D01*
X23357Y23593D01*
X23373Y23554D01*
X23395Y23515D01*
X23423Y23482D01*
X23429Y23476D01*
X23440Y23471D01*
X23457Y23454D01*
X23479Y23443D01*
X23512Y23426D01*
X23545Y23410D01*
X23584Y23404D01*
X23629Y23399D01*
X23645D01*
X23667Y23404D01*
X23695Y23410D01*
X23728Y23421D01*
X23762Y23432D01*
X23801Y23454D01*
X23834Y23482D01*
X23839Y23487D01*
X23845Y23499D01*
X23862Y23515D01*
X23878Y23543D01*
X23895Y23576D01*
X23906Y23615D01*
X23917Y23660D01*
X23923Y23715D01*
Y23721D01*
Y23737D01*
X23917Y23765D01*
X23912Y23798D01*
X23900Y23837D01*
X23884Y23876D01*
X23862Y23915D01*
X23834Y23948D01*
X23828Y23954D01*
X23817Y23959D01*
X23801Y23976D01*
X23773Y23992D01*
X23712Y24020D01*
X23673Y24026D01*
X23629Y24031D01*
D02*
G37*
%LPD*%
G36*
X38020Y24953D02*
X38081Y24942D01*
X38147Y24925D01*
X38214Y24903D01*
X38286Y24870D01*
X38347Y24825D01*
X38353Y24820D01*
X38369Y24803D01*
X38397Y24770D01*
X38425Y24731D01*
X38453Y24681D01*
X38480Y24620D01*
X38497Y24548D01*
X38502Y24470D01*
Y24464D01*
Y24448D01*
X38497Y24420D01*
Y24387D01*
X38475Y24309D01*
X38464Y24270D01*
X38442Y24231D01*
X38436Y24226D01*
X38430Y24215D01*
X38414Y24198D01*
X38397Y24176D01*
X38342Y24120D01*
X38269Y24059D01*
X38264Y24054D01*
X38247Y24048D01*
X38225Y24031D01*
X38197Y24015D01*
X38158Y23992D01*
X38114Y23970D01*
X38014Y23920D01*
X38009D01*
X37986Y23909D01*
X37959Y23898D01*
X37920Y23887D01*
X37875Y23870D01*
X37820Y23848D01*
X37698Y23809D01*
X37692Y23815D01*
X37681Y23821D01*
X37664Y23837D01*
X37637Y23859D01*
X37576Y23915D01*
X37503Y23992D01*
X37437Y24081D01*
X37376Y24187D01*
X37348Y24242D01*
X37332Y24298D01*
X37320Y24359D01*
X37315Y24420D01*
Y24431D01*
Y24459D01*
X37320Y24503D01*
X37337Y24553D01*
X37354Y24614D01*
X37381Y24681D01*
X37420Y24742D01*
X37476Y24803D01*
X37481Y24808D01*
X37503Y24825D01*
X37542Y24853D01*
X37592Y24881D01*
X37653Y24908D01*
X37731Y24936D01*
X37825Y24953D01*
X37931Y24958D01*
X37975D01*
X38020Y24953D01*
D02*
G37*
G36*
X38186Y23626D02*
X38214Y23610D01*
X38253Y23582D01*
X38303Y23549D01*
X38364Y23504D01*
X38425Y23460D01*
X38486Y23404D01*
X38547Y23349D01*
X38552Y23343D01*
X38569Y23321D01*
X38597Y23288D01*
X38619Y23243D01*
X38647Y23188D01*
X38675Y23127D01*
X38691Y23049D01*
X38697Y22966D01*
Y22955D01*
X38691Y22921D01*
X38686Y22877D01*
X38669Y22816D01*
X38647Y22755D01*
X38608Y22683D01*
X38558Y22616D01*
X38491Y22549D01*
X38480Y22544D01*
X38453Y22527D01*
X38408Y22500D01*
X38342Y22472D01*
X38258Y22439D01*
X38164Y22416D01*
X38053Y22394D01*
X37925Y22389D01*
X37870D01*
X37809Y22394D01*
X37731Y22405D01*
X37648Y22422D01*
X37565Y22450D01*
X37476Y22483D01*
X37404Y22533D01*
X37398Y22538D01*
X37376Y22561D01*
X37348Y22594D01*
X37309Y22638D01*
X37276Y22694D01*
X37248Y22761D01*
X37226Y22838D01*
X37220Y22921D01*
Y22927D01*
Y22949D01*
X37226Y22977D01*
X37232Y23010D01*
X37254Y23099D01*
X37270Y23143D01*
X37298Y23182D01*
X37304Y23188D01*
X37309Y23199D01*
X37326Y23221D01*
X37348Y23249D01*
X37376Y23277D01*
X37415Y23304D01*
X37454Y23338D01*
X37498Y23365D01*
X37503Y23371D01*
X37520Y23377D01*
X37548Y23393D01*
X37581Y23410D01*
X37631Y23432D01*
X37681Y23454D01*
X37737Y23482D01*
X37803Y23504D01*
X37809Y23510D01*
X37831Y23515D01*
X37870Y23526D01*
X37914Y23543D01*
X37970Y23560D01*
X38031Y23582D01*
X38103Y23610D01*
X38175Y23632D01*
X38186Y23626D01*
D02*
G37*
G36*
X39052Y22100D02*
X37981D01*
X38031Y22106D01*
X38092D01*
X38164Y22117D01*
X38242Y22128D01*
X38319Y22139D01*
X38403Y22161D01*
X38414Y22167D01*
X38436Y22172D01*
X38475Y22189D01*
X38525Y22205D01*
X38580Y22228D01*
X38636Y22261D01*
X38697Y22294D01*
X38752Y22333D01*
X38758Y22339D01*
X38774Y22355D01*
X38802Y22377D01*
X38835Y22405D01*
X38869Y22444D01*
X38908Y22489D01*
X38941Y22538D01*
X38974Y22594D01*
X38980Y22600D01*
X38985Y22622D01*
X38996Y22655D01*
X39013Y22694D01*
X39030Y22744D01*
X39041Y22805D01*
X39046Y22866D01*
X39052Y22932D01*
Y22100D01*
D02*
G37*
G36*
X47244Y23321D02*
Y23315D01*
Y23304D01*
X47238Y23288D01*
Y23260D01*
X47233Y23204D01*
X47227Y23138D01*
Y23132D01*
Y23127D01*
X47222Y23110D01*
Y23088D01*
X47216Y23038D01*
X47210Y22977D01*
Y22971D01*
Y22960D01*
X47205Y22944D01*
Y22921D01*
X47199Y22866D01*
X47194Y22799D01*
Y22794D01*
Y22783D01*
Y22766D01*
X47188Y22738D01*
Y22677D01*
X47183Y22594D01*
X47166D01*
Y22600D01*
X47161Y22616D01*
Y22638D01*
X47155Y22666D01*
X47144Y22733D01*
X47133Y22799D01*
Y22805D01*
X47127Y22816D01*
Y22833D01*
X47122Y22855D01*
X47105Y22916D01*
X47094Y22977D01*
Y22983D01*
X47088Y22994D01*
Y23010D01*
X47083Y23027D01*
X47072Y23082D01*
X47061Y23138D01*
Y23143D01*
X47055Y23155D01*
X47049Y23171D01*
X47044Y23193D01*
X47033Y23249D01*
X47016Y23315D01*
X46711Y24481D01*
X46328D01*
X46034Y23315D01*
Y23310D01*
X46028Y23299D01*
X46023Y23282D01*
X46017Y23260D01*
X46001Y23199D01*
X45990Y23138D01*
Y23132D01*
X45984Y23127D01*
Y23110D01*
X45978Y23088D01*
X45967Y23038D01*
X45956Y22977D01*
Y22971D01*
X45951Y22960D01*
Y22944D01*
X45945Y22921D01*
X45934Y22866D01*
X45923Y22799D01*
Y22794D01*
X45917Y22783D01*
Y22766D01*
X45912Y22738D01*
X45895Y22677D01*
X45878Y22594D01*
X45862D01*
Y22600D01*
Y22616D01*
Y22638D01*
X45856Y22666D01*
Y22733D01*
X45851Y22799D01*
Y22805D01*
Y22816D01*
X45845Y22833D01*
Y22855D01*
X45840Y22916D01*
X45834Y22977D01*
Y22983D01*
Y22994D01*
Y23010D01*
X45829Y23027D01*
Y23082D01*
X45823Y23138D01*
Y23143D01*
Y23155D01*
X45817Y23171D01*
Y23193D01*
X45812Y23249D01*
X45806Y23315D01*
X45584Y25286D01*
X47471D01*
X47244Y23321D01*
D02*
G37*
G36*
X46545Y23970D02*
X46550Y23954D01*
Y23920D01*
X46561Y23887D01*
X46567Y23843D01*
X46572Y23798D01*
X46594Y23693D01*
Y23687D01*
X46600Y23671D01*
X46606Y23643D01*
X46611Y23604D01*
X46617Y23565D01*
X46628Y23515D01*
X46650Y23410D01*
X46955Y22155D01*
X46106D01*
X46411Y23410D01*
Y23415D01*
X46417Y23432D01*
X46422Y23465D01*
X46433Y23499D01*
X46445Y23543D01*
X46456Y23593D01*
X46478Y23693D01*
Y23698D01*
X46483Y23715D01*
X46489Y23743D01*
X46494Y23782D01*
X46500Y23821D01*
X46511Y23870D01*
X46528Y23976D01*
X46545D01*
Y23970D01*
D02*
G37*
G36*
X34790Y22477D02*
X34001D01*
Y25197D01*
X34790D01*
Y22477D01*
D02*
G37*
G36*
X18994Y23754D02*
X18989Y23809D01*
X18983Y23870D01*
X18978Y23948D01*
X18972Y24031D01*
X18955Y24120D01*
X18922Y24309D01*
X18872Y24503D01*
X18839Y24598D01*
X18800Y24686D01*
X18756Y24775D01*
X18706Y24853D01*
X18700Y24858D01*
X18695Y24869D01*
X18672Y24892D01*
X18650Y24914D01*
X18622Y24947D01*
X18584Y24980D01*
X18545Y25014D01*
X18495Y25053D01*
X18439Y25091D01*
X18378Y25125D01*
X18312Y25158D01*
X18239Y25191D01*
X18167Y25214D01*
X18084Y25236D01*
X17995Y25247D01*
X17901Y25252D01*
X18994D01*
Y23754D01*
D02*
G37*
G36*
X17956Y24930D02*
X17995Y24925D01*
X18040Y24919D01*
X18090Y24908D01*
X18140Y24886D01*
X18190Y24864D01*
X18195Y24858D01*
X18212Y24853D01*
X18239Y24831D01*
X18267Y24808D01*
X18306Y24775D01*
X18345Y24736D01*
X18384Y24692D01*
X18423Y24636D01*
X18428Y24631D01*
X18439Y24609D01*
X18456Y24575D01*
X18478Y24531D01*
X18500Y24475D01*
X18528Y24409D01*
X18550Y24331D01*
X18573Y24248D01*
Y24237D01*
X18578Y24209D01*
X18589Y24159D01*
X18595Y24092D01*
X18606Y24009D01*
X18617Y23909D01*
X18622Y23804D01*
Y23682D01*
Y23676D01*
Y23654D01*
Y23621D01*
X18617Y23576D01*
Y23521D01*
X18611Y23460D01*
X18606Y23393D01*
X18595Y23321D01*
X18573Y23160D01*
X18539Y23005D01*
X18489Y22855D01*
X18456Y22783D01*
X18423Y22722D01*
Y22716D01*
X18411Y22711D01*
X18384Y22672D01*
X18339Y22622D01*
X18278Y22566D01*
X18206Y22511D01*
X18117Y22461D01*
X18012Y22422D01*
X17956Y22416D01*
X17901Y22411D01*
X17868D01*
X17845Y22416D01*
X17790Y22427D01*
X17712Y22450D01*
X17635Y22489D01*
X17546Y22544D01*
X17501Y22577D01*
X17457Y22622D01*
X17418Y22666D01*
X17379Y22722D01*
Y22727D01*
X17368Y22738D01*
X17363Y22755D01*
X17346Y22783D01*
X17329Y22816D01*
X17313Y22855D01*
X17296Y22905D01*
X17274Y22960D01*
X17257Y23021D01*
X17241Y23093D01*
X17224Y23171D01*
X17207Y23260D01*
X17190Y23354D01*
X17185Y23454D01*
X17174Y23565D01*
Y23682D01*
Y23687D01*
Y23698D01*
Y23715D01*
Y23737D01*
Y23798D01*
X17179Y23876D01*
X17185Y23965D01*
X17196Y24059D01*
X17213Y24159D01*
X17229Y24248D01*
Y24253D01*
Y24259D01*
X17241Y24287D01*
X17252Y24331D01*
X17268Y24387D01*
X17290Y24448D01*
X17313Y24514D01*
X17346Y24575D01*
X17379Y24636D01*
X17385Y24642D01*
X17396Y24664D01*
X17418Y24692D01*
X17440Y24725D01*
X17474Y24758D01*
X17512Y24797D01*
X17557Y24836D01*
X17607Y24864D01*
X17612Y24869D01*
X17629Y24875D01*
X17657Y24886D01*
X17696Y24903D01*
X17734Y24914D01*
X17784Y24925D01*
X17840Y24930D01*
X17901Y24936D01*
X17929D01*
X17956Y24930D01*
D02*
G37*
%LPC*%
G36*
X17901Y24031D02*
X17879D01*
X17856Y24026D01*
X17829Y24020D01*
X17796Y24009D01*
X17762Y23998D01*
X17729Y23976D01*
X17696Y23948D01*
X17690Y23943D01*
X17679Y23932D01*
X17668Y23915D01*
X17651Y23887D01*
X17635Y23854D01*
X17618Y23815D01*
X17612Y23771D01*
X17607Y23715D01*
Y23709D01*
Y23693D01*
X17612Y23665D01*
X17618Y23632D01*
X17629Y23593D01*
X17646Y23554D01*
X17668Y23515D01*
X17696Y23482D01*
X17701Y23476D01*
X17712Y23471D01*
X17729Y23454D01*
X17751Y23443D01*
X17784Y23426D01*
X17818Y23410D01*
X17856Y23404D01*
X17901Y23399D01*
X17918D01*
X17940Y23404D01*
X17967Y23410D01*
X18001Y23421D01*
X18034Y23432D01*
X18073Y23454D01*
X18106Y23482D01*
X18112Y23487D01*
X18117Y23499D01*
X18134Y23515D01*
X18151Y23543D01*
X18167Y23576D01*
X18178Y23615D01*
X18190Y23660D01*
X18195Y23715D01*
Y23721D01*
Y23737D01*
X18190Y23765D01*
X18184Y23798D01*
X18173Y23837D01*
X18156Y23876D01*
X18134Y23915D01*
X18106Y23948D01*
X18101Y23954D01*
X18090Y23959D01*
X18073Y23976D01*
X18045Y23992D01*
X17984Y24020D01*
X17945Y24026D01*
X17901Y24031D01*
D02*
G37*
G36*
X55635Y19059D02*
X55609D01*
X55582Y19052D01*
X55542Y19046D01*
X55502Y19033D01*
X55456Y19013D01*
X55409Y18986D01*
X55369Y18953D01*
X55362Y18946D01*
X55349Y18933D01*
X55336Y18913D01*
X55309Y18886D01*
X55289Y18846D01*
X55276Y18799D01*
X55262Y18753D01*
X55256Y18693D01*
Y18666D01*
X55262Y18633D01*
X55269Y18600D01*
X55282Y18553D01*
X55302Y18513D01*
X55329Y18466D01*
X55369Y18427D01*
X55376Y18420D01*
X55389Y18413D01*
X55409Y18393D01*
X55442Y18380D01*
X55482Y18360D01*
X55529Y18340D01*
X55575Y18333D01*
X55635Y18327D01*
X55662D01*
X55689Y18333D01*
X55729Y18340D01*
X55769Y18353D01*
X55815Y18367D01*
X55862Y18393D01*
X55902Y18427D01*
X55908Y18433D01*
X55915Y18446D01*
X55935Y18466D01*
X55955Y18500D01*
X55975Y18533D01*
X55988Y18580D01*
X56002Y18633D01*
X56008Y18693D01*
Y18699D01*
Y18720D01*
X56002Y18746D01*
X55995Y18786D01*
X55982Y18826D01*
X55962Y18873D01*
X55935Y18913D01*
X55902Y18953D01*
X55895Y18959D01*
X55882Y18973D01*
X55862Y18986D01*
X55828Y19006D01*
X55788Y19026D01*
X55742Y19046D01*
X55695Y19052D01*
X55635Y19059D01*
D02*
G37*
G36*
X48762D02*
X48736D01*
X48709Y19052D01*
X48669Y19046D01*
X48629Y19033D01*
X48582Y19013D01*
X48536Y18986D01*
X48496Y18953D01*
X48489Y18946D01*
X48476Y18933D01*
X48463Y18913D01*
X48436Y18886D01*
X48416Y18846D01*
X48403Y18799D01*
X48389Y18753D01*
X48383Y18693D01*
Y18666D01*
X48389Y18633D01*
X48396Y18600D01*
X48409Y18553D01*
X48429Y18513D01*
X48456Y18466D01*
X48496Y18427D01*
X48502Y18420D01*
X48516Y18413D01*
X48536Y18393D01*
X48569Y18380D01*
X48609Y18360D01*
X48656Y18340D01*
X48702Y18333D01*
X48762Y18327D01*
X48789D01*
X48816Y18333D01*
X48856Y18340D01*
X48895Y18353D01*
X48942Y18367D01*
X48989Y18393D01*
X49029Y18427D01*
X49035Y18433D01*
X49042Y18446D01*
X49062Y18466D01*
X49082Y18500D01*
X49102Y18533D01*
X49115Y18580D01*
X49129Y18633D01*
X49135Y18693D01*
Y18699D01*
Y18720D01*
X49129Y18746D01*
X49122Y18786D01*
X49109Y18826D01*
X49089Y18873D01*
X49062Y18913D01*
X49029Y18953D01*
X49022Y18959D01*
X49009Y18973D01*
X48989Y18986D01*
X48955Y19006D01*
X48915Y19026D01*
X48869Y19046D01*
X48822Y19052D01*
X48762Y19059D01*
D02*
G37*
G36*
X60650Y18713D02*
X60064D01*
X59538Y17108D01*
X59358Y16502D01*
X59332D01*
X59152Y17108D01*
X58626Y18713D01*
X58040D01*
Y14963D01*
X60650D01*
Y18713D01*
D02*
G37*
G36*
X23015Y18713D02*
X22509D01*
X21903Y16688D01*
Y16681D01*
X21896Y16675D01*
Y16655D01*
X21882Y16628D01*
X21869Y16568D01*
X21843Y16482D01*
X21816Y16388D01*
X21783Y16282D01*
X21723Y16062D01*
X21716Y16049D01*
X21709Y16015D01*
X21689Y15956D01*
X21669Y15876D01*
X21643Y15789D01*
X21616Y15683D01*
X21576Y15569D01*
X21543Y15449D01*
X21516D01*
Y15456D01*
X21509Y15476D01*
X21496Y15509D01*
X21489Y15549D01*
X21470Y15596D01*
X21456Y15649D01*
X21423Y15763D01*
Y15769D01*
X21416Y15789D01*
X21403Y15816D01*
X21396Y15856D01*
X21383Y15902D01*
X21370Y15956D01*
X21336Y16062D01*
Y16069D01*
X21330Y16089D01*
X21316Y16122D01*
X21310Y16155D01*
X21296Y16202D01*
X21283Y16255D01*
X21250Y16368D01*
Y16375D01*
X21243Y16395D01*
X21230Y16429D01*
X21223Y16468D01*
X21203Y16515D01*
X21190Y16568D01*
X21157Y16688D01*
X20557Y18713D01*
X20071D01*
X21263Y14963D01*
X20071D01*
D01*
X23015D01*
X21816D01*
X23015Y18713D01*
D02*
G37*
G36*
X41869Y17807D02*
X41809D01*
X41749Y17800D01*
X41663Y17794D01*
X41570Y17780D01*
X41469Y17754D01*
X41370Y17727D01*
X41276Y17687D01*
X41263Y17681D01*
X41236Y17667D01*
X41190Y17641D01*
X41130Y17607D01*
X41063Y17567D01*
X40997Y17514D01*
X40923Y17461D01*
X40857Y17401D01*
X41090Y17101D01*
X41097Y17108D01*
X41117Y17128D01*
X41157Y17154D01*
X41197Y17188D01*
X41256Y17221D01*
X41316Y17261D01*
X41450Y17334D01*
X41456Y17341D01*
X41483Y17347D01*
X41523Y17361D01*
X41570Y17381D01*
X41629Y17394D01*
X41696Y17408D01*
X41769Y17414D01*
X41849Y17421D01*
X41889D01*
X41936Y17414D01*
X41996D01*
X42062Y17401D01*
X42136Y17388D01*
X42215Y17368D01*
X42295Y17341D01*
X42302D01*
X42329Y17328D01*
X42369Y17308D01*
X42415Y17288D01*
X42469Y17254D01*
X42522Y17214D01*
X42582Y17174D01*
X42635Y17121D01*
X42642Y17114D01*
X42655Y17095D01*
X42682Y17068D01*
X42715Y17028D01*
X42748Y16975D01*
X42788Y16921D01*
X42821Y16855D01*
X42855Y16781D01*
Y16775D01*
X42868Y16748D01*
X42882Y16708D01*
X42895Y16655D01*
X42908Y16588D01*
X42921Y16515D01*
X42928Y16429D01*
X42935Y16342D01*
Y16329D01*
Y16302D01*
X42928Y16255D01*
Y16195D01*
X42915Y16129D01*
X42901Y16056D01*
X42888Y15982D01*
X42862Y15909D01*
X42855Y15902D01*
X42848Y15876D01*
X42828Y15842D01*
X42801Y15796D01*
X42735Y15689D01*
X42642Y15576D01*
X42635Y15569D01*
X42615Y15556D01*
X42582Y15529D01*
X42542Y15496D01*
X42495Y15463D01*
X42435Y15423D01*
X42369Y15390D01*
X42302Y15356D01*
X42295D01*
X42269Y15343D01*
X42229Y15336D01*
X42169Y15323D01*
X42109Y15310D01*
X42029Y15296D01*
X41949Y15290D01*
X41862Y15283D01*
X41816D01*
X41769Y15290D01*
X41703Y15296D01*
X41629Y15310D01*
X41556Y15323D01*
X41469Y15349D01*
X41390Y15383D01*
X41383Y15390D01*
X41356Y15403D01*
X41310Y15423D01*
X41263Y15449D01*
X41203Y15489D01*
X41137Y15529D01*
X41003Y15629D01*
X40790Y15323D01*
X40804Y15316D01*
X40830Y15290D01*
X40883Y15256D01*
X40943Y15210D01*
X41023Y15156D01*
X41110Y15110D01*
X41210Y15056D01*
X41310Y15010D01*
X41323Y15003D01*
X41356Y14990D01*
X41416Y14977D01*
X41489Y14957D01*
X41576Y14930D01*
X41676Y14917D01*
X41783Y14903D01*
X41896Y14897D01*
X40790D01*
D01*
X43421D01*
D01*
X41949D01*
X42016Y14903D01*
X42096Y14910D01*
X42189Y14917D01*
X42289Y14937D01*
X42395Y14957D01*
X42502Y14990D01*
X42515Y14997D01*
X42548Y15010D01*
X42602Y15030D01*
X42668Y15063D01*
X42742Y15097D01*
X42821Y15150D01*
X42908Y15203D01*
X42988Y15270D01*
X42995Y15276D01*
X43021Y15303D01*
X43055Y15343D01*
X43101Y15396D01*
X43154Y15463D01*
X43208Y15543D01*
X43261Y15629D01*
X43308Y15729D01*
X43314Y15743D01*
X43328Y15776D01*
X43341Y15836D01*
X43361Y15909D01*
X43388Y16002D01*
X43401Y16102D01*
X43414Y16215D01*
X43421Y16342D01*
Y16402D01*
X43414Y16468D01*
X43408Y16555D01*
X43394Y16648D01*
X43368Y16755D01*
X43341Y16861D01*
X43301Y16961D01*
X43294Y16975D01*
X43274Y17008D01*
X43248Y17054D01*
X43208Y17121D01*
X43161Y17194D01*
X43101Y17268D01*
X43035Y17347D01*
X42961Y17421D01*
X42955Y17427D01*
X42921Y17454D01*
X42882Y17487D01*
X42821Y17527D01*
X42748Y17574D01*
X42662Y17621D01*
X42568Y17667D01*
X42469Y17707D01*
X42462D01*
X42455Y17714D01*
X42422Y17720D01*
X42362Y17740D01*
X42289Y17761D01*
X42195Y17774D01*
X42096Y17794D01*
X41982Y17800D01*
X41869Y17807D01*
D02*
G37*
G36*
X35196D02*
X35142D01*
X35089Y17800D01*
X35016Y17794D01*
X34936Y17787D01*
X34843Y17767D01*
X34750Y17747D01*
X34663Y17714D01*
X34650Y17707D01*
X34623Y17694D01*
X34576Y17674D01*
X34523Y17647D01*
X34457Y17607D01*
X34390Y17561D01*
X34323Y17507D01*
X34263Y17447D01*
X34257Y17441D01*
X34237Y17414D01*
X34203Y17381D01*
X34170Y17334D01*
X34130Y17268D01*
X34084Y17201D01*
X34044Y17121D01*
X34010Y17034D01*
X34004Y17021D01*
X33997Y16995D01*
X33984Y16941D01*
X33964Y16881D01*
X33950Y16801D01*
X33937Y16708D01*
X33930Y16608D01*
X33924Y16502D01*
Y16402D01*
X33930Y16349D01*
Y16335D01*
X33937Y16302D01*
X33944Y16262D01*
X33950Y16215D01*
X36142D01*
Y16209D01*
Y16195D01*
X36135Y16169D01*
X36128Y16135D01*
X36122Y16095D01*
X36108Y16056D01*
X36082Y15949D01*
X36035Y15836D01*
X35975Y15716D01*
X35895Y15603D01*
X35795Y15503D01*
X35789D01*
X35782Y15496D01*
X35742Y15469D01*
X35675Y15429D01*
X35589Y15390D01*
X35482Y15343D01*
X35356Y15310D01*
X35216Y15283D01*
X35056Y15270D01*
X35016D01*
X34969Y15276D01*
X34909D01*
X34836Y15283D01*
X34763Y15296D01*
X34610Y15336D01*
X34603Y15343D01*
X34576Y15349D01*
X34536Y15363D01*
X34483Y15390D01*
X34423Y15416D01*
X34357Y15449D01*
X34210Y15529D01*
X34044Y15223D01*
X34050Y15216D01*
X34077Y15203D01*
X34124Y15176D01*
X34177Y15143D01*
X34244Y15103D01*
X34323Y15063D01*
X34410Y15030D01*
X34510Y14990D01*
X34523Y14983D01*
X34556Y14977D01*
X34610Y14963D01*
X34683Y14943D01*
X34776Y14923D01*
X34876Y14910D01*
X34989Y14903D01*
X35116Y14897D01*
X33924D01*
Y16402D01*
Y14897D01*
D01*
X36614D01*
X35169D01*
X35229Y14903D01*
X35309Y14910D01*
X35396Y14917D01*
X35495Y14937D01*
X35595Y14957D01*
X35702Y14990D01*
X35715Y14997D01*
X35749Y15010D01*
X35802Y15030D01*
X35862Y15063D01*
X35942Y15097D01*
X36022Y15150D01*
X36102Y15203D01*
X36182Y15270D01*
X36188Y15276D01*
X36215Y15303D01*
X36248Y15343D01*
X36295Y15403D01*
X36348Y15469D01*
X36401Y15549D01*
X36455Y15636D01*
X36501Y15736D01*
X36508Y15749D01*
X36521Y15782D01*
X36535Y15842D01*
X36555Y15916D01*
X36581Y16009D01*
X36594Y16115D01*
X36608Y16229D01*
X36614Y16355D01*
Y16415D01*
X36608Y16475D01*
X36601Y16562D01*
X36588Y16655D01*
X36568Y16755D01*
X36541Y16861D01*
X36501Y16961D01*
X36494Y16975D01*
X36481Y17008D01*
X36455Y17054D01*
X36415Y17121D01*
X36375Y17194D01*
X36321Y17268D01*
X36255Y17347D01*
X36188Y17421D01*
X36182Y17427D01*
X36155Y17454D01*
X36108Y17487D01*
X36055Y17527D01*
X35988Y17574D01*
X35915Y17621D01*
X35829Y17667D01*
X35735Y17707D01*
X35722Y17714D01*
X35689Y17720D01*
X35635Y17740D01*
X35569Y17761D01*
X35489Y17774D01*
X35396Y17794D01*
X35302Y17800D01*
X35196Y17807D01*
D02*
G37*
G36*
X31759Y17807D02*
X31706D01*
X31653Y17800D01*
X31580Y17794D01*
X31499Y17787D01*
X31406Y17767D01*
X31313Y17747D01*
X31227Y17714D01*
X31213Y17707D01*
X31187Y17694D01*
X31140Y17674D01*
X31087Y17647D01*
X31020Y17607D01*
X30953Y17561D01*
X30887Y17507D01*
X30827Y17447D01*
X30820Y17441D01*
X30800Y17414D01*
X30767Y17381D01*
X30734Y17334D01*
X30694Y17268D01*
X30647Y17201D01*
X30607Y17121D01*
X30574Y17034D01*
X30567Y17021D01*
X30560Y16995D01*
X30547Y16941D01*
X30527Y16881D01*
X30514Y16801D01*
X30501Y16708D01*
X30494Y16608D01*
X30487Y16502D01*
Y16402D01*
X30494Y16349D01*
Y16335D01*
X30501Y16302D01*
X30507Y16262D01*
X30514Y16215D01*
X32705Y16215D01*
Y16209D01*
Y16195D01*
X32698Y16169D01*
X32692Y16135D01*
X32685Y16095D01*
X32672Y16056D01*
X32645Y15949D01*
X32598Y15836D01*
X32539Y15716D01*
X32459Y15603D01*
X32359Y15503D01*
X32352D01*
X32345Y15496D01*
X32305Y15469D01*
X32239Y15429D01*
X32152Y15390D01*
X32046Y15343D01*
X31919Y15310D01*
X31779Y15283D01*
X31619Y15270D01*
X31580D01*
X31533Y15276D01*
X31473D01*
X31400Y15283D01*
X31326Y15296D01*
X31173Y15336D01*
X31166Y15343D01*
X31140Y15349D01*
X31100Y15363D01*
X31047Y15390D01*
X30987Y15416D01*
X30920Y15449D01*
X30774Y15529D01*
X30607Y15223D01*
X30614Y15216D01*
X30640Y15203D01*
X30687Y15176D01*
X30740Y15143D01*
X30807Y15103D01*
X30887Y15063D01*
X30973Y15030D01*
X31073Y14990D01*
X31087Y14983D01*
X31120Y14977D01*
X31173Y14963D01*
X31246Y14943D01*
X31340Y14923D01*
X31440Y14910D01*
X31553Y14903D01*
X31679Y14897D01*
X33178Y14897D01*
X31733Y14897D01*
X31793Y14903D01*
X31872Y14910D01*
X31959Y14917D01*
X32059Y14937D01*
X32159Y14957D01*
X32265Y14990D01*
X32279Y14997D01*
X32312Y15010D01*
X32365Y15030D01*
X32425Y15063D01*
X32505Y15097D01*
X32585Y15150D01*
X32665Y15203D01*
X32745Y15270D01*
X32752Y15276D01*
X32778Y15303D01*
X32811Y15343D01*
X32858Y15403D01*
X32912Y15469D01*
X32965Y15549D01*
X33018Y15636D01*
X33065Y15736D01*
X33071Y15749D01*
X33085Y15782D01*
X33098Y15842D01*
X33118Y15916D01*
X33145Y16009D01*
X33158Y16115D01*
X33171Y16229D01*
X33178Y16355D01*
Y16415D01*
X33171Y16475D01*
X33165Y16562D01*
X33151Y16655D01*
X33131Y16755D01*
X33105Y16861D01*
X33065Y16961D01*
X33058Y16975D01*
X33045Y17008D01*
X33018Y17054D01*
X32978Y17121D01*
X32938Y17194D01*
X32885Y17268D01*
X32818Y17347D01*
X32752Y17421D01*
X32745Y17427D01*
X32718Y17454D01*
X32672Y17487D01*
X32618Y17527D01*
X32552Y17574D01*
X32479Y17621D01*
X32392Y17667D01*
X32299Y17707D01*
X32285Y17714D01*
X32252Y17720D01*
X32199Y17740D01*
X32132Y17761D01*
X32052Y17774D01*
X31959Y17794D01*
X31866Y17800D01*
X31759Y17807D01*
D02*
G37*
G36*
X57107Y17740D02*
X55349D01*
Y14963D01*
X55256D01*
D01*
X57107D01*
D01*
X55815D01*
Y17354D01*
X57107D01*
Y17740D01*
D02*
G37*
G36*
X52159Y17807D02*
X52112D01*
X52079Y17800D01*
X52039D01*
X51986Y17794D01*
X51879Y17774D01*
X51759Y17740D01*
X51639Y17687D01*
X51526Y17614D01*
X51473Y17574D01*
X51426Y17521D01*
X51413Y17507D01*
X51386Y17467D01*
X51353Y17401D01*
X51306Y17314D01*
X51266Y17194D01*
X51226Y17054D01*
X51200Y16881D01*
X51193Y16688D01*
Y14963D01*
X53657D01*
Y17740D01*
X53264D01*
X53224Y17268D01*
X53205D01*
X53191Y17281D01*
X53164Y17308D01*
X53124Y17347D01*
X53065Y17401D01*
X52991Y17467D01*
X52918Y17527D01*
X52832Y17594D01*
X52738Y17654D01*
X52725Y17661D01*
X52692Y17681D01*
X52638Y17700D01*
X52572Y17734D01*
X52485Y17761D01*
X52385Y17780D01*
X52279Y17800D01*
X52159Y17807D01*
D02*
G37*
G36*
X50234Y17740D02*
X48476D01*
Y14963D01*
X48383D01*
D01*
X50234D01*
D01*
X48942D01*
Y17354D01*
X50234D01*
Y17740D01*
D02*
G37*
G36*
X37920Y17807D02*
X37826D01*
X37733Y17794D01*
X37633Y17780D01*
X37627D01*
X37613Y17774D01*
X37587D01*
X37547Y17761D01*
X37467Y17734D01*
X37367Y17694D01*
X37480Y17288D01*
X37487D01*
X37507Y17294D01*
X37534Y17308D01*
X37567Y17314D01*
X37647Y17341D01*
X37727Y17361D01*
X37733D01*
X37747Y17368D01*
X37767D01*
X37800Y17374D01*
X37833Y17381D01*
X37880D01*
X37933Y17388D01*
X38046D01*
X38106Y17381D01*
X38186Y17368D01*
X38279Y17341D01*
X38379Y17314D01*
X38486Y17268D01*
X38599Y17208D01*
X38612Y17201D01*
X38646Y17174D01*
X38706Y17128D01*
X38772Y17061D01*
X38859Y16975D01*
X38945Y16868D01*
X39045Y16741D01*
X39138Y16588D01*
Y14963D01*
X39605D01*
Y17740D01*
X39219D01*
X39178Y17081D01*
X39158D01*
Y17088D01*
X39145Y17095D01*
X39119Y17134D01*
X39072Y17201D01*
X39012Y17274D01*
X38932Y17361D01*
X38839Y17447D01*
X38739Y17534D01*
X38626Y17614D01*
X38619D01*
X38612Y17621D01*
X38592Y17634D01*
X38572Y17647D01*
X38506Y17674D01*
X38419Y17714D01*
X38313Y17747D01*
X38193Y17780D01*
X38060Y17800D01*
X37920Y17807D01*
D02*
G37*
G36*
X28103Y17807D02*
X28056D01*
X28023Y17800D01*
X27983D01*
X27930Y17794D01*
X27823Y17774D01*
X27703Y17740D01*
X27583Y17687D01*
X27470Y17614D01*
X27417Y17574D01*
X27370Y17521D01*
X27357Y17507D01*
X27330Y17467D01*
X27297Y17401D01*
X27250Y17314D01*
X27211Y17194D01*
X27171Y17054D01*
X27144Y16881D01*
X27137Y16688D01*
Y14963D01*
X29601D01*
Y17740D01*
X29208D01*
X29168Y17268D01*
X29149D01*
X29135Y17281D01*
X29109Y17308D01*
X29069Y17347D01*
X29009Y17401D01*
X28935Y17467D01*
X28862Y17527D01*
X28776Y17594D01*
X28682Y17654D01*
X28669Y17661D01*
X28636Y17681D01*
X28583Y17700D01*
X28516Y17734D01*
X28429Y17761D01*
X28329Y17780D01*
X28223Y17800D01*
X28103Y17807D01*
D02*
G37*
G36*
X18106Y18613D02*
X16808D01*
X17753D01*
Y15349D01*
X16808D01*
Y14963D01*
X19252D01*
Y15349D01*
Y15349D01*
X18226D01*
Y18040D01*
X19012D01*
Y18340D01*
X18999D01*
X18965Y18347D01*
X18905Y18360D01*
X18839Y18373D01*
X18759Y18386D01*
X18672Y18406D01*
X18586Y18426D01*
X18499Y18453D01*
X18486D01*
X18459Y18466D01*
X18419Y18480D01*
X18366Y18500D01*
X18306Y18520D01*
X18239Y18546D01*
X18106Y18613D01*
D02*
G37*
G36*
X45625Y18779D02*
X45466D01*
X45399Y18773D01*
X45306Y18766D01*
X45206Y18746D01*
X45099Y18726D01*
X44986Y18693D01*
X44873Y18653D01*
X44866D01*
X44859Y18646D01*
X44820Y18633D01*
X44766Y18600D01*
X44700Y18566D01*
X44620Y18513D01*
X44533Y18460D01*
X44447Y18393D01*
X44367Y18320D01*
X44620Y18007D01*
X44626Y18013D01*
X44653Y18034D01*
X44686Y18067D01*
X44740Y18100D01*
X44800Y18147D01*
X44866Y18187D01*
X44946Y18227D01*
X45026Y18267D01*
X45033Y18273D01*
X45066Y18280D01*
X45113Y18300D01*
X45173Y18320D01*
X45246Y18333D01*
X45332Y18353D01*
X45432Y18360D01*
X45539Y18367D01*
X45592D01*
X45652Y18360D01*
X45725Y18347D01*
X45812Y18333D01*
X45899Y18307D01*
X45985Y18267D01*
X46065Y18220D01*
X46072Y18213D01*
X46098Y18193D01*
X46125Y18160D01*
X46165Y18113D01*
X46198Y18054D01*
X46231Y17987D01*
X46258Y17907D01*
X46265Y17814D01*
Y17807D01*
Y17794D01*
X46258Y17767D01*
Y17734D01*
X46238Y17661D01*
X46205Y17581D01*
Y17574D01*
X46191Y17567D01*
X46165Y17527D01*
X46112Y17474D01*
X46052Y17414D01*
X46045D01*
X46032Y17401D01*
X46018Y17388D01*
X45992Y17374D01*
X45925Y17334D01*
X45838Y17294D01*
X45832D01*
X45818Y17288D01*
X45792Y17274D01*
X45765Y17261D01*
X45685Y17228D01*
X45599Y17194D01*
X45073Y16961D01*
X45066D01*
X45046Y16948D01*
X45013Y16935D01*
X44966Y16915D01*
X44919Y16895D01*
X44859Y16868D01*
X44746Y16801D01*
X44740Y16795D01*
X44720Y16788D01*
X44693Y16768D01*
X44653Y16741D01*
X44573Y16675D01*
X44486Y16595D01*
X44480Y16588D01*
X44467Y16575D01*
X44447Y16548D01*
X44420Y16522D01*
X44393Y16482D01*
X44360Y16435D01*
X44307Y16322D01*
Y16315D01*
X44293Y16295D01*
X44287Y16262D01*
X44273Y16222D01*
X44260Y16169D01*
X44253Y16109D01*
X44240Y16036D01*
Y15922D01*
X44247Y15882D01*
X44253Y15822D01*
X44260Y15763D01*
X44280Y15689D01*
X44300Y15616D01*
X44333Y15543D01*
X44340Y15536D01*
X44353Y15509D01*
X44373Y15476D01*
X44400Y15429D01*
X44440Y15376D01*
X44486Y15316D01*
X44540Y15263D01*
X44600Y15203D01*
X44606Y15196D01*
X44626Y15176D01*
X44666Y15150D01*
X44713Y15123D01*
X44773Y15083D01*
X44846Y15043D01*
X44926Y15010D01*
X45013Y14977D01*
X45026D01*
X45053Y14963D01*
X45106Y14950D01*
X45173Y14937D01*
X45252Y14923D01*
X45352Y14910D01*
X45452Y14903D01*
X45565Y14897D01*
X44240D01*
X46931D01*
D01*
X45632D01*
X45672Y14903D01*
X45712D01*
X45812Y14917D01*
X45932Y14930D01*
X46058Y14957D01*
X46191Y14997D01*
X46325Y15043D01*
X46331D01*
X46338Y15050D01*
X46358Y15056D01*
X46385Y15070D01*
X46445Y15103D01*
X46531Y15150D01*
X46624Y15210D01*
X46724Y15276D01*
X46831Y15356D01*
X46931Y15449D01*
D01*
X46644Y15776D01*
X46638Y15769D01*
X46604Y15743D01*
X46564Y15702D01*
X46505Y15656D01*
X46431Y15603D01*
X46345Y15543D01*
X46251Y15489D01*
X46152Y15436D01*
X46138Y15429D01*
X46105Y15416D01*
X46045Y15396D01*
X45972Y15376D01*
X45878Y15349D01*
X45779Y15330D01*
X45665Y15316D01*
X45546Y15310D01*
X45479D01*
X45412Y15316D01*
X45326Y15330D01*
X45232Y15349D01*
X45132Y15383D01*
X45033Y15423D01*
X44946Y15476D01*
X44939Y15483D01*
X44913Y15509D01*
X44879Y15543D01*
X44833Y15589D01*
X44793Y15656D01*
X44760Y15729D01*
X44733Y15809D01*
X44726Y15902D01*
Y15909D01*
Y15929D01*
Y15956D01*
X44733Y15989D01*
X44746Y16075D01*
X44780Y16155D01*
Y16162D01*
X44786Y16175D01*
X44800Y16195D01*
X44820Y16215D01*
X44866Y16275D01*
X44926Y16335D01*
X44933Y16342D01*
X44939Y16349D01*
X44959Y16362D01*
X44986Y16382D01*
X45053Y16422D01*
X45139Y16462D01*
X45146D01*
X45159Y16475D01*
X45186Y16482D01*
X45219Y16502D01*
X45259Y16515D01*
X45299Y16535D01*
X45406Y16582D01*
X45938Y16821D01*
X45945D01*
X45965Y16828D01*
X45992Y16841D01*
X46032Y16861D01*
X46072Y16875D01*
X46125Y16901D01*
X46231Y16955D01*
X46238Y16961D01*
X46258Y16968D01*
X46285Y16988D01*
X46318Y17008D01*
X46398Y17068D01*
X46491Y17148D01*
X46498Y17154D01*
X46511Y17168D01*
X46531Y17194D01*
X46558Y17228D01*
X46584Y17268D01*
X46618Y17314D01*
X46678Y17421D01*
Y17427D01*
X46691Y17447D01*
X46698Y17481D01*
X46711Y17527D01*
X46724Y17581D01*
X46738Y17641D01*
X46744Y17714D01*
X46751Y17787D01*
Y17794D01*
Y17820D01*
X46744Y17867D01*
X46738Y17914D01*
X46731Y17974D01*
X46711Y18040D01*
X46691Y18113D01*
X46664Y18180D01*
X46658Y18187D01*
X46644Y18213D01*
X46624Y18247D01*
X46598Y18293D01*
X46564Y18340D01*
X46518Y18393D01*
X46465Y18446D01*
X46411Y18500D01*
X46405Y18506D01*
X46385Y18520D01*
X46345Y18546D01*
X46298Y18573D01*
X46245Y18606D01*
X46178Y18646D01*
X46098Y18679D01*
X46018Y18706D01*
X46005Y18713D01*
X45978Y18720D01*
X45932Y18733D01*
X45872Y18746D01*
X45799Y18759D01*
X45712Y18766D01*
X45625Y18779D01*
D02*
G37*
%LPD*%
G36*
X60284Y18160D02*
Y18147D01*
X60277Y18120D01*
Y18087D01*
X60271Y18040D01*
X60264Y17994D01*
X60257Y17874D01*
Y17867D01*
Y17847D01*
X60251Y17807D01*
Y17767D01*
X60244Y17707D01*
X60237Y17647D01*
X60231Y17514D01*
Y17507D01*
Y17481D01*
X60224Y17447D01*
Y17401D01*
X60217Y17347D01*
Y17288D01*
X60211Y17154D01*
Y17148D01*
Y17121D01*
Y17088D01*
X60204Y17048D01*
Y16941D01*
Y16835D01*
Y14963D01*
X58499D01*
Y16835D01*
Y16841D01*
Y16861D01*
Y16888D01*
Y16928D01*
Y16975D01*
Y17028D01*
X58492Y17154D01*
Y17161D01*
Y17188D01*
X58486Y17221D01*
Y17268D01*
X58479Y17321D01*
X58473Y17381D01*
X58466Y17514D01*
Y17521D01*
Y17547D01*
X58459Y17581D01*
Y17627D01*
X58452Y17687D01*
X58446Y17747D01*
X58439Y17874D01*
Y17880D01*
Y17900D01*
X58433Y17934D01*
Y17974D01*
X58426Y18074D01*
X58419Y18167D01*
X58433D01*
X58646Y17434D01*
X59185Y15956D01*
X59525D01*
X60051Y17434D01*
X60271Y18167D01*
X60284D01*
Y18160D01*
D02*
G37*
G36*
X35289Y17427D02*
X35342Y17421D01*
X35396Y17408D01*
X35515Y17374D01*
X35522D01*
X35542Y17368D01*
X35569Y17354D01*
X35609Y17334D01*
X35695Y17288D01*
X35795Y17214D01*
X35802Y17208D01*
X35815Y17194D01*
X35842Y17174D01*
X35868Y17141D01*
X35902Y17101D01*
X35935Y17054D01*
X36008Y16948D01*
X36015Y16941D01*
X36022Y16921D01*
X36035Y16888D01*
X36055Y16841D01*
X36075Y16788D01*
X36095Y16728D01*
X36115Y16655D01*
X36128Y16582D01*
X34357D01*
Y16588D01*
Y16602D01*
X34363Y16622D01*
Y16655D01*
X34377Y16728D01*
X34397Y16821D01*
X34430Y16928D01*
X34470Y17034D01*
X34530Y17134D01*
X34603Y17221D01*
X34610Y17228D01*
X34643Y17254D01*
X34690Y17288D01*
X34756Y17328D01*
X34843Y17368D01*
X34943Y17401D01*
X35056Y17427D01*
X35182Y17434D01*
X35243D01*
X35289Y17427D01*
D02*
G37*
G36*
X31852Y17427D02*
X31906Y17421D01*
X31959Y17408D01*
X32079Y17374D01*
X32086D01*
X32106Y17368D01*
X32132Y17354D01*
X32172Y17334D01*
X32259Y17288D01*
X32359Y17214D01*
X32365Y17208D01*
X32379Y17194D01*
X32405Y17174D01*
X32432Y17141D01*
X32465Y17101D01*
X32498Y17054D01*
X32572Y16948D01*
X32578Y16941D01*
X32585Y16921D01*
X32598Y16888D01*
X32618Y16841D01*
X32638Y16788D01*
X32658Y16728D01*
X32678Y16655D01*
X32692Y16582D01*
X30920Y16582D01*
Y16588D01*
Y16602D01*
X30927Y16622D01*
Y16655D01*
X30940Y16728D01*
X30960Y16821D01*
X30993Y16928D01*
X31033Y17034D01*
X31093Y17134D01*
X31166Y17221D01*
X31173Y17228D01*
X31207Y17254D01*
X31253Y17288D01*
X31320Y17327D01*
X31406Y17368D01*
X31506Y17401D01*
X31619Y17427D01*
X31746Y17434D01*
X31806D01*
X31852Y17427D01*
D02*
G37*
G36*
X52379Y17394D02*
X52459Y17388D01*
X52539Y17368D01*
X52545D01*
X52558Y17361D01*
X52578Y17354D01*
X52605Y17347D01*
X52672Y17314D01*
X52745Y17274D01*
X52752D01*
X52765Y17261D01*
X52785Y17248D01*
X52811Y17234D01*
X52878Y17188D01*
X52958Y17121D01*
X52965Y17114D01*
X52978Y17108D01*
X52998Y17088D01*
X53025Y17061D01*
X53098Y16988D01*
X53184Y16901D01*
Y14963D01*
X51666D01*
Y16622D01*
Y16628D01*
Y16642D01*
Y16662D01*
Y16688D01*
X51673Y16755D01*
X51686Y16848D01*
X51699Y16941D01*
X51726Y17034D01*
X51766Y17128D01*
X51812Y17208D01*
X51819Y17214D01*
X51839Y17241D01*
X51879Y17268D01*
X51926Y17308D01*
X51999Y17341D01*
X52079Y17374D01*
X52185Y17394D01*
X52305Y17401D01*
X52352D01*
X52379Y17394D01*
D02*
G37*
G36*
X28323Y17394D02*
X28403Y17388D01*
X28482Y17368D01*
X28489D01*
X28503Y17361D01*
X28523Y17354D01*
X28549Y17347D01*
X28616Y17314D01*
X28689Y17274D01*
X28696D01*
X28709Y17261D01*
X28729Y17248D01*
X28756Y17234D01*
X28822Y17188D01*
X28902Y17121D01*
X28909Y17114D01*
X28922Y17108D01*
X28942Y17088D01*
X28969Y17061D01*
X29042Y16988D01*
X29129Y16901D01*
Y14963D01*
X27610D01*
Y16622D01*
Y16628D01*
Y16642D01*
Y16661D01*
Y16688D01*
X27617Y16755D01*
X27630Y16848D01*
X27643Y16941D01*
X27670Y17034D01*
X27710Y17128D01*
X27757Y17208D01*
X27763Y17214D01*
X27783Y17241D01*
X27823Y17268D01*
X27870Y17308D01*
X27943Y17341D01*
X28023Y17374D01*
X28130Y17394D01*
X28249Y17401D01*
X28296D01*
X28323Y17394D01*
D02*
G37*
M02*
