G04*
G04 #@! TF.GenerationSoftware,Altium Limited,Altium Designer,22.5.1 (42)*
G04*
G04 Layer_Color=8421504*
%FSLAX25Y25*%
%MOIN*%
G70*
G04*
G04 #@! TF.SameCoordinates,B96F059C-DAF6-4555-8D6D-E7C6B2DDDAAE*
G04*
G04*
G04 #@! TF.FilePolarity,Positive*
G04*
G01*
G75*
G04:AMPARAMS|DCode=12|XSize=27.56mil|YSize=27.56mil|CornerRadius=6.89mil|HoleSize=0mil|Usage=FLASHONLY|Rotation=0.000|XOffset=0mil|YOffset=0mil|HoleType=Round|Shape=RoundedRectangle|*
%AMROUNDEDRECTD12*
21,1,0.02756,0.01378,0,0,0.0*
21,1,0.01378,0.02756,0,0,0.0*
1,1,0.01378,0.00689,-0.00689*
1,1,0.01378,-0.00689,-0.00689*
1,1,0.01378,-0.00689,0.00689*
1,1,0.01378,0.00689,0.00689*
%
%ADD12ROUNDEDRECTD12*%
D12*
X27269Y99165D02*
D03*
Y94834D02*
D03*
X34474D02*
D03*
Y99165D02*
D03*
X62883Y87365D02*
D03*
Y83034D02*
D03*
X70088D02*
D03*
Y87365D02*
D03*
X51012D02*
D03*
Y83034D02*
D03*
X58217D02*
D03*
Y87365D02*
D03*
X74755D02*
D03*
Y83034D02*
D03*
X81959D02*
D03*
Y87365D02*
D03*
X86626D02*
D03*
Y83034D02*
D03*
X93831D02*
D03*
Y87365D02*
D03*
X98497Y99165D02*
D03*
Y94834D02*
D03*
X105702D02*
D03*
Y99165D02*
D03*
X98497Y87365D02*
D03*
Y83034D02*
D03*
X105702D02*
D03*
Y87365D02*
D03*
X74755Y99165D02*
D03*
Y94834D02*
D03*
X81959D02*
D03*
Y99165D02*
D03*
X86626D02*
D03*
Y94834D02*
D03*
X93831D02*
D03*
Y99165D02*
D03*
X62883D02*
D03*
Y94834D02*
D03*
X70088D02*
D03*
Y99165D02*
D03*
X51012D02*
D03*
Y94834D02*
D03*
X58217D02*
D03*
Y99165D02*
D03*
X15398Y75565D02*
D03*
Y71234D02*
D03*
X22602D02*
D03*
Y75565D02*
D03*
X15398Y40165D02*
D03*
Y35835D02*
D03*
X22602D02*
D03*
Y40165D02*
D03*
X15398Y51965D02*
D03*
Y47634D02*
D03*
X22602D02*
D03*
Y51965D02*
D03*
X15398Y63765D02*
D03*
Y59434D02*
D03*
X22602D02*
D03*
Y63765D02*
D03*
X15398Y87365D02*
D03*
Y83034D02*
D03*
X22602D02*
D03*
Y87365D02*
D03*
X15398Y99165D02*
D03*
Y94834D02*
D03*
X22602D02*
D03*
Y99165D02*
D03*
X15398Y16565D02*
D03*
Y12235D02*
D03*
X22602D02*
D03*
Y16565D02*
D03*
X15398Y28365D02*
D03*
Y24035D02*
D03*
X22602D02*
D03*
Y28365D02*
D03*
X39140Y99165D02*
D03*
Y94834D02*
D03*
X46345D02*
D03*
Y99165D02*
D03*
X39140Y75565D02*
D03*
Y71234D02*
D03*
X46345D02*
D03*
Y75565D02*
D03*
X39140Y87365D02*
D03*
Y83034D02*
D03*
X46345D02*
D03*
Y87365D02*
D03*
X27269D02*
D03*
Y83034D02*
D03*
X34474D02*
D03*
Y87365D02*
D03*
X27269Y75565D02*
D03*
Y71234D02*
D03*
X34474D02*
D03*
Y75565D02*
D03*
X27269Y63765D02*
D03*
Y59434D02*
D03*
X34474D02*
D03*
Y63765D02*
D03*
X39140D02*
D03*
Y59434D02*
D03*
X46345D02*
D03*
Y63765D02*
D03*
X39140Y40165D02*
D03*
Y35835D02*
D03*
X46345D02*
D03*
Y40165D02*
D03*
X39140Y51965D02*
D03*
Y47634D02*
D03*
X46345D02*
D03*
Y51965D02*
D03*
X39140Y16565D02*
D03*
Y12235D02*
D03*
X46345D02*
D03*
Y16565D02*
D03*
X27269D02*
D03*
Y12235D02*
D03*
X34474D02*
D03*
Y16565D02*
D03*
X27269Y51965D02*
D03*
Y47634D02*
D03*
X34474D02*
D03*
Y51965D02*
D03*
X27269Y40165D02*
D03*
Y35835D02*
D03*
X34474D02*
D03*
Y40165D02*
D03*
X27269Y28365D02*
D03*
Y24035D02*
D03*
X34474D02*
D03*
Y28365D02*
D03*
X39140D02*
D03*
Y24035D02*
D03*
X46345D02*
D03*
Y28365D02*
D03*
X98497Y40165D02*
D03*
Y35835D02*
D03*
X105702D02*
D03*
Y40165D02*
D03*
X86626Y28365D02*
D03*
Y24035D02*
D03*
X93831D02*
D03*
Y28365D02*
D03*
X86626Y40165D02*
D03*
Y35835D02*
D03*
X93831D02*
D03*
Y40165D02*
D03*
X51012D02*
D03*
Y35835D02*
D03*
X58217D02*
D03*
Y40165D02*
D03*
X62883D02*
D03*
Y35835D02*
D03*
X70088D02*
D03*
Y40165D02*
D03*
X74755D02*
D03*
Y35835D02*
D03*
X81959D02*
D03*
Y40165D02*
D03*
X74755Y51965D02*
D03*
Y47634D02*
D03*
X81959D02*
D03*
Y51965D02*
D03*
X62883D02*
D03*
Y47634D02*
D03*
X70088D02*
D03*
Y51965D02*
D03*
X98497D02*
D03*
Y47634D02*
D03*
X105702D02*
D03*
Y51965D02*
D03*
X86626D02*
D03*
Y47634D02*
D03*
X93831D02*
D03*
Y51965D02*
D03*
X62883Y63765D02*
D03*
Y59434D02*
D03*
X70088D02*
D03*
Y63765D02*
D03*
X51012Y51965D02*
D03*
Y47634D02*
D03*
X58217D02*
D03*
Y51965D02*
D03*
X51012Y63765D02*
D03*
Y59434D02*
D03*
X58217D02*
D03*
Y63765D02*
D03*
X98497Y75565D02*
D03*
Y71234D02*
D03*
X105702D02*
D03*
Y75565D02*
D03*
X98497Y63765D02*
D03*
Y59434D02*
D03*
X105702D02*
D03*
Y63765D02*
D03*
X62883Y16565D02*
D03*
Y12235D02*
D03*
X70088D02*
D03*
Y16565D02*
D03*
X74755Y63765D02*
D03*
Y59434D02*
D03*
X81959D02*
D03*
Y63765D02*
D03*
X86626D02*
D03*
Y59434D02*
D03*
X93831D02*
D03*
Y63765D02*
D03*
X86626Y75565D02*
D03*
Y71234D02*
D03*
X93831D02*
D03*
Y75565D02*
D03*
X74755D02*
D03*
Y71234D02*
D03*
X81959D02*
D03*
Y75565D02*
D03*
X62883D02*
D03*
Y71234D02*
D03*
X70088D02*
D03*
Y75565D02*
D03*
X51012D02*
D03*
Y71234D02*
D03*
X58217D02*
D03*
Y75565D02*
D03*
X74755Y28365D02*
D03*
Y24035D02*
D03*
X81959D02*
D03*
Y28365D02*
D03*
X62883D02*
D03*
Y24035D02*
D03*
X70088D02*
D03*
Y28365D02*
D03*
X51012D02*
D03*
Y24035D02*
D03*
X58217D02*
D03*
Y28365D02*
D03*
X51012Y16565D02*
D03*
Y12235D02*
D03*
X58217D02*
D03*
Y16565D02*
D03*
X98497Y28365D02*
D03*
Y24035D02*
D03*
X105702D02*
D03*
Y28365D02*
D03*
X98497Y16565D02*
D03*
Y12235D02*
D03*
X105702D02*
D03*
Y16565D02*
D03*
X74755D02*
D03*
Y12235D02*
D03*
X81959D02*
D03*
Y16565D02*
D03*
X86626D02*
D03*
Y12235D02*
D03*
X93831D02*
D03*
Y16565D02*
D03*
M02*
