G04*
G04 #@! TF.GenerationSoftware,Altium Limited,Altium Designer,22.5.1 (42)*
G04*
G04 Layer_Color=2752767*
%FSLAX25Y25*%
%MOIN*%
G70*
G04*
G04 #@! TF.SameCoordinates,B96F059C-DAF6-4555-8D6D-E7C6B2DDDAAE*
G04*
G04*
G04 #@! TF.FilePolarity,Positive*
G04*
G01*
G75*
%ADD10C,0.01000*%
%ADD17C,0.01500*%
%ADD23C,0.00200*%
%ADD24C,0.01600*%
D10*
X20562Y203250D02*
X23896Y209917D01*
X17229D02*
X23896D01*
X17229D02*
X20562Y203250D01*
X18896Y189917D02*
X20562Y188250D01*
X17229Y189917D02*
X18896D01*
X17229D02*
X18896Y191583D01*
X17229Y193250D02*
X18896Y191583D01*
X17229Y193250D02*
X18896D01*
X20562Y194917D01*
X22229Y193250D01*
X23896D01*
X22229Y191583D02*
X23896Y193250D01*
X22229Y191583D02*
X23896Y189917D01*
X22229D02*
X23896D01*
X20562Y188250D02*
X22229Y189917D01*
X17229Y173250D02*
X23896D01*
Y179917D01*
X17229D02*
X23896D01*
X17229Y173250D02*
Y179917D01*
Y158250D02*
X20562Y159917D01*
X23896Y158250D01*
X22229Y161583D02*
X23896Y158250D01*
X22229Y161583D02*
X23896Y164917D01*
X20562Y163250D02*
X23896Y164917D01*
X17229D02*
X20562Y163250D01*
X17229Y164917D02*
X18896Y161583D01*
X17229Y158250D02*
X18896Y161583D01*
X642279Y207249D02*
X644278Y203250D01*
X646278Y207249D01*
X652276Y203250D02*
X648277D01*
X652276Y207249D01*
Y208248D01*
X651276Y209248D01*
X649277D01*
X648277Y208248D01*
X658274Y209248D02*
X654275D01*
Y206249D01*
X656275Y207249D01*
X657274D01*
X658274Y206249D01*
Y204250D01*
X657274Y203250D01*
X655275D01*
X654275Y204250D01*
X660273Y208248D02*
X661273Y209248D01*
X663272D01*
X664272Y208248D01*
Y204250D01*
X663272Y203250D01*
X661273D01*
X660273Y204250D01*
Y208248D01*
X666271Y209248D02*
Y203250D01*
Y206249D01*
X667271Y207249D01*
X669270D01*
X670270Y206249D01*
Y203250D01*
X672269D02*
X674269D01*
X673269D01*
Y209248D01*
X672269Y208248D01*
X677268Y209248D02*
X681266D01*
Y208248D01*
X677268Y204250D01*
Y203250D01*
X687265Y209248D02*
X683266D01*
Y206249D01*
X685265Y207249D01*
X686265D01*
X687265Y206249D01*
Y204250D01*
X686265Y203250D01*
X684266D01*
X683266Y204250D01*
X642279Y192249D02*
X644278Y188250D01*
X646278Y192249D01*
X652276Y188250D02*
X648277D01*
X652276Y192249D01*
Y193248D01*
X651276Y194248D01*
X649277D01*
X648277Y193248D01*
X658274Y194248D02*
X654275D01*
Y191249D01*
X656275Y192249D01*
X657274D01*
X658274Y191249D01*
Y189250D01*
X657274Y188250D01*
X655275D01*
X654275Y189250D01*
X660273Y193248D02*
X661273Y194248D01*
X663272D01*
X664272Y193248D01*
Y189250D01*
X663272Y188250D01*
X661273D01*
X660273Y189250D01*
Y193248D01*
X666271Y194248D02*
Y188250D01*
Y191249D01*
X667271Y192249D01*
X669270D01*
X670270Y191249D01*
Y188250D01*
X672269D02*
X674269D01*
X673269D01*
Y194248D01*
X672269Y193248D01*
X677268Y194248D02*
X681266D01*
Y193248D01*
X677268Y189250D01*
Y188250D01*
X687265Y194248D02*
X683266D01*
Y191249D01*
X685265Y192249D01*
X686265D01*
X687265Y191249D01*
Y189250D01*
X686265Y188250D01*
X684266D01*
X683266Y189250D01*
X691263Y188250D02*
X689264Y190249D01*
Y192249D01*
X691263Y194248D01*
X694262Y188250D02*
X696262D01*
X695262D01*
Y194248D01*
X694262Y193248D01*
X699261Y188250D02*
X701260Y190249D01*
Y192249D01*
X699261Y194248D01*
X644278Y173250D02*
X642279Y175249D01*
Y177249D01*
X644278Y179248D01*
X647277Y173250D02*
Y179248D01*
X649277Y177249D01*
X651276Y179248D01*
Y173250D01*
X653276D02*
X655275D01*
X654275D01*
Y177249D01*
X653276D01*
X658274D02*
X662273Y173250D01*
X660273Y175249D01*
X662273Y177249D01*
X658274Y173250D01*
X667271D02*
X665272D01*
X664272Y174250D01*
Y176249D01*
X665272Y177249D01*
X667271D01*
X668271Y176249D01*
Y175249D01*
X664272D01*
X674269Y179248D02*
Y173250D01*
X671270D01*
X670270Y174250D01*
Y176249D01*
X671270Y177249D01*
X674269D01*
X676268Y173250D02*
X678267Y175249D01*
Y177249D01*
X676268Y179248D01*
X644278Y158250D02*
X642279Y160249D01*
Y162249D01*
X644278Y164248D01*
X647277Y158250D02*
Y164248D01*
X649277Y162249D01*
X651276Y164248D01*
Y158250D01*
X653276D02*
X655275D01*
X654275D01*
Y162249D01*
X653276D01*
X658274D02*
X662273Y158250D01*
X660273Y160249D01*
X662273Y162249D01*
X658274Y158250D01*
X667271D02*
X665272D01*
X664272Y159250D01*
Y161249D01*
X665272Y162249D01*
X667271D01*
X668271Y161249D01*
Y160249D01*
X664272D01*
X674269Y164248D02*
Y158250D01*
X671270D01*
X670270Y159250D01*
Y161249D01*
X671270Y162249D01*
X674269D01*
X676268Y158250D02*
X678267Y160249D01*
Y162249D01*
X676268Y164248D01*
X567699Y203250D02*
Y209248D01*
X570698D01*
X571698Y208248D01*
Y206249D01*
X570698Y205249D01*
X567699D01*
X569699D02*
X571698Y203250D01*
X574697D02*
X576696D01*
X577696Y204250D01*
Y206249D01*
X576696Y207249D01*
X574697D01*
X573697Y206249D01*
Y204250D01*
X574697Y203250D01*
X579695Y207249D02*
Y204250D01*
X580695Y203250D01*
X583694D01*
Y207249D01*
X585694Y203250D02*
Y207249D01*
X588693D01*
X589692Y206249D01*
Y203250D01*
X595690Y209248D02*
Y203250D01*
X592691D01*
X591692Y204250D01*
Y206249D01*
X592691Y207249D01*
X595690D01*
X600689Y203250D02*
X598689D01*
X597690Y204250D01*
Y206249D01*
X598689Y207249D01*
X600689D01*
X601688Y206249D01*
Y205249D01*
X597690D01*
X607686Y209248D02*
Y203250D01*
X604687D01*
X603688Y204250D01*
Y206249D01*
X604687Y207249D01*
X607686D01*
X567699Y188250D02*
Y194248D01*
X570698D01*
X571698Y193248D01*
Y191249D01*
X570698Y190249D01*
X567699D01*
X569699D02*
X571698Y188250D01*
X574697D02*
X576696D01*
X577696Y189250D01*
Y191249D01*
X576696Y192249D01*
X574697D01*
X573697Y191249D01*
Y189250D01*
X574697Y188250D01*
X579695Y192249D02*
Y189250D01*
X580695Y188250D01*
X583694D01*
Y192249D01*
X585694Y188250D02*
Y192249D01*
X588693D01*
X589692Y191249D01*
Y188250D01*
X595690Y194248D02*
Y188250D01*
X592691D01*
X591692Y189250D01*
Y191249D01*
X592691Y192249D01*
X595690D01*
X600689Y188250D02*
X598689D01*
X597690Y189250D01*
Y191249D01*
X598689Y192249D01*
X600689D01*
X601688Y191249D01*
Y190249D01*
X597690D01*
X607686Y194248D02*
Y188250D01*
X604687D01*
X603688Y189250D01*
Y191249D01*
X604687Y192249D01*
X607686D01*
X569699Y173250D02*
X567699Y175249D01*
Y177249D01*
X569699Y179248D01*
X572698Y173250D02*
Y179248D01*
X574697Y177249D01*
X576696Y179248D01*
Y173250D01*
X578696D02*
X580695D01*
X579695D01*
Y177249D01*
X578696D01*
X583694D02*
X587693Y173250D01*
X585694Y175249D01*
X587693Y177249D01*
X583694Y173250D01*
X592691D02*
X590692D01*
X589692Y174250D01*
Y176249D01*
X590692Y177249D01*
X592691D01*
X593691Y176249D01*
Y175249D01*
X589692D01*
X599689Y179248D02*
Y173250D01*
X596690D01*
X595690Y174250D01*
Y176249D01*
X596690Y177249D01*
X599689D01*
X601688Y173250D02*
X603688Y175249D01*
Y177249D01*
X601688Y179248D01*
X567699Y158250D02*
Y164248D01*
X570698D01*
X571698Y163248D01*
Y161249D01*
X570698Y160249D01*
X567699D01*
X569699D02*
X571698Y158250D01*
X574697D02*
X576696D01*
X577696Y159250D01*
Y161249D01*
X576696Y162249D01*
X574697D01*
X573697Y161249D01*
Y159250D01*
X574697Y158250D01*
X579695Y162249D02*
Y159250D01*
X580695Y158250D01*
X583694D01*
Y162249D01*
X585694Y158250D02*
Y162249D01*
X588693D01*
X589692Y161249D01*
Y158250D01*
X595690Y164248D02*
Y158250D01*
X592691D01*
X591692Y159250D01*
Y161249D01*
X592691Y162249D01*
X595690D01*
X600689Y158250D02*
X598689D01*
X597690Y159250D01*
Y161249D01*
X598689Y162249D01*
X600689D01*
X601688Y161249D01*
Y160249D01*
X597690D01*
X607686Y164248D02*
Y158250D01*
X604687D01*
X603688Y159250D01*
Y161249D01*
X604687Y162249D01*
X607686D01*
X508714Y209248D02*
Y205249D01*
X510714Y203250D01*
X512713Y205249D01*
Y209248D01*
X514712Y203250D02*
X516712D01*
X515712D01*
Y207249D01*
X514712D01*
X520711D02*
X522710D01*
X523710Y206249D01*
Y203250D01*
X520711D01*
X519711Y204250D01*
X520711Y205249D01*
X523710D01*
X508714Y194248D02*
Y190249D01*
X510714Y188250D01*
X512713Y190249D01*
Y194248D01*
X514712Y188250D02*
X516712D01*
X515712D01*
Y192249D01*
X514712D01*
X520711D02*
X522710D01*
X523710Y191249D01*
Y188250D01*
X520711D01*
X519711Y189250D01*
X520711Y190249D01*
X523710D01*
X508714Y173250D02*
Y179248D01*
X511714D01*
X512713Y178248D01*
Y176249D01*
X511714Y175249D01*
X508714D01*
X515712Y177249D02*
X517711D01*
X518711Y176249D01*
Y173250D01*
X515712D01*
X514712Y174250D01*
X515712Y175249D01*
X518711D01*
X524709Y179248D02*
Y173250D01*
X521710D01*
X520711Y174250D01*
Y176249D01*
X521710Y177249D01*
X524709D01*
X508714Y164248D02*
Y160249D01*
X510714Y158250D01*
X512713Y160249D01*
Y164248D01*
X514712Y158250D02*
X516712D01*
X515712D01*
Y162249D01*
X514712D01*
X520711D02*
X522710D01*
X523710Y161249D01*
Y158250D01*
X520711D01*
X519711Y159250D01*
X520711Y160249D01*
X523710D01*
X358759Y209248D02*
X362758D01*
X360759D01*
Y203250D01*
X365757D02*
X367757D01*
X368756Y204250D01*
Y206249D01*
X367757Y207249D01*
X365757D01*
X364757Y206249D01*
Y204250D01*
X365757Y203250D01*
X370756Y201251D02*
Y207249D01*
X373755D01*
X374754Y206249D01*
Y204250D01*
X373755Y203250D01*
X370756D01*
X382752Y209248D02*
Y203250D01*
X386750D01*
X389749Y207249D02*
X391749D01*
X392748Y206249D01*
Y203250D01*
X389749D01*
X388750Y204250D01*
X389749Y205249D01*
X392748D01*
X394748Y207249D02*
Y204250D01*
X395747Y203250D01*
X398746D01*
Y202250D01*
X397747Y201251D01*
X396747D01*
X398746Y203250D02*
Y207249D01*
X403745Y203250D02*
X401746D01*
X400746Y204250D01*
Y206249D01*
X401746Y207249D01*
X403745D01*
X404744Y206249D01*
Y205249D01*
X400746D01*
X406744Y207249D02*
Y203250D01*
Y205249D01*
X407744Y206249D01*
X408743Y207249D01*
X409743D01*
X418740Y206249D02*
X422739D01*
X430736Y209248D02*
Y203250D01*
X433735D01*
X434735Y204250D01*
Y205249D01*
X433735Y206249D01*
X430736D01*
X433735D01*
X434735Y207249D01*
Y208248D01*
X433735Y209248D01*
X430736D01*
X437734Y203250D02*
X439733D01*
X440733Y204250D01*
Y206249D01*
X439733Y207249D01*
X437734D01*
X436734Y206249D01*
Y204250D01*
X437734Y203250D01*
X443732Y208248D02*
Y207249D01*
X442732D01*
X444732D01*
X443732D01*
Y204250D01*
X444732Y203250D01*
X448730Y208248D02*
Y207249D01*
X447731D01*
X449730D01*
X448730D01*
Y204250D01*
X449730Y203250D01*
X453729D02*
X455728D01*
X456728Y204250D01*
Y206249D01*
X455728Y207249D01*
X453729D01*
X452729Y206249D01*
Y204250D01*
X453729Y203250D01*
X458727D02*
Y207249D01*
X459727D01*
X460726Y206249D01*
Y203250D01*
Y206249D01*
X461726Y207249D01*
X462726Y206249D01*
Y203250D01*
X470723Y209248D02*
Y203250D01*
X474722D01*
X477721Y207249D02*
X479720D01*
X480720Y206249D01*
Y203250D01*
X477721D01*
X476721Y204250D01*
X477721Y205249D01*
X480720D01*
X482719Y207249D02*
Y204250D01*
X483719Y203250D01*
X486718D01*
Y202250D01*
X485718Y201251D01*
X484719D01*
X486718Y203250D02*
Y207249D01*
X491716Y203250D02*
X489717D01*
X488717Y204250D01*
Y206249D01*
X489717Y207249D01*
X491716D01*
X492716Y206249D01*
Y205249D01*
X488717D01*
X494715Y207249D02*
Y203250D01*
Y205249D01*
X495715Y206249D01*
X496715Y207249D01*
X497715D01*
X358759Y194248D02*
X362758D01*
X360759D01*
Y188250D01*
X365757D02*
X367757D01*
X368756Y189250D01*
Y191249D01*
X367757Y192249D01*
X365757D01*
X364757Y191249D01*
Y189250D01*
X365757Y188250D01*
X370756Y186251D02*
Y192249D01*
X373755D01*
X374754Y191249D01*
Y189250D01*
X373755Y188250D01*
X370756D01*
X382752Y194248D02*
Y188250D01*
X386750D01*
X389749Y192249D02*
X391749D01*
X392748Y191249D01*
Y188250D01*
X389749D01*
X388750Y189250D01*
X389749Y190249D01*
X392748D01*
X394748Y192249D02*
Y189250D01*
X395747Y188250D01*
X398746D01*
Y187250D01*
X397747Y186251D01*
X396747D01*
X398746Y188250D02*
Y192249D01*
X403745Y188250D02*
X401746D01*
X400746Y189250D01*
Y191249D01*
X401746Y192249D01*
X403745D01*
X404744Y191249D01*
Y190249D01*
X400746D01*
X406744Y192249D02*
Y188250D01*
Y190249D01*
X407744Y191249D01*
X408743Y192249D01*
X409743D01*
X418740Y191249D02*
X422739D01*
X430736Y194248D02*
Y188250D01*
X433735D01*
X434735Y189250D01*
Y190249D01*
X433735Y191249D01*
X430736D01*
X433735D01*
X434735Y192249D01*
Y193248D01*
X433735Y194248D01*
X430736D01*
X437734Y188250D02*
X439733D01*
X440733Y189250D01*
Y191249D01*
X439733Y192249D01*
X437734D01*
X436734Y191249D01*
Y189250D01*
X437734Y188250D01*
X443732Y193248D02*
Y192249D01*
X442732D01*
X444732D01*
X443732D01*
Y189250D01*
X444732Y188250D01*
X448730Y193248D02*
Y192249D01*
X447731D01*
X449730D01*
X448730D01*
Y189250D01*
X449730Y188250D01*
X453729D02*
X455728D01*
X456728Y189250D01*
Y191249D01*
X455728Y192249D01*
X453729D01*
X452729Y191249D01*
Y189250D01*
X453729Y188250D01*
X458727D02*
Y192249D01*
X459727D01*
X460726Y191249D01*
Y188250D01*
Y191249D01*
X461726Y192249D01*
X462726Y191249D01*
Y188250D01*
X470723Y194248D02*
Y188250D01*
X474722D01*
X477721Y192249D02*
X479720D01*
X480720Y191249D01*
Y188250D01*
X477721D01*
X476721Y189250D01*
X477721Y190249D01*
X480720D01*
X482719Y192249D02*
Y189250D01*
X483719Y188250D01*
X486718D01*
Y187250D01*
X485718Y186251D01*
X484719D01*
X486718Y188250D02*
Y192249D01*
X491716Y188250D02*
X489717D01*
X488717Y189250D01*
Y191249D01*
X489717Y192249D01*
X491716D01*
X492716Y191249D01*
Y190249D01*
X488717D01*
X494715Y192249D02*
Y188250D01*
Y190249D01*
X495715Y191249D01*
X496715Y192249D01*
X497715D01*
X358759Y179248D02*
X362758D01*
X360759D01*
Y173250D01*
X365757D02*
X367757D01*
X368756Y174250D01*
Y176249D01*
X367757Y177249D01*
X365757D01*
X364757Y176249D01*
Y174250D01*
X365757Y173250D01*
X370756Y171251D02*
Y177249D01*
X373755D01*
X374754Y176249D01*
Y174250D01*
X373755Y173250D01*
X370756D01*
X382752Y179248D02*
Y173250D01*
X386750D01*
X389749Y177249D02*
X391749D01*
X392748Y176249D01*
Y173250D01*
X389749D01*
X388750Y174250D01*
X389749Y175249D01*
X392748D01*
X394748Y177249D02*
Y174250D01*
X395747Y173250D01*
X398746D01*
Y172250D01*
X397747Y171251D01*
X396747D01*
X398746Y173250D02*
Y177249D01*
X403745Y173250D02*
X401746D01*
X400746Y174250D01*
Y176249D01*
X401746Y177249D01*
X403745D01*
X404744Y176249D01*
Y175249D01*
X400746D01*
X406744Y177249D02*
Y173250D01*
Y175249D01*
X407744Y176249D01*
X408743Y177249D01*
X409743D01*
X418740Y176249D02*
X422739D01*
X430736Y179248D02*
Y173250D01*
X433735D01*
X434735Y174250D01*
Y175249D01*
X433735Y176249D01*
X430736D01*
X433735D01*
X434735Y177249D01*
Y178248D01*
X433735Y179248D01*
X430736D01*
X437734Y173250D02*
X439733D01*
X440733Y174250D01*
Y176249D01*
X439733Y177249D01*
X437734D01*
X436734Y176249D01*
Y174250D01*
X437734Y173250D01*
X443732Y178248D02*
Y177249D01*
X442732D01*
X444732D01*
X443732D01*
Y174250D01*
X444732Y173250D01*
X448730Y178248D02*
Y177249D01*
X447731D01*
X449730D01*
X448730D01*
Y174250D01*
X449730Y173250D01*
X453729D02*
X455728D01*
X456728Y174250D01*
Y176249D01*
X455728Y177249D01*
X453729D01*
X452729Y176249D01*
Y174250D01*
X453729Y173250D01*
X458727D02*
Y177249D01*
X459727D01*
X460726Y176249D01*
Y173250D01*
Y176249D01*
X461726Y177249D01*
X462726Y176249D01*
Y173250D01*
X470723Y179248D02*
Y173250D01*
X474722D01*
X477721Y177249D02*
X479720D01*
X480720Y176249D01*
Y173250D01*
X477721D01*
X476721Y174250D01*
X477721Y175249D01*
X480720D01*
X482719Y177249D02*
Y174250D01*
X483719Y173250D01*
X486718D01*
Y172250D01*
X485718Y171251D01*
X484719D01*
X486718Y173250D02*
Y177249D01*
X491716Y173250D02*
X489717D01*
X488717Y174250D01*
Y176249D01*
X489717Y177249D01*
X491716D01*
X492716Y176249D01*
Y175249D01*
X488717D01*
X494715Y177249D02*
Y173250D01*
Y175249D01*
X495715Y176249D01*
X496715Y177249D01*
X497715D01*
X358759Y164248D02*
X362758D01*
X360759D01*
Y158250D01*
X365757D02*
X367757D01*
X368756Y159250D01*
Y161249D01*
X367757Y162249D01*
X365757D01*
X364757Y161249D01*
Y159250D01*
X365757Y158250D01*
X370756Y156251D02*
Y162249D01*
X373755D01*
X374754Y161249D01*
Y159250D01*
X373755Y158250D01*
X370756D01*
X382752Y164248D02*
Y158250D01*
X386750D01*
X389749Y162249D02*
X391749D01*
X392748Y161249D01*
Y158250D01*
X389749D01*
X388750Y159250D01*
X389749Y160249D01*
X392748D01*
X394748Y162249D02*
Y159250D01*
X395747Y158250D01*
X398746D01*
Y157250D01*
X397747Y156251D01*
X396747D01*
X398746Y158250D02*
Y162249D01*
X403745Y158250D02*
X401746D01*
X400746Y159250D01*
Y161249D01*
X401746Y162249D01*
X403745D01*
X404744Y161249D01*
Y160249D01*
X400746D01*
X406744Y162249D02*
Y158250D01*
Y160249D01*
X407744Y161249D01*
X408743Y162249D01*
X409743D01*
X418740Y161249D02*
X422739D01*
X430736Y164248D02*
Y158250D01*
X433735D01*
X434735Y159250D01*
Y160249D01*
X433735Y161249D01*
X430736D01*
X433735D01*
X434735Y162249D01*
Y163248D01*
X433735Y164248D01*
X430736D01*
X437734Y158250D02*
X439733D01*
X440733Y159250D01*
Y161249D01*
X439733Y162249D01*
X437734D01*
X436734Y161249D01*
Y159250D01*
X437734Y158250D01*
X443732Y163248D02*
Y162249D01*
X442732D01*
X444732D01*
X443732D01*
Y159250D01*
X444732Y158250D01*
X448730Y163248D02*
Y162249D01*
X447731D01*
X449730D01*
X448730D01*
Y159250D01*
X449730Y158250D01*
X453729D02*
X455728D01*
X456728Y159250D01*
Y161249D01*
X455728Y162249D01*
X453729D01*
X452729Y161249D01*
Y159250D01*
X453729Y158250D01*
X458727D02*
Y162249D01*
X459727D01*
X460726Y161249D01*
Y158250D01*
Y161249D01*
X461726Y162249D01*
X462726Y161249D01*
Y158250D01*
X470723Y164248D02*
Y158250D01*
X474722D01*
X477721Y162249D02*
X479720D01*
X480720Y161249D01*
Y158250D01*
X477721D01*
X476721Y159250D01*
X477721Y160249D01*
X480720D01*
X482719Y162249D02*
Y159250D01*
X483719Y158250D01*
X486718D01*
Y157250D01*
X485718Y156251D01*
X484719D01*
X486718Y158250D02*
Y162249D01*
X491716Y158250D02*
X489717D01*
X488717Y159250D01*
Y161249D01*
X489717Y162249D01*
X491716D01*
X492716Y161249D01*
Y160249D01*
X488717D01*
X494715Y162249D02*
Y158250D01*
Y160249D01*
X495715Y161249D01*
X496715Y162249D01*
X497715D01*
X285379Y203250D02*
Y209248D01*
X288378D01*
X289378Y208248D01*
Y206249D01*
X288378Y205249D01*
X285379D01*
X287379D02*
X289378Y203250D01*
X292377D02*
X294376D01*
X295376Y204250D01*
Y206249D01*
X294376Y207249D01*
X292377D01*
X291377Y206249D01*
Y204250D01*
X292377Y203250D01*
X297375Y207249D02*
Y204250D01*
X298375Y203250D01*
X301374D01*
Y207249D01*
X303373Y203250D02*
Y207249D01*
X306372D01*
X307372Y206249D01*
Y203250D01*
X313370Y209248D02*
Y203250D01*
X310371D01*
X309371Y204250D01*
Y206249D01*
X310371Y207249D01*
X313370D01*
X285379Y188250D02*
Y194248D01*
X288378D01*
X289378Y193248D01*
Y191249D01*
X288378Y190249D01*
X285379D01*
X287379D02*
X289378Y188250D01*
X292377D02*
X294376D01*
X295376Y189250D01*
Y191249D01*
X294376Y192249D01*
X292377D01*
X291377Y191249D01*
Y189250D01*
X292377Y188250D01*
X297375Y192249D02*
Y189250D01*
X298375Y188250D01*
X301374D01*
Y192249D01*
X303373Y188250D02*
Y192249D01*
X306372D01*
X307372Y191249D01*
Y188250D01*
X313370Y194248D02*
Y188250D01*
X310371D01*
X309371Y189250D01*
Y191249D01*
X310371Y192249D01*
X313370D01*
X285379Y173250D02*
Y179248D01*
X288378D01*
X289378Y178248D01*
Y176249D01*
X288378Y175249D01*
X285379D01*
X287379D02*
X289378Y173250D01*
X292377D02*
X294376D01*
X295376Y174250D01*
Y176249D01*
X294376Y177249D01*
X292377D01*
X291377Y176249D01*
Y174250D01*
X292377Y173250D01*
X297375Y177249D02*
Y174250D01*
X298375Y173250D01*
X301374D01*
Y177249D01*
X303373Y173250D02*
Y177249D01*
X306372D01*
X307372Y176249D01*
Y173250D01*
X313370Y179248D02*
Y173250D01*
X310371D01*
X309371Y174250D01*
Y176249D01*
X310371Y177249D01*
X313370D01*
X285379Y158250D02*
Y164248D01*
X288378D01*
X289378Y163248D01*
Y161249D01*
X288378Y160249D01*
X285379D01*
X287379D02*
X289378Y158250D01*
X292377D02*
X294376D01*
X295376Y159250D01*
Y161249D01*
X294376Y162249D01*
X292377D01*
X291377Y161249D01*
Y159250D01*
X292377Y158250D01*
X297375Y162249D02*
Y159250D01*
X298375Y158250D01*
X301374D01*
Y162249D01*
X303373Y158250D02*
Y162249D01*
X306372D01*
X307372Y161249D01*
Y158250D01*
X313370Y164248D02*
Y158250D01*
X310371D01*
X309371Y159250D01*
Y161249D01*
X310371Y162249D01*
X313370D01*
X234792Y203250D02*
Y209248D01*
X237791D01*
X238790Y208248D01*
Y206249D01*
X237791Y205249D01*
X234792D01*
X240790Y209248D02*
X244788D01*
X242789D01*
Y203250D01*
X246788Y209248D02*
Y203250D01*
Y206249D01*
X250786D01*
Y209248D01*
Y203250D01*
X234792Y188250D02*
Y194248D01*
X237791D01*
X238790Y193248D01*
Y191249D01*
X237791Y190249D01*
X234792D01*
X240790Y194248D02*
X244788D01*
X242789D01*
Y188250D01*
X246788Y194248D02*
Y188250D01*
Y191249D01*
X250786D01*
Y194248D01*
Y188250D01*
X234792Y173250D02*
Y179248D01*
X237791D01*
X238790Y178248D01*
Y176249D01*
X237791Y175249D01*
X234792D01*
X240790Y179248D02*
X244788D01*
X242789D01*
Y173250D01*
X246788Y179248D02*
Y173250D01*
Y176249D01*
X250786D01*
Y179248D01*
Y173250D01*
X234792Y158250D02*
Y164248D01*
X237791D01*
X238790Y163248D01*
Y161249D01*
X237791Y160249D01*
X234792D01*
X240790Y164248D02*
X244788D01*
X242789D01*
Y158250D01*
X246788Y164248D02*
Y158250D01*
Y161249D01*
X250786D01*
Y164248D01*
Y158250D01*
X128822Y209248D02*
X126823Y208248D01*
X124824Y206249D01*
Y204250D01*
X125823Y203250D01*
X127823D01*
X128822Y204250D01*
Y205249D01*
X127823Y206249D01*
X124824D01*
X130822Y208248D02*
X131821Y209248D01*
X133821D01*
X134820Y208248D01*
Y207249D01*
X133821Y206249D01*
X134820Y205249D01*
Y204250D01*
X133821Y203250D01*
X131821D01*
X130822Y204250D01*
Y205249D01*
X131821Y206249D01*
X130822Y207249D01*
Y208248D01*
X131821Y206249D02*
X133821D01*
X136820Y203250D02*
Y204250D01*
X137820D01*
Y203250D01*
X136820D01*
X141818Y204250D02*
X142818Y203250D01*
X144817D01*
X145817Y204250D01*
Y208248D01*
X144817Y209248D01*
X142818D01*
X141818Y208248D01*
Y207249D01*
X142818Y206249D01*
X145817D01*
X147816Y208248D02*
X148816Y209248D01*
X150815D01*
X151815Y208248D01*
Y204250D01*
X150815Y203250D01*
X148816D01*
X147816Y204250D01*
Y208248D01*
X153814Y203250D02*
Y207249D01*
X154814D01*
X155814Y206249D01*
Y203250D01*
Y206249D01*
X156813Y207249D01*
X157813Y206249D01*
Y203250D01*
X159812D02*
X161812D01*
X160812D01*
Y207249D01*
X159812D01*
X164811Y203250D02*
X166810D01*
X165810D01*
Y209248D01*
X164811D01*
X177806Y203250D02*
X175807Y205249D01*
Y207249D01*
X177806Y209248D01*
X180806Y203250D02*
X182805D01*
X181805D01*
Y209248D01*
X180806Y208248D01*
X185804Y203250D02*
Y204250D01*
X186804D01*
Y203250D01*
X185804D01*
X190802Y209248D02*
X194801D01*
Y208248D01*
X190802Y204250D01*
Y203250D01*
X200799Y209248D02*
X196800D01*
Y206249D01*
X198800Y207249D01*
X199799D01*
X200799Y206249D01*
Y204250D01*
X199799Y203250D01*
X197800D01*
X196800Y204250D01*
X202798Y208248D02*
X203798Y209248D01*
X205797D01*
X206797Y208248D01*
Y204250D01*
X205797Y203250D01*
X203798D01*
X202798Y204250D01*
Y208248D01*
X208797Y203250D02*
Y207249D01*
X209796D01*
X210796Y206249D01*
Y203250D01*
Y206249D01*
X211795Y207249D01*
X212795Y206249D01*
Y203250D01*
X214794D02*
Y207249D01*
X215794D01*
X216794Y206249D01*
Y203250D01*
Y206249D01*
X217794Y207249D01*
X218793Y206249D01*
Y203250D01*
X220793D02*
X222792Y205249D01*
Y207249D01*
X220793Y209248D01*
X128822Y194248D02*
X126823Y193248D01*
X124824Y191249D01*
Y189250D01*
X125823Y188250D01*
X127823D01*
X128822Y189250D01*
Y190249D01*
X127823Y191249D01*
X124824D01*
X130822Y193248D02*
X131821Y194248D01*
X133821D01*
X134820Y193248D01*
Y192249D01*
X133821Y191249D01*
X134820Y190249D01*
Y189250D01*
X133821Y188250D01*
X131821D01*
X130822Y189250D01*
Y190249D01*
X131821Y191249D01*
X130822Y192249D01*
Y193248D01*
X131821Y191249D02*
X133821D01*
X136820Y188250D02*
Y189250D01*
X137820D01*
Y188250D01*
X136820D01*
X141818Y189250D02*
X142818Y188250D01*
X144817D01*
X145817Y189250D01*
Y193248D01*
X144817Y194248D01*
X142818D01*
X141818Y193248D01*
Y192249D01*
X142818Y191249D01*
X145817D01*
X147816Y193248D02*
X148816Y194248D01*
X150815D01*
X151815Y193248D01*
Y189250D01*
X150815Y188250D01*
X148816D01*
X147816Y189250D01*
Y193248D01*
X153814Y188250D02*
Y192249D01*
X154814D01*
X155814Y191249D01*
Y188250D01*
Y191249D01*
X156813Y192249D01*
X157813Y191249D01*
Y188250D01*
X159812D02*
X161812D01*
X160812D01*
Y192249D01*
X159812D01*
X164811Y188250D02*
X166810D01*
X165810D01*
Y194248D01*
X164811D01*
X177806Y188250D02*
X175807Y190249D01*
Y192249D01*
X177806Y194248D01*
X180806Y188250D02*
X182805D01*
X181805D01*
Y194248D01*
X180806Y193248D01*
X185804Y188250D02*
Y189250D01*
X186804D01*
Y188250D01*
X185804D01*
X190802Y194248D02*
X194801D01*
Y193248D01*
X190802Y189250D01*
Y188250D01*
X200799Y194248D02*
X196800D01*
Y191249D01*
X198800Y192249D01*
X199799D01*
X200799Y191249D01*
Y189250D01*
X199799Y188250D01*
X197800D01*
X196800Y189250D01*
X202798Y193248D02*
X203798Y194248D01*
X205797D01*
X206797Y193248D01*
Y189250D01*
X205797Y188250D01*
X203798D01*
X202798Y189250D01*
Y193248D01*
X208797Y188250D02*
Y192249D01*
X209796D01*
X210796Y191249D01*
Y188250D01*
Y191249D01*
X211795Y192249D01*
X212795Y191249D01*
Y188250D01*
X214794D02*
Y192249D01*
X215794D01*
X216794Y191249D01*
Y188250D01*
Y191249D01*
X217794Y192249D01*
X218793Y191249D01*
Y188250D01*
X220793D02*
X222792Y190249D01*
Y192249D01*
X220793Y194248D01*
X124824Y178248D02*
X125823Y179248D01*
X127823D01*
X128822Y178248D01*
Y177249D01*
X127823Y176249D01*
X126823D01*
X127823D01*
X128822Y175249D01*
Y174250D01*
X127823Y173250D01*
X125823D01*
X124824Y174250D01*
X134820Y179248D02*
X130822D01*
Y176249D01*
X132821Y177249D01*
X133821D01*
X134820Y176249D01*
Y174250D01*
X133821Y173250D01*
X131821D01*
X130822Y174250D01*
X136820Y173250D02*
Y174250D01*
X137820D01*
Y173250D01*
X136820D01*
X144817D02*
Y179248D01*
X141818Y176249D01*
X145817D01*
X147816Y178248D02*
X148816Y179248D01*
X150815D01*
X151815Y178248D01*
Y177249D01*
X150815Y176249D01*
X149816D01*
X150815D01*
X151815Y175249D01*
Y174250D01*
X150815Y173250D01*
X148816D01*
X147816Y174250D01*
X153814Y173250D02*
Y177249D01*
X154814D01*
X155814Y176249D01*
Y173250D01*
Y176249D01*
X156813Y177249D01*
X157813Y176249D01*
Y173250D01*
X159812D02*
X161812D01*
X160812D01*
Y177249D01*
X159812D01*
X164811Y173250D02*
X166810D01*
X165810D01*
Y179248D01*
X164811D01*
X177806Y173250D02*
X175807Y175249D01*
Y177249D01*
X177806Y179248D01*
X180806Y178248D02*
X181805Y179248D01*
X183805D01*
X184804Y178248D01*
Y174250D01*
X183805Y173250D01*
X181805D01*
X180806Y174250D01*
Y178248D01*
X186804Y173250D02*
Y174250D01*
X187803D01*
Y173250D01*
X186804D01*
X191802Y174250D02*
X192802Y173250D01*
X194801D01*
X195801Y174250D01*
Y178248D01*
X194801Y179248D01*
X192802D01*
X191802Y178248D01*
Y177249D01*
X192802Y176249D01*
X195801D01*
X197800Y178248D02*
X198800Y179248D01*
X200799D01*
X201799Y178248D01*
Y174250D01*
X200799Y173250D01*
X198800D01*
X197800Y174250D01*
Y178248D01*
X203798D02*
X204798Y179248D01*
X206797D01*
X207797Y178248D01*
Y174250D01*
X206797Y173250D01*
X204798D01*
X203798Y174250D01*
Y178248D01*
X209796Y173250D02*
Y177249D01*
X210796D01*
X211795Y176249D01*
Y173250D01*
Y176249D01*
X212795Y177249D01*
X213795Y176249D01*
Y173250D01*
X215794D02*
Y177249D01*
X216794D01*
X217794Y176249D01*
Y173250D01*
Y176249D01*
X218793Y177249D01*
X219793Y176249D01*
Y173250D01*
X221792D02*
X223792Y175249D01*
Y177249D01*
X221792Y179248D01*
X124824Y158250D02*
X126823D01*
X125823D01*
Y164248D01*
X124824Y163248D01*
X133821Y158250D02*
X129822D01*
X133821Y162249D01*
Y163248D01*
X132821Y164248D01*
X130822D01*
X129822Y163248D01*
X135820Y158250D02*
Y159250D01*
X136820D01*
Y158250D01*
X135820D01*
X140819Y163248D02*
X141818Y164248D01*
X143817D01*
X144817Y163248D01*
Y159250D01*
X143817Y158250D01*
X141818D01*
X140819Y159250D01*
Y163248D01*
X146817D02*
X147816Y164248D01*
X149816D01*
X150815Y163248D01*
Y159250D01*
X149816Y158250D01*
X147816D01*
X146817Y159250D01*
Y163248D01*
X152815Y158250D02*
Y162249D01*
X153814D01*
X154814Y161249D01*
Y158250D01*
Y161249D01*
X155814Y162249D01*
X156813Y161249D01*
Y158250D01*
X158813D02*
X160812D01*
X159812D01*
Y162249D01*
X158813D01*
X163811Y158250D02*
X165810D01*
X164811D01*
Y164248D01*
X163811D01*
X176807Y158250D02*
X174808Y160249D01*
Y162249D01*
X176807Y164248D01*
X179806Y163248D02*
X180806Y164248D01*
X182805D01*
X183805Y163248D01*
Y159250D01*
X182805Y158250D01*
X180806D01*
X179806Y159250D01*
Y163248D01*
X185804Y158250D02*
Y159250D01*
X186804D01*
Y158250D01*
X185804D01*
X190802Y163248D02*
X191802Y164248D01*
X193801D01*
X194801Y163248D01*
Y162249D01*
X193801Y161249D01*
X192802D01*
X193801D01*
X194801Y160249D01*
Y159250D01*
X193801Y158250D01*
X191802D01*
X190802Y159250D01*
X196800Y163248D02*
X197800Y164248D01*
X199799D01*
X200799Y163248D01*
Y159250D01*
X199799Y158250D01*
X197800D01*
X196800Y159250D01*
Y163248D01*
X206797Y164248D02*
X202798D01*
Y161249D01*
X204798Y162249D01*
X205797D01*
X206797Y161249D01*
Y159250D01*
X205797Y158250D01*
X203798D01*
X202798Y159250D01*
X208797Y158250D02*
Y162249D01*
X209796D01*
X210796Y161249D01*
Y158250D01*
Y161249D01*
X211795Y162249D01*
X212795Y161249D01*
Y158250D01*
X214794D02*
Y162249D01*
X215794D01*
X216794Y161249D01*
Y158250D01*
Y161249D01*
X217794Y162249D01*
X218793Y161249D01*
Y158250D01*
X220793D02*
X222792Y160249D01*
Y162249D01*
X220793Y164248D01*
X70838Y149248D02*
X74836D01*
Y148248D01*
X70838Y144250D01*
Y143250D01*
X79835D02*
Y149248D01*
X76836Y146249D01*
X80834D01*
X88832Y149248D02*
X92830D01*
X90831D01*
Y143250D01*
X95829D02*
X97829D01*
X98829Y144250D01*
Y146249D01*
X97829Y147249D01*
X95829D01*
X94830Y146249D01*
Y144250D01*
X95829Y143250D01*
X101828Y148248D02*
Y147249D01*
X100828D01*
X102827D01*
X101828D01*
Y144250D01*
X102827Y143250D01*
X106826Y147249D02*
X108825D01*
X109825Y146249D01*
Y143250D01*
X106826D01*
X105826Y144250D01*
X106826Y145249D01*
X109825D01*
X111824Y143250D02*
X113824D01*
X112824D01*
Y149248D01*
X111824D01*
X70838Y203250D02*
X72837D01*
X71837D01*
Y209248D01*
X70838Y208248D01*
Y188250D02*
X72837D01*
X71837D01*
Y194248D01*
X70838Y193248D01*
X74836Y179248D02*
X70838D01*
Y176249D01*
X72837Y177249D01*
X73837D01*
X74836Y176249D01*
Y174250D01*
X73837Y173250D01*
X71837D01*
X70838Y174250D01*
X74836Y164248D02*
X72837Y163248D01*
X70838Y161249D01*
Y159250D01*
X71837Y158250D01*
X73837D01*
X74836Y159250D01*
Y160249D01*
X73837Y161249D01*
X70838D01*
X76836Y164248D02*
X80834D01*
Y163248D01*
X76836Y159250D01*
Y158250D01*
D17*
X11250Y213750D02*
X1064358D01*
X11250Y153750D02*
X1064358D01*
X11250Y138750D02*
X1064358D01*
Y228750D01*
X11250D02*
X1064358D01*
X11250Y138750D02*
Y228750D01*
X926497Y138750D02*
Y228750D01*
X793136Y138750D02*
Y228750D01*
X707760Y138750D02*
Y228750D01*
X637779Y138750D02*
Y228750D01*
X563199Y138750D02*
Y228750D01*
X504214Y138750D02*
Y228750D01*
X354259Y138750D02*
Y228750D01*
X280879Y138750D02*
Y228750D01*
X230292Y138750D02*
Y228750D01*
X120324Y138750D02*
Y228750D01*
X66338Y138750D02*
Y228750D01*
D23*
X23908Y90138D02*
X24908Y90638D01*
X25908Y90138D01*
X25408Y91138D02*
X25908Y90138D01*
X25408Y91138D02*
X25908Y92138D01*
X24908Y91638D02*
X25908Y92138D01*
X23908D02*
X24908Y91638D01*
X23908Y92138D02*
X24408Y91138D01*
X23908Y90138D02*
X24408Y91138D01*
X23908Y78339D02*
X24908Y78839D01*
X25908Y78339D01*
X25408Y79339D02*
X25908Y78339D01*
X25408Y79339D02*
X25908Y80339D01*
X24908Y79839D02*
X25908Y80339D01*
X23908D02*
X24908Y79839D01*
X23908Y80339D02*
X24408Y79339D01*
X23908Y78339D02*
X24408Y79339D01*
X23908Y66539D02*
X24908Y67039D01*
X25908Y66539D01*
X25408Y67538D02*
X25908Y66539D01*
X25408Y67538D02*
X25908Y68538D01*
X24908Y68038D02*
X25908Y68538D01*
X23908D02*
X24908Y68038D01*
X23908Y68538D02*
X24408Y67538D01*
X23908Y66539D02*
X24408Y67538D01*
X23908Y42939D02*
X24908Y43439D01*
X25908Y42939D01*
X25408Y43939D02*
X25908Y42939D01*
X25408Y43939D02*
X25908Y44939D01*
X24908Y44439D02*
X25908Y44939D01*
X23908D02*
X24908Y44439D01*
X23908Y44939D02*
X24408Y43939D01*
X23908Y42939D02*
X24408Y43939D01*
X23908Y54739D02*
X24908Y55239D01*
X25908Y54739D01*
X25408Y55739D02*
X25908Y54739D01*
X25408Y55739D02*
X25908Y56739D01*
X24908Y56239D02*
X25908Y56739D01*
X23908D02*
X24908Y56239D01*
X23908Y56739D02*
X24408Y55739D01*
X23908Y54739D02*
X24408Y55739D01*
X23908Y31139D02*
X24908Y31639D01*
X25908Y31139D01*
X25408Y32139D02*
X25908Y31139D01*
X25408Y32139D02*
X25908Y33139D01*
X24908Y32639D02*
X25908Y33139D01*
X23908D02*
X24908Y32639D01*
X23908Y33139D02*
X24408Y32139D01*
X23908Y31139D02*
X24408Y32139D01*
X23908Y19339D02*
X24908Y19839D01*
X25908Y19339D01*
X25408Y20339D02*
X25908Y19339D01*
X25408Y20339D02*
X25908Y21339D01*
X24908Y20839D02*
X25908Y21339D01*
X23908D02*
X24908Y20839D01*
X23908Y21339D02*
X24408Y20339D01*
X23908Y19339D02*
X24408Y20339D01*
X35780Y19339D02*
X36780Y19839D01*
X37780Y19339D01*
X37280Y20339D02*
X37780Y19339D01*
X37280Y20339D02*
X37780Y21339D01*
X36780Y20839D02*
X37780Y21339D01*
X35780D02*
X36780Y20839D01*
X35780Y21339D02*
X36280Y20339D01*
X35780Y19339D02*
X36280Y20339D01*
X35780Y31139D02*
X36780Y31639D01*
X37780Y31139D01*
X37280Y32139D02*
X37780Y31139D01*
X37280Y32139D02*
X37780Y33139D01*
X36780Y32639D02*
X37780Y33139D01*
X35780D02*
X36780Y32639D01*
X35780Y33139D02*
X36280Y32139D01*
X35780Y31139D02*
X36280Y32139D01*
X35780Y54739D02*
X36780Y55239D01*
X37780Y54739D01*
X37280Y55739D02*
X37780Y54739D01*
X37280Y55739D02*
X37780Y56739D01*
X36780Y56239D02*
X37780Y56739D01*
X35780D02*
X36780Y56239D01*
X35780Y56739D02*
X36280Y55739D01*
X35780Y54739D02*
X36280Y55739D01*
X35780Y42939D02*
X36780Y43439D01*
X37780Y42939D01*
X37280Y43939D02*
X37780Y42939D01*
X37280Y43939D02*
X37780Y44939D01*
X36780Y44439D02*
X37780Y44939D01*
X35780D02*
X36780Y44439D01*
X35780Y44939D02*
X36280Y43939D01*
X35780Y42939D02*
X36280Y43939D01*
X35780Y66539D02*
X36780Y67039D01*
X37780Y66539D01*
X37280Y67538D02*
X37780Y66539D01*
X37280Y67538D02*
X37780Y68538D01*
X36780Y68038D02*
X37780Y68538D01*
X35780D02*
X36780Y68038D01*
X35780Y68538D02*
X36280Y67538D01*
X35780Y66539D02*
X36280Y67538D01*
X35780Y78339D02*
X36780Y78839D01*
X37780Y78339D01*
X37280Y79339D02*
X37780Y78339D01*
X37280Y79339D02*
X37780Y80339D01*
X36780Y79839D02*
X37780Y80339D01*
X35780D02*
X36780Y79839D01*
X35780Y80339D02*
X36280Y79339D01*
X35780Y78339D02*
X36280Y79339D01*
X35780Y90138D02*
X36780Y90638D01*
X37780Y90138D01*
X37280Y91138D02*
X37780Y90138D01*
X37280Y91138D02*
X37780Y92138D01*
X36780Y91638D02*
X37780Y92138D01*
X35780D02*
X36780Y91638D01*
X35780Y92138D02*
X36280Y91138D01*
X35780Y90138D02*
X36280Y91138D01*
X47651Y31139D02*
X48651Y31639D01*
X49651Y31139D01*
X49151Y32139D02*
X49651Y31139D01*
X49151Y32139D02*
X49651Y33139D01*
X48651Y32639D02*
X49651Y33139D01*
X47651D02*
X48651Y32639D01*
X47651Y33139D02*
X48151Y32139D01*
X47651Y31139D02*
X48151Y32139D01*
X47651Y54739D02*
X48651Y55239D01*
X49651Y54739D01*
X49151Y55739D02*
X49651Y54739D01*
X49151Y55739D02*
X49651Y56739D01*
X48651Y56239D02*
X49651Y56739D01*
X47651D02*
X48651Y56239D01*
X47651Y56739D02*
X48151Y55739D01*
X47651Y54739D02*
X48151Y55739D01*
X47651Y42939D02*
X48651Y43439D01*
X49651Y42939D01*
X49151Y43939D02*
X49651Y42939D01*
X49151Y43939D02*
X49651Y44939D01*
X48651Y44439D02*
X49651Y44939D01*
X47651D02*
X48651Y44439D01*
X47651Y44939D02*
X48151Y43939D01*
X47651Y42939D02*
X48151Y43939D01*
X47651Y66539D02*
X48651Y67039D01*
X49651Y66539D01*
X49151Y67538D02*
X49651Y66539D01*
X49151Y67538D02*
X49651Y68538D01*
X48651Y68038D02*
X49651Y68538D01*
X47651D02*
X48651Y68038D01*
X47651Y68538D02*
X48151Y67538D01*
X47651Y66539D02*
X48151Y67538D01*
X47651Y78339D02*
X48651Y78839D01*
X49651Y78339D01*
X49151Y79339D02*
X49651Y78339D01*
X49151Y79339D02*
X49651Y80339D01*
X48651Y79839D02*
X49651Y80339D01*
X47651D02*
X48651Y79839D01*
X47651Y80339D02*
X48151Y79339D01*
X47651Y78339D02*
X48151Y79339D01*
X59522Y19339D02*
X60522Y19839D01*
X61522Y19339D01*
X61022Y20339D02*
X61522Y19339D01*
X61022Y20339D02*
X61522Y21339D01*
X60522Y20839D02*
X61522Y21339D01*
X59522D02*
X60522Y20839D01*
X59522Y21339D02*
X60022Y20339D01*
X59522Y19339D02*
X60022Y20339D01*
X59522Y31139D02*
X60522Y31639D01*
X61522Y31139D01*
X61022Y32139D02*
X61522Y31139D01*
X61022Y32139D02*
X61522Y33139D01*
X60522Y32639D02*
X61522Y33139D01*
X59522D02*
X60522Y32639D01*
X59522Y33139D02*
X60022Y32139D01*
X59522Y31139D02*
X60022Y32139D01*
X59522Y54739D02*
X60522Y55239D01*
X61522Y54739D01*
X61022Y55739D02*
X61522Y54739D01*
X61022Y55739D02*
X61522Y56739D01*
X60522Y56239D02*
X61522Y56739D01*
X59522D02*
X60522Y56239D01*
X59522Y56739D02*
X60022Y55739D01*
X59522Y54739D02*
X60022Y55739D01*
X59522Y42939D02*
X60522Y43439D01*
X61522Y42939D01*
X61022Y43939D02*
X61522Y42939D01*
X61022Y43939D02*
X61522Y44939D01*
X60522Y44439D02*
X61522Y44939D01*
X59522D02*
X60522Y44439D01*
X59522Y44939D02*
X60022Y43939D01*
X59522Y42939D02*
X60022Y43939D01*
X59522Y66539D02*
X60522Y67039D01*
X61522Y66539D01*
X61022Y67538D02*
X61522Y66539D01*
X61022Y67538D02*
X61522Y68538D01*
X60522Y68038D02*
X61522Y68538D01*
X59522D02*
X60522Y68038D01*
X59522Y68538D02*
X60022Y67538D01*
X59522Y66539D02*
X60022Y67538D01*
X59522Y78339D02*
X60522Y78839D01*
X61522Y78339D01*
X61022Y79339D02*
X61522Y78339D01*
X61022Y79339D02*
X61522Y80339D01*
X60522Y79839D02*
X61522Y80339D01*
X59522D02*
X60522Y79839D01*
X59522Y80339D02*
X60022Y79339D01*
X59522Y78339D02*
X60022Y79339D01*
X59522Y90138D02*
X60522Y90638D01*
X61522Y90138D01*
X61022Y91138D02*
X61522Y90138D01*
X61022Y91138D02*
X61522Y92138D01*
X60522Y91638D02*
X61522Y92138D01*
X59522D02*
X60522Y91638D01*
X59522Y92138D02*
X60022Y91138D01*
X59522Y90138D02*
X60022Y91138D01*
X71394Y31139D02*
X72394Y31639D01*
X73394Y31139D01*
X72894Y32139D02*
X73394Y31139D01*
X72894Y32139D02*
X73394Y33139D01*
X72394Y32639D02*
X73394Y33139D01*
X71394D02*
X72394Y32639D01*
X71394Y33139D02*
X71894Y32139D01*
X71394Y31139D02*
X71894Y32139D01*
X71394Y54739D02*
X72394Y55239D01*
X73394Y54739D01*
X72894Y55739D02*
X73394Y54739D01*
X72894Y55739D02*
X73394Y56739D01*
X72394Y56239D02*
X73394Y56739D01*
X71394D02*
X72394Y56239D01*
X71394Y56739D02*
X71894Y55739D01*
X71394Y54739D02*
X71894Y55739D01*
X71394Y42939D02*
X72394Y43439D01*
X73394Y42939D01*
X72894Y43939D02*
X73394Y42939D01*
X72894Y43939D02*
X73394Y44939D01*
X72394Y44439D02*
X73394Y44939D01*
X71394D02*
X72394Y44439D01*
X71394Y44939D02*
X71894Y43939D01*
X71394Y42939D02*
X71894Y43939D01*
X71394Y66539D02*
X72394Y67039D01*
X73394Y66539D01*
X72894Y67538D02*
X73394Y66539D01*
X72894Y67538D02*
X73394Y68538D01*
X72394Y68038D02*
X73394Y68538D01*
X71394D02*
X72394Y68038D01*
X71394Y68538D02*
X71894Y67538D01*
X71394Y66539D02*
X71894Y67538D01*
X71394Y78339D02*
X72394Y78839D01*
X73394Y78339D01*
X72894Y79339D02*
X73394Y78339D01*
X72894Y79339D02*
X73394Y80339D01*
X72394Y79839D02*
X73394Y80339D01*
X71394D02*
X72394Y79839D01*
X71394Y80339D02*
X71894Y79339D01*
X71394Y78339D02*
X71894Y79339D01*
X71394Y90138D02*
X72394Y90638D01*
X73394Y90138D01*
X72894Y91138D02*
X73394Y90138D01*
X72894Y91138D02*
X73394Y92138D01*
X72394Y91638D02*
X73394Y92138D01*
X71394D02*
X72394Y91638D01*
X71394Y92138D02*
X71894Y91138D01*
X71394Y90138D02*
X71894Y91138D01*
X83265Y31139D02*
X84265Y31639D01*
X85265Y31139D01*
X84765Y32139D02*
X85265Y31139D01*
X84765Y32139D02*
X85265Y33139D01*
X84265Y32639D02*
X85265Y33139D01*
X83265D02*
X84265Y32639D01*
X83265Y33139D02*
X83765Y32139D01*
X83265Y31139D02*
X83765Y32139D01*
X83265Y54739D02*
X84265Y55239D01*
X85265Y54739D01*
X84765Y55739D02*
X85265Y54739D01*
X84765Y55739D02*
X85265Y56739D01*
X84265Y56239D02*
X85265Y56739D01*
X83265D02*
X84265Y56239D01*
X83265Y56739D02*
X83765Y55739D01*
X83265Y54739D02*
X83765Y55739D01*
X83265Y42939D02*
X84265Y43439D01*
X85265Y42939D01*
X84765Y43939D02*
X85265Y42939D01*
X84765Y43939D02*
X85265Y44939D01*
X84265Y44439D02*
X85265Y44939D01*
X83265D02*
X84265Y44439D01*
X83265Y44939D02*
X83765Y43939D01*
X83265Y42939D02*
X83765Y43939D01*
X83265Y66539D02*
X84265Y67039D01*
X85265Y66539D01*
X84765Y67538D02*
X85265Y66539D01*
X84765Y67538D02*
X85265Y68538D01*
X84265Y68038D02*
X85265Y68538D01*
X83265D02*
X84265Y68038D01*
X83265Y68538D02*
X83765Y67538D01*
X83265Y66539D02*
X83765Y67538D01*
X83265Y78339D02*
X84265Y78839D01*
X85265Y78339D01*
X84765Y79339D02*
X85265Y78339D01*
X84765Y79339D02*
X85265Y80339D01*
X84265Y79839D02*
X85265Y80339D01*
X83265D02*
X84265Y79839D01*
X83265Y80339D02*
X83765Y79339D01*
X83265Y78339D02*
X83765Y79339D01*
X95137Y31139D02*
X96137Y31639D01*
X97137Y31139D01*
X96637Y32139D02*
X97137Y31139D01*
X96637Y32139D02*
X97137Y33139D01*
X96137Y32639D02*
X97137Y33139D01*
X95137D02*
X96137Y32639D01*
X95137Y33139D02*
X95637Y32139D01*
X95137Y31139D02*
X95637Y32139D01*
X95137Y54739D02*
X96137Y55239D01*
X97137Y54739D01*
X96637Y55739D02*
X97137Y54739D01*
X96637Y55739D02*
X97137Y56739D01*
X96137Y56239D02*
X97137Y56739D01*
X95137D02*
X96137Y56239D01*
X95137Y56739D02*
X95637Y55739D01*
X95137Y54739D02*
X95637Y55739D01*
X95137Y42939D02*
X96137Y43439D01*
X97137Y42939D01*
X96637Y43939D02*
X97137Y42939D01*
X96637Y43939D02*
X97137Y44939D01*
X96137Y44439D02*
X97137Y44939D01*
X95137D02*
X96137Y44439D01*
X95137Y44939D02*
X95637Y43939D01*
X95137Y42939D02*
X95637Y43939D01*
X95137Y66539D02*
X96137Y67039D01*
X97137Y66539D01*
X96637Y67538D02*
X97137Y66539D01*
X96637Y67538D02*
X97137Y68538D01*
X96137Y68038D02*
X97137Y68538D01*
X95137D02*
X96137Y68038D01*
X95137Y68538D02*
X95637Y67538D01*
X95137Y66539D02*
X95637Y67538D01*
X95137Y78339D02*
X96137Y78839D01*
X97137Y78339D01*
X96637Y79339D02*
X97137Y78339D01*
X96637Y79339D02*
X97137Y80339D01*
X96137Y79839D02*
X97137Y80339D01*
X95137D02*
X96137Y79839D01*
X95137Y80339D02*
X95637Y79339D01*
X95137Y78339D02*
X95637Y79339D01*
X95137Y90138D02*
X96137Y90638D01*
X97137Y90138D01*
X96637Y91138D02*
X97137Y90138D01*
X96637Y91138D02*
X97137Y92138D01*
X96137Y91638D02*
X97137Y92138D01*
X95137D02*
X96137Y91638D01*
X95137Y92138D02*
X95637Y91138D01*
X95137Y90138D02*
X95637Y91138D01*
X107008Y19339D02*
X108008Y19839D01*
X109008Y19339D01*
X108508Y20339D02*
X109008Y19339D01*
X108508Y20339D02*
X109008Y21339D01*
X108008Y20839D02*
X109008Y21339D01*
X107008D02*
X108008Y20839D01*
X107008Y21339D02*
X107508Y20339D01*
X107008Y19339D02*
X107508Y20339D01*
X107008Y31139D02*
X108008Y31639D01*
X109008Y31139D01*
X108508Y32139D02*
X109008Y31139D01*
X108508Y32139D02*
X109008Y33139D01*
X108008Y32639D02*
X109008Y33139D01*
X107008D02*
X108008Y32639D01*
X107008Y33139D02*
X107508Y32139D01*
X107008Y31139D02*
X107508Y32139D01*
X107008Y54739D02*
X108008Y55239D01*
X109008Y54739D01*
X108508Y55739D02*
X109008Y54739D01*
X108508Y55739D02*
X109008Y56739D01*
X108008Y56239D02*
X109008Y56739D01*
X107008D02*
X108008Y56239D01*
X107008Y56739D02*
X107508Y55739D01*
X107008Y54739D02*
X107508Y55739D01*
X107008Y42939D02*
X108008Y43439D01*
X109008Y42939D01*
X108508Y43939D02*
X109008Y42939D01*
X108508Y43939D02*
X109008Y44939D01*
X108008Y44439D02*
X109008Y44939D01*
X107008D02*
X108008Y44439D01*
X107008Y44939D02*
X107508Y43939D01*
X107008Y42939D02*
X107508Y43939D01*
X107008Y66539D02*
X108008Y67039D01*
X109008Y66539D01*
X108508Y67538D02*
X109008Y66539D01*
X108508Y67538D02*
X109008Y68538D01*
X108008Y68038D02*
X109008Y68538D01*
X107008D02*
X108008Y68038D01*
X107008Y68538D02*
X107508Y67538D01*
X107008Y66539D02*
X107508Y67538D01*
X107008Y78339D02*
X108008Y78839D01*
X109008Y78339D01*
X108508Y79339D02*
X109008Y78339D01*
X108508Y79339D02*
X109008Y80339D01*
X108008Y79839D02*
X109008Y80339D01*
X107008D02*
X108008Y79839D01*
X107008Y80339D02*
X107508Y79339D01*
X107008Y78339D02*
X107508Y79339D01*
X107008Y90138D02*
X108008Y90638D01*
X109008Y90138D01*
X108508Y91138D02*
X109008Y90138D01*
X108508Y91138D02*
X109008Y92138D01*
X108008Y91638D02*
X109008Y92138D01*
X107008D02*
X108008Y91638D01*
X107008Y92138D02*
X107508Y91138D01*
X107008Y90138D02*
X107508Y91138D01*
X107432Y96052D02*
X108432Y96552D01*
X109432Y96052D01*
X108932Y97052D02*
X109432Y96052D01*
X108932Y97052D02*
X109432Y98052D01*
X108432Y97552D02*
X109432Y98052D01*
X107432D02*
X108432Y97552D01*
X107432Y98052D02*
X107932Y97052D01*
X107432Y96052D02*
X107932Y97052D01*
X83265Y90138D02*
X84265Y90638D01*
X85265Y90138D01*
X84765Y91138D02*
X85265Y90138D01*
X84765Y91138D02*
X85265Y92138D01*
X84265Y91638D02*
X85265Y92138D01*
X83265D02*
X84265Y91638D01*
X83265Y92138D02*
X83765Y91138D01*
X83265Y90138D02*
X83765Y91138D01*
X47651Y90138D02*
X48651Y90638D01*
X49651Y90138D01*
X49151Y91138D02*
X49651Y90138D01*
X49151Y91138D02*
X49651Y92138D01*
X48651Y91638D02*
X49651Y92138D01*
X47651D02*
X48651Y91638D01*
X47651Y92138D02*
X48151Y91138D01*
X47651Y90138D02*
X48151Y91138D01*
X13500Y90000D02*
X14500Y90500D01*
X15500Y90000D01*
X15000Y91000D02*
X15500Y90000D01*
X15000Y91000D02*
X15500Y92000D01*
X14500Y91500D02*
X15500Y92000D01*
X13500D02*
X14500Y91500D01*
X13500Y92000D02*
X14000Y91000D01*
X13500Y90000D02*
X14000Y91000D01*
X13500Y78200D02*
X14500Y78700D01*
X15500Y78200D01*
X15000Y79200D02*
X15500Y78200D01*
X15000Y79200D02*
X15500Y80200D01*
X14500Y79700D02*
X15500Y80200D01*
X13500D02*
X14500Y79700D01*
X13500Y80200D02*
X14000Y79200D01*
X13500Y78200D02*
X14000Y79200D01*
X107432Y84252D02*
X108432Y84752D01*
X109432Y84252D01*
X108932Y85252D02*
X109432Y84252D01*
X108932Y85252D02*
X109432Y86252D01*
X108432Y85752D02*
X109432Y86252D01*
X107432D02*
X108432Y85752D01*
X107432Y86252D02*
X107932Y85252D01*
X107432Y84252D02*
X107932Y85252D01*
X13500Y66400D02*
X14500Y66900D01*
X15500Y66400D01*
X15000Y67400D02*
X15500Y66400D01*
X15000Y67400D02*
X15500Y68400D01*
X14500Y67900D02*
X15500Y68400D01*
X13500D02*
X14500Y67900D01*
X13500Y68400D02*
X14000Y67400D01*
X13500Y66400D02*
X14000Y67400D01*
X107432Y72452D02*
X108432Y72952D01*
X109432Y72452D01*
X108932Y73452D02*
X109432Y72452D01*
X108932Y73452D02*
X109432Y74452D01*
X108432Y73952D02*
X109432Y74452D01*
X107432D02*
X108432Y73952D01*
X107432Y74452D02*
X107932Y73452D01*
X107432Y72452D02*
X107932Y73452D01*
X13500Y54600D02*
X14500Y55100D01*
X15500Y54600D01*
X15000Y55600D02*
X15500Y54600D01*
X15000Y55600D02*
X15500Y56600D01*
X14500Y56100D02*
X15500Y56600D01*
X13500D02*
X14500Y56100D01*
X13500Y56600D02*
X14000Y55600D01*
X13500Y54600D02*
X14000Y55600D01*
X107432Y60652D02*
X108432Y61152D01*
X109432Y60652D01*
X108932Y61652D02*
X109432Y60652D01*
X108932Y61652D02*
X109432Y62652D01*
X108432Y62152D02*
X109432Y62652D01*
X107432D02*
X108432Y62152D01*
X107432Y62652D02*
X107932Y61652D01*
X107432Y60652D02*
X107932Y61652D01*
X13500Y42800D02*
X14500Y43300D01*
X15500Y42800D01*
X15000Y43800D02*
X15500Y42800D01*
X15000Y43800D02*
X15500Y44800D01*
X14500Y44300D02*
X15500Y44800D01*
X13500D02*
X14500Y44300D01*
X13500Y44800D02*
X14000Y43800D01*
X13500Y42800D02*
X14000Y43800D01*
X107432Y48852D02*
X108432Y49352D01*
X109432Y48852D01*
X108932Y49852D02*
X109432Y48852D01*
X108932Y49852D02*
X109432Y50852D01*
X108432Y50352D02*
X109432Y50852D01*
X107432D02*
X108432Y50352D01*
X107432Y50852D02*
X107932Y49852D01*
X107432Y48852D02*
X107932Y49852D01*
X13500Y31000D02*
X14500Y31500D01*
X15500Y31000D01*
X15000Y32000D02*
X15500Y31000D01*
X15000Y32000D02*
X15500Y33000D01*
X14500Y32500D02*
X15500Y33000D01*
X13500D02*
X14500Y32500D01*
X13500Y33000D02*
X14000Y32000D01*
X13500Y31000D02*
X14000Y32000D01*
X107432Y37052D02*
X108432Y37552D01*
X109432Y37052D01*
X108932Y38052D02*
X109432Y37052D01*
X108932Y38052D02*
X109432Y39052D01*
X108432Y38552D02*
X109432Y39052D01*
X107432D02*
X108432Y38552D01*
X107432Y39052D02*
X107932Y38052D01*
X107432Y37052D02*
X107932Y38052D01*
X13500Y19200D02*
X14500Y19700D01*
X15500Y19200D01*
X15000Y20200D02*
X15500Y19200D01*
X15000Y20200D02*
X15500Y21200D01*
X14500Y20700D02*
X15500Y21200D01*
X13500D02*
X14500Y20700D01*
X13500Y21200D02*
X14000Y20200D01*
X13500Y19200D02*
X14000Y20200D01*
X107432Y25252D02*
X108432Y25752D01*
X109432Y25252D01*
X108932Y26252D02*
X109432Y25252D01*
X108932Y26252D02*
X109432Y27252D01*
X108432Y26752D02*
X109432Y27252D01*
X107432D02*
X108432Y26752D01*
X107432Y27252D02*
X107932Y26252D01*
X107432Y25252D02*
X107932Y26252D01*
X15858Y109432D02*
X16358Y108932D01*
X15358Y109432D02*
X15858D01*
X15358D02*
X15858Y109932D01*
X15358Y110432D02*
X15858Y109932D01*
X15358Y110432D02*
X15858D01*
X16358Y110932D01*
X16858Y110432D01*
X17358D01*
X16858Y109932D02*
X17358Y110432D01*
X16858Y109932D02*
X17358Y109432D01*
X16858D02*
X17358D01*
X16358Y108932D02*
X16858Y109432D01*
X105820Y108932D02*
X106820Y110932D01*
X104820D02*
X106820D01*
X104820D02*
X105820Y108932D01*
X47651Y19339D02*
X48651Y19839D01*
X49651Y19339D01*
X49151Y20339D02*
X49651Y19339D01*
X49151Y20339D02*
X49651Y21339D01*
X48651Y20839D02*
X49651Y21339D01*
X47651D02*
X48651Y20839D01*
X47651Y21339D02*
X48151Y20339D01*
X47651Y19339D02*
X48151Y20339D01*
X39589Y108631D02*
X41589D01*
Y110631D01*
X39589D02*
X41589D01*
X39589Y108631D02*
Y110631D01*
X49589Y108631D02*
X51589D01*
Y110631D01*
X49589D02*
X51589D01*
X49589Y108631D02*
Y110631D01*
X59589Y108631D02*
X61589D01*
Y110631D01*
X59589D02*
X61589D01*
X59589Y108631D02*
Y110631D01*
X69589Y108631D02*
X71589D01*
Y110631D01*
X69589D02*
X71589D01*
X69589Y108631D02*
Y110631D01*
X79589Y108631D02*
X81589D01*
Y110631D01*
X79589D02*
X81589D01*
X79589Y108631D02*
Y110631D01*
D24*
X930997Y225448D02*
Y218250D01*
Y221849D01*
X935796D01*
Y225448D01*
Y218250D01*
X939394D02*
X941794D01*
X942993Y219450D01*
Y221849D01*
X941794Y223048D01*
X939394D01*
X938195Y221849D01*
Y219450D01*
X939394Y218250D01*
X945393D02*
X947792D01*
X946592D01*
Y225448D01*
X945393D01*
X954989Y218250D02*
X952590D01*
X951390Y219450D01*
Y221849D01*
X952590Y223048D01*
X954989D01*
X956189Y221849D01*
Y220649D01*
X951390D01*
X965786Y225448D02*
X970584D01*
X968185D01*
Y218250D01*
X974183D02*
X976582D01*
X977782Y219450D01*
Y221849D01*
X976582Y223048D01*
X974183D01*
X972983Y221849D01*
Y219450D01*
X974183Y218250D01*
X980181D02*
X982580D01*
X981381D01*
Y225448D01*
X980181D01*
X989778Y218250D02*
X987379D01*
X986179Y219450D01*
Y221849D01*
X987379Y223048D01*
X989778D01*
X990978Y221849D01*
Y220649D01*
X986179D01*
X993377Y223048D02*
Y218250D01*
Y220649D01*
X994577Y221849D01*
X995776Y223048D01*
X996976D01*
X1001774D02*
X1004173D01*
X1005373Y221849D01*
Y218250D01*
X1001774D01*
X1000575Y219450D01*
X1001774Y220649D01*
X1005373D01*
X1007772Y218250D02*
Y223048D01*
X1011371D01*
X1012571Y221849D01*
Y218250D01*
X1019768Y223048D02*
X1016170D01*
X1014970Y221849D01*
Y219450D01*
X1016170Y218250D01*
X1019768D01*
X1025766D02*
X1023367D01*
X1022168Y219450D01*
Y221849D01*
X1023367Y223048D01*
X1025766D01*
X1026966Y221849D01*
Y220649D01*
X1022168D01*
X1038962Y218250D02*
X1036563Y220649D01*
Y223048D01*
X1038962Y225448D01*
X1042561Y221849D02*
X1047359D01*
X1049759Y218250D02*
X1052158Y220649D01*
Y223048D01*
X1049759Y225448D01*
X797636D02*
Y218250D01*
Y221849D01*
X802435D01*
Y225448D01*
Y218250D01*
X806034D02*
X808433D01*
X809632Y219450D01*
Y221849D01*
X808433Y223048D01*
X806034D01*
X804834Y221849D01*
Y219450D01*
X806034Y218250D01*
X812032D02*
X814431D01*
X813231D01*
Y225448D01*
X812032D01*
X821629Y218250D02*
X819229D01*
X818030Y219450D01*
Y221849D01*
X819229Y223048D01*
X821629D01*
X822828Y221849D01*
Y220649D01*
X818030D01*
X832425Y225448D02*
X837224D01*
X834824D01*
Y218250D01*
X840822D02*
X843222D01*
X844421Y219450D01*
Y221849D01*
X843222Y223048D01*
X840822D01*
X839623Y221849D01*
Y219450D01*
X840822Y218250D01*
X846820D02*
X849220D01*
X848020D01*
Y225448D01*
X846820D01*
X856417Y218250D02*
X854018D01*
X852818Y219450D01*
Y221849D01*
X854018Y223048D01*
X856417D01*
X857617Y221849D01*
Y220649D01*
X852818D01*
X860016Y223048D02*
Y218250D01*
Y220649D01*
X861216Y221849D01*
X862415Y223048D01*
X863615D01*
X868414D02*
X870813D01*
X872012Y221849D01*
Y218250D01*
X868414D01*
X867214Y219450D01*
X868414Y220649D01*
X872012D01*
X874411Y218250D02*
Y223048D01*
X878010D01*
X879210Y221849D01*
Y218250D01*
X886408Y223048D02*
X882809D01*
X881609Y221849D01*
Y219450D01*
X882809Y218250D01*
X886408D01*
X892406D02*
X890007D01*
X888807Y219450D01*
Y221849D01*
X890007Y223048D01*
X892406D01*
X893605Y221849D01*
Y220649D01*
X888807D01*
X905601Y218250D02*
X903202Y220649D01*
Y223048D01*
X905601Y225448D01*
X909200Y221849D02*
X913999D01*
X911600Y224248D02*
Y219450D01*
X916398Y218250D02*
X918797Y220649D01*
Y223048D01*
X916398Y225448D01*
X712260D02*
Y218250D01*
X715859D01*
X717059Y219450D01*
Y224248D01*
X715859Y225448D01*
X712260D01*
X723057Y218250D02*
X720657D01*
X719458Y219450D01*
Y221849D01*
X720657Y223048D01*
X723057D01*
X724256Y221849D01*
Y220649D01*
X719458D01*
X726655Y218250D02*
X730254D01*
X731454Y219450D01*
X730254Y220649D01*
X727855D01*
X726655Y221849D01*
X727855Y223048D01*
X731454D01*
X738652D02*
X735053D01*
X733853Y221849D01*
Y219450D01*
X735053Y218250D01*
X738652D01*
X741051Y223048D02*
Y218250D01*
Y220649D01*
X742250Y221849D01*
X743450Y223048D01*
X744650D01*
X748248Y218250D02*
X750648D01*
X749448D01*
Y223048D01*
X748248D01*
X754247Y215851D02*
Y223048D01*
X757845D01*
X759045Y221849D01*
Y219450D01*
X757845Y218250D01*
X754247D01*
X762644Y224248D02*
Y223048D01*
X761444D01*
X763843D01*
X762644D01*
Y219450D01*
X763843Y218250D01*
X767442D02*
X769841D01*
X768642D01*
Y223048D01*
X767442D01*
X774640Y218250D02*
X777039D01*
X778239Y219450D01*
Y221849D01*
X777039Y223048D01*
X774640D01*
X773440Y221849D01*
Y219450D01*
X774640Y218250D01*
X780638D02*
Y223048D01*
X784237D01*
X785436Y221849D01*
Y218250D01*
X642279Y225448D02*
X647078D01*
X644678D01*
Y218250D01*
X653076D02*
X650676D01*
X649477Y219450D01*
Y221849D01*
X650676Y223048D01*
X653076D01*
X654275Y221849D01*
Y220649D01*
X649477D01*
X656674Y218250D02*
Y223048D01*
X657874D01*
X659074Y221849D01*
Y218250D01*
Y221849D01*
X660273Y223048D01*
X661473Y221849D01*
Y218250D01*
X663872Y215851D02*
Y223048D01*
X667471D01*
X668671Y221849D01*
Y219450D01*
X667471Y218250D01*
X663872D01*
X671070D02*
X673469D01*
X672269D01*
Y225448D01*
X671070D01*
X678267Y223048D02*
X680667D01*
X681866Y221849D01*
Y218250D01*
X678267D01*
X677068Y219450D01*
X678267Y220649D01*
X681866D01*
X685465Y224248D02*
Y223048D01*
X684266D01*
X686665D01*
X685465D01*
Y219450D01*
X686665Y218250D01*
X693862D02*
X691463D01*
X690264Y219450D01*
Y221849D01*
X691463Y223048D01*
X693862D01*
X695062Y221849D01*
Y220649D01*
X690264D01*
X567699Y218250D02*
Y225448D01*
X571298D01*
X572498Y224248D01*
Y221849D01*
X571298Y220649D01*
X567699D01*
X576097Y223048D02*
X578496D01*
X579695Y221849D01*
Y218250D01*
X576097D01*
X574897Y219450D01*
X576097Y220649D01*
X579695D01*
X586893Y225448D02*
Y218250D01*
X583294D01*
X582095Y219450D01*
Y221849D01*
X583294Y223048D01*
X586893D01*
X601289Y224248D02*
X600089Y225448D01*
X597690D01*
X596490Y224248D01*
Y223048D01*
X597690Y221849D01*
X600089D01*
X601289Y220649D01*
Y219450D01*
X600089Y218250D01*
X597690D01*
X596490Y219450D01*
X603688Y225448D02*
Y218250D01*
Y221849D01*
X604887Y223048D01*
X607287D01*
X608486Y221849D01*
Y218250D01*
X612085Y223048D02*
X614484D01*
X615684Y221849D01*
Y218250D01*
X612085D01*
X610885Y219450D01*
X612085Y220649D01*
X615684D01*
X618083Y215851D02*
Y223048D01*
X621682D01*
X622882Y221849D01*
Y219450D01*
X621682Y218250D01*
X618083D01*
X628879D02*
X626480D01*
X625281Y219450D01*
Y221849D01*
X626480Y223048D01*
X628879D01*
X630079Y221849D01*
Y220649D01*
X625281D01*
X508714Y225448D02*
Y220649D01*
X511114Y218250D01*
X513513Y220649D01*
Y225448D01*
X515912Y218250D02*
X518311D01*
X517112D01*
Y223048D01*
X515912D01*
X523110D02*
X525509D01*
X526709Y221849D01*
Y218250D01*
X523110D01*
X521910Y219450D01*
X523110Y220649D01*
X526709D01*
X529108Y218250D02*
X533906Y223048D01*
X536306Y218250D02*
Y225448D01*
X539904D01*
X541104Y224248D01*
Y221849D01*
X539904Y220649D01*
X536306D01*
X544703Y223048D02*
X547102D01*
X548302Y221849D01*
Y218250D01*
X544703D01*
X543503Y219450D01*
X544703Y220649D01*
X548302D01*
X555499Y225448D02*
Y218250D01*
X551900D01*
X550701Y219450D01*
Y221849D01*
X551900Y223048D01*
X555499D01*
X358759Y225448D02*
Y218250D01*
X362358D01*
X363558Y219450D01*
Y224248D01*
X362358Y225448D01*
X358759D01*
X365957Y223048D02*
Y218250D01*
Y220649D01*
X367157Y221849D01*
X368356Y223048D01*
X369556D01*
X373155Y218250D02*
X375554D01*
X374354D01*
Y223048D01*
X373155D01*
X379153Y218250D02*
X381552D01*
X380352D01*
Y225448D01*
X379153D01*
X385151Y218250D02*
X387550D01*
X386350D01*
Y225448D01*
X385151D01*
X398347D02*
Y218250D01*
X403145D01*
X406744Y223048D02*
X409143D01*
X410343Y221849D01*
Y218250D01*
X406744D01*
X405544Y219450D01*
X406744Y220649D01*
X410343D01*
X412742Y223048D02*
Y219450D01*
X413942Y218250D01*
X417540D01*
Y217050D01*
X416341Y215851D01*
X415141D01*
X417540Y218250D02*
Y223048D01*
X423538Y218250D02*
X421139D01*
X419940Y219450D01*
Y221849D01*
X421139Y223048D01*
X423538D01*
X424738Y221849D01*
Y220649D01*
X419940D01*
X427137Y223048D02*
Y218250D01*
Y220649D01*
X428337Y221849D01*
X429536Y223048D01*
X430736D01*
X441533Y218250D02*
Y225448D01*
X445131D01*
X446331Y224248D01*
Y221849D01*
X445131Y220649D01*
X441533D01*
X449930Y223048D02*
X452329D01*
X453529Y221849D01*
Y218250D01*
X449930D01*
X448730Y219450D01*
X449930Y220649D01*
X453529D01*
X455928Y218250D02*
X458327D01*
X457128D01*
Y223048D01*
X455928D01*
X461926D02*
Y218250D01*
Y220649D01*
X463126Y221849D01*
X464325Y223048D01*
X465525D01*
X285379Y225448D02*
Y218250D01*
Y221849D01*
X290178D01*
Y225448D01*
Y218250D01*
X293776D02*
X296176D01*
X297375Y219450D01*
Y221849D01*
X296176Y223048D01*
X293776D01*
X292577Y221849D01*
Y219450D01*
X293776Y218250D01*
X299775D02*
X302174D01*
X300974D01*
Y225448D01*
X299775D01*
X309371Y218250D02*
X306972D01*
X305773Y219450D01*
Y221849D01*
X306972Y223048D01*
X309371D01*
X310571Y221849D01*
Y220649D01*
X305773D01*
X320168Y225448D02*
X324966D01*
X322567D01*
Y218250D01*
X327366Y223048D02*
Y219450D01*
X328565Y218250D01*
X332164D01*
Y217050D01*
X330964Y215851D01*
X329765D01*
X332164Y218250D02*
Y223048D01*
X334563Y215851D02*
Y223048D01*
X338162D01*
X339362Y221849D01*
Y219450D01*
X338162Y218250D01*
X334563D01*
X345360D02*
X342961D01*
X341761Y219450D01*
Y221849D01*
X342961Y223048D01*
X345360D01*
X346559Y221849D01*
Y220649D01*
X341761D01*
X234792Y218250D02*
Y225448D01*
X238390D01*
X239590Y224248D01*
Y221849D01*
X238390Y220649D01*
X234792D01*
X241989Y218250D02*
X244389D01*
X243189D01*
Y225448D01*
X241989D01*
X249187Y223048D02*
X251586D01*
X252786Y221849D01*
Y218250D01*
X249187D01*
X247987Y219450D01*
X249187Y220649D01*
X252786D01*
X256385Y224248D02*
Y223048D01*
X255185D01*
X257584D01*
X256385D01*
Y219450D01*
X257584Y218250D01*
X264782D02*
X262383D01*
X261183Y219450D01*
Y221849D01*
X262383Y223048D01*
X264782D01*
X265982Y221849D01*
Y220649D01*
X261183D01*
X273179Y225448D02*
Y218250D01*
X269580D01*
X268381Y219450D01*
Y221849D01*
X269580Y223048D01*
X273179D01*
X124824Y225448D02*
Y218250D01*
Y221849D01*
X129622D01*
Y225448D01*
Y218250D01*
X133221D02*
X135620D01*
X136820Y219450D01*
Y221849D01*
X135620Y223048D01*
X133221D01*
X132021Y221849D01*
Y219450D01*
X133221Y218250D01*
X139219D02*
X141618D01*
X140419D01*
Y225448D01*
X139219D01*
X148816Y218250D02*
X146417D01*
X145217Y219450D01*
Y221849D01*
X146417Y223048D01*
X148816D01*
X150015Y221849D01*
Y220649D01*
X145217D01*
X164411Y224248D02*
X163211Y225448D01*
X160812D01*
X159612Y224248D01*
Y223048D01*
X160812Y221849D01*
X163211D01*
X164411Y220649D01*
Y219450D01*
X163211Y218250D01*
X160812D01*
X159612Y219450D01*
X166810Y218250D02*
X169209D01*
X168010D01*
Y223048D01*
X166810D01*
X172808D02*
X177607D01*
X172808Y218250D01*
X177607D01*
X183605D02*
X181205D01*
X180006Y219450D01*
Y221849D01*
X181205Y223048D01*
X183605D01*
X184804Y221849D01*
Y220649D01*
X180006D01*
X75636Y224248D02*
X74436Y225448D01*
X72037D01*
X70838Y224248D01*
Y219450D01*
X72037Y218250D01*
X74436D01*
X75636Y219450D01*
X79235Y218250D02*
X81634D01*
X82834Y219450D01*
Y221849D01*
X81634Y223048D01*
X79235D01*
X78035Y221849D01*
Y219450D01*
X79235Y218250D01*
X85233Y223048D02*
Y219450D01*
X86432Y218250D01*
X90031D01*
Y223048D01*
X92431Y218250D02*
Y223048D01*
X96029D01*
X97229Y221849D01*
Y218250D01*
X100828Y224248D02*
Y223048D01*
X99628D01*
X102027D01*
X100828D01*
Y219450D01*
X102027Y218250D01*
X25048Y224248D02*
X23849Y225448D01*
X21450D01*
X20250Y224248D01*
Y223048D01*
X21450Y221849D01*
X23849D01*
X25048Y220649D01*
Y219450D01*
X23849Y218250D01*
X21450D01*
X20250Y219450D01*
X27448Y223048D02*
Y219450D01*
X28647Y218250D01*
X32246D01*
Y217050D01*
X31047Y215851D01*
X29847D01*
X32246Y218250D02*
Y223048D01*
X34645Y218250D02*
Y223048D01*
X35845D01*
X37045Y221849D01*
Y218250D01*
Y221849D01*
X38244Y223048D01*
X39444Y221849D01*
Y218250D01*
X41843Y225448D02*
Y218250D01*
X45442D01*
X46641Y219450D01*
Y220649D01*
Y221849D01*
X45442Y223048D01*
X41843D01*
X50240Y218250D02*
X52640D01*
X53839Y219450D01*
Y221849D01*
X52640Y223048D01*
X50240D01*
X49041Y221849D01*
Y219450D01*
X50240Y218250D01*
X56238D02*
X58638D01*
X57438D01*
Y225448D01*
X56238D01*
M02*
